G04 #@! TF.GenerationSoftware,KiCad,Pcbnew,5.1.5+dfsg1-2build2*
G04 #@! TF.CreationDate,2021-12-18T12:39:18+01:00*
G04 #@! TF.ProjectId,MSX USB Drive,4d535820-5553-4422-9044-726976652e6b,rev?*
G04 #@! TF.SameCoordinates,Original*
G04 #@! TF.FileFunction,Copper,L1,Top*
G04 #@! TF.FilePolarity,Positive*
%FSLAX46Y46*%
G04 Gerber Fmt 4.6, Leading zero omitted, Abs format (unit mm)*
G04 Created by KiCad (PCBNEW 5.1.5+dfsg1-2build2) date 2021-12-18 12:39:18*
%MOMM*%
%LPD*%
G04 APERTURE LIST*
%ADD10O,1.700000X1.700000*%
%ADD11R,1.700000X1.700000*%
%ADD12C,1.600000*%
%ADD13R,1.600000X1.600000*%
%ADD14C,1.422400*%
%ADD15R,1.422400X1.422400*%
%ADD16C,1.397000*%
%ADD17R,1.397000X1.397000*%
%ADD18R,1.270000X7.620000*%
%ADD19C,1.000000*%
%ADD20C,0.800000*%
%ADD21C,0.400000*%
%ADD22C,0.250000*%
G04 APERTURE END LIST*
D10*
X614616000Y707962000D03*
X614616000Y710502000D03*
X617156000Y707962000D03*
X617156000Y710502000D03*
X619696000Y707962000D03*
X619696000Y710502000D03*
X622236000Y707962000D03*
X622236000Y710502000D03*
X624776000Y707962000D03*
X624776000Y710502000D03*
X627316000Y707962000D03*
X627316000Y710502000D03*
X629856000Y707962000D03*
X629856000Y710502000D03*
X632396000Y707962000D03*
X632396000Y710502000D03*
X634936000Y707962000D03*
X634936000Y710502000D03*
X637476000Y707962000D03*
X637476000Y710502000D03*
X640016000Y707962000D03*
X640016000Y710502000D03*
X642556000Y707962000D03*
X642556000Y710502000D03*
X645096000Y707962000D03*
X645096000Y710502000D03*
X647636000Y707962000D03*
X647636000Y710502000D03*
X650176000Y707962000D03*
X650176000Y710502000D03*
X652716000Y707962000D03*
X652716000Y710502000D03*
X655256000Y707962000D03*
X655256000Y710502000D03*
X657796000Y707962000D03*
X657796000Y710502000D03*
X660336000Y707962000D03*
X660336000Y710502000D03*
X662876000Y707962000D03*
X662876000Y710502000D03*
X665416000Y707962000D03*
X665416000Y710502000D03*
X667956000Y707962000D03*
X667956000Y710502000D03*
X670496000Y707962000D03*
X670496000Y710502000D03*
X673036000Y707962000D03*
X673036000Y710502000D03*
X675576000Y707962000D03*
D11*
X675576000Y710502000D03*
D12*
X623530000Y678116000D03*
D13*
X621030000Y678116000D03*
D14*
X667956000Y690626000D03*
X667956000Y688086000D03*
X667956000Y685546000D03*
X667956000Y683006000D03*
X665416000Y688086000D03*
X665416000Y685546000D03*
X665416000Y683006000D03*
X665416000Y680466000D03*
X665416000Y677926000D03*
X662876000Y677926000D03*
X660336000Y677926000D03*
X657796000Y677926000D03*
X667956000Y680466000D03*
X662876000Y680466000D03*
X660336000Y680466000D03*
X657796000Y680466000D03*
X655256000Y680466000D03*
X655256000Y683006000D03*
X655256000Y685546000D03*
X655256000Y688086000D03*
X655256000Y690626000D03*
X657796000Y683006000D03*
X657796000Y685546000D03*
X657796000Y688086000D03*
X657796000Y690626000D03*
X665416000Y693166000D03*
X662876000Y693166000D03*
X657796000Y693166000D03*
X660336000Y693166000D03*
X665416000Y690626000D03*
X660336000Y690626000D03*
D15*
X662876000Y690626000D03*
D16*
X638556000Y694690000D03*
X641096000Y692150000D03*
X641096000Y694690000D03*
X643636000Y692150000D03*
X643636000Y694690000D03*
X646176000Y692150000D03*
X643636000Y689610000D03*
X646176000Y689610000D03*
X643636000Y687070000D03*
X646176000Y687070000D03*
X643636000Y684530000D03*
X646176000Y684530000D03*
X643636000Y681990000D03*
X646176000Y681990000D03*
X643636000Y679450000D03*
X646176000Y679450000D03*
X643636000Y676910000D03*
X641096000Y679450000D03*
X641096000Y676910000D03*
X638556000Y679450000D03*
X638556000Y676910000D03*
X636016000Y679450000D03*
X636016000Y676910000D03*
X633476000Y679450000D03*
X633476000Y676910000D03*
X630936000Y679450000D03*
X630936000Y676910000D03*
X628396000Y679450000D03*
X630936000Y681990000D03*
X628396000Y681990000D03*
X630936000Y684530000D03*
X628396000Y684530000D03*
X630936000Y687070000D03*
X628396000Y687070000D03*
X630936000Y689610000D03*
X628396000Y689610000D03*
X630936000Y692150000D03*
X628396000Y692150000D03*
X630936000Y694690000D03*
X633476000Y692150000D03*
X633476000Y694690000D03*
X636016000Y692150000D03*
X636016000Y694690000D03*
D17*
X638556000Y692150000D03*
D11*
X655256000Y700659000D03*
D10*
X655256000Y703199000D03*
X652716000Y700659000D03*
X652716000Y703199000D03*
X650176000Y700659000D03*
X650176000Y703199000D03*
X647636000Y700659000D03*
X647636000Y703199000D03*
X645096000Y700659000D03*
X645096000Y703199000D03*
X642556000Y700659000D03*
X642556000Y703199000D03*
X640016000Y700659000D03*
X640016000Y703199000D03*
X637476000Y700659000D03*
X637476000Y703199000D03*
D11*
X614616000Y699389000D03*
D10*
X617156000Y699389000D03*
X614616000Y696849000D03*
X617156000Y696849000D03*
X614616000Y694309000D03*
X617156000Y694309000D03*
X614616000Y691769000D03*
X617156000Y691769000D03*
X614616000Y689229000D03*
X617156000Y689229000D03*
D18*
X617220000Y666560000D03*
X614680000Y666560000D03*
X665480000Y666560000D03*
X675640000Y666560000D03*
X668020000Y666560000D03*
X662940000Y666560000D03*
X660400000Y666560000D03*
X657860000Y666560000D03*
X670560000Y666560000D03*
X673100000Y666560000D03*
X642620000Y666560000D03*
X640080000Y666560000D03*
X637540000Y666560000D03*
X650240000Y666560000D03*
X647700000Y666560000D03*
X652780000Y666560000D03*
X645160000Y666560000D03*
X655320000Y666560000D03*
X624840000Y666560000D03*
X635000000Y666560000D03*
X632460000Y666560000D03*
X629920000Y666560000D03*
X627380000Y666560000D03*
X622300000Y667830000D03*
X619760000Y666560000D03*
D19*
X639929000Y688819000D03*
X637278000Y685337000D03*
X642536000Y685580000D03*
D20*
X649169000Y695454000D03*
X664013000Y706051000D03*
X665576000Y699517000D03*
X661233000Y704285000D03*
X650094000Y694963000D03*
X668305000Y699794000D03*
X657861000Y673562000D03*
X653883000Y671156000D03*
X669190000Y692534000D03*
X652239000Y698153000D03*
X649407000Y673207000D03*
X653681000Y704393000D03*
X657954000Y701603000D03*
X648207000Y671564000D03*
X641350000Y670696000D03*
X653131000Y677646000D03*
X639065000Y670901000D03*
X652424000Y679208000D03*
X636174000Y670696000D03*
X651344000Y675704000D03*
X660274000Y687262000D03*
X651166000Y698220000D03*
X647725000Y694463000D03*
X627073000Y687307000D03*
X647505000Y696890000D03*
X646332000Y699095000D03*
X628318000Y698081000D03*
X625926000Y673978000D03*
X638655000Y709502000D03*
X654247000Y673613000D03*
X629162000Y677064000D03*
X630278000Y697521000D03*
X630231000Y696508000D03*
X650573000Y671659000D03*
X634902000Y672146000D03*
X631826000Y703237000D03*
X626521000Y688316000D03*
X629030000Y685791000D03*
X651576000Y674488000D03*
X637670000Y674646000D03*
X652666000Y674724000D03*
X639851000Y673746000D03*
X642398000Y676116000D03*
X653575000Y676143000D03*
X657223000Y703365000D03*
X664596000Y696114000D03*
X662213000Y699164000D03*
X660105000Y696903000D03*
X650240000Y675704000D03*
X669158000Y693536000D03*
X657962000Y671457000D03*
X655738000Y671492000D03*
X670086000Y696297000D03*
X645400000Y693901000D03*
X658635000Y698201000D03*
X651096000Y694683000D03*
X635629000Y705350000D03*
X638026000Y704708000D03*
X627422000Y691174000D03*
X622364000Y696785000D03*
X618012000Y701011000D03*
X633845000Y696584000D03*
X633296000Y699108000D03*
X627422000Y697533000D03*
X623641000Y685381000D03*
X618134000Y687872000D03*
X620021000Y682898000D03*
X659899000Y682314000D03*
X656366000Y678933000D03*
X652021000Y686113000D03*
X649478000Y685640000D03*
X653480000Y694277000D03*
X649922000Y693510000D03*
X635836000Y702110000D03*
X650265000Y698737000D03*
X647305000Y690385000D03*
X646219000Y670833000D03*
X624462000Y671891000D03*
X670576000Y698123000D03*
D21*
X621030000Y678116000D02*
X622231000Y678116000D01*
X622231000Y678116000D02*
X622231000Y679317000D01*
X622231000Y679317000D02*
X624904000Y681990000D01*
X624904000Y681990000D02*
X628396000Y681990000D01*
X636016000Y692150000D02*
X636016000Y679450000D01*
X643636000Y679450000D02*
X643636000Y680436000D01*
X643636000Y680436000D02*
X642536000Y681536000D01*
X642536000Y681536000D02*
X642536000Y685580000D01*
X641096000Y694690000D02*
X641096000Y695098000D01*
X641096000Y695098000D02*
X636225000Y699969000D01*
X636225000Y699969000D02*
X636225000Y701218000D01*
X636225000Y701218000D02*
X636955000Y701948000D01*
X636955000Y701948000D02*
X637476000Y701948000D01*
X639929000Y688819000D02*
X639929000Y693523000D01*
X639929000Y693523000D02*
X641096000Y694690000D01*
X630936000Y689610000D02*
X629608000Y690938000D01*
X629608000Y690938000D02*
X629608000Y693516000D01*
X629608000Y693516000D02*
X629007000Y694117000D01*
X629007000Y694117000D02*
X629007000Y697611000D01*
X629007000Y697611000D02*
X629394000Y697998000D01*
X629394000Y697998000D02*
X629394000Y698162000D01*
X629394000Y698162000D02*
X626046000Y701510000D01*
X626046000Y701510000D02*
X626046000Y708501000D01*
X626046000Y708501000D02*
X625296000Y709251000D01*
X625296000Y709251000D02*
X624776000Y709251000D01*
X636016000Y676910000D02*
X637278000Y678172000D01*
X637278000Y678172000D02*
X637278000Y685337000D01*
X617156000Y689229000D02*
X617156000Y690480000D01*
X617156000Y699389000D02*
X617156000Y698138000D01*
X617156000Y698138000D02*
X616021000Y698138000D01*
X616021000Y698138000D02*
X615905000Y698022000D01*
X615905000Y698022000D02*
X615905000Y691211000D01*
X615905000Y691211000D02*
X616636000Y690480000D01*
X616636000Y690480000D02*
X617156000Y690480000D01*
X640016000Y703199000D02*
X638765000Y703199000D01*
X637476000Y702630000D02*
X638196000Y702630000D01*
X638196000Y702630000D02*
X638765000Y703199000D01*
X637476000Y702630000D02*
X637476000Y701948000D01*
X637476000Y703199000D02*
X637476000Y702630000D01*
X624776000Y710502000D02*
X624776000Y709251000D01*
D22*
X664013000Y706051000D02*
X664013000Y705327000D01*
X664013000Y705327000D02*
X655780000Y697094000D01*
X655780000Y697094000D02*
X655345000Y697094000D01*
X655345000Y697094000D02*
X653841000Y695590000D01*
X653841000Y695590000D02*
X650494000Y695590000D01*
X650494000Y695590000D02*
X650395000Y695689000D01*
X650395000Y695689000D02*
X649404000Y695689000D01*
X649404000Y695689000D02*
X649169000Y695454000D01*
X650094000Y694963000D02*
X650094000Y694618000D01*
X650094000Y694618000D02*
X651161000Y693551000D01*
X651161000Y693551000D02*
X654151000Y693551000D01*
X654151000Y693551000D02*
X655969000Y695369000D01*
X655969000Y695369000D02*
X662345000Y695369000D01*
X661233000Y704285000D02*
X657117000Y704285000D01*
X657117000Y704285000D02*
X656432000Y703600000D01*
X656432000Y703600000D02*
X656432000Y703199000D01*
X662345000Y695369000D02*
X665576000Y698600000D01*
X665576000Y698600000D02*
X665576000Y699517000D01*
X662345000Y695369000D02*
X664372000Y693342000D01*
X664372000Y693342000D02*
X664372000Y691670000D01*
X664372000Y691670000D02*
X665416000Y690626000D01*
X661233000Y704285000D02*
X661513000Y704565000D01*
X661513000Y704565000D02*
X661513000Y708638000D01*
X661513000Y708638000D02*
X660825000Y709326000D01*
X660825000Y709326000D02*
X660336000Y709326000D01*
X660336000Y710502000D02*
X660336000Y709326000D01*
X655256000Y703199000D02*
X656432000Y703199000D01*
X665416000Y685546000D02*
X666686000Y686816000D01*
X666686000Y686816000D02*
X668587000Y686816000D01*
X668587000Y686816000D02*
X668994000Y687223000D01*
X668994000Y687223000D02*
X668994000Y691211000D01*
X668994000Y691211000D02*
X668305000Y691900000D01*
X668305000Y691900000D02*
X668305000Y699794000D01*
X669190000Y692534000D02*
X669466000Y692258000D01*
X669466000Y692258000D02*
X669466000Y687056000D01*
X669466000Y687056000D02*
X667956000Y685546000D01*
X657861000Y673562000D02*
X656144000Y673562000D01*
X656144000Y673562000D02*
X653883000Y671301000D01*
X653883000Y671301000D02*
X653883000Y671156000D01*
X652239000Y698153000D02*
X652239000Y698174000D01*
X652239000Y698174000D02*
X651539000Y698874000D01*
X651539000Y698874000D02*
X651539000Y708452000D01*
X651539000Y708452000D02*
X650665000Y709326000D01*
X650665000Y709326000D02*
X650176000Y709326000D01*
X655256000Y690626000D02*
X654806000Y690626000D01*
X654806000Y690626000D02*
X650204000Y686024000D01*
X650204000Y686024000D02*
X650204000Y685339000D01*
X650204000Y685339000D02*
X649407000Y684542000D01*
X649407000Y684542000D02*
X649407000Y673207000D01*
X650176000Y710502000D02*
X650176000Y709326000D01*
X657954000Y701603000D02*
X657954000Y699906000D01*
X657954000Y699906000D02*
X655593000Y697545000D01*
X655593000Y697545000D02*
X655158000Y697545000D01*
X655158000Y697545000D02*
X653654000Y696041000D01*
X653654000Y696041000D02*
X650681000Y696041000D01*
X650681000Y696041000D02*
X650582000Y696140000D01*
X650582000Y696140000D02*
X649510000Y696140000D01*
X649510000Y696140000D02*
X649470000Y696180000D01*
X649470000Y696180000D02*
X649242000Y696180000D01*
X649242000Y696180000D02*
X647806000Y697616000D01*
X647806000Y697616000D02*
X647205000Y697616000D01*
X647205000Y697616000D02*
X646779000Y697190000D01*
X646779000Y697190000D02*
X646779000Y694168000D01*
X646779000Y694168000D02*
X649860000Y691087000D01*
X649860000Y691087000D02*
X649860000Y687516000D01*
X649860000Y687516000D02*
X648409000Y686065000D01*
X648409000Y686065000D02*
X648409000Y671766000D01*
X648409000Y671766000D02*
X648207000Y671564000D01*
X657796000Y693166000D02*
X655682000Y693166000D01*
X655682000Y693166000D02*
X653603000Y691087000D01*
X653603000Y691087000D02*
X649860000Y691087000D01*
X647636000Y710502000D02*
X648812000Y710502000D01*
X653681000Y704393000D02*
X653914000Y704626000D01*
X653914000Y704626000D02*
X653914000Y709067000D01*
X653914000Y709067000D02*
X653842000Y709139000D01*
X653842000Y709139000D02*
X652179000Y709139000D01*
X652179000Y709139000D02*
X651374000Y709944000D01*
X651374000Y709944000D02*
X651374000Y711607000D01*
X651374000Y711607000D02*
X651065000Y711916000D01*
X651065000Y711916000D02*
X649737000Y711916000D01*
X649737000Y711916000D02*
X648812000Y710991000D01*
X648812000Y710991000D02*
X648812000Y710502000D01*
X641096000Y676910000D02*
X641350000Y676656000D01*
X641350000Y676656000D02*
X641350000Y670696000D01*
X653131000Y677646000D02*
X653675000Y678190000D01*
X653675000Y678190000D02*
X653675000Y681425000D01*
X653675000Y681425000D02*
X655256000Y683006000D01*
X642556000Y709326000D02*
X643660000Y709326000D01*
X643660000Y709326000D02*
X643732000Y709254000D01*
X643732000Y709254000D02*
X643732000Y702094000D01*
X643732000Y702094000D02*
X643660000Y702022000D01*
X643660000Y702022000D02*
X641616000Y702022000D01*
X641616000Y702022000D02*
X641193000Y701599000D01*
X641193000Y701599000D02*
X641193000Y698406000D01*
X641193000Y698406000D02*
X642611000Y696988000D01*
X642611000Y696988000D02*
X642611000Y691138000D01*
X642611000Y691138000D02*
X642683000Y691066000D01*
X642683000Y691066000D02*
X643630000Y691066000D01*
X643630000Y691066000D02*
X644661000Y690035000D01*
X644661000Y690035000D02*
X644661000Y689185000D01*
X644661000Y689185000D02*
X644061000Y688585000D01*
X644061000Y688585000D02*
X643587000Y688585000D01*
X643587000Y688585000D02*
X641675000Y686673000D01*
X641675000Y686673000D02*
X641675000Y681652000D01*
X641675000Y681652000D02*
X642527000Y680800000D01*
X642527000Y680800000D02*
X642527000Y678341000D01*
X642527000Y678341000D02*
X641096000Y676910000D01*
X642556000Y710502000D02*
X642556000Y709326000D01*
X638478000Y675885000D02*
X635483000Y675885000D01*
X635483000Y675885000D02*
X634990000Y676378000D01*
X634990000Y676378000D02*
X634990000Y696064000D01*
X634990000Y696064000D02*
X635022000Y696096000D01*
X635022000Y696096000D02*
X635022000Y699066000D01*
X635022000Y699066000D02*
X634473000Y699615000D01*
X634473000Y699615000D02*
X634473000Y702529000D01*
X634473000Y702529000D02*
X636849000Y704905000D01*
X636849000Y704905000D02*
X636849000Y705195000D01*
X636849000Y705195000D02*
X638653000Y706999000D01*
X638653000Y706999000D02*
X638653000Y708319000D01*
X638653000Y708319000D02*
X639660000Y709326000D01*
X639660000Y709326000D02*
X640016000Y709326000D01*
X638478000Y675885000D02*
X638478000Y671488000D01*
X638478000Y671488000D02*
X639065000Y670901000D01*
X638556000Y676910000D02*
X638556000Y675963000D01*
X638556000Y675963000D02*
X638478000Y675885000D01*
X655256000Y685546000D02*
X652424000Y682714000D01*
X652424000Y682714000D02*
X652424000Y679208000D01*
X640016000Y710502000D02*
X640016000Y709326000D01*
X633476000Y676910000D02*
X633476000Y675085000D01*
X633476000Y675085000D02*
X636174000Y672387000D01*
X636174000Y672387000D02*
X636174000Y670696000D01*
X651344000Y675704000D02*
X651174000Y675874000D01*
X651174000Y675874000D02*
X651174000Y684004000D01*
X651174000Y684004000D02*
X655256000Y688086000D01*
X637476000Y709326000D02*
X636987000Y709326000D01*
X636987000Y709326000D02*
X636114000Y708453000D01*
X636114000Y708453000D02*
X636114000Y707170000D01*
X636114000Y707170000D02*
X632780000Y703836000D01*
X632780000Y703836000D02*
X632780000Y702527000D01*
X632780000Y702527000D02*
X631971000Y701718000D01*
X631971000Y701718000D02*
X631971000Y693702000D01*
X631971000Y693702000D02*
X632422000Y693251000D01*
X632422000Y693251000D02*
X632422000Y691227000D01*
X632422000Y691227000D02*
X632865000Y690784000D01*
X632865000Y690784000D02*
X632865000Y687807000D01*
X632865000Y687807000D02*
X632422000Y687364000D01*
X632422000Y687364000D02*
X632422000Y677964000D01*
X632422000Y677964000D02*
X633476000Y676910000D01*
X637476000Y710502000D02*
X637476000Y709326000D01*
X634936000Y709326000D02*
X634447000Y709326000D01*
X634447000Y709326000D02*
X633666000Y708545000D01*
X633666000Y708545000D02*
X633666000Y706376000D01*
X633666000Y706376000D02*
X630959000Y703669000D01*
X630959000Y703669000D02*
X630959000Y698505000D01*
X630959000Y698505000D02*
X631455000Y698009000D01*
X631455000Y698009000D02*
X631455000Y696705000D01*
X631455000Y696705000D02*
X629851000Y695101000D01*
X629851000Y695101000D02*
X629851000Y694326000D01*
X629851000Y694326000D02*
X630944000Y693233000D01*
X630944000Y693233000D02*
X631802000Y693233000D01*
X631802000Y693233000D02*
X631962000Y693073000D01*
X631962000Y693073000D02*
X631962000Y691049000D01*
X631962000Y691049000D02*
X632414000Y690597000D01*
X632414000Y690597000D02*
X632414000Y687994000D01*
X632414000Y687994000D02*
X631962000Y687542000D01*
X631962000Y687542000D02*
X631962000Y685556000D01*
X631962000Y685556000D02*
X630936000Y684530000D01*
X634936000Y710502000D02*
X634936000Y709326000D01*
X646272000Y700659000D02*
X646272000Y700269000D01*
X646272000Y700269000D02*
X647121000Y699420000D01*
X647121000Y699420000D02*
X648554000Y699420000D01*
X648554000Y699420000D02*
X649964000Y698010000D01*
X649964000Y698010000D02*
X650956000Y698010000D01*
X650956000Y698010000D02*
X651166000Y698220000D01*
X660336000Y680466000D02*
X661005000Y681135000D01*
X661005000Y681135000D02*
X661005000Y686531000D01*
X661005000Y686531000D02*
X660274000Y687262000D01*
X645096000Y700659000D02*
X646272000Y700659000D01*
X647725000Y694463000D02*
X647505000Y694683000D01*
X647505000Y694683000D02*
X647505000Y696890000D01*
X662876000Y680466000D02*
X661836000Y681506000D01*
X661836000Y681506000D02*
X661836000Y691626000D01*
X661836000Y691626000D02*
X661385000Y692077000D01*
X661385000Y692077000D02*
X661385000Y693617000D01*
X661385000Y693617000D02*
X660781000Y694221000D01*
X660781000Y694221000D02*
X656099000Y694221000D01*
X656099000Y694221000D02*
X654342000Y692464000D01*
X654342000Y692464000D02*
X649724000Y692464000D01*
X649724000Y692464000D02*
X647725000Y694463000D01*
X630936000Y692150000D02*
X630936000Y691210000D01*
X630936000Y691210000D02*
X631961000Y690185000D01*
X631961000Y690185000D02*
X631961000Y688863000D01*
X631961000Y688863000D02*
X631643000Y688545000D01*
X631643000Y688545000D02*
X628311000Y688545000D01*
X628311000Y688545000D02*
X627073000Y687307000D01*
X654080000Y700659000D02*
X654080000Y698967000D01*
X654080000Y698967000D02*
X652507000Y697394000D01*
X652507000Y697394000D02*
X651242000Y697394000D01*
X651242000Y697394000D02*
X651143000Y697493000D01*
X651143000Y697493000D02*
X650071000Y697493000D01*
X650071000Y697493000D02*
X650031000Y697533000D01*
X650031000Y697533000D02*
X649803000Y697533000D01*
X649803000Y697533000D02*
X648367000Y698969000D01*
X648367000Y698969000D02*
X646458000Y698969000D01*
X646458000Y698969000D02*
X646332000Y699095000D01*
X626140000Y710502000D02*
X626140000Y711606000D01*
X626140000Y711606000D02*
X626068000Y711678000D01*
X626068000Y711678000D02*
X623670000Y711678000D01*
X623670000Y711678000D02*
X623599000Y711607000D01*
X623599000Y711607000D02*
X623599000Y702800000D01*
X623599000Y702800000D02*
X628318000Y698081000D01*
X627316000Y710502000D02*
X626140000Y710502000D01*
X655256000Y700659000D02*
X654080000Y700659000D01*
X627380000Y666560000D02*
X627380000Y670696000D01*
X627380000Y670696000D02*
X625926000Y672150000D01*
X625926000Y672150000D02*
X625926000Y673978000D01*
X628492000Y707962000D02*
X628492000Y709066000D01*
X628492000Y709066000D02*
X628564000Y709138000D01*
X628564000Y709138000D02*
X630795000Y709138000D01*
X630795000Y709138000D02*
X631033000Y709376000D01*
X631033000Y709376000D02*
X631033000Y711039000D01*
X631033000Y711039000D02*
X631700000Y711706000D01*
X631700000Y711706000D02*
X638603000Y711706000D01*
X638603000Y711706000D02*
X638655000Y711654000D01*
X638655000Y711654000D02*
X638655000Y709502000D01*
X627316000Y707962000D02*
X628492000Y707962000D01*
X628396000Y689610000D02*
X626515000Y689610000D01*
X626515000Y689610000D02*
X623042000Y686137000D01*
X623042000Y686137000D02*
X623042000Y685808000D01*
X623042000Y685808000D02*
X622915000Y685681000D01*
X622915000Y685681000D02*
X622915000Y682837000D01*
X622915000Y682837000D02*
X619744000Y679666000D01*
X619744000Y679666000D02*
X619744000Y677174000D01*
X619744000Y677174000D02*
X622214000Y674704000D01*
X622214000Y674704000D02*
X626227000Y674704000D01*
X626227000Y674704000D02*
X626514500Y674416500D01*
X629920000Y670696000D02*
X626652000Y673964000D01*
X626652000Y673964000D02*
X626652000Y674279000D01*
X626652000Y674279000D02*
X626514500Y674416500D01*
X629162000Y677064000D02*
X626514500Y674416500D01*
X662876000Y677926000D02*
X661040000Y676090000D01*
X661040000Y676090000D02*
X656724000Y676090000D01*
X656724000Y676090000D02*
X654247000Y673613000D01*
X630278000Y697521000D02*
X630002000Y697797000D01*
X630002000Y697797000D02*
X630002000Y706640000D01*
X630002000Y706640000D02*
X629856000Y706786000D01*
X629856000Y707962000D02*
X629856000Y706786000D01*
X629920000Y666560000D02*
X629920000Y670696000D01*
X632460000Y666560000D02*
X632460000Y670696000D01*
X630936000Y687070000D02*
X629910000Y686044000D01*
X629910000Y686044000D02*
X629910000Y673246000D01*
X629910000Y673246000D02*
X632460000Y670696000D01*
X630231000Y696508000D02*
X630292000Y696508000D01*
X630292000Y696508000D02*
X631004000Y697220000D01*
X631004000Y697220000D02*
X631004000Y697821000D01*
X631004000Y697821000D02*
X630508000Y698317000D01*
X630508000Y698317000D02*
X630508000Y704898000D01*
X630508000Y704898000D02*
X632396000Y706786000D01*
X632396000Y707962000D02*
X632396000Y706786000D01*
X634902000Y672146000D02*
X631970000Y675078000D01*
X631970000Y675078000D02*
X631970000Y680956000D01*
X631970000Y680956000D02*
X630936000Y681990000D01*
X635000000Y666560000D02*
X635000000Y672048000D01*
X635000000Y672048000D02*
X634902000Y672146000D01*
X650573000Y671659000D02*
X650880000Y671659000D01*
X650880000Y671659000D02*
X655256000Y676035000D01*
X655256000Y676035000D02*
X655256000Y680466000D01*
X629030000Y685791000D02*
X627510000Y685791000D01*
X627510000Y685791000D02*
X626319000Y686982000D01*
X626319000Y686982000D02*
X626319000Y688114000D01*
X626319000Y688114000D02*
X626521000Y688316000D01*
X631826000Y703237000D02*
X631826000Y703521000D01*
X631826000Y703521000D02*
X634936000Y706631000D01*
X634936000Y706631000D02*
X634936000Y707962000D01*
X651576000Y674488000D02*
X651576000Y674660000D01*
X651576000Y674660000D02*
X652215000Y675299000D01*
X652215000Y675299000D02*
X652215000Y675860000D01*
X652215000Y675860000D02*
X651644000Y676431000D01*
X651644000Y676431000D02*
X651644000Y683434000D01*
X651644000Y683434000D02*
X655096000Y686886000D01*
X655096000Y686886000D02*
X656596000Y686886000D01*
X656596000Y686886000D02*
X657796000Y688086000D01*
X633476000Y679450000D02*
X634538000Y680512000D01*
X634538000Y680512000D02*
X634538000Y696250000D01*
X634538000Y696250000D02*
X634571000Y696283000D01*
X634571000Y696283000D02*
X634571000Y698446000D01*
X634571000Y698446000D02*
X634022000Y698995000D01*
X634022000Y698995000D02*
X634022000Y702716000D01*
X634022000Y702716000D02*
X636355000Y705049000D01*
X636355000Y705049000D02*
X636355000Y705665000D01*
X636355000Y705665000D02*
X637476000Y706786000D01*
X637670000Y674646000D02*
X635605000Y674646000D01*
X635605000Y674646000D02*
X634538000Y675713000D01*
X634538000Y675713000D02*
X634538000Y678388000D01*
X634538000Y678388000D02*
X633476000Y679450000D01*
X637476000Y707962000D02*
X637476000Y706786000D01*
X637540000Y670696000D02*
X637670000Y670826000D01*
X637670000Y670826000D02*
X637670000Y674646000D01*
X637540000Y666560000D02*
X637540000Y670696000D01*
X652666000Y674724000D02*
X652666000Y676047000D01*
X652666000Y676047000D02*
X652387000Y676326000D01*
X652387000Y676326000D02*
X652387000Y678143000D01*
X652387000Y678143000D02*
X653224000Y678980000D01*
X653224000Y678980000D02*
X653224000Y682688000D01*
X653224000Y682688000D02*
X654624000Y684088000D01*
X654624000Y684088000D02*
X656338000Y684088000D01*
X656338000Y684088000D02*
X657796000Y685546000D01*
X640016000Y706786000D02*
X639078000Y706786000D01*
X639078000Y706786000D02*
X637300000Y705008000D01*
X637300000Y705008000D02*
X637300000Y704718000D01*
X637300000Y704718000D02*
X635110000Y702528000D01*
X635110000Y702528000D02*
X635110000Y699659000D01*
X635110000Y699659000D02*
X637422000Y697347000D01*
X637422000Y697347000D02*
X637422000Y689295000D01*
X637422000Y689295000D02*
X638556000Y688161000D01*
X638556000Y688161000D02*
X638556000Y679450000D01*
X639851000Y673746000D02*
X639851000Y678155000D01*
X639851000Y678155000D02*
X638556000Y679450000D01*
X640080000Y670696000D02*
X640080000Y673517000D01*
X640080000Y673517000D02*
X639851000Y673746000D01*
X640080000Y666560000D02*
X640080000Y670696000D01*
X640016000Y707962000D02*
X640016000Y706786000D01*
X653575000Y676143000D02*
X654126000Y676694000D01*
X654126000Y676694000D02*
X654126000Y681237000D01*
X654126000Y681237000D02*
X654625000Y681736000D01*
X654625000Y681736000D02*
X656526000Y681736000D01*
X656526000Y681736000D02*
X657796000Y683006000D01*
X642620000Y666560000D02*
X642620000Y670696000D01*
X642620000Y670696000D02*
X642398000Y670918000D01*
X642398000Y670918000D02*
X642398000Y676116000D01*
X642556000Y706786000D02*
X641286000Y705516000D01*
X641286000Y705516000D02*
X641286000Y702567000D01*
X641286000Y702567000D02*
X640555000Y701836000D01*
X640555000Y701836000D02*
X638890000Y701836000D01*
X638890000Y701836000D02*
X638839000Y701785000D01*
X638839000Y701785000D02*
X638839000Y698705000D01*
X638839000Y698705000D02*
X642128000Y695416000D01*
X642128000Y695416000D02*
X642128000Y688402000D01*
X642128000Y688402000D02*
X641096000Y687370000D01*
X641096000Y687370000D02*
X641096000Y679450000D01*
X642556000Y707962000D02*
X642556000Y706786000D01*
X645096000Y706786000D02*
X646331000Y705551000D01*
X646331000Y705551000D02*
X646331000Y702771000D01*
X646331000Y702771000D02*
X645583000Y702023000D01*
X645583000Y702023000D02*
X644607000Y702023000D01*
X644607000Y702023000D02*
X643734000Y701150000D01*
X643734000Y701150000D02*
X643734000Y696133000D01*
X643734000Y696133000D02*
X644674000Y695193000D01*
X644674000Y695193000D02*
X644674000Y690667000D01*
X644674000Y690667000D02*
X645151000Y690190000D01*
X645151000Y690190000D02*
X645151000Y680475000D01*
X645151000Y680475000D02*
X646176000Y679450000D01*
X645160000Y670696000D02*
X645160000Y678434000D01*
X645160000Y678434000D02*
X646176000Y679450000D01*
X645160000Y666560000D02*
X645160000Y670696000D01*
X645096000Y707962000D02*
X645096000Y706786000D01*
X657223000Y703365000D02*
X657223000Y699813000D01*
X657223000Y699813000D02*
X655406000Y697996000D01*
X655406000Y697996000D02*
X654971000Y697996000D01*
X654971000Y697996000D02*
X653467000Y696492000D01*
X653467000Y696492000D02*
X650868000Y696492000D01*
X650868000Y696492000D02*
X650769000Y696591000D01*
X650769000Y696591000D02*
X649697000Y696591000D01*
X649697000Y696591000D02*
X649657000Y696631000D01*
X649657000Y696631000D02*
X649429000Y696631000D01*
X649429000Y696631000D02*
X647993000Y698067000D01*
X647993000Y698067000D02*
X647018000Y698067000D01*
X647018000Y698067000D02*
X646328000Y697377000D01*
X646328000Y697377000D02*
X646328000Y693980000D01*
X646328000Y693980000D02*
X648056000Y692252000D01*
X648056000Y692252000D02*
X648056000Y686350000D01*
X648056000Y686350000D02*
X647958000Y686252000D01*
X647958000Y686252000D02*
X647958000Y673146000D01*
X647958000Y673146000D02*
X647428000Y672616000D01*
X647428000Y672616000D02*
X647428000Y670968000D01*
X647428000Y670968000D02*
X647700000Y670696000D01*
X647700000Y666560000D02*
X647700000Y670696000D01*
X667956000Y688086000D02*
X666508000Y689534000D01*
X666508000Y689534000D02*
X666508000Y694202000D01*
X666508000Y694202000D02*
X664596000Y696114000D01*
X650240000Y675704000D02*
X650240000Y672613000D01*
X650240000Y672613000D02*
X649847000Y672220000D01*
X649847000Y672220000D02*
X649847000Y671089000D01*
X649847000Y671089000D02*
X650240000Y670696000D01*
X650240000Y675704000D02*
X650655000Y676119000D01*
X650655000Y676119000D02*
X650655000Y685837000D01*
X650655000Y685837000D02*
X654397000Y689579000D01*
X654397000Y689579000D02*
X656749000Y689579000D01*
X656749000Y689579000D02*
X657796000Y690626000D01*
X660105000Y696903000D02*
X662213000Y699011000D01*
X662213000Y699011000D02*
X662213000Y699164000D01*
X650240000Y666560000D02*
X650240000Y670696000D01*
X669158000Y693536000D02*
X669223000Y693536000D01*
X669223000Y693536000D02*
X669919000Y692840000D01*
X669919000Y692840000D02*
X669919000Y685665000D01*
X669919000Y685665000D02*
X667608000Y683354000D01*
X667608000Y683354000D02*
X666686000Y684276000D01*
X666686000Y684276000D02*
X664792000Y684276000D01*
X664792000Y684276000D02*
X663914000Y683398000D01*
X663914000Y683398000D02*
X663914000Y677039000D01*
X663914000Y677039000D02*
X659093000Y672218000D01*
X659093000Y672218000D02*
X655438000Y672218000D01*
X655438000Y672218000D02*
X654609000Y671389000D01*
X654609000Y671389000D02*
X654609000Y670855000D01*
X654609000Y670855000D02*
X654184000Y670430000D01*
X654184000Y670430000D02*
X653583000Y670430000D01*
X653583000Y670430000D02*
X653317000Y670696000D01*
X653317000Y670696000D02*
X652780000Y670696000D01*
X667608000Y683354000D02*
X667956000Y683006000D01*
X652780000Y666560000D02*
X652780000Y670696000D01*
X655738000Y671457000D02*
X655738000Y671492000D01*
X655320000Y670696000D02*
X655738000Y671114000D01*
X655738000Y671114000D02*
X655738000Y671457000D01*
X655738000Y671457000D02*
X657962000Y671457000D01*
X655320000Y666560000D02*
X655320000Y670696000D01*
X653592000Y703199000D02*
X654913000Y701878000D01*
X654913000Y701878000D02*
X656361000Y701878000D01*
X656361000Y701878000D02*
X656433000Y701806000D01*
X656433000Y701806000D02*
X656433000Y699660000D01*
X656433000Y699660000D02*
X655220000Y698447000D01*
X655220000Y698447000D02*
X654784000Y698447000D01*
X654784000Y698447000D02*
X653280000Y696943000D01*
X653280000Y696943000D02*
X651055000Y696943000D01*
X651055000Y696943000D02*
X650956000Y697042000D01*
X650956000Y697042000D02*
X649884000Y697042000D01*
X649884000Y697042000D02*
X649844000Y697082000D01*
X649844000Y697082000D02*
X649616000Y697082000D01*
X649616000Y697082000D02*
X648180000Y698518000D01*
X648180000Y698518000D02*
X646831000Y698518000D01*
X646831000Y698518000D02*
X645400000Y697087000D01*
X645400000Y697087000D02*
X645400000Y693901000D01*
X653034000Y703199000D02*
X653514000Y703199000D01*
X653514000Y703199000D02*
X657101000Y706786000D01*
X657101000Y706786000D02*
X659088000Y706786000D01*
X659088000Y706786000D02*
X659160000Y706858000D01*
X659160000Y706858000D02*
X659160000Y707962000D01*
X660336000Y707962000D02*
X659160000Y707962000D01*
X653034000Y703199000D02*
X653592000Y703199000D01*
X652716000Y703199000D02*
X653034000Y703199000D01*
X665416000Y683006000D02*
X666686000Y681736000D01*
X666686000Y681736000D02*
X668335000Y681736000D01*
X668335000Y681736000D02*
X670370000Y683771000D01*
X670370000Y683771000D02*
X670370000Y696013000D01*
X670370000Y696013000D02*
X670086000Y696297000D01*
X660400000Y670696000D02*
X664366000Y674662000D01*
X664366000Y674662000D02*
X664366000Y681956000D01*
X664366000Y681956000D02*
X665416000Y683006000D01*
X660400000Y666560000D02*
X660400000Y670696000D01*
X665480000Y670696000D02*
X669964000Y675180000D01*
X669964000Y675180000D02*
X669964000Y679060000D01*
X669964000Y679060000D02*
X671723000Y680819000D01*
X671723000Y680819000D02*
X671723000Y698041000D01*
X671723000Y698041000D02*
X666787000Y702977000D01*
X666787000Y702977000D02*
X665416000Y702977000D01*
X665416000Y702977000D02*
X663411000Y702977000D01*
X663411000Y702977000D02*
X658635000Y698201000D01*
X665416000Y706786000D02*
X665416000Y702977000D01*
X665416000Y707962000D02*
X665416000Y706786000D01*
X665480000Y666560000D02*
X665480000Y670696000D01*
X657871000Y697237000D02*
X657277000Y696643000D01*
X657277000Y696643000D02*
X655532000Y696643000D01*
X655532000Y696643000D02*
X653892000Y695003000D01*
X653892000Y695003000D02*
X651416000Y695003000D01*
X651416000Y695003000D02*
X651096000Y694683000D01*
X657871000Y697237000D02*
X657871000Y698462000D01*
X657871000Y698462000D02*
X664750000Y705341000D01*
X664750000Y705341000D02*
X664750000Y706341000D01*
X664750000Y706341000D02*
X664239000Y706852000D01*
X664239000Y706852000D02*
X664239000Y709088000D01*
X664239000Y709088000D02*
X664311000Y709160000D01*
X664311000Y709160000D02*
X671151000Y709160000D01*
X671151000Y709160000D02*
X671860000Y708451000D01*
X671860000Y708451000D02*
X671860000Y707962000D01*
X665416000Y680466000D02*
X666616000Y679266000D01*
X666616000Y679266000D02*
X668224000Y679266000D01*
X668224000Y679266000D02*
X670821000Y681863000D01*
X670821000Y681863000D02*
X670821000Y696596000D01*
X670821000Y696596000D02*
X669031000Y698386000D01*
X669031000Y698386000D02*
X669031000Y700095000D01*
X669031000Y700095000D02*
X668404000Y700722000D01*
X668404000Y700722000D02*
X662186000Y700722000D01*
X662186000Y700722000D02*
X658701000Y697237000D01*
X658701000Y697237000D02*
X657871000Y697237000D01*
X673036000Y707962000D02*
X673036000Y706786000D01*
X673100000Y666560000D02*
X673100000Y672884000D01*
X673100000Y672884000D02*
X674720000Y674504000D01*
X674720000Y674504000D02*
X674720000Y705102000D01*
X674720000Y705102000D02*
X673036000Y706786000D01*
X673036000Y707962000D02*
X671860000Y707962000D01*
X635629000Y705350000D02*
X633431000Y703152000D01*
X633431000Y703152000D02*
X633431000Y700706000D01*
X633431000Y700706000D02*
X632423000Y699698000D01*
X632423000Y699698000D02*
X632423000Y694115000D01*
X632423000Y694115000D02*
X633476000Y693062000D01*
X633476000Y693062000D02*
X633476000Y692150000D01*
X650176000Y703199000D02*
X650176000Y704375000D01*
X650176000Y704375000D02*
X648813000Y705738000D01*
X648813000Y705738000D02*
X648813000Y708488000D01*
X648813000Y708488000D02*
X647975000Y709326000D01*
X647975000Y709326000D02*
X646531000Y709326000D01*
X646531000Y709326000D02*
X646459000Y709398000D01*
X646459000Y709398000D02*
X646459000Y711442000D01*
X646459000Y711442000D02*
X646222000Y711679000D01*
X646222000Y711679000D02*
X641833000Y711679000D01*
X641833000Y711679000D02*
X641286000Y711132000D01*
X641286000Y711132000D02*
X641286000Y707217000D01*
X641286000Y707217000D02*
X638777000Y704708000D01*
X638777000Y704708000D02*
X638026000Y704708000D01*
X622364000Y696785000D02*
X622364000Y696232000D01*
X622364000Y696232000D02*
X627422000Y691174000D01*
X614616000Y699389000D02*
X615792000Y699389000D01*
X615792000Y699389000D02*
X615792000Y700565000D01*
X615792000Y700565000D02*
X616238000Y701011000D01*
X616238000Y701011000D02*
X618012000Y701011000D01*
X614616000Y698025000D02*
X613512000Y698025000D01*
X613512000Y698025000D02*
X613440000Y698097000D01*
X613440000Y698097000D02*
X613440000Y708538000D01*
X613440000Y708538000D02*
X614041000Y709139000D01*
X614041000Y709139000D02*
X620222000Y709139000D01*
X620222000Y709139000D02*
X620966000Y708395000D01*
X620966000Y708395000D02*
X620966000Y703989000D01*
X620966000Y703989000D02*
X627422000Y697533000D01*
X614616000Y696849000D02*
X614616000Y698025000D01*
X633296000Y699108000D02*
X633296000Y697133000D01*
X633296000Y697133000D02*
X633845000Y696584000D01*
X628396000Y684530000D02*
X624492000Y684530000D01*
X624492000Y684530000D02*
X623641000Y685381000D01*
X614616000Y694309000D02*
X614616000Y693133000D01*
X614616000Y693133000D02*
X613512000Y693133000D01*
X613512000Y693133000D02*
X613440000Y693061000D01*
X613440000Y693061000D02*
X613440000Y691045000D01*
X613440000Y691045000D02*
X614051000Y690434000D01*
X614051000Y690434000D02*
X615721000Y690434000D01*
X615721000Y690434000D02*
X615937000Y690218000D01*
X615937000Y690218000D02*
X615937000Y688124000D01*
X615937000Y688124000D02*
X616189000Y687872000D01*
X616189000Y687872000D02*
X618134000Y687872000D01*
X620021000Y682898000D02*
X622366000Y685243000D01*
X622366000Y685243000D02*
X622366000Y686099000D01*
X622366000Y686099000D02*
X626490000Y690223000D01*
X626490000Y690223000D02*
X627498000Y690223000D01*
X627498000Y690223000D02*
X628396000Y691121000D01*
X628396000Y691121000D02*
X628396000Y692150000D01*
X656366000Y678933000D02*
X656366000Y680572000D01*
X656366000Y680572000D02*
X657762000Y681968000D01*
X657762000Y681968000D02*
X659553000Y681968000D01*
X659553000Y681968000D02*
X659899000Y682314000D01*
X660336000Y690626000D02*
X658834000Y689124000D01*
X658834000Y689124000D02*
X654823000Y689124000D01*
X654823000Y689124000D02*
X652022000Y686323000D01*
X652022000Y686323000D02*
X652022000Y686113000D01*
X652022000Y686113000D02*
X652021000Y686113000D01*
X649478000Y685640000D02*
X649478000Y686323000D01*
X649478000Y686323000D02*
X655051000Y691896000D01*
X655051000Y691896000D02*
X659066000Y691896000D01*
X659066000Y691896000D02*
X660336000Y693166000D01*
X653480000Y694277000D02*
X654123000Y694277000D01*
X654123000Y694277000D02*
X655878000Y696032000D01*
X655878000Y696032000D02*
X660864000Y696032000D01*
X660864000Y696032000D02*
X665076000Y700244000D01*
X665076000Y700244000D02*
X666303000Y700244000D01*
X666303000Y700244000D02*
X667304000Y699243000D01*
X667304000Y699243000D02*
X667304000Y691278000D01*
X667304000Y691278000D02*
X667956000Y690626000D01*
X649922000Y693510000D02*
X650332000Y693100000D01*
X650332000Y693100000D02*
X654338000Y693100000D01*
X654338000Y693100000D02*
X655910000Y694672000D01*
X655910000Y694672000D02*
X661088000Y694672000D01*
X661088000Y694672000D02*
X661837000Y693923000D01*
X661837000Y693923000D02*
X661837000Y692263000D01*
X661837000Y692263000D02*
X662350000Y691750000D01*
X662350000Y691750000D02*
X663788000Y691750000D01*
X663788000Y691750000D02*
X663914000Y691624000D01*
X663914000Y691624000D02*
X663914000Y689588000D01*
X663914000Y689588000D02*
X665416000Y688086000D01*
X638556000Y694690000D02*
X638556000Y696851000D01*
X638556000Y696851000D02*
X635678000Y699729000D01*
X635678000Y699729000D02*
X635678000Y701952000D01*
X635678000Y701952000D02*
X635836000Y702110000D01*
X617220000Y666560000D02*
X617220000Y681374000D01*
X617220000Y681374000D02*
X618844000Y682998000D01*
X618844000Y682998000D02*
X618844000Y686917000D01*
X618844000Y686917000D02*
X619311000Y687384000D01*
X619311000Y687384000D02*
X619311000Y704631000D01*
X619311000Y704631000D02*
X617156000Y706786000D01*
X617156000Y707962000D02*
X617156000Y706786000D01*
X614680000Y666560000D02*
X614680000Y683645000D01*
X614680000Y683645000D02*
X618181000Y687146000D01*
X618181000Y687146000D02*
X618435000Y687146000D01*
X618435000Y687146000D02*
X618860000Y687571000D01*
X618860000Y687571000D02*
X618860000Y702542000D01*
X618860000Y702542000D02*
X614616000Y706786000D01*
X614616000Y707962000D02*
X614616000Y706786000D01*
X675576000Y707962000D02*
X675576000Y706786000D01*
X675640000Y666560000D02*
X675640000Y670696000D01*
X675640000Y670696000D02*
X675640000Y706722000D01*
X675640000Y706722000D02*
X675576000Y706786000D01*
X667956000Y706786000D02*
X672211000Y702531000D01*
X672211000Y702531000D02*
X672211000Y680670000D01*
X672211000Y680670000D02*
X670495000Y678954000D01*
X670495000Y678954000D02*
X670495000Y673171000D01*
X670495000Y673171000D02*
X668020000Y670696000D01*
X667956000Y707962000D02*
X667956000Y706786000D01*
X668020000Y666560000D02*
X668020000Y670696000D01*
X670496000Y707962000D02*
X670496000Y706786000D01*
X670560000Y666560000D02*
X670560000Y670696000D01*
X670560000Y670696000D02*
X671068000Y671204000D01*
X671068000Y671204000D02*
X671068000Y678888000D01*
X671068000Y678888000D02*
X672850000Y680670000D01*
X672850000Y680670000D02*
X672850000Y704432000D01*
X672850000Y704432000D02*
X670496000Y706786000D01*
X645096000Y709326000D02*
X645585000Y709326000D01*
X645585000Y709326000D02*
X646366000Y708545000D01*
X646366000Y708545000D02*
X646366000Y706634000D01*
X646366000Y706634000D02*
X648999000Y704001000D01*
X648999000Y704001000D02*
X648999000Y700003000D01*
X648999000Y700003000D02*
X650265000Y698737000D01*
X647305000Y690385000D02*
X647305000Y673574000D01*
X647305000Y673574000D02*
X646219000Y672488000D01*
X646219000Y672488000D02*
X646219000Y670833000D01*
X645096000Y710502000D02*
X645096000Y709326000D01*
X624840000Y666560000D02*
X624840000Y670696000D01*
X624840000Y670696000D02*
X624462000Y671074000D01*
X624462000Y671074000D02*
X624462000Y671891000D01*
X621030000Y671966000D02*
X619193000Y673803000D01*
X619193000Y673803000D02*
X619193000Y682070000D01*
X619193000Y682070000D02*
X619295000Y682172000D01*
X619295000Y682172000D02*
X619295000Y683198000D01*
X619295000Y683198000D02*
X619762000Y683665000D01*
X619762000Y683665000D02*
X619762000Y706720000D01*
X619762000Y706720000D02*
X619696000Y706786000D01*
X619696000Y707962000D02*
X619696000Y706786000D01*
X621030000Y671966000D02*
X622300000Y671966000D01*
X619760000Y670696000D02*
X621030000Y671966000D01*
X622300000Y667830000D02*
X622300000Y671966000D01*
X619760000Y666560000D02*
X619760000Y670696000D01*
X662940000Y670696000D02*
X669513000Y677269000D01*
X669513000Y677269000D02*
X669513000Y679886000D01*
X669513000Y679886000D02*
X671272000Y681645000D01*
X671272000Y681645000D02*
X671272000Y697427000D01*
X671272000Y697427000D02*
X670576000Y698123000D01*
X662940000Y666560000D02*
X662940000Y670696000D01*
M02*
