G04 #@! TF.GenerationSoftware,KiCad,Pcbnew,5.1.5+dfsg1-2build2*
G04 #@! TF.CreationDate,2021-12-18T12:39:18+01:00*
G04 #@! TF.ProjectId,MSX USB Drive,4d535820-5553-4422-9044-726976652e6b,rev?*
G04 #@! TF.SameCoordinates,Original*
G04 #@! TF.FileFunction,Paste,Bot*
G04 #@! TF.FilePolarity,Positive*
%FSLAX46Y46*%
G04 Gerber Fmt 4.6, Leading zero omitted, Abs format (unit mm)*
G04 Created by KiCad (PCBNEW 5.1.5+dfsg1-2build2) date 2021-12-18 12:39:18*
%MOMM*%
%LPD*%
G04 APERTURE LIST*
%ADD10C,0.100000*%
G04 APERTURE END LIST*
D10*
G36*
X635410505Y687960796D02*
G01*
X635434773Y687957196D01*
X635458572Y687951235D01*
X635481671Y687942970D01*
X635503850Y687932480D01*
X635524893Y687919868D01*
X635544599Y687905253D01*
X635562777Y687888777D01*
X635579253Y687870599D01*
X635593868Y687850893D01*
X635606480Y687829850D01*
X635616970Y687807671D01*
X635625235Y687784572D01*
X635631196Y687760773D01*
X635634796Y687736505D01*
X635636000Y687712001D01*
X635636000Y687061999D01*
X635634796Y687037495D01*
X635631196Y687013227D01*
X635625235Y686989428D01*
X635616970Y686966329D01*
X635606480Y686944150D01*
X635593868Y686923107D01*
X635579253Y686903401D01*
X635562777Y686885223D01*
X635544599Y686868747D01*
X635524893Y686854132D01*
X635503850Y686841520D01*
X635481671Y686831030D01*
X635458572Y686822765D01*
X635434773Y686816804D01*
X635410505Y686813204D01*
X635386001Y686812000D01*
X634485999Y686812000D01*
X634461495Y686813204D01*
X634437227Y686816804D01*
X634413428Y686822765D01*
X634390329Y686831030D01*
X634368150Y686841520D01*
X634347107Y686854132D01*
X634327401Y686868747D01*
X634309223Y686885223D01*
X634292747Y686903401D01*
X634278132Y686923107D01*
X634265520Y686944150D01*
X634255030Y686966329D01*
X634246765Y686989428D01*
X634240804Y687013227D01*
X634237204Y687037495D01*
X634236000Y687061999D01*
X634236000Y687712001D01*
X634237204Y687736505D01*
X634240804Y687760773D01*
X634246765Y687784572D01*
X634255030Y687807671D01*
X634265520Y687829850D01*
X634278132Y687850893D01*
X634292747Y687870599D01*
X634309223Y687888777D01*
X634327401Y687905253D01*
X634347107Y687919868D01*
X634368150Y687932480D01*
X634390329Y687942970D01*
X634413428Y687951235D01*
X634437227Y687957196D01*
X634461495Y687960796D01*
X634485999Y687962000D01*
X635386001Y687962000D01*
X635410505Y687960796D01*
G37*
G36*
X635410505Y685910796D02*
G01*
X635434773Y685907196D01*
X635458572Y685901235D01*
X635481671Y685892970D01*
X635503850Y685882480D01*
X635524893Y685869868D01*
X635544599Y685855253D01*
X635562777Y685838777D01*
X635579253Y685820599D01*
X635593868Y685800893D01*
X635606480Y685779850D01*
X635616970Y685757671D01*
X635625235Y685734572D01*
X635631196Y685710773D01*
X635634796Y685686505D01*
X635636000Y685662001D01*
X635636000Y685011999D01*
X635634796Y684987495D01*
X635631196Y684963227D01*
X635625235Y684939428D01*
X635616970Y684916329D01*
X635606480Y684894150D01*
X635593868Y684873107D01*
X635579253Y684853401D01*
X635562777Y684835223D01*
X635544599Y684818747D01*
X635524893Y684804132D01*
X635503850Y684791520D01*
X635481671Y684781030D01*
X635458572Y684772765D01*
X635434773Y684766804D01*
X635410505Y684763204D01*
X635386001Y684762000D01*
X634485999Y684762000D01*
X634461495Y684763204D01*
X634437227Y684766804D01*
X634413428Y684772765D01*
X634390329Y684781030D01*
X634368150Y684791520D01*
X634347107Y684804132D01*
X634327401Y684818747D01*
X634309223Y684835223D01*
X634292747Y684853401D01*
X634278132Y684873107D01*
X634265520Y684894150D01*
X634255030Y684916329D01*
X634246765Y684939428D01*
X634240804Y684963227D01*
X634237204Y684987495D01*
X634236000Y685011999D01*
X634236000Y685662001D01*
X634237204Y685686505D01*
X634240804Y685710773D01*
X634246765Y685734572D01*
X634255030Y685757671D01*
X634265520Y685779850D01*
X634278132Y685800893D01*
X634292747Y685820599D01*
X634309223Y685838777D01*
X634327401Y685855253D01*
X634347107Y685869868D01*
X634368150Y685882480D01*
X634390329Y685892970D01*
X634413428Y685901235D01*
X634437227Y685907196D01*
X634461495Y685910796D01*
X634485999Y685912000D01*
X635386001Y685912000D01*
X635410505Y685910796D01*
G37*
G36*
X640173505Y685910796D02*
G01*
X640197773Y685907196D01*
X640221572Y685901235D01*
X640244671Y685892970D01*
X640266850Y685882480D01*
X640287893Y685869868D01*
X640307599Y685855253D01*
X640325777Y685838777D01*
X640342253Y685820599D01*
X640356868Y685800893D01*
X640369480Y685779850D01*
X640379970Y685757671D01*
X640388235Y685734572D01*
X640394196Y685710773D01*
X640397796Y685686505D01*
X640399000Y685662001D01*
X640399000Y685011999D01*
X640397796Y684987495D01*
X640394196Y684963227D01*
X640388235Y684939428D01*
X640379970Y684916329D01*
X640369480Y684894150D01*
X640356868Y684873107D01*
X640342253Y684853401D01*
X640325777Y684835223D01*
X640307599Y684818747D01*
X640287893Y684804132D01*
X640266850Y684791520D01*
X640244671Y684781030D01*
X640221572Y684772765D01*
X640197773Y684766804D01*
X640173505Y684763204D01*
X640149001Y684762000D01*
X639248999Y684762000D01*
X639224495Y684763204D01*
X639200227Y684766804D01*
X639176428Y684772765D01*
X639153329Y684781030D01*
X639131150Y684791520D01*
X639110107Y684804132D01*
X639090401Y684818747D01*
X639072223Y684835223D01*
X639055747Y684853401D01*
X639041132Y684873107D01*
X639028520Y684894150D01*
X639018030Y684916329D01*
X639009765Y684939428D01*
X639003804Y684963227D01*
X639000204Y684987495D01*
X638999000Y685011999D01*
X638999000Y685662001D01*
X639000204Y685686505D01*
X639003804Y685710773D01*
X639009765Y685734572D01*
X639018030Y685757671D01*
X639028520Y685779850D01*
X639041132Y685800893D01*
X639055747Y685820599D01*
X639072223Y685838777D01*
X639090401Y685855253D01*
X639110107Y685869868D01*
X639131150Y685882480D01*
X639153329Y685892970D01*
X639176428Y685901235D01*
X639200227Y685907196D01*
X639224495Y685910796D01*
X639248999Y685912000D01*
X640149001Y685912000D01*
X640173505Y685910796D01*
G37*
G36*
X640173505Y687960796D02*
G01*
X640197773Y687957196D01*
X640221572Y687951235D01*
X640244671Y687942970D01*
X640266850Y687932480D01*
X640287893Y687919868D01*
X640307599Y687905253D01*
X640325777Y687888777D01*
X640342253Y687870599D01*
X640356868Y687850893D01*
X640369480Y687829850D01*
X640379970Y687807671D01*
X640388235Y687784572D01*
X640394196Y687760773D01*
X640397796Y687736505D01*
X640399000Y687712001D01*
X640399000Y687061999D01*
X640397796Y687037495D01*
X640394196Y687013227D01*
X640388235Y686989428D01*
X640379970Y686966329D01*
X640369480Y686944150D01*
X640356868Y686923107D01*
X640342253Y686903401D01*
X640325777Y686885223D01*
X640307599Y686868747D01*
X640287893Y686854132D01*
X640266850Y686841520D01*
X640244671Y686831030D01*
X640221572Y686822765D01*
X640197773Y686816804D01*
X640173505Y686813204D01*
X640149001Y686812000D01*
X639248999Y686812000D01*
X639224495Y686813204D01*
X639200227Y686816804D01*
X639176428Y686822765D01*
X639153329Y686831030D01*
X639131150Y686841520D01*
X639110107Y686854132D01*
X639090401Y686868747D01*
X639072223Y686885223D01*
X639055747Y686903401D01*
X639041132Y686923107D01*
X639028520Y686944150D01*
X639018030Y686966329D01*
X639009765Y686989428D01*
X639003804Y687013227D01*
X639000204Y687037495D01*
X638999000Y687061999D01*
X638999000Y687712001D01*
X639000204Y687736505D01*
X639003804Y687760773D01*
X639009765Y687784572D01*
X639018030Y687807671D01*
X639028520Y687829850D01*
X639041132Y687850893D01*
X639055747Y687870599D01*
X639072223Y687888777D01*
X639090401Y687905253D01*
X639110107Y687919868D01*
X639131150Y687932480D01*
X639153329Y687942970D01*
X639176428Y687951235D01*
X639200227Y687957196D01*
X639224495Y687960796D01*
X639248999Y687962000D01*
X640149001Y687962000D01*
X640173505Y687960796D01*
G37*
G36*
X662144505Y687407796D02*
G01*
X662168773Y687404196D01*
X662192572Y687398235D01*
X662215671Y687389970D01*
X662237850Y687379480D01*
X662258893Y687366868D01*
X662278599Y687352253D01*
X662296777Y687335777D01*
X662313253Y687317599D01*
X662327868Y687297893D01*
X662340480Y687276850D01*
X662350970Y687254671D01*
X662359235Y687231572D01*
X662365196Y687207773D01*
X662368796Y687183505D01*
X662370000Y687159001D01*
X662370000Y686508999D01*
X662368796Y686484495D01*
X662365196Y686460227D01*
X662359235Y686436428D01*
X662350970Y686413329D01*
X662340480Y686391150D01*
X662327868Y686370107D01*
X662313253Y686350401D01*
X662296777Y686332223D01*
X662278599Y686315747D01*
X662258893Y686301132D01*
X662237850Y686288520D01*
X662215671Y686278030D01*
X662192572Y686269765D01*
X662168773Y686263804D01*
X662144505Y686260204D01*
X662120001Y686259000D01*
X661219999Y686259000D01*
X661195495Y686260204D01*
X661171227Y686263804D01*
X661147428Y686269765D01*
X661124329Y686278030D01*
X661102150Y686288520D01*
X661081107Y686301132D01*
X661061401Y686315747D01*
X661043223Y686332223D01*
X661026747Y686350401D01*
X661012132Y686370107D01*
X660999520Y686391150D01*
X660989030Y686413329D01*
X660980765Y686436428D01*
X660974804Y686460227D01*
X660971204Y686484495D01*
X660970000Y686508999D01*
X660970000Y687159001D01*
X660971204Y687183505D01*
X660974804Y687207773D01*
X660980765Y687231572D01*
X660989030Y687254671D01*
X660999520Y687276850D01*
X661012132Y687297893D01*
X661026747Y687317599D01*
X661043223Y687335777D01*
X661061401Y687352253D01*
X661081107Y687366868D01*
X661102150Y687379480D01*
X661124329Y687389970D01*
X661147428Y687398235D01*
X661171227Y687404196D01*
X661195495Y687407796D01*
X661219999Y687409000D01*
X662120001Y687409000D01*
X662144505Y687407796D01*
G37*
G36*
X662144505Y685357796D02*
G01*
X662168773Y685354196D01*
X662192572Y685348235D01*
X662215671Y685339970D01*
X662237850Y685329480D01*
X662258893Y685316868D01*
X662278599Y685302253D01*
X662296777Y685285777D01*
X662313253Y685267599D01*
X662327868Y685247893D01*
X662340480Y685226850D01*
X662350970Y685204671D01*
X662359235Y685181572D01*
X662365196Y685157773D01*
X662368796Y685133505D01*
X662370000Y685109001D01*
X662370000Y684458999D01*
X662368796Y684434495D01*
X662365196Y684410227D01*
X662359235Y684386428D01*
X662350970Y684363329D01*
X662340480Y684341150D01*
X662327868Y684320107D01*
X662313253Y684300401D01*
X662296777Y684282223D01*
X662278599Y684265747D01*
X662258893Y684251132D01*
X662237850Y684238520D01*
X662215671Y684228030D01*
X662192572Y684219765D01*
X662168773Y684213804D01*
X662144505Y684210204D01*
X662120001Y684209000D01*
X661219999Y684209000D01*
X661195495Y684210204D01*
X661171227Y684213804D01*
X661147428Y684219765D01*
X661124329Y684228030D01*
X661102150Y684238520D01*
X661081107Y684251132D01*
X661061401Y684265747D01*
X661043223Y684282223D01*
X661026747Y684300401D01*
X661012132Y684320107D01*
X660999520Y684341150D01*
X660989030Y684363329D01*
X660980765Y684386428D01*
X660974804Y684410227D01*
X660971204Y684434495D01*
X660970000Y684458999D01*
X660970000Y685109001D01*
X660971204Y685133505D01*
X660974804Y685157773D01*
X660980765Y685181572D01*
X660989030Y685204671D01*
X660999520Y685226850D01*
X661012132Y685247893D01*
X661026747Y685267599D01*
X661043223Y685285777D01*
X661061401Y685302253D01*
X661081107Y685316868D01*
X661102150Y685329480D01*
X661124329Y685339970D01*
X661147428Y685348235D01*
X661171227Y685354196D01*
X661195495Y685357796D01*
X661219999Y685359000D01*
X662120001Y685359000D01*
X662144505Y685357796D01*
G37*
M02*
