G04 #@! TF.GenerationSoftware,KiCad,Pcbnew,5.1.5+dfsg1-2build2*
G04 #@! TF.CreationDate,2021-12-18T12:39:18+01:00*
G04 #@! TF.ProjectId,MSX USB Drive,4d535820-5553-4422-9044-726976652e6b,rev?*
G04 #@! TF.SameCoordinates,Original*
G04 #@! TF.FileFunction,Copper,L2,Bot*
G04 #@! TF.FilePolarity,Positive*
%FSLAX46Y46*%
G04 Gerber Fmt 4.6, Leading zero omitted, Abs format (unit mm)*
G04 Created by KiCad (PCBNEW 5.1.5+dfsg1-2build2) date 2021-12-18 12:39:18*
%MOMM*%
%LPD*%
G04 APERTURE LIST*
%ADD10O,1.700000X1.700000*%
%ADD11R,1.700000X1.700000*%
%ADD12C,1.600000*%
%ADD13R,1.600000X1.600000*%
%ADD14C,1.422400*%
%ADD15R,1.422400X1.422400*%
%ADD16C,1.397000*%
%ADD17R,1.397000X1.397000*%
%ADD18R,1.270000X7.620000*%
%ADD19C,0.100000*%
%ADD20C,1.000000*%
%ADD21C,0.800000*%
%ADD22C,0.400000*%
%ADD23C,0.250000*%
%ADD24C,0.254000*%
G04 APERTURE END LIST*
D10*
X614616000Y707962000D03*
X614616000Y710502000D03*
X617156000Y707962000D03*
X617156000Y710502000D03*
X619696000Y707962000D03*
X619696000Y710502000D03*
X622236000Y707962000D03*
X622236000Y710502000D03*
X624776000Y707962000D03*
X624776000Y710502000D03*
X627316000Y707962000D03*
X627316000Y710502000D03*
X629856000Y707962000D03*
X629856000Y710502000D03*
X632396000Y707962000D03*
X632396000Y710502000D03*
X634936000Y707962000D03*
X634936000Y710502000D03*
X637476000Y707962000D03*
X637476000Y710502000D03*
X640016000Y707962000D03*
X640016000Y710502000D03*
X642556000Y707962000D03*
X642556000Y710502000D03*
X645096000Y707962000D03*
X645096000Y710502000D03*
X647636000Y707962000D03*
X647636000Y710502000D03*
X650176000Y707962000D03*
X650176000Y710502000D03*
X652716000Y707962000D03*
X652716000Y710502000D03*
X655256000Y707962000D03*
X655256000Y710502000D03*
X657796000Y707962000D03*
X657796000Y710502000D03*
X660336000Y707962000D03*
X660336000Y710502000D03*
X662876000Y707962000D03*
X662876000Y710502000D03*
X665416000Y707962000D03*
X665416000Y710502000D03*
X667956000Y707962000D03*
X667956000Y710502000D03*
X670496000Y707962000D03*
X670496000Y710502000D03*
X673036000Y707962000D03*
X673036000Y710502000D03*
X675576000Y707962000D03*
D11*
X675576000Y710502000D03*
D12*
X623530000Y678116000D03*
D13*
X621030000Y678116000D03*
D14*
X667956000Y690626000D03*
X667956000Y688086000D03*
X667956000Y685546000D03*
X667956000Y683006000D03*
X665416000Y688086000D03*
X665416000Y685546000D03*
X665416000Y683006000D03*
X665416000Y680466000D03*
X665416000Y677926000D03*
X662876000Y677926000D03*
X660336000Y677926000D03*
X657796000Y677926000D03*
X667956000Y680466000D03*
X662876000Y680466000D03*
X660336000Y680466000D03*
X657796000Y680466000D03*
X655256000Y680466000D03*
X655256000Y683006000D03*
X655256000Y685546000D03*
X655256000Y688086000D03*
X655256000Y690626000D03*
X657796000Y683006000D03*
X657796000Y685546000D03*
X657796000Y688086000D03*
X657796000Y690626000D03*
X665416000Y693166000D03*
X662876000Y693166000D03*
X657796000Y693166000D03*
X660336000Y693166000D03*
X665416000Y690626000D03*
X660336000Y690626000D03*
D15*
X662876000Y690626000D03*
D16*
X638556000Y694690000D03*
X641096000Y692150000D03*
X641096000Y694690000D03*
X643636000Y692150000D03*
X643636000Y694690000D03*
X646176000Y692150000D03*
X643636000Y689610000D03*
X646176000Y689610000D03*
X643636000Y687070000D03*
X646176000Y687070000D03*
X643636000Y684530000D03*
X646176000Y684530000D03*
X643636000Y681990000D03*
X646176000Y681990000D03*
X643636000Y679450000D03*
X646176000Y679450000D03*
X643636000Y676910000D03*
X641096000Y679450000D03*
X641096000Y676910000D03*
X638556000Y679450000D03*
X638556000Y676910000D03*
X636016000Y679450000D03*
X636016000Y676910000D03*
X633476000Y679450000D03*
X633476000Y676910000D03*
X630936000Y679450000D03*
X630936000Y676910000D03*
X628396000Y679450000D03*
X630936000Y681990000D03*
X628396000Y681990000D03*
X630936000Y684530000D03*
X628396000Y684530000D03*
X630936000Y687070000D03*
X628396000Y687070000D03*
X630936000Y689610000D03*
X628396000Y689610000D03*
X630936000Y692150000D03*
X628396000Y692150000D03*
X630936000Y694690000D03*
X633476000Y692150000D03*
X633476000Y694690000D03*
X636016000Y692150000D03*
X636016000Y694690000D03*
D17*
X638556000Y692150000D03*
D11*
X655256000Y700659000D03*
D10*
X655256000Y703199000D03*
X652716000Y700659000D03*
X652716000Y703199000D03*
X650176000Y700659000D03*
X650176000Y703199000D03*
X647636000Y700659000D03*
X647636000Y703199000D03*
X645096000Y700659000D03*
X645096000Y703199000D03*
X642556000Y700659000D03*
X642556000Y703199000D03*
X640016000Y700659000D03*
X640016000Y703199000D03*
X637476000Y700659000D03*
X637476000Y703199000D03*
D11*
X614616000Y699389000D03*
D10*
X617156000Y699389000D03*
X614616000Y696849000D03*
X617156000Y696849000D03*
X614616000Y694309000D03*
X617156000Y694309000D03*
X614616000Y691769000D03*
X617156000Y691769000D03*
X614616000Y689229000D03*
X617156000Y689229000D03*
D18*
X617220000Y666560000D03*
X619760000Y666560000D03*
X675640000Y666560000D03*
X673100000Y666560000D03*
X662940000Y666560000D03*
X665480000Y666560000D03*
X657860000Y666560000D03*
X670560000Y666560000D03*
X668020000Y666560000D03*
X660400000Y666560000D03*
X642620000Y666560000D03*
X640080000Y666560000D03*
X637540000Y666560000D03*
X650240000Y666560000D03*
X655320000Y666560000D03*
X652780000Y666560000D03*
X647700000Y666560000D03*
X645160000Y666560000D03*
X635000000Y666560000D03*
X632460000Y666560000D03*
X629920000Y666560000D03*
X627380000Y666560000D03*
X622300000Y666560000D03*
X624840000Y666560000D03*
X614680000Y666560000D03*
G04 #@! TA.AperFunction,SMDPad,CuDef*
D19*
G36*
X635410505Y687960796D02*
G01*
X635434773Y687957196D01*
X635458572Y687951235D01*
X635481671Y687942970D01*
X635503850Y687932480D01*
X635524893Y687919868D01*
X635544599Y687905253D01*
X635562777Y687888777D01*
X635579253Y687870599D01*
X635593868Y687850893D01*
X635606480Y687829850D01*
X635616970Y687807671D01*
X635625235Y687784572D01*
X635631196Y687760773D01*
X635634796Y687736505D01*
X635636000Y687712001D01*
X635636000Y687061999D01*
X635634796Y687037495D01*
X635631196Y687013227D01*
X635625235Y686989428D01*
X635616970Y686966329D01*
X635606480Y686944150D01*
X635593868Y686923107D01*
X635579253Y686903401D01*
X635562777Y686885223D01*
X635544599Y686868747D01*
X635524893Y686854132D01*
X635503850Y686841520D01*
X635481671Y686831030D01*
X635458572Y686822765D01*
X635434773Y686816804D01*
X635410505Y686813204D01*
X635386001Y686812000D01*
X634485999Y686812000D01*
X634461495Y686813204D01*
X634437227Y686816804D01*
X634413428Y686822765D01*
X634390329Y686831030D01*
X634368150Y686841520D01*
X634347107Y686854132D01*
X634327401Y686868747D01*
X634309223Y686885223D01*
X634292747Y686903401D01*
X634278132Y686923107D01*
X634265520Y686944150D01*
X634255030Y686966329D01*
X634246765Y686989428D01*
X634240804Y687013227D01*
X634237204Y687037495D01*
X634236000Y687061999D01*
X634236000Y687712001D01*
X634237204Y687736505D01*
X634240804Y687760773D01*
X634246765Y687784572D01*
X634255030Y687807671D01*
X634265520Y687829850D01*
X634278132Y687850893D01*
X634292747Y687870599D01*
X634309223Y687888777D01*
X634327401Y687905253D01*
X634347107Y687919868D01*
X634368150Y687932480D01*
X634390329Y687942970D01*
X634413428Y687951235D01*
X634437227Y687957196D01*
X634461495Y687960796D01*
X634485999Y687962000D01*
X635386001Y687962000D01*
X635410505Y687960796D01*
G37*
G04 #@! TD.AperFunction*
G04 #@! TA.AperFunction,SMDPad,CuDef*
G36*
X635410505Y685910796D02*
G01*
X635434773Y685907196D01*
X635458572Y685901235D01*
X635481671Y685892970D01*
X635503850Y685882480D01*
X635524893Y685869868D01*
X635544599Y685855253D01*
X635562777Y685838777D01*
X635579253Y685820599D01*
X635593868Y685800893D01*
X635606480Y685779850D01*
X635616970Y685757671D01*
X635625235Y685734572D01*
X635631196Y685710773D01*
X635634796Y685686505D01*
X635636000Y685662001D01*
X635636000Y685011999D01*
X635634796Y684987495D01*
X635631196Y684963227D01*
X635625235Y684939428D01*
X635616970Y684916329D01*
X635606480Y684894150D01*
X635593868Y684873107D01*
X635579253Y684853401D01*
X635562777Y684835223D01*
X635544599Y684818747D01*
X635524893Y684804132D01*
X635503850Y684791520D01*
X635481671Y684781030D01*
X635458572Y684772765D01*
X635434773Y684766804D01*
X635410505Y684763204D01*
X635386001Y684762000D01*
X634485999Y684762000D01*
X634461495Y684763204D01*
X634437227Y684766804D01*
X634413428Y684772765D01*
X634390329Y684781030D01*
X634368150Y684791520D01*
X634347107Y684804132D01*
X634327401Y684818747D01*
X634309223Y684835223D01*
X634292747Y684853401D01*
X634278132Y684873107D01*
X634265520Y684894150D01*
X634255030Y684916329D01*
X634246765Y684939428D01*
X634240804Y684963227D01*
X634237204Y684987495D01*
X634236000Y685011999D01*
X634236000Y685662001D01*
X634237204Y685686505D01*
X634240804Y685710773D01*
X634246765Y685734572D01*
X634255030Y685757671D01*
X634265520Y685779850D01*
X634278132Y685800893D01*
X634292747Y685820599D01*
X634309223Y685838777D01*
X634327401Y685855253D01*
X634347107Y685869868D01*
X634368150Y685882480D01*
X634390329Y685892970D01*
X634413428Y685901235D01*
X634437227Y685907196D01*
X634461495Y685910796D01*
X634485999Y685912000D01*
X635386001Y685912000D01*
X635410505Y685910796D01*
G37*
G04 #@! TD.AperFunction*
G04 #@! TA.AperFunction,SMDPad,CuDef*
G36*
X640173505Y685910796D02*
G01*
X640197773Y685907196D01*
X640221572Y685901235D01*
X640244671Y685892970D01*
X640266850Y685882480D01*
X640287893Y685869868D01*
X640307599Y685855253D01*
X640325777Y685838777D01*
X640342253Y685820599D01*
X640356868Y685800893D01*
X640369480Y685779850D01*
X640379970Y685757671D01*
X640388235Y685734572D01*
X640394196Y685710773D01*
X640397796Y685686505D01*
X640399000Y685662001D01*
X640399000Y685011999D01*
X640397796Y684987495D01*
X640394196Y684963227D01*
X640388235Y684939428D01*
X640379970Y684916329D01*
X640369480Y684894150D01*
X640356868Y684873107D01*
X640342253Y684853401D01*
X640325777Y684835223D01*
X640307599Y684818747D01*
X640287893Y684804132D01*
X640266850Y684791520D01*
X640244671Y684781030D01*
X640221572Y684772765D01*
X640197773Y684766804D01*
X640173505Y684763204D01*
X640149001Y684762000D01*
X639248999Y684762000D01*
X639224495Y684763204D01*
X639200227Y684766804D01*
X639176428Y684772765D01*
X639153329Y684781030D01*
X639131150Y684791520D01*
X639110107Y684804132D01*
X639090401Y684818747D01*
X639072223Y684835223D01*
X639055747Y684853401D01*
X639041132Y684873107D01*
X639028520Y684894150D01*
X639018030Y684916329D01*
X639009765Y684939428D01*
X639003804Y684963227D01*
X639000204Y684987495D01*
X638999000Y685011999D01*
X638999000Y685662001D01*
X639000204Y685686505D01*
X639003804Y685710773D01*
X639009765Y685734572D01*
X639018030Y685757671D01*
X639028520Y685779850D01*
X639041132Y685800893D01*
X639055747Y685820599D01*
X639072223Y685838777D01*
X639090401Y685855253D01*
X639110107Y685869868D01*
X639131150Y685882480D01*
X639153329Y685892970D01*
X639176428Y685901235D01*
X639200227Y685907196D01*
X639224495Y685910796D01*
X639248999Y685912000D01*
X640149001Y685912000D01*
X640173505Y685910796D01*
G37*
G04 #@! TD.AperFunction*
G04 #@! TA.AperFunction,SMDPad,CuDef*
G36*
X640173505Y687960796D02*
G01*
X640197773Y687957196D01*
X640221572Y687951235D01*
X640244671Y687942970D01*
X640266850Y687932480D01*
X640287893Y687919868D01*
X640307599Y687905253D01*
X640325777Y687888777D01*
X640342253Y687870599D01*
X640356868Y687850893D01*
X640369480Y687829850D01*
X640379970Y687807671D01*
X640388235Y687784572D01*
X640394196Y687760773D01*
X640397796Y687736505D01*
X640399000Y687712001D01*
X640399000Y687061999D01*
X640397796Y687037495D01*
X640394196Y687013227D01*
X640388235Y686989428D01*
X640379970Y686966329D01*
X640369480Y686944150D01*
X640356868Y686923107D01*
X640342253Y686903401D01*
X640325777Y686885223D01*
X640307599Y686868747D01*
X640287893Y686854132D01*
X640266850Y686841520D01*
X640244671Y686831030D01*
X640221572Y686822765D01*
X640197773Y686816804D01*
X640173505Y686813204D01*
X640149001Y686812000D01*
X639248999Y686812000D01*
X639224495Y686813204D01*
X639200227Y686816804D01*
X639176428Y686822765D01*
X639153329Y686831030D01*
X639131150Y686841520D01*
X639110107Y686854132D01*
X639090401Y686868747D01*
X639072223Y686885223D01*
X639055747Y686903401D01*
X639041132Y686923107D01*
X639028520Y686944150D01*
X639018030Y686966329D01*
X639009765Y686989428D01*
X639003804Y687013227D01*
X639000204Y687037495D01*
X638999000Y687061999D01*
X638999000Y687712001D01*
X639000204Y687736505D01*
X639003804Y687760773D01*
X639009765Y687784572D01*
X639018030Y687807671D01*
X639028520Y687829850D01*
X639041132Y687850893D01*
X639055747Y687870599D01*
X639072223Y687888777D01*
X639090401Y687905253D01*
X639110107Y687919868D01*
X639131150Y687932480D01*
X639153329Y687942970D01*
X639176428Y687951235D01*
X639200227Y687957196D01*
X639224495Y687960796D01*
X639248999Y687962000D01*
X640149001Y687962000D01*
X640173505Y687960796D01*
G37*
G04 #@! TD.AperFunction*
G04 #@! TA.AperFunction,SMDPad,CuDef*
G36*
X662144505Y687407796D02*
G01*
X662168773Y687404196D01*
X662192572Y687398235D01*
X662215671Y687389970D01*
X662237850Y687379480D01*
X662258893Y687366868D01*
X662278599Y687352253D01*
X662296777Y687335777D01*
X662313253Y687317599D01*
X662327868Y687297893D01*
X662340480Y687276850D01*
X662350970Y687254671D01*
X662359235Y687231572D01*
X662365196Y687207773D01*
X662368796Y687183505D01*
X662370000Y687159001D01*
X662370000Y686508999D01*
X662368796Y686484495D01*
X662365196Y686460227D01*
X662359235Y686436428D01*
X662350970Y686413329D01*
X662340480Y686391150D01*
X662327868Y686370107D01*
X662313253Y686350401D01*
X662296777Y686332223D01*
X662278599Y686315747D01*
X662258893Y686301132D01*
X662237850Y686288520D01*
X662215671Y686278030D01*
X662192572Y686269765D01*
X662168773Y686263804D01*
X662144505Y686260204D01*
X662120001Y686259000D01*
X661219999Y686259000D01*
X661195495Y686260204D01*
X661171227Y686263804D01*
X661147428Y686269765D01*
X661124329Y686278030D01*
X661102150Y686288520D01*
X661081107Y686301132D01*
X661061401Y686315747D01*
X661043223Y686332223D01*
X661026747Y686350401D01*
X661012132Y686370107D01*
X660999520Y686391150D01*
X660989030Y686413329D01*
X660980765Y686436428D01*
X660974804Y686460227D01*
X660971204Y686484495D01*
X660970000Y686508999D01*
X660970000Y687159001D01*
X660971204Y687183505D01*
X660974804Y687207773D01*
X660980765Y687231572D01*
X660989030Y687254671D01*
X660999520Y687276850D01*
X661012132Y687297893D01*
X661026747Y687317599D01*
X661043223Y687335777D01*
X661061401Y687352253D01*
X661081107Y687366868D01*
X661102150Y687379480D01*
X661124329Y687389970D01*
X661147428Y687398235D01*
X661171227Y687404196D01*
X661195495Y687407796D01*
X661219999Y687409000D01*
X662120001Y687409000D01*
X662144505Y687407796D01*
G37*
G04 #@! TD.AperFunction*
G04 #@! TA.AperFunction,SMDPad,CuDef*
G36*
X662144505Y685357796D02*
G01*
X662168773Y685354196D01*
X662192572Y685348235D01*
X662215671Y685339970D01*
X662237850Y685329480D01*
X662258893Y685316868D01*
X662278599Y685302253D01*
X662296777Y685285777D01*
X662313253Y685267599D01*
X662327868Y685247893D01*
X662340480Y685226850D01*
X662350970Y685204671D01*
X662359235Y685181572D01*
X662365196Y685157773D01*
X662368796Y685133505D01*
X662370000Y685109001D01*
X662370000Y684458999D01*
X662368796Y684434495D01*
X662365196Y684410227D01*
X662359235Y684386428D01*
X662350970Y684363329D01*
X662340480Y684341150D01*
X662327868Y684320107D01*
X662313253Y684300401D01*
X662296777Y684282223D01*
X662278599Y684265747D01*
X662258893Y684251132D01*
X662237850Y684238520D01*
X662215671Y684228030D01*
X662192572Y684219765D01*
X662168773Y684213804D01*
X662144505Y684210204D01*
X662120001Y684209000D01*
X661219999Y684209000D01*
X661195495Y684210204D01*
X661171227Y684213804D01*
X661147428Y684219765D01*
X661124329Y684228030D01*
X661102150Y684238520D01*
X661081107Y684251132D01*
X661061401Y684265747D01*
X661043223Y684282223D01*
X661026747Y684300401D01*
X661012132Y684320107D01*
X660999520Y684341150D01*
X660989030Y684363329D01*
X660980765Y684386428D01*
X660974804Y684410227D01*
X660971204Y684434495D01*
X660970000Y684458999D01*
X660970000Y685109001D01*
X660971204Y685133505D01*
X660974804Y685157773D01*
X660980765Y685181572D01*
X660989030Y685204671D01*
X660999520Y685226850D01*
X661012132Y685247893D01*
X661026747Y685267599D01*
X661043223Y685285777D01*
X661061401Y685302253D01*
X661081107Y685316868D01*
X661102150Y685329480D01*
X661124329Y685339970D01*
X661147428Y685348235D01*
X661171227Y685354196D01*
X661195495Y685357796D01*
X661219999Y685359000D01*
X662120001Y685359000D01*
X662144505Y685357796D01*
G37*
G04 #@! TD.AperFunction*
D20*
X639929000Y688819000D03*
X637278000Y685337000D03*
X642536000Y685580000D03*
D21*
X649169000Y695454000D03*
X664013000Y706051000D03*
X665576000Y699517000D03*
X661233000Y704285000D03*
X650094000Y694963000D03*
X668305000Y699794000D03*
X657861000Y673562000D03*
X653883000Y671156000D03*
X669190000Y692534000D03*
X652239000Y698153000D03*
X649407000Y673207000D03*
X653681000Y704393000D03*
X657954000Y701603000D03*
X648207000Y671564000D03*
X641350000Y670696000D03*
X653131000Y677646000D03*
X639065000Y670901000D03*
X652424000Y679208000D03*
X636174000Y670696000D03*
X651344000Y675704000D03*
X660274000Y687262000D03*
X651166000Y698220000D03*
X647725000Y694463000D03*
X627073000Y687307000D03*
X647505000Y696890000D03*
X646332000Y699095000D03*
X628318000Y698081000D03*
X625926000Y673978000D03*
X638655000Y709502000D03*
X654247000Y673613000D03*
X629162000Y677064000D03*
X630278000Y697521000D03*
X630231000Y696508000D03*
X650573000Y671659000D03*
X634902000Y672146000D03*
X631826000Y703237000D03*
X626521000Y688316000D03*
X629030000Y685791000D03*
X651576000Y674488000D03*
X637670000Y674646000D03*
X652666000Y674724000D03*
X639851000Y673746000D03*
X642398000Y676116000D03*
X653575000Y676143000D03*
X657223000Y703365000D03*
X664596000Y696114000D03*
X662213000Y699164000D03*
X660105000Y696903000D03*
X650240000Y675704000D03*
X669158000Y693536000D03*
X657962000Y671457000D03*
X655738000Y671492000D03*
X670086000Y696297000D03*
X645400000Y693901000D03*
X658635000Y698201000D03*
X651096000Y694683000D03*
X635629000Y705350000D03*
X638026000Y704708000D03*
X627422000Y691174000D03*
X622364000Y696785000D03*
X618012000Y701011000D03*
X633845000Y696584000D03*
X633296000Y699108000D03*
X627422000Y697533000D03*
X623641000Y685381000D03*
X618134000Y687872000D03*
X620021000Y682898000D03*
X659899000Y682314000D03*
X656366000Y678933000D03*
X652021000Y686113000D03*
X649478000Y685640000D03*
X653480000Y694277000D03*
X649922000Y693510000D03*
X635836000Y702110000D03*
X650265000Y698737000D03*
X647305000Y690385000D03*
X646219000Y670833000D03*
X624462000Y671891000D03*
X670576000Y698123000D03*
D22*
X646176000Y687070000D02*
X646273000Y686973000D01*
X646273000Y686973000D02*
X659244000Y686973000D01*
X659244000Y686973000D02*
X659789000Y686428000D01*
X659789000Y686428000D02*
X661264000Y686428000D01*
X661264000Y686428000D02*
X661670000Y686834000D01*
X662876000Y693166000D02*
X662876000Y695265000D01*
X662876000Y695265000D02*
X659126000Y699015000D01*
X659126000Y699015000D02*
X658318000Y699015000D01*
X658318000Y699015000D02*
X658201000Y698898000D01*
X658201000Y698898000D02*
X653586000Y698898000D01*
X653586000Y698898000D02*
X653079000Y699405000D01*
X653079000Y699405000D02*
X652202000Y699405000D01*
X652202000Y699405000D02*
X651446000Y700161000D01*
X651446000Y700161000D02*
X651446000Y701289000D01*
X651446000Y701289000D02*
X650787000Y701948000D01*
X650787000Y701948000D02*
X643923000Y701948000D01*
X643923000Y701948000D02*
X643807000Y702064000D01*
X643807000Y702064000D02*
X643807000Y703199000D01*
X636016000Y688191000D02*
X635740000Y688191000D01*
X635740000Y688191000D02*
X634936000Y687387000D01*
X638895000Y688191000D02*
X636016000Y688191000D01*
X636016000Y688191000D02*
X636016000Y692150000D01*
X638895000Y688191000D02*
X638895000Y689059000D01*
X638895000Y689059000D02*
X639556000Y689720000D01*
X639556000Y689720000D02*
X641319000Y689720000D01*
X641319000Y689720000D02*
X642699000Y688340000D01*
X642699000Y688340000D02*
X644906000Y688340000D01*
X644906000Y688340000D02*
X646176000Y687070000D01*
X639699000Y687387000D02*
X638895000Y688191000D01*
X662876000Y693166000D02*
X661670000Y691960000D01*
X661670000Y691960000D02*
X661670000Y686834000D01*
X617156000Y695598000D02*
X616636000Y695598000D01*
X616636000Y695598000D02*
X615886000Y694848000D01*
X615886000Y694848000D02*
X615886000Y688138000D01*
X615886000Y688138000D02*
X617554000Y686470000D01*
X617554000Y686470000D02*
X617582000Y686470000D01*
X617582000Y686470000D02*
X621030000Y683022000D01*
X621030000Y683022000D02*
X621030000Y679317000D01*
X636016000Y679450000D02*
X634862000Y678296000D01*
X634862000Y678296000D02*
X629898000Y678296000D01*
X629898000Y678296000D02*
X629782000Y678412000D01*
X629782000Y678412000D02*
X629782000Y680604000D01*
X629782000Y680604000D02*
X628396000Y681990000D01*
X621030000Y678116000D02*
X621030000Y679317000D01*
X621030000Y677516000D02*
X621030000Y678116000D01*
X617156000Y696849000D02*
X617156000Y695598000D01*
X619696000Y710502000D02*
X618445000Y710502000D01*
X617156000Y710017000D02*
X617960000Y710017000D01*
X617960000Y710017000D02*
X618445000Y710502000D01*
X617156000Y710017000D02*
X617156000Y709251000D01*
X617156000Y710502000D02*
X617156000Y710017000D01*
X617156000Y696849000D02*
X617156000Y698100000D01*
X617156000Y698100000D02*
X616021000Y698100000D01*
X616021000Y698100000D02*
X615905000Y698216000D01*
X615905000Y698216000D02*
X615905000Y708520000D01*
X615905000Y708520000D02*
X616636000Y709251000D01*
X616636000Y709251000D02*
X617156000Y709251000D01*
X619760000Y670771000D02*
X621030000Y672041000D01*
X621030000Y672041000D02*
X621030000Y676915000D01*
X642556000Y703199000D02*
X643807000Y703199000D01*
X621030000Y677516000D02*
X621030000Y676915000D01*
X619760000Y666560000D02*
X619760000Y670771000D01*
X617220000Y666560000D02*
X617220000Y670771000D01*
X617220000Y670771000D02*
X619760000Y670771000D01*
X640805000Y685580000D02*
X642536000Y685580000D01*
X639699000Y685337000D02*
X640562000Y685337000D01*
X640562000Y685337000D02*
X640805000Y685580000D01*
X640805000Y685580000D02*
X640805000Y687977000D01*
X640805000Y687977000D02*
X639963000Y688819000D01*
X639963000Y688819000D02*
X639929000Y688819000D01*
X617156000Y687978000D02*
X617156000Y687718000D01*
X617156000Y687718000D02*
X617803000Y687071000D01*
X617803000Y687071000D02*
X617831000Y687071000D01*
X617831000Y687071000D02*
X623530000Y681372000D01*
X623530000Y681372000D02*
X623530000Y678116000D01*
X637278000Y685337000D02*
X634936000Y685337000D01*
X639699000Y685337000D02*
X637278000Y685337000D01*
X620985000Y710502000D02*
X620985000Y709982000D01*
X620985000Y709982000D02*
X620235000Y709232000D01*
X620235000Y709232000D02*
X618560000Y709232000D01*
X618560000Y709232000D02*
X618407000Y709079000D01*
X618407000Y709079000D02*
X618407000Y703233000D01*
X618407000Y703233000D02*
X617156000Y701982000D01*
X617156000Y701982000D02*
X617156000Y700640000D01*
X661670000Y684784000D02*
X661237000Y684784000D01*
X661237000Y684784000D02*
X659066000Y682613000D01*
X659066000Y682613000D02*
X659066000Y678848000D01*
X659066000Y678848000D02*
X659988000Y677926000D01*
X643636000Y679450000D02*
X644566000Y679450000D01*
X644566000Y679450000D02*
X645678000Y678338000D01*
X645678000Y678338000D02*
X652688000Y678338000D01*
X652688000Y678338000D02*
X652797000Y678447000D01*
X652797000Y678447000D02*
X653469000Y678447000D01*
X653469000Y678447000D02*
X655126000Y676790000D01*
X655126000Y676790000D02*
X658852000Y676790000D01*
X658852000Y676790000D02*
X659988000Y677926000D01*
X634936000Y685337000D02*
X630936000Y689337000D01*
X630936000Y689337000D02*
X630936000Y689610000D01*
X660336000Y677926000D02*
X659988000Y677926000D01*
X623530000Y670771000D02*
X624840000Y670771000D01*
X624776000Y710502000D02*
X622236000Y710502000D01*
X622300000Y670771000D02*
X623530000Y670771000D01*
X623530000Y670771000D02*
X623530000Y678116000D01*
X622236000Y710502000D02*
X620985000Y710502000D01*
X617156000Y699389000D02*
X617156000Y700640000D01*
X617156000Y689229000D02*
X617156000Y687978000D01*
X624840000Y666560000D02*
X624840000Y670771000D01*
X622300000Y666560000D02*
X622300000Y670771000D01*
D23*
X633476000Y694690000D02*
X635047000Y696261000D01*
X635047000Y696261000D02*
X645461000Y696261000D01*
X645461000Y696261000D02*
X646461000Y695261000D01*
X646461000Y695261000D02*
X648976000Y695261000D01*
X648976000Y695261000D02*
X649169000Y695454000D01*
X664201000Y706051000D02*
X664013000Y706051000D01*
X664201000Y706051000D02*
X671303000Y698949000D01*
X671303000Y698949000D02*
X671303000Y680376000D01*
X671303000Y680376000D02*
X662940000Y672013000D01*
X662940000Y672013000D02*
X662940000Y670583000D01*
X664201000Y706051000D02*
X664201000Y708348000D01*
X664201000Y708348000D02*
X663223000Y709326000D01*
X663223000Y709326000D02*
X662876000Y709326000D01*
X662940000Y666560000D02*
X662940000Y670583000D01*
X662876000Y710502000D02*
X662876000Y709326000D01*
X650094000Y694963000D02*
X649818000Y694687000D01*
X649818000Y694687000D02*
X649193000Y694687000D01*
X649193000Y694687000D02*
X648235000Y693729000D01*
X648235000Y693729000D02*
X646601000Y693729000D01*
X646601000Y693729000D02*
X645640000Y694690000D01*
X645640000Y694690000D02*
X643636000Y694690000D01*
X665576000Y699517000D02*
X670852000Y694241000D01*
X670852000Y694241000D02*
X670852000Y680564000D01*
X670852000Y680564000D02*
X660400000Y670112000D01*
X660400000Y670112000D02*
X660400000Y666560000D01*
X661233000Y704285000D02*
X665576000Y699942000D01*
X665576000Y699942000D02*
X665576000Y699517000D01*
X668305000Y699794000D02*
X661566000Y706533000D01*
X661566000Y706533000D02*
X661566000Y708436000D01*
X661566000Y708436000D02*
X660676000Y709326000D01*
X660676000Y709326000D02*
X659231000Y709326000D01*
X659231000Y709326000D02*
X659159000Y709398000D01*
X659159000Y709398000D02*
X659159000Y711442000D01*
X659159000Y711442000D02*
X658685000Y711916000D01*
X658685000Y711916000D02*
X657357000Y711916000D01*
X657357000Y711916000D02*
X656432000Y710991000D01*
X656432000Y710991000D02*
X656432000Y710502000D01*
X655256000Y710502000D02*
X656432000Y710502000D01*
X655320000Y666560000D02*
X655320000Y670696000D01*
X655320000Y670696000D02*
X656076000Y670696000D01*
X656076000Y670696000D02*
X656830000Y671450000D01*
X656830000Y671450000D02*
X656830000Y673591000D01*
X656830000Y673591000D02*
X657575000Y674336000D01*
X657575000Y674336000D02*
X658261000Y674336000D01*
X658261000Y674336000D02*
X661384000Y677459000D01*
X661384000Y677459000D02*
X661384000Y681688000D01*
X661384000Y681688000D02*
X665242000Y685546000D01*
X665242000Y685546000D02*
X665416000Y685546000D01*
X652716000Y709326000D02*
X652227000Y709326000D01*
X652227000Y709326000D02*
X651446000Y708545000D01*
X651446000Y708545000D02*
X651446000Y707558000D01*
X651446000Y707558000D02*
X652694000Y706310000D01*
X652694000Y706310000D02*
X656107000Y706310000D01*
X656107000Y706310000D02*
X663405000Y699012000D01*
X663405000Y699012000D02*
X663405000Y698490000D01*
X663405000Y698490000D02*
X665620000Y696275000D01*
X665620000Y696275000D02*
X665878000Y696275000D01*
X665878000Y696275000D02*
X668432000Y693721000D01*
X668432000Y693721000D02*
X668432000Y693009000D01*
X668432000Y693009000D02*
X668907000Y692534000D01*
X668907000Y692534000D02*
X669190000Y692534000D01*
X667956000Y685546000D02*
X666686000Y684276000D01*
X666686000Y684276000D02*
X664611000Y684276000D01*
X664611000Y684276000D02*
X661836000Y681501000D01*
X661836000Y681501000D02*
X661836000Y677150000D01*
X661836000Y677150000D02*
X658248000Y673562000D01*
X658248000Y673562000D02*
X657861000Y673562000D01*
X652780000Y670696000D02*
X653423000Y670696000D01*
X653423000Y670696000D02*
X653883000Y671156000D01*
X652780000Y666560000D02*
X652780000Y670696000D01*
X652716000Y710502000D02*
X652716000Y709326000D01*
X630936000Y676910000D02*
X634497000Y673349000D01*
X634497000Y673349000D02*
X638338000Y673349000D01*
X638338000Y673349000D02*
X638706000Y672981000D01*
X638706000Y672981000D02*
X643163000Y672981000D01*
X643163000Y672981000D02*
X643389000Y673207000D01*
X643389000Y673207000D02*
X649407000Y673207000D01*
X650240000Y670696000D02*
X650637000Y670696000D01*
X650637000Y670696000D02*
X651519000Y671578000D01*
X651519000Y671578000D02*
X653278000Y671578000D01*
X653278000Y671578000D02*
X655213000Y673513000D01*
X655213000Y673513000D02*
X655213000Y673922000D01*
X655213000Y673922000D02*
X654761000Y674374000D01*
X654761000Y674374000D02*
X653880000Y674374000D01*
X653880000Y674374000D02*
X652713000Y673207000D01*
X652713000Y673207000D02*
X649407000Y673207000D01*
X655256000Y690626000D02*
X655256000Y695136000D01*
X655256000Y695136000D02*
X652239000Y698153000D01*
X650240000Y666560000D02*
X650240000Y670696000D01*
X628396000Y679450000D02*
X628396000Y677360000D01*
X628396000Y677360000D02*
X628436000Y677320000D01*
X628436000Y677320000D02*
X628436000Y676764000D01*
X628436000Y676764000D02*
X630864000Y674336000D01*
X630864000Y674336000D02*
X631420000Y674336000D01*
X631420000Y674336000D02*
X633912000Y671844000D01*
X633912000Y671844000D02*
X634178000Y671844000D01*
X634178000Y671844000D02*
X634602000Y671420000D01*
X634602000Y671420000D02*
X635203000Y671420000D01*
X635203000Y671420000D02*
X635411000Y671628000D01*
X635411000Y671628000D02*
X646768000Y671628000D01*
X646768000Y671628000D02*
X647519500Y670876500D01*
X647519500Y670876500D02*
X648207000Y671564000D01*
X657954000Y701603000D02*
X657577000Y701980000D01*
X657577000Y701980000D02*
X654151000Y701980000D01*
X654151000Y701980000D02*
X654079000Y702052000D01*
X654079000Y702052000D02*
X654079000Y703995000D01*
X654079000Y703995000D02*
X653681000Y704393000D01*
X647700000Y670696000D02*
X647519500Y670876500D01*
X647700000Y666560000D02*
X647700000Y670696000D01*
X642620000Y670696000D02*
X641350000Y670696000D01*
X642620000Y666560000D02*
X642620000Y670696000D01*
X653131000Y677646000D02*
X644990000Y677646000D01*
X644990000Y677646000D02*
X644231000Y678405000D01*
X644231000Y678405000D02*
X642591000Y678405000D01*
X642591000Y678405000D02*
X641096000Y676910000D01*
X640080000Y670696000D02*
X639270000Y670696000D01*
X639270000Y670696000D02*
X639065000Y670901000D01*
X640080000Y666560000D02*
X640080000Y670696000D01*
X638556000Y676910000D02*
X638556000Y677549000D01*
X638556000Y677549000D02*
X639826000Y678819000D01*
X639826000Y678819000D02*
X639826000Y679648000D01*
X639826000Y679648000D02*
X640654000Y680476000D01*
X640654000Y680476000D02*
X648103000Y680476000D01*
X648103000Y680476000D02*
X649371000Y679208000D01*
X649371000Y679208000D02*
X652424000Y679208000D01*
X637540000Y670696000D02*
X636174000Y670696000D01*
X637540000Y666560000D02*
X637540000Y670696000D01*
X633476000Y676910000D02*
X634974000Y675412000D01*
X634974000Y675412000D02*
X638011000Y675412000D01*
X638011000Y675412000D02*
X638484000Y674939000D01*
X638484000Y674939000D02*
X650579000Y674939000D01*
X650579000Y674939000D02*
X651344000Y675704000D01*
X635000000Y666560000D02*
X635000000Y670696000D01*
X632450000Y680964000D02*
X632450000Y683016000D01*
X632450000Y683016000D02*
X630936000Y684530000D01*
X657796000Y677926000D02*
X654734000Y677926000D01*
X654734000Y677926000D02*
X652652000Y680008000D01*
X652652000Y680008000D02*
X649281000Y680008000D01*
X649281000Y680008000D02*
X648325000Y680964000D01*
X648325000Y680964000D02*
X632450000Y680964000D01*
X635000000Y670696000D02*
X633867000Y670696000D01*
X633867000Y670696000D02*
X627340000Y677223000D01*
X627340000Y677223000D02*
X627340000Y682972000D01*
X627340000Y682972000D02*
X627412000Y683044000D01*
X627412000Y683044000D02*
X629243000Y683044000D01*
X629243000Y683044000D02*
X629666000Y682621000D01*
X629666000Y682621000D02*
X629666000Y681465000D01*
X629666000Y681465000D02*
X630167000Y680964000D01*
X630167000Y680964000D02*
X632450000Y680964000D01*
X640016000Y701835000D02*
X639537000Y701835000D01*
X639537000Y701835000D02*
X638752000Y702620000D01*
X638752000Y702620000D02*
X638752000Y705008000D01*
X638752000Y705008000D02*
X636112000Y707648000D01*
X636112000Y707648000D02*
X636112000Y709254000D01*
X636112000Y709254000D02*
X636040000Y709326000D01*
X636040000Y709326000D02*
X634936000Y709326000D01*
X640016000Y700659000D02*
X640016000Y701835000D01*
X634936000Y710502000D02*
X634936000Y709326000D01*
X660274000Y687262000D02*
X658180000Y689356000D01*
X658180000Y689356000D02*
X654904000Y689356000D01*
X654904000Y689356000D02*
X654218000Y690042000D01*
X654218000Y690042000D02*
X654218000Y694968000D01*
X654218000Y694968000D02*
X651166000Y698020000D01*
X651166000Y698020000D02*
X651166000Y698220000D01*
X632460000Y670696000D02*
X632460000Y671464000D01*
X632460000Y671464000D02*
X626828000Y677096000D01*
X626828000Y677096000D02*
X626828000Y685502000D01*
X626828000Y685502000D02*
X628396000Y687070000D01*
X628396000Y687070000D02*
X628396000Y687468000D01*
X628396000Y687468000D02*
X626696000Y689168000D01*
X626696000Y689168000D02*
X626696000Y698127000D01*
X626696000Y698127000D02*
X628033000Y699464000D01*
X628033000Y699464000D02*
X629628000Y699464000D01*
X629628000Y699464000D02*
X632780000Y702616000D01*
X643920000Y700659000D02*
X643920000Y700341000D01*
X643920000Y700341000D02*
X642406000Y698827000D01*
X642406000Y698827000D02*
X636569000Y698827000D01*
X636569000Y698827000D02*
X632780000Y702616000D01*
X632780000Y702616000D02*
X632780000Y703310000D01*
X632780000Y703310000D02*
X631208000Y704882000D01*
X631208000Y704882000D02*
X631208000Y708627000D01*
X631208000Y708627000D02*
X631907000Y709326000D01*
X631907000Y709326000D02*
X632396000Y709326000D01*
X632460000Y666560000D02*
X632460000Y670696000D01*
X645096000Y700659000D02*
X643920000Y700659000D01*
X632396000Y710502000D02*
X632396000Y709326000D01*
X630936000Y692150000D02*
X632415000Y693629000D01*
X632415000Y693629000D02*
X636979000Y693629000D01*
X636979000Y693629000D02*
X637287000Y693937000D01*
X637287000Y693937000D02*
X637287000Y694874000D01*
X637287000Y694874000D02*
X638223000Y695810000D01*
X638223000Y695810000D02*
X645274000Y695810000D01*
X645274000Y695810000D02*
X646621000Y694463000D01*
X646621000Y694463000D02*
X647725000Y694463000D01*
X649000000Y700659000D02*
X649000000Y698385000D01*
X649000000Y698385000D02*
X647505000Y696890000D01*
X626377000Y687307000D02*
X627073000Y687307000D01*
X629856000Y709326000D02*
X629367000Y709326000D01*
X629367000Y709326000D02*
X628586000Y708545000D01*
X628586000Y708545000D02*
X628586000Y705525000D01*
X628586000Y705525000D02*
X625794000Y702733000D01*
X625794000Y702733000D02*
X625794000Y687890000D01*
X625794000Y687890000D02*
X626377000Y687307000D01*
X629920000Y666560000D02*
X629920000Y673365000D01*
X629920000Y673365000D02*
X626377000Y676908000D01*
X626377000Y676908000D02*
X626377000Y687307000D01*
X629856000Y710502000D02*
X629856000Y709326000D01*
X650176000Y700659000D02*
X649000000Y700659000D01*
X627316000Y709326000D02*
X626827000Y709326000D01*
X626827000Y709326000D02*
X626046000Y708545000D01*
X626046000Y708545000D02*
X626046000Y705848000D01*
X626046000Y705848000D02*
X624667000Y704469000D01*
X624667000Y704469000D02*
X624667000Y686020000D01*
X624667000Y686020000D02*
X625200000Y685487000D01*
X625200000Y685487000D02*
X625200000Y672876000D01*
X625200000Y672876000D02*
X627380000Y670696000D01*
X667956000Y680466000D02*
X669499000Y682009000D01*
X669499000Y682009000D02*
X669499000Y691199000D01*
X669499000Y691199000D02*
X667688000Y693010000D01*
X667688000Y693010000D02*
X667688000Y693695000D01*
X667688000Y693695000D02*
X666013000Y695370000D01*
X666013000Y695370000D02*
X664262000Y695370000D01*
X664262000Y695370000D02*
X658973000Y700659000D01*
X658973000Y700659000D02*
X656432000Y700659000D01*
X628318000Y698081000D02*
X628613000Y698376000D01*
X628613000Y698376000D02*
X645613000Y698376000D01*
X645613000Y698376000D02*
X646332000Y699095000D01*
X655256000Y700659000D02*
X656432000Y700659000D01*
X627316000Y710502000D02*
X627316000Y709326000D01*
X627380000Y666560000D02*
X627380000Y670696000D01*
X627316000Y707962000D02*
X627316000Y705717000D01*
X627316000Y705717000D02*
X625318000Y703719000D01*
X625318000Y703719000D02*
X625318000Y686326000D01*
X625318000Y686326000D02*
X625926000Y685718000D01*
X625926000Y685718000D02*
X625926000Y673978000D01*
X665416000Y677926000D02*
X666837000Y679347000D01*
X666837000Y679347000D02*
X666837000Y680889000D01*
X666837000Y680889000D02*
X667900000Y681952000D01*
X667900000Y681952000D02*
X668594000Y681952000D01*
X668594000Y681952000D02*
X669048000Y682406000D01*
X669048000Y682406000D02*
X669048000Y691011000D01*
X669048000Y691011000D02*
X667063000Y692996000D01*
X667063000Y692996000D02*
X667063000Y693680000D01*
X667063000Y693680000D02*
X665826000Y694917000D01*
X665826000Y694917000D02*
X663968000Y694917000D01*
X663968000Y694917000D02*
X659344000Y699541000D01*
X659344000Y699541000D02*
X658100000Y699541000D01*
X658100000Y699541000D02*
X657983000Y699424000D01*
X657983000Y699424000D02*
X654272000Y699424000D01*
X654272000Y699424000D02*
X653892000Y699804000D01*
X653892000Y699804000D02*
X653892000Y700659000D01*
X638655000Y709502000D02*
X639018000Y709139000D01*
X639018000Y709139000D02*
X645622000Y709139000D01*
X645622000Y709139000D02*
X646366000Y708395000D01*
X646366000Y708395000D02*
X646366000Y707532000D01*
X646366000Y707532000D02*
X649432000Y704466000D01*
X649432000Y704466000D02*
X650620000Y704466000D01*
X650620000Y704466000D02*
X651353000Y703733000D01*
X651353000Y703733000D02*
X651353000Y702709000D01*
X651353000Y702709000D02*
X652227000Y701835000D01*
X652227000Y701835000D02*
X652716000Y701835000D01*
X652716000Y700659000D02*
X652716000Y701835000D01*
X652716000Y700659000D02*
X653892000Y700659000D01*
X654247000Y673613000D02*
X653019000Y672385000D01*
X653019000Y672385000D02*
X649100000Y672385000D01*
X649100000Y672385000D02*
X648729000Y672756000D01*
X648729000Y672756000D02*
X643576000Y672756000D01*
X643576000Y672756000D02*
X643350000Y672530000D01*
X643350000Y672530000D02*
X638519000Y672530000D01*
X638519000Y672530000D02*
X638151000Y672898000D01*
X638151000Y672898000D02*
X633498000Y672898000D01*
X633498000Y672898000D02*
X629332000Y677064000D01*
X629332000Y677064000D02*
X629162000Y677064000D01*
X647636000Y699483000D02*
X647636000Y699357000D01*
X647636000Y699357000D02*
X646087000Y697808000D01*
X646087000Y697808000D02*
X630565000Y697808000D01*
X630565000Y697808000D02*
X630278000Y697521000D01*
X628396000Y689610000D02*
X629422000Y690636000D01*
X629422000Y690636000D02*
X629422000Y697132000D01*
X629422000Y697132000D02*
X629811000Y697521000D01*
X629811000Y697521000D02*
X630278000Y697521000D01*
X647636000Y700659000D02*
X647636000Y699483000D01*
X657796000Y680466000D02*
X656759000Y681503000D01*
X656759000Y681503000D02*
X650054000Y681503000D01*
X650054000Y681503000D02*
X648169000Y683388000D01*
X648169000Y683388000D02*
X634618000Y683388000D01*
X634618000Y683388000D02*
X630936000Y687070000D01*
X641380000Y700659000D02*
X641380000Y700068000D01*
X641380000Y700068000D02*
X640738000Y699426000D01*
X640738000Y699426000D02*
X636956000Y699426000D01*
X636956000Y699426000D02*
X633231000Y703151000D01*
X633231000Y703151000D02*
X633231000Y703497000D01*
X633231000Y703497000D02*
X632396000Y704332000D01*
X632396000Y704332000D02*
X632396000Y707962000D01*
X630936000Y687070000D02*
X629888000Y688118000D01*
X629888000Y688118000D02*
X629888000Y696165000D01*
X629888000Y696165000D02*
X630231000Y696508000D01*
X642556000Y700659000D02*
X641380000Y700659000D01*
X634902000Y672146000D02*
X634969000Y672079000D01*
X634969000Y672079000D02*
X643537000Y672079000D01*
X643537000Y672079000D02*
X643763000Y672305000D01*
X643763000Y672305000D02*
X648542000Y672305000D01*
X648542000Y672305000D02*
X649188000Y671659000D01*
X649188000Y671659000D02*
X650573000Y671659000D01*
X626521000Y688316000D02*
X626245000Y688592000D01*
X626245000Y688592000D02*
X626245000Y698314000D01*
X626245000Y698314000D02*
X631168000Y703237000D01*
X631168000Y703237000D02*
X631826000Y703237000D01*
X634936000Y706786000D02*
X634903000Y706753000D01*
X634903000Y706753000D02*
X634903000Y704108000D01*
X634903000Y704108000D02*
X637176000Y701835000D01*
X637176000Y701835000D02*
X637476000Y701835000D01*
X637476000Y700659000D02*
X637476000Y701835000D01*
X634936000Y707962000D02*
X634936000Y706786000D01*
X630936000Y681990000D02*
X629609000Y683317000D01*
X629609000Y683317000D02*
X629609000Y685212000D01*
X629609000Y685212000D02*
X629030000Y685791000D01*
X637670000Y674646000D02*
X637828000Y674488000D01*
X637828000Y674488000D02*
X651576000Y674488000D01*
X652666000Y674724000D02*
X652666000Y674548000D01*
X652666000Y674548000D02*
X651864000Y673746000D01*
X651864000Y673746000D02*
X649895000Y673746000D01*
X649895000Y673746000D02*
X649707000Y673934000D01*
X649707000Y673934000D02*
X640039000Y673934000D01*
X640039000Y673934000D02*
X639851000Y673746000D01*
X642398000Y675885000D02*
X649048000Y675885000D01*
X649048000Y675885000D02*
X649593000Y676430000D01*
X649593000Y676430000D02*
X653288000Y676430000D01*
X653288000Y676430000D02*
X653575000Y676143000D01*
X642398000Y675885000D02*
X640672000Y675885000D01*
X640672000Y675885000D02*
X640051000Y676506000D01*
X640051000Y676506000D02*
X640051000Y678405000D01*
X640051000Y678405000D02*
X641096000Y679450000D01*
X642398000Y675885000D02*
X642398000Y676116000D01*
X647636000Y703199000D02*
X647636000Y704375000D01*
X642556000Y707962000D02*
X643732000Y707962000D01*
X643732000Y707962000D02*
X643732000Y707614000D01*
X643732000Y707614000D02*
X646971000Y704375000D01*
X646971000Y704375000D02*
X647636000Y704375000D01*
X648812000Y707962000D02*
X648812000Y707512000D01*
X648812000Y707512000D02*
X651205000Y705119000D01*
X651205000Y705119000D02*
X655469000Y705119000D01*
X655469000Y705119000D02*
X657223000Y703365000D01*
X657223000Y703365000D02*
X661487000Y699101000D01*
X661487000Y699101000D02*
X661487000Y698807000D01*
X661487000Y698807000D02*
X664180000Y696114000D01*
X664180000Y696114000D02*
X664596000Y696114000D01*
X647636000Y707962000D02*
X648812000Y707962000D01*
X662213000Y699164000D02*
X662213000Y699565000D01*
X662213000Y699565000D02*
X656207000Y705571000D01*
X656207000Y705571000D02*
X652567000Y705571000D01*
X652567000Y705571000D02*
X650176000Y707962000D01*
X657796000Y690626000D02*
X658905000Y691735000D01*
X658905000Y691735000D02*
X658905000Y695703000D01*
X658905000Y695703000D02*
X660105000Y696903000D01*
X630936000Y679450000D02*
X631990000Y680504000D01*
X631990000Y680504000D02*
X636970000Y680504000D01*
X636970000Y680504000D02*
X637070000Y680404000D01*
X637070000Y680404000D02*
X637070000Y676946000D01*
X637070000Y676946000D02*
X638153000Y675863000D01*
X638153000Y675863000D02*
X638767000Y675863000D01*
X638767000Y675863000D02*
X639240000Y675390000D01*
X639240000Y675390000D02*
X649926000Y675390000D01*
X649926000Y675390000D02*
X650240000Y675704000D01*
X653892000Y707962000D02*
X653892000Y707590000D01*
X653892000Y707590000D02*
X654721000Y706761000D01*
X654721000Y706761000D02*
X656318000Y706761000D01*
X656318000Y706761000D02*
X663948000Y699131000D01*
X663948000Y699131000D02*
X663948000Y698585000D01*
X663948000Y698585000D02*
X665807000Y696726000D01*
X665807000Y696726000D02*
X666065000Y696726000D01*
X666065000Y696726000D02*
X669158000Y693633000D01*
X669158000Y693633000D02*
X669158000Y693536000D01*
X652716000Y707962000D02*
X653892000Y707962000D01*
X656432000Y707962000D02*
X656432000Y707284000D01*
X656432000Y707284000D02*
X664399000Y699317000D01*
X664399000Y699317000D02*
X664399000Y698772000D01*
X664399000Y698772000D02*
X665994000Y697177000D01*
X665994000Y697177000D02*
X666544000Y697177000D01*
X666544000Y697177000D02*
X669950000Y693771000D01*
X669950000Y693771000D02*
X669950000Y680938000D01*
X669950000Y680938000D02*
X660469000Y671457000D01*
X660469000Y671457000D02*
X657962000Y671457000D01*
X655256000Y707962000D02*
X656432000Y707962000D01*
X655738000Y671492000D02*
X655738000Y675433000D01*
X655738000Y675433000D02*
X654261000Y676910000D01*
X654261000Y676910000D02*
X643636000Y676910000D01*
X660336000Y706786000D02*
X660336000Y706561000D01*
X660336000Y706561000D02*
X670086000Y696811000D01*
X670086000Y696811000D02*
X670086000Y696297000D01*
X660336000Y707962000D02*
X660336000Y706786000D01*
X638556000Y693174000D02*
X638802000Y693420000D01*
X638802000Y693420000D02*
X644919000Y693420000D01*
X644919000Y693420000D02*
X645400000Y693901000D01*
X638556000Y692150000D02*
X638556000Y693174000D01*
X658635000Y698201000D02*
X653218000Y698201000D01*
X653218000Y698201000D02*
X652540000Y698879000D01*
X652540000Y698879000D02*
X651984000Y698879000D01*
X651984000Y698879000D02*
X651382000Y699481000D01*
X651382000Y699481000D02*
X649585000Y699481000D01*
X649585000Y699481000D02*
X649513000Y699409000D01*
X649513000Y699409000D02*
X649513000Y697482000D01*
X649513000Y697482000D02*
X648194000Y696163000D01*
X648194000Y696163000D02*
X646835000Y696163000D01*
X646835000Y696163000D02*
X645641000Y697357000D01*
X645641000Y697357000D02*
X633592000Y697357000D01*
X633592000Y697357000D02*
X630936000Y694701000D01*
X630936000Y694701000D02*
X630936000Y694690000D01*
X651096000Y694683000D02*
X650649000Y694236000D01*
X650649000Y694236000D02*
X649380000Y694236000D01*
X649380000Y694236000D02*
X648405000Y693261000D01*
X648405000Y693261000D02*
X645837000Y693261000D01*
X645837000Y693261000D02*
X644726000Y692150000D01*
X644726000Y692150000D02*
X643636000Y692150000D01*
X638026000Y704708000D02*
X637384000Y705350000D01*
X637384000Y705350000D02*
X635629000Y705350000D01*
X643636000Y681990000D02*
X634929000Y681990000D01*
X634929000Y681990000D02*
X630958000Y685961000D01*
X630958000Y685961000D02*
X630596000Y685961000D01*
X630596000Y685961000D02*
X629911000Y686646000D01*
X629911000Y686646000D02*
X629911000Y687456000D01*
X629911000Y687456000D02*
X629027000Y688340000D01*
X629027000Y688340000D02*
X628194000Y688340000D01*
X628194000Y688340000D02*
X627197000Y689337000D01*
X627197000Y689337000D02*
X627197000Y690949000D01*
X627197000Y690949000D02*
X627422000Y691174000D01*
X618012000Y701011000D02*
X618138000Y701011000D01*
X618138000Y701011000D02*
X622364000Y696785000D01*
X633845000Y696584000D02*
X634167000Y696906000D01*
X634167000Y696906000D02*
X645454000Y696906000D01*
X645454000Y696906000D02*
X646648000Y695712000D01*
X646648000Y695712000D02*
X648401000Y695712000D01*
X648401000Y695712000D02*
X648869000Y696180000D01*
X648869000Y696180000D02*
X650626000Y696180000D01*
X650626000Y696180000D02*
X651923000Y694883000D01*
X651923000Y694883000D02*
X651923000Y694482000D01*
X651923000Y694482000D02*
X649047000Y691606000D01*
X649047000Y691606000D02*
X647200000Y691606000D01*
X647200000Y691606000D02*
X646474000Y690880000D01*
X646474000Y690880000D02*
X644906000Y690880000D01*
X644906000Y690880000D02*
X643636000Y689610000D01*
X627422000Y697533000D02*
X627422000Y698215000D01*
X627422000Y698215000D02*
X628060000Y698853000D01*
X628060000Y698853000D02*
X633041000Y698853000D01*
X633041000Y698853000D02*
X633296000Y699108000D01*
X618134000Y687872000D02*
X621150000Y687872000D01*
X621150000Y687872000D02*
X623641000Y685381000D01*
X614616000Y689229000D02*
X614616000Y683691000D01*
X614616000Y683691000D02*
X616082000Y682225000D01*
X616082000Y682225000D02*
X619348000Y682225000D01*
X619348000Y682225000D02*
X620021000Y682898000D01*
X646176000Y684530000D02*
X646430000Y684276000D01*
X646430000Y684276000D02*
X658431000Y684276000D01*
X658431000Y684276000D02*
X660036000Y685881000D01*
X660036000Y685881000D02*
X662626000Y685881000D01*
X662626000Y685881000D02*
X663986000Y687241000D01*
X663986000Y687241000D02*
X663986000Y691736000D01*
X663986000Y691736000D02*
X665416000Y693166000D01*
X646176000Y681990000D02*
X648185000Y681990000D01*
X648185000Y681990000D02*
X649716000Y680459000D01*
X649716000Y680459000D02*
X652839000Y680459000D01*
X652839000Y680459000D02*
X654365000Y678933000D01*
X654365000Y678933000D02*
X656366000Y678933000D01*
X662876000Y691663000D02*
X664307000Y693094000D01*
X664307000Y693094000D02*
X664307000Y693775000D01*
X664307000Y693775000D02*
X664773000Y694241000D01*
X664773000Y694241000D02*
X665864000Y694241000D01*
X665864000Y694241000D02*
X666470000Y693635000D01*
X666470000Y693635000D02*
X666470000Y687111000D01*
X666470000Y687111000D02*
X666398000Y687039000D01*
X666398000Y687039000D02*
X665442000Y687039000D01*
X665442000Y687039000D02*
X663223000Y684820000D01*
X663223000Y684820000D02*
X663223000Y684321000D01*
X663223000Y684321000D02*
X661216000Y682314000D01*
X661216000Y682314000D02*
X659899000Y682314000D01*
X662876000Y690626000D02*
X662876000Y691663000D01*
X643636000Y687070000D02*
X644694000Y686012000D01*
X644694000Y686012000D02*
X648824000Y686012000D01*
X648824000Y686012000D02*
X649178000Y686366000D01*
X649178000Y686366000D02*
X651768000Y686366000D01*
X651768000Y686366000D02*
X652021000Y686113000D01*
X643636000Y684530000D02*
X644666000Y685560000D01*
X644666000Y685560000D02*
X649398000Y685560000D01*
X649398000Y685560000D02*
X649478000Y685640000D01*
X646176000Y689610000D02*
X648813000Y689610000D01*
X648813000Y689610000D02*
X653480000Y694277000D01*
X649922000Y693510000D02*
X648562000Y692150000D01*
X648562000Y692150000D02*
X646176000Y692150000D01*
X657796000Y709326000D02*
X658285000Y709326000D01*
X658285000Y709326000D02*
X659158000Y708453000D01*
X659158000Y708453000D02*
X659158000Y705281000D01*
X659158000Y705281000D02*
X664850000Y699589000D01*
X664850000Y699589000D02*
X664850000Y698959000D01*
X664850000Y698959000D02*
X666181000Y697628000D01*
X666181000Y697628000D02*
X666811000Y697628000D01*
X666811000Y697628000D02*
X670401000Y694038000D01*
X670401000Y694038000D02*
X670401000Y680750000D01*
X670401000Y680750000D02*
X660347000Y670696000D01*
X660347000Y670696000D02*
X657860000Y670696000D01*
X657796000Y709326000D02*
X654532000Y709326000D01*
X654532000Y709326000D02*
X653914000Y709944000D01*
X653914000Y709944000D02*
X653914000Y711607000D01*
X653914000Y711607000D02*
X653842000Y711679000D01*
X653842000Y711679000D02*
X634213000Y711679000D01*
X634213000Y711679000D02*
X633593000Y711059000D01*
X633593000Y711059000D02*
X633593000Y704353000D01*
X633593000Y704353000D02*
X635836000Y702110000D01*
X657796000Y709360000D02*
X657796000Y709326000D01*
X657796000Y710502000D02*
X657796000Y709360000D01*
X657860000Y666560000D02*
X657860000Y670696000D01*
X675576000Y710502000D02*
X675576000Y709326000D01*
X675640000Y666560000D02*
X675640000Y670696000D01*
X675640000Y670696000D02*
X676752000Y671808000D01*
X676752000Y671808000D02*
X676752000Y709254000D01*
X676752000Y709254000D02*
X676680000Y709326000D01*
X676680000Y709326000D02*
X675576000Y709326000D01*
X673036000Y710502000D02*
X673036000Y709326000D01*
X673100000Y666560000D02*
X673100000Y672613000D01*
X673100000Y672613000D02*
X674697000Y674210000D01*
X674697000Y674210000D02*
X674697000Y693001000D01*
X674697000Y693001000D02*
X674306000Y693392000D01*
X674306000Y693392000D02*
X674306000Y708545000D01*
X674306000Y708545000D02*
X673525000Y709326000D01*
X673525000Y709326000D02*
X673036000Y709326000D01*
X665416000Y710502000D02*
X665416000Y709326000D01*
X665480000Y666560000D02*
X665480000Y673916000D01*
X665480000Y673916000D02*
X671978000Y680414000D01*
X671978000Y680414000D02*
X671978000Y700368000D01*
X671978000Y700368000D02*
X666686000Y705660000D01*
X666686000Y705660000D02*
X666686000Y708545000D01*
X666686000Y708545000D02*
X665905000Y709326000D01*
X665905000Y709326000D02*
X665416000Y709326000D01*
X668020000Y666560000D02*
X668020000Y675817000D01*
X668020000Y675817000D02*
X672430000Y680227000D01*
X672430000Y680227000D02*
X672430000Y702233000D01*
X672430000Y702233000D02*
X669226000Y705437000D01*
X669226000Y705437000D02*
X669226000Y708545000D01*
X669226000Y708545000D02*
X668445000Y709326000D01*
X668445000Y709326000D02*
X667956000Y709326000D01*
X667956000Y710502000D02*
X667956000Y709326000D01*
X650265000Y698737000D02*
X650265000Y697882000D01*
X650265000Y697882000D02*
X652374000Y695773000D01*
X652374000Y695773000D02*
X652374000Y694180000D01*
X652374000Y694180000D02*
X648579000Y690385000D01*
X648579000Y690385000D02*
X647305000Y690385000D01*
X645160000Y666560000D02*
X645160000Y670696000D01*
X645160000Y670696000D02*
X646082000Y670696000D01*
X646082000Y670696000D02*
X646219000Y670833000D01*
X624776000Y706786000D02*
X624216000Y706226000D01*
X624216000Y706226000D02*
X624216000Y685834000D01*
X624216000Y685834000D02*
X624670000Y685380000D01*
X624670000Y685380000D02*
X624670000Y672099000D01*
X624670000Y672099000D02*
X624462000Y671891000D01*
X624776000Y707962000D02*
X624776000Y706786000D01*
X614616000Y710502000D02*
X614616000Y709326000D01*
X614680000Y666560000D02*
X614680000Y670696000D01*
X614680000Y670696000D02*
X613253000Y672123000D01*
X613253000Y672123000D02*
X613253000Y708452000D01*
X613253000Y708452000D02*
X614127000Y709326000D01*
X614127000Y709326000D02*
X614616000Y709326000D01*
X622236000Y707962000D02*
X621060000Y707962000D01*
X619696000Y707374000D02*
X620472000Y707374000D01*
X620472000Y707374000D02*
X621060000Y707962000D01*
X619696000Y707962000D02*
X619696000Y707374000D01*
X670576000Y698123000D02*
X670576000Y698550000D01*
X670576000Y698550000D02*
X665416000Y703710000D01*
X665416000Y703710000D02*
X665326000Y703710000D01*
X665326000Y703710000D02*
X662876000Y706160000D01*
X662876000Y706160000D02*
X662876000Y706786000D01*
X662876000Y707962000D02*
X662876000Y706786000D01*
D24*
G36*
X622606000Y685341198D02*
G01*
X622606000Y685279061D01*
X622645774Y685079102D01*
X622723795Y684890744D01*
X622837063Y684721226D01*
X622981226Y684577063D01*
X623150744Y684463795D01*
X623339102Y684385774D01*
X623539061Y684346000D01*
X623742939Y684346000D01*
X623910000Y684379230D01*
X623910000Y679500142D01*
X623741816Y679542300D01*
X623459488Y679556217D01*
X623179870Y679514787D01*
X622913708Y679419603D01*
X622788486Y679352671D01*
X622716903Y679108702D01*
X623530000Y678295605D01*
X623544143Y678309748D01*
X623723748Y678130143D01*
X623709605Y678116000D01*
X623723748Y678101858D01*
X623544143Y677922253D01*
X623530000Y677936395D01*
X622716903Y677123298D01*
X622788486Y676879329D01*
X623043996Y676758429D01*
X623318184Y676689700D01*
X623600512Y676675783D01*
X623880130Y676717213D01*
X623910001Y676727895D01*
X623910001Y672766950D01*
X623802226Y672694937D01*
X623658063Y672550774D01*
X623544795Y672381256D01*
X623466774Y672192898D01*
X623427000Y671992939D01*
X623427000Y671789061D01*
X623466774Y671589102D01*
X623544795Y671400744D01*
X623658063Y671231226D01*
X623802226Y671087063D01*
X623971744Y670973795D01*
X623987045Y670967457D01*
X623960820Y670959502D01*
X623850506Y670900537D01*
X623753815Y670821185D01*
X623674463Y670724494D01*
X623615498Y670614180D01*
X623579188Y670494482D01*
X623570000Y670401192D01*
X623560812Y670494482D01*
X623524502Y670614180D01*
X623465537Y670724494D01*
X623386185Y670821185D01*
X623289494Y670900537D01*
X623179180Y670959502D01*
X623059482Y670995812D01*
X622935000Y671008072D01*
X622585750Y671005000D01*
X622427000Y670846250D01*
X622427000Y666687000D01*
X623411250Y666687000D01*
X623570000Y666845750D01*
X623728750Y666687000D01*
X624713000Y666687000D01*
X624713000Y666707000D01*
X624967000Y666707000D01*
X624967000Y666687000D01*
X624987000Y666687000D01*
X624987000Y666433000D01*
X624967000Y666433000D01*
X624967000Y666413000D01*
X624713000Y666413000D01*
X624713000Y666433000D01*
X623728750Y666433000D01*
X623570000Y666274250D01*
X623411250Y666433000D01*
X622427000Y666433000D01*
X622427000Y666413000D01*
X622173000Y666413000D01*
X622173000Y666433000D01*
X622153000Y666433000D01*
X622153000Y666687000D01*
X622173000Y666687000D01*
X622173000Y670846250D01*
X622014250Y671005000D01*
X621665000Y671008072D01*
X621540518Y670995812D01*
X621420820Y670959502D01*
X621310506Y670900537D01*
X621213815Y670821185D01*
X621134463Y670724494D01*
X621075498Y670614180D01*
X621039188Y670494482D01*
X621030000Y670401192D01*
X621020812Y670494482D01*
X620984502Y670614180D01*
X620925537Y670724494D01*
X620911485Y670741617D01*
X621591428Y671421560D01*
X621623291Y671447709D01*
X621727636Y671574854D01*
X621805172Y671719913D01*
X621852918Y671877311D01*
X621865000Y671999981D01*
X621865000Y671999983D01*
X621869040Y672040999D01*
X621865000Y672082015D01*
X621865000Y676681375D01*
X621954482Y676690188D01*
X622074180Y676726498D01*
X622184494Y676785463D01*
X622281185Y676864815D01*
X622360537Y676961506D01*
X622419502Y677071820D01*
X622455812Y677191518D01*
X622468072Y677316000D01*
X622468072Y677323215D01*
X622537298Y677302903D01*
X623350395Y678116000D01*
X622537298Y678929097D01*
X622468072Y678908785D01*
X622468072Y678916000D01*
X622455812Y679040482D01*
X622419502Y679160180D01*
X622360537Y679270494D01*
X622281185Y679367185D01*
X622184494Y679446537D01*
X622074180Y679505502D01*
X621954482Y679541812D01*
X621865000Y679550625D01*
X621865000Y682980993D01*
X621869039Y683022001D01*
X621865000Y683063009D01*
X621865000Y683063019D01*
X621852918Y683185689D01*
X621805172Y683343087D01*
X621727636Y683488146D01*
X621623291Y683615291D01*
X621591428Y683641440D01*
X618369333Y686863534D01*
X618435898Y686876774D01*
X618624256Y686954795D01*
X618793774Y687068063D01*
X618837711Y687112000D01*
X620835199Y687112000D01*
X622606000Y685341198D01*
G37*
X622606000Y685341198D02*
X622606000Y685279061D01*
X622645774Y685079102D01*
X622723795Y684890744D01*
X622837063Y684721226D01*
X622981226Y684577063D01*
X623150744Y684463795D01*
X623339102Y684385774D01*
X623539061Y684346000D01*
X623742939Y684346000D01*
X623910000Y684379230D01*
X623910000Y679500142D01*
X623741816Y679542300D01*
X623459488Y679556217D01*
X623179870Y679514787D01*
X622913708Y679419603D01*
X622788486Y679352671D01*
X622716903Y679108702D01*
X623530000Y678295605D01*
X623544143Y678309748D01*
X623723748Y678130143D01*
X623709605Y678116000D01*
X623723748Y678101858D01*
X623544143Y677922253D01*
X623530000Y677936395D01*
X622716903Y677123298D01*
X622788486Y676879329D01*
X623043996Y676758429D01*
X623318184Y676689700D01*
X623600512Y676675783D01*
X623880130Y676717213D01*
X623910001Y676727895D01*
X623910001Y672766950D01*
X623802226Y672694937D01*
X623658063Y672550774D01*
X623544795Y672381256D01*
X623466774Y672192898D01*
X623427000Y671992939D01*
X623427000Y671789061D01*
X623466774Y671589102D01*
X623544795Y671400744D01*
X623658063Y671231226D01*
X623802226Y671087063D01*
X623971744Y670973795D01*
X623987045Y670967457D01*
X623960820Y670959502D01*
X623850506Y670900537D01*
X623753815Y670821185D01*
X623674463Y670724494D01*
X623615498Y670614180D01*
X623579188Y670494482D01*
X623570000Y670401192D01*
X623560812Y670494482D01*
X623524502Y670614180D01*
X623465537Y670724494D01*
X623386185Y670821185D01*
X623289494Y670900537D01*
X623179180Y670959502D01*
X623059482Y670995812D01*
X622935000Y671008072D01*
X622585750Y671005000D01*
X622427000Y670846250D01*
X622427000Y666687000D01*
X623411250Y666687000D01*
X623570000Y666845750D01*
X623728750Y666687000D01*
X624713000Y666687000D01*
X624713000Y666707000D01*
X624967000Y666707000D01*
X624967000Y666687000D01*
X624987000Y666687000D01*
X624987000Y666433000D01*
X624967000Y666433000D01*
X624967000Y666413000D01*
X624713000Y666413000D01*
X624713000Y666433000D01*
X623728750Y666433000D01*
X623570000Y666274250D01*
X623411250Y666433000D01*
X622427000Y666433000D01*
X622427000Y666413000D01*
X622173000Y666413000D01*
X622173000Y666433000D01*
X622153000Y666433000D01*
X622153000Y666687000D01*
X622173000Y666687000D01*
X622173000Y670846250D01*
X622014250Y671005000D01*
X621665000Y671008072D01*
X621540518Y670995812D01*
X621420820Y670959502D01*
X621310506Y670900537D01*
X621213815Y670821185D01*
X621134463Y670724494D01*
X621075498Y670614180D01*
X621039188Y670494482D01*
X621030000Y670401192D01*
X621020812Y670494482D01*
X620984502Y670614180D01*
X620925537Y670724494D01*
X620911485Y670741617D01*
X621591428Y671421560D01*
X621623291Y671447709D01*
X621727636Y671574854D01*
X621805172Y671719913D01*
X621852918Y671877311D01*
X621865000Y671999981D01*
X621865000Y671999983D01*
X621869040Y672040999D01*
X621865000Y672082015D01*
X621865000Y676681375D01*
X621954482Y676690188D01*
X622074180Y676726498D01*
X622184494Y676785463D01*
X622281185Y676864815D01*
X622360537Y676961506D01*
X622419502Y677071820D01*
X622455812Y677191518D01*
X622468072Y677316000D01*
X622468072Y677323215D01*
X622537298Y677302903D01*
X623350395Y678116000D01*
X622537298Y678929097D01*
X622468072Y678908785D01*
X622468072Y678916000D01*
X622455812Y679040482D01*
X622419502Y679160180D01*
X622360537Y679270494D01*
X622281185Y679367185D01*
X622184494Y679446537D01*
X622074180Y679505502D01*
X621954482Y679541812D01*
X621865000Y679550625D01*
X621865000Y682980993D01*
X621869039Y683022001D01*
X621865000Y683063009D01*
X621865000Y683063019D01*
X621852918Y683185689D01*
X621805172Y683343087D01*
X621727636Y683488146D01*
X621623291Y683615291D01*
X621591428Y683641440D01*
X618369333Y686863534D01*
X618435898Y686876774D01*
X618624256Y686954795D01*
X618793774Y687068063D01*
X618837711Y687112000D01*
X620835199Y687112000D01*
X622606000Y685341198D01*
G36*
X659143013Y679828335D02*
G01*
X659290338Y679607847D01*
X659477847Y679420338D01*
X659698335Y679273013D01*
X659886600Y679195031D01*
X659750720Y679145542D01*
X659647152Y679090183D01*
X659586332Y678855273D01*
X660336000Y678105605D01*
X660350143Y678119748D01*
X660529748Y677940143D01*
X660515605Y677926000D01*
X660529748Y677911858D01*
X660350143Y677732253D01*
X660336000Y677746395D01*
X659586332Y676996727D01*
X659639926Y676789727D01*
X657946199Y675096000D01*
X657612322Y675096000D01*
X657574999Y675099676D01*
X657537676Y675096000D01*
X657537667Y675096000D01*
X657426014Y675085003D01*
X657321581Y675053324D01*
X657282753Y675041546D01*
X657150723Y674970974D01*
X657110300Y674937799D01*
X657034999Y674876001D01*
X657011201Y674847003D01*
X656498000Y674333801D01*
X656498000Y675395678D01*
X656501676Y675433001D01*
X656498000Y675470324D01*
X656498000Y675470333D01*
X656487003Y675581986D01*
X656443546Y675725247D01*
X656372974Y675857276D01*
X656322322Y675918996D01*
X656301799Y675944004D01*
X656301795Y675944008D01*
X656278001Y675973001D01*
X656249008Y675996795D01*
X655079801Y677166000D01*
X656684754Y677166000D01*
X656750338Y677067847D01*
X656937847Y676880338D01*
X657158335Y676733013D01*
X657403328Y676631533D01*
X657663411Y676579800D01*
X657928589Y676579800D01*
X658188672Y676631533D01*
X658433665Y676733013D01*
X658654153Y676880338D01*
X658841662Y677067847D01*
X658988987Y677288335D01*
X659066969Y677476600D01*
X659116458Y677340720D01*
X659171817Y677237152D01*
X659406727Y677176332D01*
X660156395Y677926000D01*
X659406727Y678675668D01*
X659171817Y678614848D01*
X659063794Y678383066D01*
X658988987Y678563665D01*
X658841662Y678784153D01*
X658654153Y678971662D01*
X658433665Y679118987D01*
X658247740Y679196000D01*
X658433665Y679273013D01*
X658654153Y679420338D01*
X658841662Y679607847D01*
X658988987Y679828335D01*
X659066000Y680014260D01*
X659143013Y679828335D01*
G37*
X659143013Y679828335D02*
X659290338Y679607847D01*
X659477847Y679420338D01*
X659698335Y679273013D01*
X659886600Y679195031D01*
X659750720Y679145542D01*
X659647152Y679090183D01*
X659586332Y678855273D01*
X660336000Y678105605D01*
X660350143Y678119748D01*
X660529748Y677940143D01*
X660515605Y677926000D01*
X660529748Y677911858D01*
X660350143Y677732253D01*
X660336000Y677746395D01*
X659586332Y676996727D01*
X659639926Y676789727D01*
X657946199Y675096000D01*
X657612322Y675096000D01*
X657574999Y675099676D01*
X657537676Y675096000D01*
X657537667Y675096000D01*
X657426014Y675085003D01*
X657321581Y675053324D01*
X657282753Y675041546D01*
X657150723Y674970974D01*
X657110300Y674937799D01*
X657034999Y674876001D01*
X657011201Y674847003D01*
X656498000Y674333801D01*
X656498000Y675395678D01*
X656501676Y675433001D01*
X656498000Y675470324D01*
X656498000Y675470333D01*
X656487003Y675581986D01*
X656443546Y675725247D01*
X656372974Y675857276D01*
X656322322Y675918996D01*
X656301799Y675944004D01*
X656301795Y675944008D01*
X656278001Y675973001D01*
X656249008Y675996795D01*
X655079801Y677166000D01*
X656684754Y677166000D01*
X656750338Y677067847D01*
X656937847Y676880338D01*
X657158335Y676733013D01*
X657403328Y676631533D01*
X657663411Y676579800D01*
X657928589Y676579800D01*
X658188672Y676631533D01*
X658433665Y676733013D01*
X658654153Y676880338D01*
X658841662Y677067847D01*
X658988987Y677288335D01*
X659066969Y677476600D01*
X659116458Y677340720D01*
X659171817Y677237152D01*
X659406727Y677176332D01*
X660156395Y677926000D01*
X659406727Y678675668D01*
X659171817Y678614848D01*
X659063794Y678383066D01*
X658988987Y678563665D01*
X658841662Y678784153D01*
X658654153Y678971662D01*
X658433665Y679118987D01*
X658247740Y679196000D01*
X658433665Y679273013D01*
X658654153Y679420338D01*
X658841662Y679607847D01*
X658988987Y679828335D01*
X659066000Y680014260D01*
X659143013Y679828335D01*
G36*
X636209748Y676924143D02*
G01*
X636195605Y676910000D01*
X636209748Y676895858D01*
X636030143Y676716253D01*
X636016000Y676730395D01*
X636001858Y676716253D01*
X635822253Y676895858D01*
X635836395Y676910000D01*
X635822253Y676924143D01*
X636001858Y677103748D01*
X636016000Y677089605D01*
X636030143Y677103748D01*
X636209748Y676924143D01*
G37*
X636209748Y676924143D02*
X636195605Y676910000D01*
X636209748Y676895858D01*
X636030143Y676716253D01*
X636016000Y676730395D01*
X636001858Y676716253D01*
X635822253Y676895858D01*
X635836395Y676910000D01*
X635822253Y676924143D01*
X636001858Y677103748D01*
X636016000Y677089605D01*
X636030143Y677103748D01*
X636209748Y676924143D01*
G36*
X643829748Y679464143D02*
G01*
X643815605Y679450000D01*
X643829748Y679435858D01*
X643650143Y679256253D01*
X643636000Y679270395D01*
X643621858Y679256253D01*
X643442253Y679435858D01*
X643456395Y679450000D01*
X643442253Y679464143D01*
X643621858Y679643748D01*
X643636000Y679629605D01*
X643650143Y679643748D01*
X643829748Y679464143D01*
G37*
X643829748Y679464143D02*
X643815605Y679450000D01*
X643829748Y679435858D01*
X643650143Y679256253D01*
X643636000Y679270395D01*
X643621858Y679256253D01*
X643442253Y679435858D01*
X643456395Y679450000D01*
X643442253Y679464143D01*
X643621858Y679643748D01*
X643636000Y679629605D01*
X643650143Y679643748D01*
X643829748Y679464143D01*
G36*
X660335000Y685069750D02*
G01*
X660493750Y684911000D01*
X661543000Y684911000D01*
X661543000Y684931000D01*
X661797000Y684931000D01*
X661797000Y684911000D01*
X661817000Y684911000D01*
X661817000Y684657000D01*
X661797000Y684657000D01*
X661797000Y684637000D01*
X661543000Y684637000D01*
X661543000Y684657000D01*
X660493750Y684657000D01*
X660335000Y684498250D01*
X660331928Y684209000D01*
X660344188Y684084518D01*
X660380498Y683964820D01*
X660439463Y683854506D01*
X660518815Y683757815D01*
X660615506Y683678463D01*
X660725820Y683619498D01*
X660845518Y683583188D01*
X660970000Y683570928D01*
X661384250Y683574000D01*
X661542998Y683732748D01*
X661542998Y683715800D01*
X660901199Y683074000D01*
X660602711Y683074000D01*
X660558774Y683117937D01*
X660389256Y683231205D01*
X660200898Y683309226D01*
X660000939Y683349000D01*
X659797061Y683349000D01*
X659597102Y683309226D01*
X659408744Y683231205D01*
X659239226Y683117937D01*
X659142200Y683020911D01*
X659142200Y683138589D01*
X659090467Y683398672D01*
X658988987Y683643665D01*
X658942771Y683712832D01*
X658971001Y683735999D01*
X658994804Y683765003D01*
X660334627Y685104826D01*
X660335000Y685069750D01*
G37*
X660335000Y685069750D02*
X660493750Y684911000D01*
X661543000Y684911000D01*
X661543000Y684931000D01*
X661797000Y684931000D01*
X661797000Y684911000D01*
X661817000Y684911000D01*
X661817000Y684657000D01*
X661797000Y684657000D01*
X661797000Y684637000D01*
X661543000Y684637000D01*
X661543000Y684657000D01*
X660493750Y684657000D01*
X660335000Y684498250D01*
X660331928Y684209000D01*
X660344188Y684084518D01*
X660380498Y683964820D01*
X660439463Y683854506D01*
X660518815Y683757815D01*
X660615506Y683678463D01*
X660725820Y683619498D01*
X660845518Y683583188D01*
X660970000Y683570928D01*
X661384250Y683574000D01*
X661542998Y683732748D01*
X661542998Y683715800D01*
X660901199Y683074000D01*
X660602711Y683074000D01*
X660558774Y683117937D01*
X660389256Y683231205D01*
X660200898Y683309226D01*
X660000939Y683349000D01*
X659797061Y683349000D01*
X659597102Y683309226D01*
X659408744Y683231205D01*
X659239226Y683117937D01*
X659142200Y683020911D01*
X659142200Y683138589D01*
X659090467Y683398672D01*
X658988987Y683643665D01*
X658942771Y683712832D01*
X658971001Y683735999D01*
X658994804Y683765003D01*
X660334627Y685104826D01*
X660335000Y685069750D01*
G36*
X642079563Y687778568D02*
G01*
X642105709Y687746709D01*
X642137568Y687720563D01*
X642137570Y687720561D01*
X642215120Y687656918D01*
X642232854Y687642364D01*
X642377913Y687564828D01*
X642395398Y687559524D01*
X642353746Y687458968D01*
X642302500Y687201338D01*
X642302500Y686938662D01*
X642353746Y686681032D01*
X642454268Y686438351D01*
X642600203Y686219943D01*
X642785943Y686034203D01*
X643004351Y685888268D01*
X643217448Y685800000D01*
X643004351Y685711732D01*
X642785943Y685565797D01*
X642600203Y685380057D01*
X642454268Y685161649D01*
X642353746Y684918968D01*
X642302500Y684661338D01*
X642302500Y684398662D01*
X642352360Y684148000D01*
X640562421Y684148000D01*
X640643180Y684172498D01*
X640753494Y684231463D01*
X640850185Y684310815D01*
X640929537Y684407506D01*
X640988502Y684517820D01*
X641024812Y684637518D01*
X641037072Y684762000D01*
X641034000Y685051250D01*
X640875250Y685210000D01*
X639826000Y685210000D01*
X639826000Y685190000D01*
X639572000Y685190000D01*
X639572000Y685210000D01*
X638522750Y685210000D01*
X638364000Y685051250D01*
X638360928Y684762000D01*
X638373188Y684637518D01*
X638409498Y684517820D01*
X638468463Y684407506D01*
X638547815Y684310815D01*
X638644506Y684231463D01*
X638754820Y684172498D01*
X638835579Y684148000D01*
X635799421Y684148000D01*
X635880180Y684172498D01*
X635990494Y684231463D01*
X636087185Y684310815D01*
X636166537Y684407506D01*
X636225502Y684517820D01*
X636261812Y684637518D01*
X636274072Y684762000D01*
X636271000Y685051250D01*
X636112250Y685210000D01*
X635063000Y685210000D01*
X635063000Y685190000D01*
X634809000Y685190000D01*
X634809000Y685210000D01*
X634789000Y685210000D01*
X634789000Y685464000D01*
X634809000Y685464000D01*
X634809000Y685484000D01*
X635063000Y685484000D01*
X635063000Y685464000D01*
X636112250Y685464000D01*
X636271000Y685622750D01*
X636274072Y685912000D01*
X636261812Y686036482D01*
X636225502Y686156180D01*
X636166537Y686266494D01*
X636087185Y686363185D01*
X636007406Y686428658D01*
X636013962Y686434038D01*
X636124405Y686568613D01*
X636206472Y686722149D01*
X636257008Y686888745D01*
X636274072Y687061999D01*
X636274072Y687356000D01*
X638360928Y687356000D01*
X638360928Y687061999D01*
X638377992Y686888745D01*
X638428528Y686722149D01*
X638510595Y686568613D01*
X638621038Y686434038D01*
X638627594Y686428658D01*
X638547815Y686363185D01*
X638468463Y686266494D01*
X638409498Y686156180D01*
X638373188Y686036482D01*
X638360928Y685912000D01*
X638364000Y685622750D01*
X638522750Y685464000D01*
X639572000Y685464000D01*
X639572000Y685484000D01*
X639826000Y685484000D01*
X639826000Y685464000D01*
X640875250Y685464000D01*
X641034000Y685622750D01*
X641037072Y685912000D01*
X641024812Y686036482D01*
X640988502Y686156180D01*
X640929537Y686266494D01*
X640850185Y686363185D01*
X640770406Y686428658D01*
X640776962Y686434038D01*
X640887405Y686568613D01*
X640969472Y686722149D01*
X641020008Y686888745D01*
X641037072Y687061999D01*
X641037072Y687712001D01*
X641020008Y687885255D01*
X640969472Y688051851D01*
X640887405Y688205387D01*
X640776962Y688339962D01*
X640642387Y688450405D01*
X640488851Y688532472D01*
X640322255Y688583008D01*
X640149001Y688600072D01*
X639730000Y688600072D01*
X639730000Y688713133D01*
X639901868Y688885000D01*
X640973133Y688885000D01*
X642079563Y687778568D01*
G37*
X642079563Y687778568D02*
X642105709Y687746709D01*
X642137568Y687720563D01*
X642137570Y687720561D01*
X642215120Y687656918D01*
X642232854Y687642364D01*
X642377913Y687564828D01*
X642395398Y687559524D01*
X642353746Y687458968D01*
X642302500Y687201338D01*
X642302500Y686938662D01*
X642353746Y686681032D01*
X642454268Y686438351D01*
X642600203Y686219943D01*
X642785943Y686034203D01*
X643004351Y685888268D01*
X643217448Y685800000D01*
X643004351Y685711732D01*
X642785943Y685565797D01*
X642600203Y685380057D01*
X642454268Y685161649D01*
X642353746Y684918968D01*
X642302500Y684661338D01*
X642302500Y684398662D01*
X642352360Y684148000D01*
X640562421Y684148000D01*
X640643180Y684172498D01*
X640753494Y684231463D01*
X640850185Y684310815D01*
X640929537Y684407506D01*
X640988502Y684517820D01*
X641024812Y684637518D01*
X641037072Y684762000D01*
X641034000Y685051250D01*
X640875250Y685210000D01*
X639826000Y685210000D01*
X639826000Y685190000D01*
X639572000Y685190000D01*
X639572000Y685210000D01*
X638522750Y685210000D01*
X638364000Y685051250D01*
X638360928Y684762000D01*
X638373188Y684637518D01*
X638409498Y684517820D01*
X638468463Y684407506D01*
X638547815Y684310815D01*
X638644506Y684231463D01*
X638754820Y684172498D01*
X638835579Y684148000D01*
X635799421Y684148000D01*
X635880180Y684172498D01*
X635990494Y684231463D01*
X636087185Y684310815D01*
X636166537Y684407506D01*
X636225502Y684517820D01*
X636261812Y684637518D01*
X636274072Y684762000D01*
X636271000Y685051250D01*
X636112250Y685210000D01*
X635063000Y685210000D01*
X635063000Y685190000D01*
X634809000Y685190000D01*
X634809000Y685210000D01*
X634789000Y685210000D01*
X634789000Y685464000D01*
X634809000Y685464000D01*
X634809000Y685484000D01*
X635063000Y685484000D01*
X635063000Y685464000D01*
X636112250Y685464000D01*
X636271000Y685622750D01*
X636274072Y685912000D01*
X636261812Y686036482D01*
X636225502Y686156180D01*
X636166537Y686266494D01*
X636087185Y686363185D01*
X636007406Y686428658D01*
X636013962Y686434038D01*
X636124405Y686568613D01*
X636206472Y686722149D01*
X636257008Y686888745D01*
X636274072Y687061999D01*
X636274072Y687356000D01*
X638360928Y687356000D01*
X638360928Y687061999D01*
X638377992Y686888745D01*
X638428528Y686722149D01*
X638510595Y686568613D01*
X638621038Y686434038D01*
X638627594Y686428658D01*
X638547815Y686363185D01*
X638468463Y686266494D01*
X638409498Y686156180D01*
X638373188Y686036482D01*
X638360928Y685912000D01*
X638364000Y685622750D01*
X638522750Y685464000D01*
X639572000Y685464000D01*
X639572000Y685484000D01*
X639826000Y685484000D01*
X639826000Y685464000D01*
X640875250Y685464000D01*
X641034000Y685622750D01*
X641037072Y685912000D01*
X641024812Y686036482D01*
X640988502Y686156180D01*
X640929537Y686266494D01*
X640850185Y686363185D01*
X640770406Y686428658D01*
X640776962Y686434038D01*
X640887405Y686568613D01*
X640969472Y686722149D01*
X641020008Y686888745D01*
X641037072Y687061999D01*
X641037072Y687712001D01*
X641020008Y687885255D01*
X640969472Y688051851D01*
X640887405Y688205387D01*
X640776962Y688339962D01*
X640642387Y688450405D01*
X640488851Y688532472D01*
X640322255Y688583008D01*
X640149001Y688600072D01*
X639730000Y688600072D01*
X639730000Y688713133D01*
X639901868Y688885000D01*
X640973133Y688885000D01*
X642079563Y687778568D01*
G36*
X634834268Y691518351D02*
G01*
X634980203Y691299943D01*
X635165943Y691114203D01*
X635181001Y691104142D01*
X635181000Y688812433D01*
X635146709Y688784291D01*
X635120563Y688752432D01*
X634968203Y688600072D01*
X634485999Y688600072D01*
X634312745Y688583008D01*
X634146149Y688532472D01*
X633992613Y688450405D01*
X633858038Y688339962D01*
X633747595Y688205387D01*
X633665528Y688051851D01*
X633614992Y687885255D01*
X633597928Y687712001D01*
X633597928Y687061999D01*
X633614992Y686888745D01*
X633665528Y686722149D01*
X633747595Y686568613D01*
X633858038Y686434038D01*
X633864594Y686428658D01*
X633784815Y686363185D01*
X633705463Y686266494D01*
X633646498Y686156180D01*
X633610188Y686036482D01*
X633597928Y685912000D01*
X633601000Y685622750D01*
X633759748Y685464002D01*
X633616800Y685464002D01*
X632248369Y686832432D01*
X632269500Y686938662D01*
X632269500Y687201338D01*
X632218254Y687458968D01*
X632117732Y687701649D01*
X631971797Y687920057D01*
X631786057Y688105797D01*
X631567649Y688251732D01*
X631350430Y688341707D01*
X631516842Y688402486D01*
X631617314Y688456188D01*
X631676592Y688689803D01*
X630936000Y689430395D01*
X630921858Y689416253D01*
X630742253Y689595858D01*
X630756395Y689610000D01*
X631115605Y689610000D01*
X631856197Y688869408D01*
X632089812Y688928686D01*
X632200559Y689166875D01*
X632262711Y689422093D01*
X632273876Y689684533D01*
X632233629Y689944107D01*
X632143514Y690190842D01*
X632089812Y690291314D01*
X631856197Y690350592D01*
X631115605Y689610000D01*
X630756395Y689610000D01*
X630742253Y689624143D01*
X630921858Y689803748D01*
X630936000Y689789605D01*
X631676592Y690530197D01*
X631617314Y690763812D01*
X631379125Y690874559D01*
X631355378Y690880342D01*
X631567649Y690968268D01*
X631786057Y691114203D01*
X631971797Y691299943D01*
X632117732Y691518351D01*
X632206000Y691731448D01*
X632294268Y691518351D01*
X632440203Y691299943D01*
X632625943Y691114203D01*
X632844351Y690968268D01*
X633087032Y690867746D01*
X633344662Y690816500D01*
X633607338Y690816500D01*
X633864968Y690867746D01*
X634107649Y690968268D01*
X634326057Y691114203D01*
X634511797Y691299943D01*
X634657732Y691518351D01*
X634746000Y691731448D01*
X634834268Y691518351D01*
G37*
X634834268Y691518351D02*
X634980203Y691299943D01*
X635165943Y691114203D01*
X635181001Y691104142D01*
X635181000Y688812433D01*
X635146709Y688784291D01*
X635120563Y688752432D01*
X634968203Y688600072D01*
X634485999Y688600072D01*
X634312745Y688583008D01*
X634146149Y688532472D01*
X633992613Y688450405D01*
X633858038Y688339962D01*
X633747595Y688205387D01*
X633665528Y688051851D01*
X633614992Y687885255D01*
X633597928Y687712001D01*
X633597928Y687061999D01*
X633614992Y686888745D01*
X633665528Y686722149D01*
X633747595Y686568613D01*
X633858038Y686434038D01*
X633864594Y686428658D01*
X633784815Y686363185D01*
X633705463Y686266494D01*
X633646498Y686156180D01*
X633610188Y686036482D01*
X633597928Y685912000D01*
X633601000Y685622750D01*
X633759748Y685464002D01*
X633616800Y685464002D01*
X632248369Y686832432D01*
X632269500Y686938662D01*
X632269500Y687201338D01*
X632218254Y687458968D01*
X632117732Y687701649D01*
X631971797Y687920057D01*
X631786057Y688105797D01*
X631567649Y688251732D01*
X631350430Y688341707D01*
X631516842Y688402486D01*
X631617314Y688456188D01*
X631676592Y688689803D01*
X630936000Y689430395D01*
X630921858Y689416253D01*
X630742253Y689595858D01*
X630756395Y689610000D01*
X631115605Y689610000D01*
X631856197Y688869408D01*
X632089812Y688928686D01*
X632200559Y689166875D01*
X632262711Y689422093D01*
X632273876Y689684533D01*
X632233629Y689944107D01*
X632143514Y690190842D01*
X632089812Y690291314D01*
X631856197Y690350592D01*
X631115605Y689610000D01*
X630756395Y689610000D01*
X630742253Y689624143D01*
X630921858Y689803748D01*
X630936000Y689789605D01*
X631676592Y690530197D01*
X631617314Y690763812D01*
X631379125Y690874559D01*
X631355378Y690880342D01*
X631567649Y690968268D01*
X631786057Y691114203D01*
X631971797Y691299943D01*
X632117732Y691518351D01*
X632206000Y691731448D01*
X632294268Y691518351D01*
X632440203Y691299943D01*
X632625943Y691114203D01*
X632844351Y690968268D01*
X633087032Y690867746D01*
X633344662Y690816500D01*
X633607338Y690816500D01*
X633864968Y690867746D01*
X634107649Y690968268D01*
X634326057Y691114203D01*
X634511797Y691299943D01*
X634657732Y691518351D01*
X634746000Y691731448D01*
X634834268Y691518351D01*
G36*
X623622525Y707015368D02*
G01*
X623776546Y706861347D01*
X623705002Y706789803D01*
X623675999Y706766001D01*
X623641365Y706723799D01*
X623581026Y706650276D01*
X623522753Y706541256D01*
X623510454Y706518246D01*
X623466997Y706374985D01*
X623456000Y706263332D01*
X623456000Y706263322D01*
X623452324Y706226000D01*
X623456000Y706188678D01*
X623456001Y686640801D01*
X621713804Y688382997D01*
X621690001Y688412001D01*
X621574276Y688506974D01*
X621442247Y688577546D01*
X621298986Y688621003D01*
X621187333Y688632000D01*
X621187322Y688632000D01*
X621150000Y688635676D01*
X621112678Y688632000D01*
X618837711Y688632000D01*
X618793774Y688675937D01*
X618624256Y688789205D01*
X618578125Y688808313D01*
X618597476Y688872110D01*
X618476155Y689102000D01*
X617283000Y689102000D01*
X617283000Y689082000D01*
X617029000Y689082000D01*
X617029000Y689102000D01*
X617009000Y689102000D01*
X617009000Y689356000D01*
X617029000Y689356000D01*
X617029000Y689376000D01*
X617283000Y689376000D01*
X617283000Y689356000D01*
X618476155Y689356000D01*
X618597476Y689585890D01*
X618552825Y689733099D01*
X618427641Y689995920D01*
X618253588Y690229269D01*
X618037355Y690424178D01*
X617920466Y690493805D01*
X618102632Y690615525D01*
X618309475Y690822368D01*
X618471990Y691065589D01*
X618583932Y691335842D01*
X618641000Y691622740D01*
X618641000Y691915260D01*
X618583932Y692202158D01*
X618471990Y692472411D01*
X618309475Y692715632D01*
X618102632Y692922475D01*
X617928240Y693039000D01*
X618102632Y693155525D01*
X618309475Y693362368D01*
X618471990Y693605589D01*
X618583932Y693875842D01*
X618641000Y694162740D01*
X618641000Y694455260D01*
X618583932Y694742158D01*
X618471990Y695012411D01*
X618309475Y695255632D01*
X618102632Y695462475D01*
X617989160Y695538295D01*
X617995040Y695598000D01*
X617992671Y695622052D01*
X618102632Y695695525D01*
X618309475Y695902368D01*
X618471990Y696145589D01*
X618583932Y696415842D01*
X618641000Y696702740D01*
X618641000Y696995260D01*
X618583932Y697282158D01*
X618471990Y697552411D01*
X618309475Y697795632D01*
X618102632Y698002475D01*
X617992671Y698075948D01*
X617995040Y698100000D01*
X617988656Y698164814D01*
X618037355Y698193822D01*
X618253588Y698388731D01*
X618427641Y698622080D01*
X618552825Y698884901D01*
X618597476Y699032110D01*
X618476155Y699262000D01*
X617283000Y699262000D01*
X617283000Y699242000D01*
X617029000Y699242000D01*
X617029000Y699262000D01*
X617009000Y699262000D01*
X617009000Y699516000D01*
X617029000Y699516000D01*
X617029000Y699536000D01*
X617283000Y699536000D01*
X617283000Y699516000D01*
X618476155Y699516000D01*
X618504496Y699569703D01*
X621329000Y696745198D01*
X621329000Y696683061D01*
X621368774Y696483102D01*
X621446795Y696294744D01*
X621560063Y696125226D01*
X621704226Y695981063D01*
X621873744Y695867795D01*
X622062102Y695789774D01*
X622262061Y695750000D01*
X622465939Y695750000D01*
X622665898Y695789774D01*
X622854256Y695867795D01*
X623023774Y695981063D01*
X623167937Y696125226D01*
X623281205Y696294744D01*
X623359226Y696483102D01*
X623399000Y696683061D01*
X623399000Y696886939D01*
X623359226Y697086898D01*
X623281205Y697275256D01*
X623167937Y697444774D01*
X623023774Y697588937D01*
X622854256Y697702205D01*
X622665898Y697780226D01*
X622465939Y697820000D01*
X622403802Y697820000D01*
X619031143Y701192658D01*
X619007226Y701312898D01*
X618929205Y701501256D01*
X618815937Y701670774D01*
X618671774Y701814937D01*
X618502256Y701928205D01*
X618313898Y702006226D01*
X618113939Y702046000D01*
X617910061Y702046000D01*
X617710102Y702006226D01*
X617521744Y701928205D01*
X617352226Y701814937D01*
X617208063Y701670774D01*
X617094795Y701501256D01*
X617016774Y701312898D01*
X616977000Y701112939D01*
X616977000Y700909061D01*
X617015191Y700717062D01*
X616799109Y700830481D01*
X616740000Y700809513D01*
X616740000Y706530655D01*
X617009740Y706477000D01*
X617302260Y706477000D01*
X617589158Y706534068D01*
X617859411Y706646010D01*
X618102632Y706808525D01*
X618309475Y707015368D01*
X618426000Y707189760D01*
X618542525Y707015368D01*
X618749368Y706808525D01*
X618992589Y706646010D01*
X619262842Y706534068D01*
X619549740Y706477000D01*
X619842260Y706477000D01*
X620129158Y706534068D01*
X620322132Y706614000D01*
X620434678Y706614000D01*
X620472000Y706610324D01*
X620509322Y706614000D01*
X620509333Y706614000D01*
X620620986Y706624997D01*
X620764247Y706668454D01*
X620896276Y706739026D01*
X621012001Y706833999D01*
X621035803Y706863002D01*
X621135347Y706962546D01*
X621289368Y706808525D01*
X621532589Y706646010D01*
X621802842Y706534068D01*
X622089740Y706477000D01*
X622382260Y706477000D01*
X622669158Y706534068D01*
X622939411Y706646010D01*
X623182632Y706808525D01*
X623389475Y707015368D01*
X623506000Y707189760D01*
X623622525Y707015368D01*
G37*
X623622525Y707015368D02*
X623776546Y706861347D01*
X623705002Y706789803D01*
X623675999Y706766001D01*
X623641365Y706723799D01*
X623581026Y706650276D01*
X623522753Y706541256D01*
X623510454Y706518246D01*
X623466997Y706374985D01*
X623456000Y706263332D01*
X623456000Y706263322D01*
X623452324Y706226000D01*
X623456000Y706188678D01*
X623456001Y686640801D01*
X621713804Y688382997D01*
X621690001Y688412001D01*
X621574276Y688506974D01*
X621442247Y688577546D01*
X621298986Y688621003D01*
X621187333Y688632000D01*
X621187322Y688632000D01*
X621150000Y688635676D01*
X621112678Y688632000D01*
X618837711Y688632000D01*
X618793774Y688675937D01*
X618624256Y688789205D01*
X618578125Y688808313D01*
X618597476Y688872110D01*
X618476155Y689102000D01*
X617283000Y689102000D01*
X617283000Y689082000D01*
X617029000Y689082000D01*
X617029000Y689102000D01*
X617009000Y689102000D01*
X617009000Y689356000D01*
X617029000Y689356000D01*
X617029000Y689376000D01*
X617283000Y689376000D01*
X617283000Y689356000D01*
X618476155Y689356000D01*
X618597476Y689585890D01*
X618552825Y689733099D01*
X618427641Y689995920D01*
X618253588Y690229269D01*
X618037355Y690424178D01*
X617920466Y690493805D01*
X618102632Y690615525D01*
X618309475Y690822368D01*
X618471990Y691065589D01*
X618583932Y691335842D01*
X618641000Y691622740D01*
X618641000Y691915260D01*
X618583932Y692202158D01*
X618471990Y692472411D01*
X618309475Y692715632D01*
X618102632Y692922475D01*
X617928240Y693039000D01*
X618102632Y693155525D01*
X618309475Y693362368D01*
X618471990Y693605589D01*
X618583932Y693875842D01*
X618641000Y694162740D01*
X618641000Y694455260D01*
X618583932Y694742158D01*
X618471990Y695012411D01*
X618309475Y695255632D01*
X618102632Y695462475D01*
X617989160Y695538295D01*
X617995040Y695598000D01*
X617992671Y695622052D01*
X618102632Y695695525D01*
X618309475Y695902368D01*
X618471990Y696145589D01*
X618583932Y696415842D01*
X618641000Y696702740D01*
X618641000Y696995260D01*
X618583932Y697282158D01*
X618471990Y697552411D01*
X618309475Y697795632D01*
X618102632Y698002475D01*
X617992671Y698075948D01*
X617995040Y698100000D01*
X617988656Y698164814D01*
X618037355Y698193822D01*
X618253588Y698388731D01*
X618427641Y698622080D01*
X618552825Y698884901D01*
X618597476Y699032110D01*
X618476155Y699262000D01*
X617283000Y699262000D01*
X617283000Y699242000D01*
X617029000Y699242000D01*
X617029000Y699262000D01*
X617009000Y699262000D01*
X617009000Y699516000D01*
X617029000Y699516000D01*
X617029000Y699536000D01*
X617283000Y699536000D01*
X617283000Y699516000D01*
X618476155Y699516000D01*
X618504496Y699569703D01*
X621329000Y696745198D01*
X621329000Y696683061D01*
X621368774Y696483102D01*
X621446795Y696294744D01*
X621560063Y696125226D01*
X621704226Y695981063D01*
X621873744Y695867795D01*
X622062102Y695789774D01*
X622262061Y695750000D01*
X622465939Y695750000D01*
X622665898Y695789774D01*
X622854256Y695867795D01*
X623023774Y695981063D01*
X623167937Y696125226D01*
X623281205Y696294744D01*
X623359226Y696483102D01*
X623399000Y696683061D01*
X623399000Y696886939D01*
X623359226Y697086898D01*
X623281205Y697275256D01*
X623167937Y697444774D01*
X623023774Y697588937D01*
X622854256Y697702205D01*
X622665898Y697780226D01*
X622465939Y697820000D01*
X622403802Y697820000D01*
X619031143Y701192658D01*
X619007226Y701312898D01*
X618929205Y701501256D01*
X618815937Y701670774D01*
X618671774Y701814937D01*
X618502256Y701928205D01*
X618313898Y702006226D01*
X618113939Y702046000D01*
X617910061Y702046000D01*
X617710102Y702006226D01*
X617521744Y701928205D01*
X617352226Y701814937D01*
X617208063Y701670774D01*
X617094795Y701501256D01*
X617016774Y701312898D01*
X616977000Y701112939D01*
X616977000Y700909061D01*
X617015191Y700717062D01*
X616799109Y700830481D01*
X616740000Y700809513D01*
X616740000Y706530655D01*
X617009740Y706477000D01*
X617302260Y706477000D01*
X617589158Y706534068D01*
X617859411Y706646010D01*
X618102632Y706808525D01*
X618309475Y707015368D01*
X618426000Y707189760D01*
X618542525Y707015368D01*
X618749368Y706808525D01*
X618992589Y706646010D01*
X619262842Y706534068D01*
X619549740Y706477000D01*
X619842260Y706477000D01*
X620129158Y706534068D01*
X620322132Y706614000D01*
X620434678Y706614000D01*
X620472000Y706610324D01*
X620509322Y706614000D01*
X620509333Y706614000D01*
X620620986Y706624997D01*
X620764247Y706668454D01*
X620896276Y706739026D01*
X621012001Y706833999D01*
X621035803Y706863002D01*
X621135347Y706962546D01*
X621289368Y706808525D01*
X621532589Y706646010D01*
X621802842Y706534068D01*
X622089740Y706477000D01*
X622382260Y706477000D01*
X622669158Y706534068D01*
X622939411Y706646010D01*
X623182632Y706808525D01*
X623389475Y707015368D01*
X623506000Y707189760D01*
X623622525Y707015368D01*
G36*
X641289748Y694704143D02*
G01*
X641275605Y694690000D01*
X641289748Y694675858D01*
X641110143Y694496253D01*
X641096000Y694510395D01*
X641081858Y694496253D01*
X640902253Y694675858D01*
X640916395Y694690000D01*
X640902253Y694704143D01*
X641081858Y694883748D01*
X641096000Y694869605D01*
X641110143Y694883748D01*
X641289748Y694704143D01*
G37*
X641289748Y694704143D02*
X641275605Y694690000D01*
X641289748Y694675858D01*
X641110143Y694496253D01*
X641096000Y694510395D01*
X641081858Y694496253D01*
X640902253Y694675858D01*
X640916395Y694690000D01*
X640902253Y694704143D01*
X641081858Y694883748D01*
X641096000Y694869605D01*
X641110143Y694883748D01*
X641289748Y694704143D01*
G36*
X641402525Y707015368D02*
G01*
X641609368Y706808525D01*
X641852589Y706646010D01*
X642122842Y706534068D01*
X642409740Y706477000D01*
X642702260Y706477000D01*
X642989158Y706534068D01*
X643259411Y706646010D01*
X643478679Y706792520D01*
X645725659Y704545539D01*
X645529158Y704626932D01*
X645242260Y704684000D01*
X644949740Y704684000D01*
X644662842Y704626932D01*
X644392589Y704514990D01*
X644149368Y704352475D01*
X643942525Y704145632D01*
X643866705Y704032160D01*
X643848019Y704034000D01*
X643807000Y704038040D01*
X643782948Y704035671D01*
X643709475Y704145632D01*
X643502632Y704352475D01*
X643259411Y704514990D01*
X642989158Y704626932D01*
X642702260Y704684000D01*
X642409740Y704684000D01*
X642122842Y704626932D01*
X641852589Y704514990D01*
X641609368Y704352475D01*
X641402525Y704145632D01*
X641280805Y703963466D01*
X641211178Y704080355D01*
X641016269Y704296588D01*
X640782920Y704470641D01*
X640520099Y704595825D01*
X640372890Y704640476D01*
X640143000Y704519155D01*
X640143000Y703326000D01*
X640163000Y703326000D01*
X640163000Y703072000D01*
X640143000Y703072000D01*
X640143000Y703052000D01*
X639889000Y703052000D01*
X639889000Y703072000D01*
X639869000Y703072000D01*
X639869000Y703326000D01*
X639889000Y703326000D01*
X639889000Y704519155D01*
X639659110Y704640476D01*
X639512000Y704595855D01*
X639512000Y704970677D01*
X639515676Y705008000D01*
X639512000Y705045323D01*
X639512000Y705045333D01*
X639501003Y705156986D01*
X639457546Y705300247D01*
X639386974Y705432276D01*
X639292001Y705548001D01*
X639263003Y705571799D01*
X638185034Y706649767D01*
X638422632Y706808525D01*
X638629475Y707015368D01*
X638746000Y707189760D01*
X638862525Y707015368D01*
X639069368Y706808525D01*
X639312589Y706646010D01*
X639582842Y706534068D01*
X639869740Y706477000D01*
X640162260Y706477000D01*
X640449158Y706534068D01*
X640719411Y706646010D01*
X640962632Y706808525D01*
X641169475Y707015368D01*
X641286000Y707189760D01*
X641402525Y707015368D01*
G37*
X641402525Y707015368D02*
X641609368Y706808525D01*
X641852589Y706646010D01*
X642122842Y706534068D01*
X642409740Y706477000D01*
X642702260Y706477000D01*
X642989158Y706534068D01*
X643259411Y706646010D01*
X643478679Y706792520D01*
X645725659Y704545539D01*
X645529158Y704626932D01*
X645242260Y704684000D01*
X644949740Y704684000D01*
X644662842Y704626932D01*
X644392589Y704514990D01*
X644149368Y704352475D01*
X643942525Y704145632D01*
X643866705Y704032160D01*
X643848019Y704034000D01*
X643807000Y704038040D01*
X643782948Y704035671D01*
X643709475Y704145632D01*
X643502632Y704352475D01*
X643259411Y704514990D01*
X642989158Y704626932D01*
X642702260Y704684000D01*
X642409740Y704684000D01*
X642122842Y704626932D01*
X641852589Y704514990D01*
X641609368Y704352475D01*
X641402525Y704145632D01*
X641280805Y703963466D01*
X641211178Y704080355D01*
X641016269Y704296588D01*
X640782920Y704470641D01*
X640520099Y704595825D01*
X640372890Y704640476D01*
X640143000Y704519155D01*
X640143000Y703326000D01*
X640163000Y703326000D01*
X640163000Y703072000D01*
X640143000Y703072000D01*
X640143000Y703052000D01*
X639889000Y703052000D01*
X639889000Y703072000D01*
X639869000Y703072000D01*
X639869000Y703326000D01*
X639889000Y703326000D01*
X639889000Y704519155D01*
X639659110Y704640476D01*
X639512000Y704595855D01*
X639512000Y704970677D01*
X639515676Y705008000D01*
X639512000Y705045323D01*
X639512000Y705045333D01*
X639501003Y705156986D01*
X639457546Y705300247D01*
X639386974Y705432276D01*
X639292001Y705548001D01*
X639263003Y705571799D01*
X638185034Y706649767D01*
X638422632Y706808525D01*
X638629475Y707015368D01*
X638746000Y707189760D01*
X638862525Y707015368D01*
X639069368Y706808525D01*
X639312589Y706646010D01*
X639582842Y706534068D01*
X639869740Y706477000D01*
X640162260Y706477000D01*
X640449158Y706534068D01*
X640719411Y706646010D01*
X640962632Y706808525D01*
X641169475Y707015368D01*
X641286000Y707189760D01*
X641402525Y707015368D01*
G36*
X637603000Y703326000D02*
G01*
X637623000Y703326000D01*
X637623000Y703072000D01*
X637603000Y703072000D01*
X637603000Y703052000D01*
X637349000Y703052000D01*
X637349000Y703072000D01*
X637329000Y703072000D01*
X637329000Y703326000D01*
X637349000Y703326000D01*
X637349000Y703346000D01*
X637603000Y703346000D01*
X637603000Y703326000D01*
G37*
X637603000Y703326000D02*
X637623000Y703326000D01*
X637623000Y703072000D01*
X637603000Y703072000D01*
X637603000Y703052000D01*
X637349000Y703052000D01*
X637349000Y703072000D01*
X637329000Y703072000D01*
X637329000Y703326000D01*
X637349000Y703326000D01*
X637349000Y703346000D01*
X637603000Y703346000D01*
X637603000Y703326000D01*
G36*
X618749368Y709348525D02*
G01*
X618923760Y709232000D01*
X618749368Y709115475D01*
X618542525Y708908632D01*
X618426000Y708734240D01*
X618309475Y708908632D01*
X618102632Y709115475D01*
X618002807Y709182176D01*
X618123689Y709194082D01*
X618281087Y709241828D01*
X618426146Y709319364D01*
X618553291Y709423709D01*
X618579445Y709455578D01*
X618610880Y709487013D01*
X618749368Y709348525D01*
G37*
X618749368Y709348525D02*
X618923760Y709232000D01*
X618749368Y709115475D01*
X618542525Y708908632D01*
X618426000Y708734240D01*
X618309475Y708908632D01*
X618102632Y709115475D01*
X618002807Y709182176D01*
X618123689Y709194082D01*
X618281087Y709241828D01*
X618426146Y709319364D01*
X618553291Y709423709D01*
X618579445Y709455578D01*
X618610880Y709487013D01*
X618749368Y709348525D01*
G36*
X622363000Y710629000D02*
G01*
X624649000Y710629000D01*
X624649000Y710649000D01*
X624903000Y710649000D01*
X624903000Y710629000D01*
X624923000Y710629000D01*
X624923000Y710375000D01*
X624903000Y710375000D01*
X624903000Y710355000D01*
X624649000Y710355000D01*
X624649000Y710375000D01*
X622363000Y710375000D01*
X622363000Y710355000D01*
X622109000Y710355000D01*
X622109000Y710375000D01*
X622089000Y710375000D01*
X622089000Y710629000D01*
X622109000Y710629000D01*
X622109000Y710649000D01*
X622363000Y710649000D01*
X622363000Y710629000D01*
G37*
X622363000Y710629000D02*
X624649000Y710629000D01*
X624649000Y710649000D01*
X624903000Y710649000D01*
X624903000Y710629000D01*
X624923000Y710629000D01*
X624923000Y710375000D01*
X624903000Y710375000D01*
X624903000Y710355000D01*
X624649000Y710355000D01*
X624649000Y710375000D01*
X622363000Y710375000D01*
X622363000Y710355000D01*
X622109000Y710355000D01*
X622109000Y710375000D01*
X622089000Y710375000D01*
X622089000Y710629000D01*
X622109000Y710629000D01*
X622109000Y710649000D01*
X622363000Y710649000D01*
X622363000Y710629000D01*
M02*
