M48
; DRILL file {KiCad 5.1.5+dfsg1-2build2} date dom 26 dic 2021 10:41:40
; FORMAT={-:-/ absolute / inch / decimal}
; #@! TF.CreationDate,2021-12-26T10:41:40+01:00
; #@! TF.GenerationSoftware,Kicad,Pcbnew,5.1.5+dfsg1-2build2
; #@! TF.FileFunction,Plated,1,2,PTH
FMAT,2
INCH
T1C0.0157
T2C0.0315
T3C0.0320
T4C0.0394
%
G90
G05
T1
X24.4071Y27.5735
X24.5484Y27.192
X24.597Y26.4359
X24.6802Y26.476
X24.7337Y26.4169
X24.7422Y27.4819
X24.7873Y26.5655
X24.8692Y27.8345
X24.8811Y26.4273
X24.8967Y27.8602
X24.9087Y26.8621
X24.9468Y26.4607
X24.993Y26.4296
X25.0734Y26.6047
X25.1137Y26.8372
X25.1502Y27.7052
X25.1826Y27.1613
X25.2262Y26.4183
X25.2452Y26.9833
X25.3123Y26.4265
X25.3962Y26.806
X25.3988Y27.3205
X25.4015Y27.3775
X25.4186Y26.5774
X25.4482Y26.4024
X25.5066Y27.4731
X25.5129Y27.3979
X25.5208Y26.7736
X25.5534Y27.3956
X25.5578Y26.7141
X25.6254Y26.443
X25.6466Y26.9195
X25.6492Y27.1123
X25.6495Y27.588
X25.6497Y26.3945
X25.6802Y26.6457
X25.7081Y26.4713
X25.7113Y27.3262
X25.7198Y27.3628
X25.7439Y27.2567
X25.7885Y26.4139
X25.7915Y27.2754
X25.7953Y27.2389
X25.8748Y27.4916
X25.894Y27.24
X25.9524Y27.8085
X25.9575Y26.7362
X26.1204Y26.5886
X26.3279Y27.6076
X26.3369Y27.3439
X26.366Y26.8689
X26.3948Y26.6605
T2
X25.7975Y27.19
X25.7975Y27.09
X25.7975Y26.99
X25.7975Y26.89
X25.7975Y26.79
X25.8975Y27.29
X25.8975Y27.19
X25.8975Y27.09
X25.8975Y26.99
X25.8975Y26.89
X25.8975Y26.79
X25.8975Y26.69
X25.9975Y27.29
X25.9975Y27.19
X25.9975Y26.79
X25.9975Y26.69
X26.0975Y27.29
X26.0975Y27.19
X26.0975Y26.79
X26.0975Y26.69
X26.1975Y27.29
X26.1975Y27.19
X26.1975Y27.09
X26.1975Y26.99
X26.1975Y26.89
X26.1975Y26.79
X26.1975Y26.69
X26.2975Y27.19
X26.2975Y27.09
X26.2975Y26.99
X26.2975Y26.89
X26.2975Y26.79
X24.45Y26.6975
X24.5484Y26.6975
T3
X24.74Y27.25
X24.74Y27.15
X24.74Y27.05
X24.74Y26.95
X24.74Y26.85
X24.74Y26.75
X24.84Y27.35
X24.84Y27.25
X24.84Y27.15
X24.84Y27.05
X24.84Y26.95
X24.84Y26.85
X24.84Y26.75
X24.84Y26.65
X24.94Y27.35
X24.94Y27.25
X24.94Y26.75
X24.94Y26.65
X25.04Y27.35
X25.04Y27.25
X25.04Y26.75
X25.04Y26.65
X25.14Y27.35
X25.14Y27.25
X25.14Y26.75
X25.14Y26.65
X25.24Y27.35
X25.24Y27.25
X25.24Y26.75
X25.24Y26.65
X25.34Y27.35
X25.34Y27.25
X25.34Y27.15
X25.34Y27.05
X25.34Y26.95
X25.34Y26.85
X25.34Y26.75
X25.34Y26.65
X25.44Y27.25
X25.44Y27.15
X25.44Y27.05
X25.44Y26.95
X25.44Y26.85
X25.44Y26.75
T4
X24.1975Y27.755
X24.1975Y27.655
X24.2975Y27.755
X24.2975Y27.655
X24.3975Y27.755
X24.3975Y27.655
X24.4975Y27.755
X24.4975Y27.655
X24.5975Y27.755
X24.5975Y27.655
X24.6975Y27.755
X24.6975Y27.655
X24.7975Y27.755
X24.7975Y27.655
X24.8975Y27.755
X24.8975Y27.655
X24.9975Y27.755
X24.9975Y27.655
X25.0975Y27.755
X25.0975Y27.655
X25.1975Y27.755
X25.1975Y27.655
X25.2975Y27.755
X25.2975Y27.655
X25.3975Y27.755
X25.3975Y27.655
X25.4975Y27.755
X25.4975Y27.655
X25.5975Y27.755
X25.5975Y27.655
X25.6975Y27.755
X25.6975Y27.655
X25.7975Y27.755
X25.7975Y27.655
X25.8975Y27.755
X25.8975Y27.655
X25.9975Y27.755
X25.9975Y27.655
X26.0975Y27.755
X26.0975Y27.655
X26.1975Y27.755
X26.1975Y27.655
X26.2975Y27.755
X26.2975Y27.655
X26.3975Y27.755
X26.3975Y27.655
X26.4975Y27.755
X26.4975Y27.655
X26.5975Y27.755
X26.5975Y27.655
X25.0525Y27.98
X25.0525Y27.88
X25.1525Y27.98
X25.1525Y27.88
X25.2525Y27.98
X25.2525Y27.88
X25.3525Y27.98
X25.3525Y27.88
X25.4525Y27.98
X25.4525Y27.88
X25.5525Y27.98
X25.5525Y27.88
X25.6525Y27.98
X25.6525Y27.88
X25.7525Y27.98
X25.7525Y27.88
X24.2Y27.9825
X24.2Y27.8825
X24.3Y27.9825
X24.3Y27.8825
X24.4Y27.9825
X24.4Y27.8825
X24.5Y27.9825
X24.5Y27.8825
X24.6Y27.9825
X24.6Y27.8825
T0
M30
