G04 #@! TF.GenerationSoftware,KiCad,Pcbnew,5.1.5+dfsg1-2build2*
G04 #@! TF.CreationDate,2021-12-26T10:41:42+01:00*
G04 #@! TF.ProjectId,MSX USB Drive,4d535820-5553-4422-9044-726976652e6b,rev?*
G04 #@! TF.SameCoordinates,Original*
G04 #@! TF.FileFunction,Copper,L2,Bot*
G04 #@! TF.FilePolarity,Positive*
%FSLAX46Y46*%
G04 Gerber Fmt 4.6, Leading zero omitted, Abs format (unit mm)*
G04 Created by KiCad (PCBNEW 5.1.5+dfsg1-2build2) date 2021-12-26 10:41:42*
%MOMM*%
%LPD*%
G04 APERTURE LIST*
%ADD10O,1.700000X1.700000*%
%ADD11R,1.700000X1.700000*%
%ADD12C,1.600000*%
%ADD13R,1.600000X1.600000*%
%ADD14C,1.422400*%
%ADD15R,1.422400X1.422400*%
%ADD16C,1.397000*%
%ADD17R,1.397000X1.397000*%
%ADD18R,1.270000X7.620000*%
%ADD19C,0.100000*%
%ADD20C,1.000000*%
%ADD21C,0.800000*%
%ADD22C,0.400000*%
%ADD23C,0.250000*%
G04 APERTURE END LIST*
D10*
X614616000Y702437000D03*
X614616000Y704977000D03*
X617156000Y702437000D03*
X617156000Y704977000D03*
X619696000Y702437000D03*
X619696000Y704977000D03*
X622236000Y702437000D03*
X622236000Y704977000D03*
X624776000Y702437000D03*
X624776000Y704977000D03*
X627316000Y702437000D03*
X627316000Y704977000D03*
X629856000Y702437000D03*
X629856000Y704977000D03*
X632396000Y702437000D03*
X632396000Y704977000D03*
X634936000Y702437000D03*
X634936000Y704977000D03*
X637476000Y702437000D03*
X637476000Y704977000D03*
X640016000Y702437000D03*
X640016000Y704977000D03*
X642556000Y702437000D03*
X642556000Y704977000D03*
X645096000Y702437000D03*
X645096000Y704977000D03*
X647636000Y702437000D03*
X647636000Y704977000D03*
X650176000Y702437000D03*
X650176000Y704977000D03*
X652716000Y702437000D03*
X652716000Y704977000D03*
X655256000Y702437000D03*
X655256000Y704977000D03*
X657796000Y702437000D03*
X657796000Y704977000D03*
X660336000Y702437000D03*
X660336000Y704977000D03*
X662876000Y702437000D03*
X662876000Y704977000D03*
X665416000Y702437000D03*
X665416000Y704977000D03*
X667956000Y702437000D03*
X667956000Y704977000D03*
X670496000Y702437000D03*
X670496000Y704977000D03*
X673036000Y702437000D03*
X673036000Y704977000D03*
X675576000Y702437000D03*
D11*
X675576000Y704977000D03*
D12*
X623530000Y678116000D03*
D13*
X621030000Y678116000D03*
D14*
X667956000Y690626000D03*
X667956000Y688086000D03*
X667956000Y685546000D03*
X667956000Y683006000D03*
X665416000Y688086000D03*
X665416000Y685546000D03*
X665416000Y683006000D03*
X665416000Y680466000D03*
X665416000Y677926000D03*
X662876000Y677926000D03*
X660336000Y677926000D03*
X657796000Y677926000D03*
X667956000Y680466000D03*
X662876000Y680466000D03*
X660336000Y680466000D03*
X657796000Y680466000D03*
X655256000Y680466000D03*
X655256000Y683006000D03*
X655256000Y685546000D03*
X655256000Y688086000D03*
X655256000Y690626000D03*
X657796000Y683006000D03*
X657796000Y685546000D03*
X657796000Y688086000D03*
X657796000Y690626000D03*
X665416000Y693166000D03*
X662876000Y693166000D03*
X657796000Y693166000D03*
X660336000Y693166000D03*
X665416000Y690626000D03*
X660336000Y690626000D03*
D15*
X662876000Y690626000D03*
D16*
X638556000Y694690000D03*
X641096000Y692150000D03*
X641096000Y694690000D03*
X643636000Y692150000D03*
X643636000Y694690000D03*
X646176000Y692150000D03*
X643636000Y689610000D03*
X646176000Y689610000D03*
X643636000Y687070000D03*
X646176000Y687070000D03*
X643636000Y684530000D03*
X646176000Y684530000D03*
X643636000Y681990000D03*
X646176000Y681990000D03*
X643636000Y679450000D03*
X646176000Y679450000D03*
X643636000Y676910000D03*
X641096000Y679450000D03*
X641096000Y676910000D03*
X638556000Y679450000D03*
X638556000Y676910000D03*
X636016000Y679450000D03*
X636016000Y676910000D03*
X633476000Y679450000D03*
X633476000Y676910000D03*
X630936000Y679450000D03*
X630936000Y676910000D03*
X628396000Y679450000D03*
X630936000Y681990000D03*
X628396000Y681990000D03*
X630936000Y684530000D03*
X628396000Y684530000D03*
X630936000Y687070000D03*
X628396000Y687070000D03*
X630936000Y689610000D03*
X628396000Y689610000D03*
X630936000Y692150000D03*
X628396000Y692150000D03*
X630936000Y694690000D03*
X633476000Y692150000D03*
X633476000Y694690000D03*
X636016000Y692150000D03*
X636016000Y694690000D03*
D17*
X638556000Y692150000D03*
D11*
X636334000Y708152000D03*
D10*
X636334000Y710692000D03*
X638874000Y708152000D03*
X638874000Y710692000D03*
X641414000Y708152000D03*
X641414000Y710692000D03*
X643954000Y708152000D03*
X643954000Y710692000D03*
X646494000Y708152000D03*
X646494000Y710692000D03*
X649034000Y708152000D03*
X649034000Y710692000D03*
X651574000Y708152000D03*
X651574000Y710692000D03*
X654114000Y708152000D03*
X654114000Y710692000D03*
D11*
X624840000Y710756000D03*
D10*
X624840000Y708216000D03*
X622300000Y710756000D03*
X622300000Y708216000D03*
X619760000Y710756000D03*
X619760000Y708216000D03*
X617220000Y710756000D03*
X617220000Y708216000D03*
X614680000Y710756000D03*
X614680000Y708216000D03*
D18*
X617220000Y666560000D03*
X619760000Y666560000D03*
X675640000Y666560000D03*
X673100000Y666560000D03*
X662940000Y666560000D03*
X665480000Y666560000D03*
X657860000Y666560000D03*
X670560000Y666560000D03*
X668020000Y666560000D03*
X660400000Y666560000D03*
X642620000Y666560000D03*
X640080000Y666560000D03*
X637540000Y666560000D03*
X650240000Y666560000D03*
X655320000Y666560000D03*
X652780000Y666560000D03*
X647700000Y666560000D03*
X645160000Y666560000D03*
X635000000Y666560000D03*
X632460000Y666560000D03*
X629920000Y666560000D03*
X627380000Y666560000D03*
X622300000Y666560000D03*
X624840000Y666560000D03*
X614680000Y666560000D03*
G04 #@! TA.AperFunction,SMDPad,CuDef*
D19*
G36*
X635410505Y687960796D02*
G01*
X635434773Y687957196D01*
X635458572Y687951235D01*
X635481671Y687942970D01*
X635503850Y687932480D01*
X635524893Y687919868D01*
X635544599Y687905253D01*
X635562777Y687888777D01*
X635579253Y687870599D01*
X635593868Y687850893D01*
X635606480Y687829850D01*
X635616970Y687807671D01*
X635625235Y687784572D01*
X635631196Y687760773D01*
X635634796Y687736505D01*
X635636000Y687712001D01*
X635636000Y687061999D01*
X635634796Y687037495D01*
X635631196Y687013227D01*
X635625235Y686989428D01*
X635616970Y686966329D01*
X635606480Y686944150D01*
X635593868Y686923107D01*
X635579253Y686903401D01*
X635562777Y686885223D01*
X635544599Y686868747D01*
X635524893Y686854132D01*
X635503850Y686841520D01*
X635481671Y686831030D01*
X635458572Y686822765D01*
X635434773Y686816804D01*
X635410505Y686813204D01*
X635386001Y686812000D01*
X634485999Y686812000D01*
X634461495Y686813204D01*
X634437227Y686816804D01*
X634413428Y686822765D01*
X634390329Y686831030D01*
X634368150Y686841520D01*
X634347107Y686854132D01*
X634327401Y686868747D01*
X634309223Y686885223D01*
X634292747Y686903401D01*
X634278132Y686923107D01*
X634265520Y686944150D01*
X634255030Y686966329D01*
X634246765Y686989428D01*
X634240804Y687013227D01*
X634237204Y687037495D01*
X634236000Y687061999D01*
X634236000Y687712001D01*
X634237204Y687736505D01*
X634240804Y687760773D01*
X634246765Y687784572D01*
X634255030Y687807671D01*
X634265520Y687829850D01*
X634278132Y687850893D01*
X634292747Y687870599D01*
X634309223Y687888777D01*
X634327401Y687905253D01*
X634347107Y687919868D01*
X634368150Y687932480D01*
X634390329Y687942970D01*
X634413428Y687951235D01*
X634437227Y687957196D01*
X634461495Y687960796D01*
X634485999Y687962000D01*
X635386001Y687962000D01*
X635410505Y687960796D01*
G37*
G04 #@! TD.AperFunction*
G04 #@! TA.AperFunction,SMDPad,CuDef*
G36*
X635410505Y685910796D02*
G01*
X635434773Y685907196D01*
X635458572Y685901235D01*
X635481671Y685892970D01*
X635503850Y685882480D01*
X635524893Y685869868D01*
X635544599Y685855253D01*
X635562777Y685838777D01*
X635579253Y685820599D01*
X635593868Y685800893D01*
X635606480Y685779850D01*
X635616970Y685757671D01*
X635625235Y685734572D01*
X635631196Y685710773D01*
X635634796Y685686505D01*
X635636000Y685662001D01*
X635636000Y685011999D01*
X635634796Y684987495D01*
X635631196Y684963227D01*
X635625235Y684939428D01*
X635616970Y684916329D01*
X635606480Y684894150D01*
X635593868Y684873107D01*
X635579253Y684853401D01*
X635562777Y684835223D01*
X635544599Y684818747D01*
X635524893Y684804132D01*
X635503850Y684791520D01*
X635481671Y684781030D01*
X635458572Y684772765D01*
X635434773Y684766804D01*
X635410505Y684763204D01*
X635386001Y684762000D01*
X634485999Y684762000D01*
X634461495Y684763204D01*
X634437227Y684766804D01*
X634413428Y684772765D01*
X634390329Y684781030D01*
X634368150Y684791520D01*
X634347107Y684804132D01*
X634327401Y684818747D01*
X634309223Y684835223D01*
X634292747Y684853401D01*
X634278132Y684873107D01*
X634265520Y684894150D01*
X634255030Y684916329D01*
X634246765Y684939428D01*
X634240804Y684963227D01*
X634237204Y684987495D01*
X634236000Y685011999D01*
X634236000Y685662001D01*
X634237204Y685686505D01*
X634240804Y685710773D01*
X634246765Y685734572D01*
X634255030Y685757671D01*
X634265520Y685779850D01*
X634278132Y685800893D01*
X634292747Y685820599D01*
X634309223Y685838777D01*
X634327401Y685855253D01*
X634347107Y685869868D01*
X634368150Y685882480D01*
X634390329Y685892970D01*
X634413428Y685901235D01*
X634437227Y685907196D01*
X634461495Y685910796D01*
X634485999Y685912000D01*
X635386001Y685912000D01*
X635410505Y685910796D01*
G37*
G04 #@! TD.AperFunction*
G04 #@! TA.AperFunction,SMDPad,CuDef*
G36*
X640173505Y685910796D02*
G01*
X640197773Y685907196D01*
X640221572Y685901235D01*
X640244671Y685892970D01*
X640266850Y685882480D01*
X640287893Y685869868D01*
X640307599Y685855253D01*
X640325777Y685838777D01*
X640342253Y685820599D01*
X640356868Y685800893D01*
X640369480Y685779850D01*
X640379970Y685757671D01*
X640388235Y685734572D01*
X640394196Y685710773D01*
X640397796Y685686505D01*
X640399000Y685662001D01*
X640399000Y685011999D01*
X640397796Y684987495D01*
X640394196Y684963227D01*
X640388235Y684939428D01*
X640379970Y684916329D01*
X640369480Y684894150D01*
X640356868Y684873107D01*
X640342253Y684853401D01*
X640325777Y684835223D01*
X640307599Y684818747D01*
X640287893Y684804132D01*
X640266850Y684791520D01*
X640244671Y684781030D01*
X640221572Y684772765D01*
X640197773Y684766804D01*
X640173505Y684763204D01*
X640149001Y684762000D01*
X639248999Y684762000D01*
X639224495Y684763204D01*
X639200227Y684766804D01*
X639176428Y684772765D01*
X639153329Y684781030D01*
X639131150Y684791520D01*
X639110107Y684804132D01*
X639090401Y684818747D01*
X639072223Y684835223D01*
X639055747Y684853401D01*
X639041132Y684873107D01*
X639028520Y684894150D01*
X639018030Y684916329D01*
X639009765Y684939428D01*
X639003804Y684963227D01*
X639000204Y684987495D01*
X638999000Y685011999D01*
X638999000Y685662001D01*
X639000204Y685686505D01*
X639003804Y685710773D01*
X639009765Y685734572D01*
X639018030Y685757671D01*
X639028520Y685779850D01*
X639041132Y685800893D01*
X639055747Y685820599D01*
X639072223Y685838777D01*
X639090401Y685855253D01*
X639110107Y685869868D01*
X639131150Y685882480D01*
X639153329Y685892970D01*
X639176428Y685901235D01*
X639200227Y685907196D01*
X639224495Y685910796D01*
X639248999Y685912000D01*
X640149001Y685912000D01*
X640173505Y685910796D01*
G37*
G04 #@! TD.AperFunction*
G04 #@! TA.AperFunction,SMDPad,CuDef*
G36*
X640173505Y687960796D02*
G01*
X640197773Y687957196D01*
X640221572Y687951235D01*
X640244671Y687942970D01*
X640266850Y687932480D01*
X640287893Y687919868D01*
X640307599Y687905253D01*
X640325777Y687888777D01*
X640342253Y687870599D01*
X640356868Y687850893D01*
X640369480Y687829850D01*
X640379970Y687807671D01*
X640388235Y687784572D01*
X640394196Y687760773D01*
X640397796Y687736505D01*
X640399000Y687712001D01*
X640399000Y687061999D01*
X640397796Y687037495D01*
X640394196Y687013227D01*
X640388235Y686989428D01*
X640379970Y686966329D01*
X640369480Y686944150D01*
X640356868Y686923107D01*
X640342253Y686903401D01*
X640325777Y686885223D01*
X640307599Y686868747D01*
X640287893Y686854132D01*
X640266850Y686841520D01*
X640244671Y686831030D01*
X640221572Y686822765D01*
X640197773Y686816804D01*
X640173505Y686813204D01*
X640149001Y686812000D01*
X639248999Y686812000D01*
X639224495Y686813204D01*
X639200227Y686816804D01*
X639176428Y686822765D01*
X639153329Y686831030D01*
X639131150Y686841520D01*
X639110107Y686854132D01*
X639090401Y686868747D01*
X639072223Y686885223D01*
X639055747Y686903401D01*
X639041132Y686923107D01*
X639028520Y686944150D01*
X639018030Y686966329D01*
X639009765Y686989428D01*
X639003804Y687013227D01*
X639000204Y687037495D01*
X638999000Y687061999D01*
X638999000Y687712001D01*
X639000204Y687736505D01*
X639003804Y687760773D01*
X639009765Y687784572D01*
X639018030Y687807671D01*
X639028520Y687829850D01*
X639041132Y687850893D01*
X639055747Y687870599D01*
X639072223Y687888777D01*
X639090401Y687905253D01*
X639110107Y687919868D01*
X639131150Y687932480D01*
X639153329Y687942970D01*
X639176428Y687951235D01*
X639200227Y687957196D01*
X639224495Y687960796D01*
X639248999Y687962000D01*
X640149001Y687962000D01*
X640173505Y687960796D01*
G37*
G04 #@! TD.AperFunction*
G04 #@! TA.AperFunction,SMDPad,CuDef*
G36*
X662144505Y687407796D02*
G01*
X662168773Y687404196D01*
X662192572Y687398235D01*
X662215671Y687389970D01*
X662237850Y687379480D01*
X662258893Y687366868D01*
X662278599Y687352253D01*
X662296777Y687335777D01*
X662313253Y687317599D01*
X662327868Y687297893D01*
X662340480Y687276850D01*
X662350970Y687254671D01*
X662359235Y687231572D01*
X662365196Y687207773D01*
X662368796Y687183505D01*
X662370000Y687159001D01*
X662370000Y686508999D01*
X662368796Y686484495D01*
X662365196Y686460227D01*
X662359235Y686436428D01*
X662350970Y686413329D01*
X662340480Y686391150D01*
X662327868Y686370107D01*
X662313253Y686350401D01*
X662296777Y686332223D01*
X662278599Y686315747D01*
X662258893Y686301132D01*
X662237850Y686288520D01*
X662215671Y686278030D01*
X662192572Y686269765D01*
X662168773Y686263804D01*
X662144505Y686260204D01*
X662120001Y686259000D01*
X661219999Y686259000D01*
X661195495Y686260204D01*
X661171227Y686263804D01*
X661147428Y686269765D01*
X661124329Y686278030D01*
X661102150Y686288520D01*
X661081107Y686301132D01*
X661061401Y686315747D01*
X661043223Y686332223D01*
X661026747Y686350401D01*
X661012132Y686370107D01*
X660999520Y686391150D01*
X660989030Y686413329D01*
X660980765Y686436428D01*
X660974804Y686460227D01*
X660971204Y686484495D01*
X660970000Y686508999D01*
X660970000Y687159001D01*
X660971204Y687183505D01*
X660974804Y687207773D01*
X660980765Y687231572D01*
X660989030Y687254671D01*
X660999520Y687276850D01*
X661012132Y687297893D01*
X661026747Y687317599D01*
X661043223Y687335777D01*
X661061401Y687352253D01*
X661081107Y687366868D01*
X661102150Y687379480D01*
X661124329Y687389970D01*
X661147428Y687398235D01*
X661171227Y687404196D01*
X661195495Y687407796D01*
X661219999Y687409000D01*
X662120001Y687409000D01*
X662144505Y687407796D01*
G37*
G04 #@! TD.AperFunction*
G04 #@! TA.AperFunction,SMDPad,CuDef*
G36*
X662144505Y685357796D02*
G01*
X662168773Y685354196D01*
X662192572Y685348235D01*
X662215671Y685339970D01*
X662237850Y685329480D01*
X662258893Y685316868D01*
X662278599Y685302253D01*
X662296777Y685285777D01*
X662313253Y685267599D01*
X662327868Y685247893D01*
X662340480Y685226850D01*
X662350970Y685204671D01*
X662359235Y685181572D01*
X662365196Y685157773D01*
X662368796Y685133505D01*
X662370000Y685109001D01*
X662370000Y684458999D01*
X662368796Y684434495D01*
X662365196Y684410227D01*
X662359235Y684386428D01*
X662350970Y684363329D01*
X662340480Y684341150D01*
X662327868Y684320107D01*
X662313253Y684300401D01*
X662296777Y684282223D01*
X662278599Y684265747D01*
X662258893Y684251132D01*
X662237850Y684238520D01*
X662215671Y684228030D01*
X662192572Y684219765D01*
X662168773Y684213804D01*
X662144505Y684210204D01*
X662120001Y684209000D01*
X661219999Y684209000D01*
X661195495Y684210204D01*
X661171227Y684213804D01*
X661147428Y684219765D01*
X661124329Y684228030D01*
X661102150Y684238520D01*
X661081107Y684251132D01*
X661061401Y684265747D01*
X661043223Y684282223D01*
X661026747Y684300401D01*
X661012132Y684320107D01*
X660999520Y684341150D01*
X660989030Y684363329D01*
X660980765Y684386428D01*
X660974804Y684410227D01*
X660971204Y684434495D01*
X660970000Y684458999D01*
X660970000Y685109001D01*
X660971204Y685133505D01*
X660974804Y685157773D01*
X660980765Y685181572D01*
X660989030Y685204671D01*
X660999520Y685226850D01*
X661012132Y685247893D01*
X661026747Y685267599D01*
X661043223Y685285777D01*
X661061401Y685302253D01*
X661081107Y685316868D01*
X661102150Y685329480D01*
X661124329Y685339970D01*
X661147428Y685348235D01*
X661171227Y685354196D01*
X661195495Y685357796D01*
X661219999Y685359000D01*
X662120001Y685359000D01*
X662144505Y685357796D01*
G37*
G04 #@! TD.AperFunction*
D20*
X651489000Y688653000D03*
X641228000Y685377000D03*
X645632000Y675067000D03*
X623530000Y690677000D03*
D21*
X648027000Y695907000D03*
X668729000Y701232000D03*
X668956000Y694534000D03*
X651497000Y700734000D03*
X657708000Y691896000D03*
X632682000Y682297000D03*
X645063000Y680872000D03*
X655103000Y692795000D03*
X649168000Y678537000D03*
X637888000Y681664000D03*
X636864000Y675759000D03*
X628452000Y698039000D03*
X629598000Y674764000D03*
X663459000Y675351000D03*
X628235000Y670990000D03*
X632375000Y707649000D03*
X626876000Y672490000D03*
X631677000Y706997000D03*
X638814000Y703712000D03*
X652987000Y672370000D03*
X631980000Y671253000D03*
X647868000Y697818000D03*
X655200000Y691867000D03*
X633649000Y672101000D03*
X650886000Y671653000D03*
X653895000Y692320000D03*
X634823000Y671311000D03*
X640745000Y671025000D03*
X642932000Y671232000D03*
X653068000Y694086000D03*
X651423000Y683756000D03*
X653284000Y695014000D03*
X648229000Y680050000D03*
X646384000Y670622000D03*
X652277000Y676802000D03*
X651502000Y670420000D03*
X657220000Y698286000D03*
X659320000Y679099000D03*
X655028000Y670914000D03*
X645129000Y693941000D03*
X659192000Y706336000D03*
X649057000Y695847000D03*
X639638000Y689896000D03*
X619940000Y700367000D03*
X669696000Y682470000D03*
X645197000Y695388000D03*
X670428000Y677176000D03*
X624765000Y671472000D03*
D22*
X661670000Y693166000D02*
X661670000Y693304000D01*
X661670000Y693304000D02*
X660299000Y694675000D01*
X660299000Y694675000D02*
X654688000Y694675000D01*
X654688000Y694675000D02*
X651489000Y691476000D01*
X651489000Y691476000D02*
X651489000Y688653000D01*
X661670000Y693166000D02*
X662876000Y693166000D01*
X661670000Y693166000D02*
X661670000Y686834000D01*
X636016000Y679450000D02*
X636016000Y686307000D01*
X636016000Y686307000D02*
X634936000Y687387000D01*
X639699000Y687387000D02*
X641228000Y685858000D01*
X641228000Y685858000D02*
X641228000Y685377000D01*
X636016000Y692150000D02*
X636016000Y688467000D01*
X636016000Y688467000D02*
X634936000Y687387000D01*
X621030000Y678116000D02*
X621030000Y704844000D01*
X621030000Y704844000D02*
X620897000Y704977000D01*
X619760000Y666560000D02*
X619760000Y670721000D01*
X621030000Y678116000D02*
X621030000Y671991000D01*
X621030000Y671991000D02*
X619760000Y670721000D01*
X619696000Y704977000D02*
X620897000Y704977000D01*
X622300000Y708216000D02*
X622300000Y707015000D01*
X622300000Y707015000D02*
X620897000Y705612000D01*
X620897000Y705612000D02*
X620897000Y704977000D01*
X619760000Y666560000D02*
X617220000Y666560000D01*
X651574000Y709491000D02*
X651075000Y709491000D01*
X651075000Y709491000D02*
X650304000Y708720000D01*
X650304000Y708720000D02*
X650304000Y707429000D01*
X650304000Y707429000D02*
X649438000Y706563000D01*
X649438000Y706563000D02*
X647551000Y706563000D01*
X647551000Y706563000D02*
X646366000Y705378000D01*
X646366000Y705378000D02*
X646366000Y701192000D01*
X646366000Y701192000D02*
X641466000Y696292000D01*
X641466000Y696292000D02*
X641466000Y694690000D01*
X643636000Y680587000D02*
X643718000Y680587000D01*
X643718000Y680587000D02*
X644698000Y681567000D01*
X644698000Y681567000D02*
X644698000Y687508000D01*
X644698000Y687508000D02*
X643623000Y688583000D01*
X643623000Y688583000D02*
X642714000Y688583000D01*
X642714000Y688583000D02*
X642598000Y688699000D01*
X642598000Y688699000D02*
X642598000Y693188000D01*
X642598000Y693188000D02*
X641466000Y694320000D01*
X641466000Y694320000D02*
X641466000Y694690000D01*
X641466000Y694690000D02*
X641096000Y694690000D01*
X651574000Y710692000D02*
X651574000Y709491000D01*
X639699000Y685337000D02*
X639699000Y684410000D01*
X639699000Y684410000D02*
X643522000Y680587000D01*
X643522000Y680587000D02*
X643636000Y680587000D01*
X643636000Y680587000D02*
X643636000Y679450000D01*
X645632000Y675067000D02*
X645632000Y677454000D01*
X645632000Y677454000D02*
X643636000Y679450000D01*
X636016000Y676910000D02*
X634936000Y677990000D01*
X634936000Y677990000D02*
X634936000Y685337000D01*
X623530000Y690677000D02*
X623530000Y703029000D01*
X623530000Y703029000D02*
X624277000Y703776000D01*
X623530000Y678116000D02*
X623530000Y690677000D01*
X623530000Y670721000D02*
X623530000Y678116000D01*
X624277000Y703776000D02*
X624776000Y703776000D01*
X623437000Y704977000D02*
X623437000Y704616000D01*
X623437000Y704616000D02*
X624277000Y703776000D01*
X622236000Y704977000D02*
X623437000Y704977000D01*
X624776000Y704977000D02*
X624776000Y703776000D01*
X660336000Y677926000D02*
X661670000Y679260000D01*
X661670000Y679260000D02*
X661670000Y684784000D01*
X623530000Y670721000D02*
X622300000Y670721000D01*
X624840000Y670721000D02*
X623530000Y670721000D01*
X624776000Y704977000D02*
X624776000Y706178000D01*
X624840000Y708216000D02*
X624840000Y706242000D01*
X624840000Y706242000D02*
X624776000Y706178000D01*
X622300000Y666560000D02*
X622300000Y670721000D01*
X624840000Y666560000D02*
X624840000Y670721000D01*
D23*
X648027000Y695907000D02*
X648633000Y696513000D01*
X648633000Y696513000D02*
X650298000Y696513000D01*
X650298000Y696513000D02*
X653665000Y699880000D01*
X653665000Y699880000D02*
X659373000Y699880000D01*
X659373000Y699880000D02*
X661456000Y701963000D01*
X661456000Y701963000D02*
X661456000Y702835000D01*
X661456000Y702835000D02*
X662496000Y703875000D01*
X662496000Y703875000D02*
X662876000Y703875000D01*
X662940000Y670622000D02*
X671182000Y678864000D01*
X671182000Y678864000D02*
X671182000Y684094000D01*
X671182000Y684094000D02*
X671789000Y684701000D01*
X671789000Y684701000D02*
X671789000Y698172000D01*
X671789000Y698172000D02*
X668729000Y701232000D01*
X662876000Y704977000D02*
X662876000Y703875000D01*
X662940000Y666560000D02*
X662940000Y670622000D01*
X653658000Y709254000D02*
X653012000Y708608000D01*
X653012000Y708608000D02*
X653012000Y707300000D01*
X653012000Y707300000D02*
X651309000Y705597000D01*
X651309000Y705597000D02*
X651309000Y704284000D01*
X651309000Y704284000D02*
X650565000Y703540000D01*
X650565000Y703540000D02*
X649122000Y703540000D01*
X649122000Y703540000D02*
X649073000Y703491000D01*
X649073000Y703491000D02*
X649073000Y700918000D01*
X649073000Y700918000D02*
X643636000Y695481000D01*
X643636000Y695481000D02*
X643636000Y694690000D01*
X659234000Y704977000D02*
X659234000Y705235000D01*
X659234000Y705235000D02*
X655215000Y709254000D01*
X655215000Y709254000D02*
X653658000Y709254000D01*
X653658000Y709254000D02*
X652844000Y710068000D01*
X652844000Y710068000D02*
X652844000Y711083000D01*
X652844000Y711083000D02*
X651937000Y711990000D01*
X651937000Y711990000D02*
X638276000Y711990000D01*
X638276000Y711990000D02*
X637436000Y711150000D01*
X637436000Y711150000D02*
X637436000Y710692000D01*
X636334000Y710692000D02*
X637436000Y710692000D01*
X660336000Y704977000D02*
X659234000Y704977000D01*
X660400000Y670622000D02*
X660457000Y670622000D01*
X660457000Y670622000D02*
X670470000Y680635000D01*
X670470000Y680635000D02*
X670470000Y683916000D01*
X670470000Y683916000D02*
X671224000Y684670000D01*
X671224000Y684670000D02*
X671224000Y692266000D01*
X671224000Y692266000D02*
X668956000Y694534000D01*
X660400000Y666560000D02*
X660400000Y670622000D01*
X655320000Y666560000D02*
X655320000Y668903000D01*
X655320000Y668903000D02*
X663861000Y677444000D01*
X663861000Y677444000D02*
X663861000Y683991000D01*
X663861000Y683991000D02*
X665416000Y685546000D01*
X660975000Y685809000D02*
X663133000Y685809000D01*
X663133000Y685809000D02*
X663849000Y686525000D01*
X663849000Y686525000D02*
X666977000Y686525000D01*
X666977000Y686525000D02*
X667956000Y685546000D01*
X652780000Y670622000D02*
X658942000Y676784000D01*
X658942000Y676784000D02*
X658942000Y678240000D01*
X658942000Y678240000D02*
X658504000Y678678000D01*
X658504000Y678678000D02*
X658504000Y679217000D01*
X658504000Y679217000D02*
X659366000Y680079000D01*
X659366000Y680079000D02*
X659366000Y684200000D01*
X659366000Y684200000D02*
X660975000Y685809000D01*
X660975000Y685809000D02*
X659372000Y687412000D01*
X659372000Y687412000D02*
X659372000Y690678000D01*
X659372000Y690678000D02*
X658154000Y691896000D01*
X658154000Y691896000D02*
X657708000Y691896000D01*
X652716000Y704977000D02*
X652716000Y703875000D01*
X651497000Y700734000D02*
X651497000Y703114000D01*
X651497000Y703114000D02*
X652258000Y703875000D01*
X652258000Y703875000D02*
X652716000Y703875000D01*
X652780000Y666560000D02*
X652780000Y670622000D01*
X655256000Y690626000D02*
X656291000Y689591000D01*
X656291000Y689591000D02*
X656291000Y682167000D01*
X656291000Y682167000D02*
X655860000Y681736000D01*
X655860000Y681736000D02*
X654821000Y681736000D01*
X654821000Y681736000D02*
X649586000Y676501000D01*
X649586000Y676501000D02*
X649586000Y671276000D01*
X649586000Y671276000D02*
X650240000Y670622000D01*
X632682000Y682297000D02*
X632395000Y682010000D01*
X632395000Y682010000D02*
X632395000Y678903000D01*
X632395000Y678903000D02*
X630936000Y677444000D01*
X630936000Y677444000D02*
X630936000Y676910000D01*
X650240000Y666560000D02*
X650240000Y670622000D01*
X657796000Y693166000D02*
X656980000Y693982000D01*
X656980000Y693982000D02*
X654635000Y693982000D01*
X654635000Y693982000D02*
X652499000Y691846000D01*
X652499000Y691846000D02*
X652499000Y683215000D01*
X652499000Y683215000D02*
X648682000Y679398000D01*
X648682000Y679398000D02*
X647700000Y679398000D01*
X647700000Y679398000D02*
X646227000Y680871000D01*
X646227000Y680871000D02*
X645063000Y680871000D01*
X645063000Y680871000D02*
X645063000Y680872000D01*
X647700000Y666560000D02*
X647700000Y679398000D01*
X642620000Y666560000D02*
X642620000Y670622000D01*
X642620000Y670622000D02*
X641733000Y671509000D01*
X641733000Y671509000D02*
X641733000Y676273000D01*
X641733000Y676273000D02*
X641096000Y676910000D01*
X641096000Y676910000D02*
X639885000Y678121000D01*
X639885000Y678121000D02*
X639885000Y682555000D01*
X639885000Y682555000D02*
X638343000Y684097000D01*
X638343000Y684097000D02*
X638343000Y690057000D01*
X638343000Y690057000D02*
X639544000Y691258000D01*
X639544000Y691258000D02*
X639544000Y698196000D01*
X639544000Y698196000D02*
X641404000Y700056000D01*
X641404000Y700056000D02*
X641404000Y703825000D01*
X641404000Y703825000D02*
X642556000Y704977000D01*
X655103000Y692795000D02*
X654548000Y692240000D01*
X654548000Y692240000D02*
X654548000Y691696000D01*
X654548000Y691696000D02*
X654049000Y691197000D01*
X654049000Y691197000D02*
X654049000Y686753000D01*
X654049000Y686753000D02*
X655256000Y685546000D01*
X655256000Y685546000D02*
X655256000Y684625000D01*
X655256000Y684625000D02*
X649168000Y678537000D01*
X638556000Y676910000D02*
X640080000Y675386000D01*
X640080000Y675386000D02*
X640080000Y666560000D01*
X637888000Y681664000D02*
X637148000Y682404000D01*
X637148000Y682404000D02*
X637148000Y699586000D01*
X637148000Y699586000D02*
X638881000Y701319000D01*
X638881000Y701319000D02*
X638881000Y702658000D01*
X638881000Y702658000D02*
X637664000Y703875000D01*
X637664000Y703875000D02*
X637476000Y703875000D01*
X637540000Y674904000D02*
X637540000Y681316000D01*
X637540000Y681316000D02*
X637888000Y681664000D01*
X637540000Y666560000D02*
X637540000Y674904000D01*
X633476000Y676910000D02*
X635482000Y674904000D01*
X635482000Y674904000D02*
X637540000Y674904000D01*
X637476000Y704977000D02*
X637476000Y703875000D01*
X630936000Y684530000D02*
X630936000Y683336000D01*
X630936000Y683336000D02*
X629914000Y682314000D01*
X629914000Y682314000D02*
X629914000Y680748000D01*
X629914000Y680748000D02*
X629537000Y680371000D01*
X629537000Y680371000D02*
X629537000Y676284000D01*
X629537000Y676284000D02*
X630955000Y674866000D01*
X630955000Y674866000D02*
X630955000Y673846000D01*
X630955000Y673846000D02*
X635000000Y669801000D01*
X635000000Y669801000D02*
X635000000Y670622000D01*
X635000000Y666560000D02*
X635000000Y669801000D01*
X635000000Y670622000D02*
X635057000Y670622000D01*
X635057000Y670622000D02*
X635475000Y671040000D01*
X635475000Y671040000D02*
X635475000Y673567000D01*
X635475000Y673567000D02*
X632525000Y676517000D01*
X632525000Y676517000D02*
X632525000Y677303000D01*
X632525000Y677303000D02*
X633112000Y677890000D01*
X633112000Y677890000D02*
X634358000Y677890000D01*
X634358000Y677890000D02*
X634430000Y677818000D01*
X634430000Y677818000D02*
X634430000Y676618000D01*
X634430000Y676618000D02*
X635289000Y675759000D01*
X635289000Y675759000D02*
X636864000Y675759000D01*
X630936000Y684530000D02*
X632397000Y685991000D01*
X632397000Y685991000D02*
X632397000Y697654000D01*
X632397000Y697654000D02*
X633666000Y698923000D01*
X633666000Y698923000D02*
X633666000Y703063000D01*
X633666000Y703063000D02*
X634478000Y703875000D01*
X634478000Y703875000D02*
X634936000Y703875000D01*
X634936000Y704977000D02*
X634936000Y703875000D01*
X628396000Y687070000D02*
X627444000Y688022000D01*
X627444000Y688022000D02*
X627444000Y697031000D01*
X627444000Y697031000D02*
X628452000Y698039000D01*
X629598000Y674764000D02*
X629598000Y672658000D01*
X629598000Y672658000D02*
X631655000Y670601000D01*
X631655000Y670601000D02*
X631710000Y670601000D01*
X631710000Y670601000D02*
X631725000Y670586000D01*
X631725000Y670586000D02*
X632266000Y670586000D01*
X632266000Y670586000D02*
X632302000Y670622000D01*
X632302000Y670622000D02*
X632460000Y670622000D01*
X632460000Y666560000D02*
X632460000Y670622000D01*
X629921000Y692150000D02*
X629921000Y690703000D01*
X629921000Y690703000D02*
X629348000Y690130000D01*
X629348000Y690130000D02*
X629348000Y683620000D01*
X629348000Y683620000D02*
X629276000Y683548000D01*
X629276000Y683548000D02*
X628576000Y683548000D01*
X628576000Y683548000D02*
X627068000Y682040000D01*
X627068000Y682040000D02*
X627068000Y673474000D01*
X627068000Y673474000D02*
X629920000Y670622000D01*
X629921000Y692150000D02*
X629921000Y697718000D01*
X629921000Y697718000D02*
X631126000Y698923000D01*
X631126000Y698923000D02*
X631126000Y703063000D01*
X631126000Y703063000D02*
X630314000Y703875000D01*
X630314000Y703875000D02*
X629856000Y703875000D01*
X629921000Y692150000D02*
X630936000Y692150000D01*
X629856000Y704977000D02*
X629856000Y703875000D01*
X629920000Y666560000D02*
X629920000Y670622000D01*
X627380000Y670622000D02*
X627867000Y670622000D01*
X627867000Y670622000D02*
X628235000Y670990000D01*
X627316000Y703875000D02*
X626858000Y703875000D01*
X626858000Y703875000D02*
X625924000Y702941000D01*
X625924000Y702941000D02*
X625924000Y672078000D01*
X625924000Y672078000D02*
X627380000Y670622000D01*
X667956000Y680466000D02*
X666398000Y678908000D01*
X666398000Y678908000D02*
X664524000Y678908000D01*
X664524000Y678908000D02*
X664452000Y678836000D01*
X664452000Y678836000D02*
X664452000Y676344000D01*
X664452000Y676344000D02*
X663459000Y675351000D01*
X636334000Y708152000D02*
X635232000Y708152000D01*
X635232000Y708152000D02*
X634729000Y707649000D01*
X634729000Y707649000D02*
X632375000Y707649000D01*
X627316000Y704977000D02*
X627316000Y703875000D01*
X627380000Y666560000D02*
X627380000Y670622000D01*
X627316000Y702437000D02*
X627316000Y701335000D01*
X627316000Y701335000D02*
X626496000Y700515000D01*
X626496000Y700515000D02*
X626496000Y672870000D01*
X626496000Y672870000D02*
X626876000Y672490000D01*
X638874000Y708152000D02*
X637772000Y708152000D01*
X631677000Y706997000D02*
X637311000Y706997000D01*
X637311000Y706997000D02*
X637772000Y707458000D01*
X637772000Y707458000D02*
X637772000Y708152000D01*
X629856000Y702437000D02*
X629856000Y701335000D01*
X628396000Y689610000D02*
X628396000Y690450000D01*
X628396000Y690450000D02*
X629459000Y691513000D01*
X629459000Y691513000D02*
X629459000Y700938000D01*
X629459000Y700938000D02*
X629856000Y701335000D01*
X642852000Y708152000D02*
X642852000Y707694000D01*
X642852000Y707694000D02*
X641783000Y706625000D01*
X641783000Y706625000D02*
X640054000Y706625000D01*
X640054000Y706625000D02*
X638814000Y705385000D01*
X638814000Y705385000D02*
X638814000Y703712000D01*
X643954000Y708152000D02*
X642852000Y708152000D01*
X632396000Y702437000D02*
X632396000Y701335000D01*
X630936000Y687070000D02*
X631939000Y688073000D01*
X631939000Y688073000D02*
X631939000Y700878000D01*
X631939000Y700878000D02*
X632396000Y701335000D01*
X631980000Y671253000D02*
X630578000Y672655000D01*
X630578000Y672655000D02*
X630578000Y674709000D01*
X630578000Y674709000D02*
X628795000Y676492000D01*
X628795000Y676492000D02*
X628795000Y677708000D01*
X628795000Y677708000D02*
X628794000Y677708000D01*
X628794000Y677708000D02*
X627445000Y679057000D01*
X627445000Y679057000D02*
X627445000Y679843000D01*
X627445000Y679843000D02*
X628003000Y680401000D01*
X628003000Y680401000D02*
X628555000Y680401000D01*
X628555000Y680401000D02*
X629349000Y681195000D01*
X629349000Y681195000D02*
X629349000Y682368000D01*
X629349000Y682368000D02*
X629726000Y682745000D01*
X629726000Y682745000D02*
X629726000Y685860000D01*
X629726000Y685860000D02*
X630936000Y687070000D01*
X657796000Y680466000D02*
X652987000Y675657000D01*
X652987000Y675657000D02*
X652987000Y672370000D01*
X647868000Y697818000D02*
X649657000Y697818000D01*
X649657000Y697818000D02*
X654114000Y702275000D01*
X654114000Y702275000D02*
X654114000Y708152000D01*
X655256000Y680466000D02*
X656669000Y681879000D01*
X656669000Y681879000D02*
X656669000Y689802000D01*
X656669000Y689802000D02*
X656289000Y690182000D01*
X656289000Y690182000D02*
X656289000Y691155000D01*
X656289000Y691155000D02*
X655577000Y691867000D01*
X655577000Y691867000D02*
X655200000Y691867000D01*
X633649000Y672101000D02*
X631467000Y674283000D01*
X631467000Y674283000D02*
X631467000Y674889000D01*
X631467000Y674889000D02*
X629914000Y676442000D01*
X629914000Y676442000D02*
X629914000Y680024000D01*
X629914000Y680024000D02*
X630936000Y681046000D01*
X630936000Y681046000D02*
X630936000Y681990000D01*
X650886000Y671653000D02*
X650886000Y676333000D01*
X650886000Y676333000D02*
X655019000Y680466000D01*
X655019000Y680466000D02*
X655256000Y680466000D01*
X657796000Y688086000D02*
X657796000Y689210000D01*
X657796000Y689210000D02*
X656718000Y690288000D01*
X656718000Y690288000D02*
X656718000Y692351000D01*
X656718000Y692351000D02*
X655622000Y693447000D01*
X655622000Y693447000D02*
X654833000Y693447000D01*
X654833000Y693447000D02*
X653895000Y692509000D01*
X653895000Y692509000D02*
X653895000Y692320000D01*
X634823000Y671311000D02*
X634823000Y671849000D01*
X634823000Y671849000D02*
X631995000Y674677000D01*
X631995000Y674677000D02*
X631995000Y677969000D01*
X631995000Y677969000D02*
X633476000Y679450000D01*
X633476000Y679450000D02*
X633476000Y689870000D01*
X633476000Y689870000D02*
X634909000Y691303000D01*
X634909000Y691303000D02*
X634909000Y698768000D01*
X634909000Y698768000D02*
X637476000Y701335000D01*
X637476000Y702437000D02*
X637476000Y701335000D01*
X638556000Y679450000D02*
X638556000Y682182000D01*
X638556000Y682182000D02*
X637526000Y683212000D01*
X637526000Y683212000D02*
X637526000Y698845000D01*
X637526000Y698845000D02*
X640016000Y701335000D01*
X638556000Y679450000D02*
X639507000Y678499000D01*
X639507000Y678499000D02*
X639507000Y676633000D01*
X639507000Y676633000D02*
X640745000Y675395000D01*
X640745000Y675395000D02*
X640745000Y671025000D01*
X640016000Y702437000D02*
X640016000Y701335000D01*
X651423000Y683756000D02*
X650715000Y684464000D01*
X650715000Y684464000D02*
X650715000Y691733000D01*
X650715000Y691733000D02*
X653068000Y694086000D01*
X641096000Y679450000D02*
X642306000Y678240000D01*
X642306000Y678240000D02*
X642306000Y671858000D01*
X642306000Y671858000D02*
X642932000Y671232000D01*
X643954000Y710692000D02*
X643954000Y709590000D01*
X642556000Y702437000D02*
X642556000Y703539000D01*
X642556000Y703539000D02*
X643586000Y703539000D01*
X643586000Y703539000D02*
X643658000Y703611000D01*
X643658000Y703611000D02*
X643658000Y705695000D01*
X643658000Y705695000D02*
X645224000Y707261000D01*
X645224000Y707261000D02*
X645224000Y708778000D01*
X645224000Y708778000D02*
X644412000Y709590000D01*
X644412000Y709590000D02*
X643954000Y709590000D01*
X653284000Y695014000D02*
X653074000Y695014000D01*
X653074000Y695014000D02*
X648229000Y690169000D01*
X648229000Y690169000D02*
X648229000Y680050000D01*
X646176000Y679450000D02*
X646384000Y679242000D01*
X646384000Y679242000D02*
X646384000Y670622000D01*
X667956000Y688086000D02*
X669716000Y689846000D01*
X669716000Y689846000D02*
X669716000Y691785000D01*
X669716000Y691785000D02*
X667550000Y693951000D01*
X667550000Y693951000D02*
X667550000Y694078000D01*
X667550000Y694078000D02*
X664210000Y697418000D01*
X664210000Y697418000D02*
X652630000Y697418000D01*
X652630000Y697418000D02*
X648868000Y693656000D01*
X648868000Y693656000D02*
X645769000Y693656000D01*
X645769000Y693656000D02*
X645371000Y693258000D01*
X645371000Y693258000D02*
X643255000Y693258000D01*
X643255000Y693258000D02*
X642367000Y694146000D01*
X642367000Y694146000D02*
X642367000Y696066000D01*
X642367000Y696066000D02*
X647636000Y701335000D01*
X647636000Y702437000D02*
X647636000Y701335000D01*
X652277000Y676802000D02*
X652277000Y671195000D01*
X652277000Y671195000D02*
X651502000Y670420000D01*
X657796000Y690626000D02*
X658988000Y689434000D01*
X658988000Y689434000D02*
X658988000Y682324000D01*
X658988000Y682324000D02*
X658688000Y682024000D01*
X658688000Y682024000D02*
X657806000Y682024000D01*
X657806000Y682024000D02*
X656833000Y681051000D01*
X656833000Y681051000D02*
X656833000Y680590000D01*
X656833000Y680590000D02*
X653045000Y676802000D01*
X653045000Y676802000D02*
X652277000Y676802000D01*
X667956000Y683006000D02*
X670282000Y685332000D01*
X670282000Y685332000D02*
X670282000Y691753000D01*
X670282000Y691753000D02*
X667927000Y694108000D01*
X667927000Y694108000D02*
X667927000Y694235000D01*
X667927000Y694235000D02*
X663876000Y698286000D01*
X663876000Y698286000D02*
X657220000Y698286000D01*
X659320000Y679099000D02*
X659320000Y675206000D01*
X659320000Y675206000D02*
X655028000Y670914000D01*
X645129000Y693941000D02*
X647977000Y696789000D01*
X647977000Y696789000D02*
X648296000Y696789000D01*
X648296000Y696789000D02*
X648397000Y696890000D01*
X648397000Y696890000D02*
X650141000Y696890000D01*
X650141000Y696890000D02*
X653508000Y700257000D01*
X653508000Y700257000D02*
X657623000Y700257000D01*
X657623000Y700257000D02*
X659234000Y701868000D01*
X659234000Y701868000D02*
X659234000Y702437000D01*
X660336000Y702437000D02*
X659234000Y702437000D01*
X660336000Y702437000D02*
X660336000Y702988000D01*
X660336000Y703539000D02*
X661366000Y703539000D01*
X661366000Y703539000D02*
X661438000Y703611000D01*
X661438000Y703611000D02*
X661438000Y705701000D01*
X661438000Y705701000D02*
X660803000Y706336000D01*
X660803000Y706336000D02*
X659192000Y706336000D01*
X660336000Y702988000D02*
X660336000Y703539000D01*
X649057000Y695847000D02*
X650348000Y695847000D01*
X650348000Y695847000D02*
X654003000Y699502000D01*
X654003000Y699502000D02*
X662481000Y699502000D01*
X662481000Y699502000D02*
X664314000Y701335000D01*
X664314000Y701335000D02*
X664314000Y702437000D01*
X665416000Y702437000D02*
X664314000Y702437000D01*
X665416000Y680466000D02*
X664452000Y681430000D01*
X664452000Y681430000D02*
X664452000Y683565000D01*
X664452000Y683565000D02*
X665163000Y684276000D01*
X665163000Y684276000D02*
X668103000Y684276000D01*
X668103000Y684276000D02*
X668969000Y685142000D01*
X668969000Y685142000D02*
X668969000Y686258000D01*
X668969000Y686258000D02*
X668411000Y686816000D01*
X668411000Y686816000D02*
X667399000Y686816000D01*
X667399000Y686816000D02*
X666687000Y687528000D01*
X666687000Y687528000D02*
X666687000Y688691000D01*
X666687000Y688691000D02*
X667046000Y689050000D01*
X667046000Y689050000D02*
X668360000Y689050000D01*
X668360000Y689050000D02*
X669339000Y690029000D01*
X669339000Y690029000D02*
X669339000Y691628000D01*
X669339000Y691628000D02*
X667173000Y693794000D01*
X667173000Y693794000D02*
X667173000Y693921000D01*
X667173000Y693921000D02*
X664053000Y697041000D01*
X664053000Y697041000D02*
X652787000Y697041000D01*
X652787000Y697041000D02*
X649004000Y693258000D01*
X649004000Y693258000D02*
X645905000Y693258000D01*
X645905000Y693258000D02*
X644797000Y692150000D01*
X644797000Y692150000D02*
X643636000Y692150000D01*
X665416000Y680466000D02*
X666552000Y681602000D01*
X666552000Y681602000D02*
X667998000Y681602000D01*
X667998000Y681602000D02*
X668937000Y682541000D01*
X668937000Y682541000D02*
X668937000Y682917000D01*
X668937000Y682917000D02*
X670660000Y684640000D01*
X670660000Y684640000D02*
X670660000Y691909000D01*
X670660000Y691909000D02*
X668304000Y694265000D01*
X668304000Y694265000D02*
X668304000Y694392000D01*
X668304000Y694392000D02*
X666686000Y696010000D01*
X666686000Y696010000D02*
X666686000Y705730000D01*
X666686000Y705730000D02*
X667459000Y706503000D01*
X667459000Y706503000D02*
X668256000Y706503000D01*
X668256000Y706503000D02*
X669092000Y705667000D01*
X669092000Y705667000D02*
X669092000Y704555000D01*
X669092000Y704555000D02*
X670108000Y703539000D01*
X670108000Y703539000D02*
X671862000Y703539000D01*
X671862000Y703539000D02*
X671934000Y703467000D01*
X671934000Y703467000D02*
X671934000Y702437000D01*
X673036000Y702437000D02*
X671934000Y702437000D01*
X641414000Y710692000D02*
X641414000Y709590000D01*
X641414000Y709590000D02*
X640384000Y709590000D01*
X640384000Y709590000D02*
X640312000Y709518000D01*
X640312000Y709518000D02*
X640312000Y707418000D01*
X640312000Y707418000D02*
X639346000Y706452000D01*
X639346000Y706452000D02*
X636991000Y706452000D01*
X636991000Y706452000D02*
X636373000Y705834000D01*
X636373000Y705834000D02*
X636373000Y702237000D01*
X636373000Y702237000D02*
X634531000Y700395000D01*
X634531000Y700395000D02*
X634531000Y693205000D01*
X634531000Y693205000D02*
X633476000Y692150000D01*
X639638000Y689896000D02*
X642415000Y687119000D01*
X642415000Y687119000D02*
X642415000Y683211000D01*
X642415000Y683211000D02*
X643636000Y681990000D01*
X619760000Y710756000D02*
X620862000Y710756000D01*
X620862000Y710756000D02*
X620862000Y709726000D01*
X620862000Y709726000D02*
X620934000Y709654000D01*
X620934000Y709654000D02*
X625035000Y709654000D01*
X625035000Y709654000D02*
X628418000Y706271000D01*
X628418000Y706271000D02*
X628418000Y698934000D01*
X628418000Y698934000D02*
X627025000Y697541000D01*
X627025000Y697541000D02*
X627025000Y685901000D01*
X627025000Y685901000D02*
X628396000Y684530000D01*
X614680000Y710756000D02*
X614680000Y709654000D01*
X614680000Y709654000D02*
X615710000Y709654000D01*
X615710000Y709654000D02*
X615782000Y709582000D01*
X615782000Y709582000D02*
X615782000Y707912000D01*
X615782000Y707912000D02*
X618259000Y705435000D01*
X618259000Y705435000D02*
X618259000Y702048000D01*
X618259000Y702048000D02*
X619940000Y700367000D01*
X665416000Y693166000D02*
X662874000Y695708000D01*
X662874000Y695708000D02*
X653056000Y695708000D01*
X653056000Y695708000D02*
X647128000Y689780000D01*
X647128000Y689780000D02*
X647128000Y685482000D01*
X647128000Y685482000D02*
X646176000Y684530000D01*
X667956000Y690626000D02*
X666380000Y692202000D01*
X666380000Y692202000D02*
X666380000Y693564000D01*
X666380000Y693564000D02*
X663701000Y696243000D01*
X663701000Y696243000D02*
X653057000Y696243000D01*
X653057000Y696243000D02*
X646424000Y689610000D01*
X646424000Y689610000D02*
X646176000Y689610000D01*
X665416000Y688086000D02*
X666961000Y689631000D01*
X666961000Y689631000D02*
X668381000Y689631000D01*
X668381000Y689631000D02*
X668920000Y690170000D01*
X668920000Y690170000D02*
X668920000Y691513000D01*
X668920000Y691513000D02*
X666757000Y693676000D01*
X666757000Y693676000D02*
X666757000Y693803000D01*
X666757000Y693803000D02*
X663896000Y696664000D01*
X663896000Y696664000D02*
X652944000Y696664000D01*
X652944000Y696664000D02*
X648430000Y692150000D01*
X648430000Y692150000D02*
X646176000Y692150000D01*
X645197000Y695388000D02*
X646975000Y697166000D01*
X646975000Y697166000D02*
X648139000Y697166000D01*
X648139000Y697166000D02*
X648259000Y697286000D01*
X648259000Y697286000D02*
X650003000Y697286000D01*
X650003000Y697286000D02*
X653674000Y700957000D01*
X653674000Y700957000D02*
X655715000Y700957000D01*
X655715000Y700957000D02*
X656694000Y701936000D01*
X656694000Y701936000D02*
X656694000Y703803000D01*
X656694000Y703803000D02*
X656766000Y703875000D01*
X656766000Y703875000D02*
X657796000Y703875000D01*
X657860000Y670622000D02*
X661917000Y674679000D01*
X661917000Y674679000D02*
X663980000Y674679000D01*
X663980000Y674679000D02*
X669696000Y680395000D01*
X669696000Y680395000D02*
X669696000Y682470000D01*
X657860000Y666560000D02*
X657860000Y670622000D01*
X657796000Y704977000D02*
X657796000Y703875000D01*
X675576000Y704977000D02*
X675576000Y703875000D01*
X675640000Y666560000D02*
X675640000Y670622000D01*
X675640000Y670622000D02*
X676678000Y671660000D01*
X676678000Y671660000D02*
X676678000Y703803000D01*
X676678000Y703803000D02*
X676606000Y703875000D01*
X676606000Y703875000D02*
X675576000Y703875000D01*
X673036000Y704977000D02*
X673036000Y703875000D01*
X673100000Y666560000D02*
X673100000Y670622000D01*
X673100000Y670622000D02*
X674623000Y672145000D01*
X674623000Y672145000D02*
X674623000Y690349000D01*
X674623000Y690349000D02*
X674306000Y690666000D01*
X674306000Y690666000D02*
X674306000Y703063000D01*
X674306000Y703063000D02*
X673494000Y703875000D01*
X673494000Y703875000D02*
X673036000Y703875000D01*
X665480000Y670622000D02*
X670428000Y675570000D01*
X670428000Y675570000D02*
X670428000Y677176000D01*
X665480000Y666560000D02*
X665480000Y670622000D01*
X668020000Y670622000D02*
X671570000Y674172000D01*
X671570000Y674172000D02*
X671570000Y683102000D01*
X671570000Y683102000D02*
X672166000Y683698000D01*
X672166000Y683698000D02*
X672166000Y698696000D01*
X672166000Y698696000D02*
X669381000Y701481000D01*
X669381000Y701481000D02*
X669381000Y702908000D01*
X669381000Y702908000D02*
X668414000Y703875000D01*
X668414000Y703875000D02*
X667956000Y703875000D01*
X668020000Y666560000D02*
X668020000Y670622000D01*
X667956000Y704977000D02*
X667956000Y703875000D01*
X645096000Y704977000D02*
X645096000Y703875000D01*
X645160000Y666560000D02*
X645160000Y670622000D01*
X645160000Y670622000D02*
X642684000Y673098000D01*
X642684000Y673098000D02*
X642684000Y680389000D01*
X642684000Y680389000D02*
X638733000Y684340000D01*
X638733000Y684340000D02*
X638733000Y689913000D01*
X638733000Y689913000D02*
X639922000Y691102000D01*
X639922000Y691102000D02*
X639922000Y697280000D01*
X639922000Y697280000D02*
X643826000Y701184000D01*
X643826000Y701184000D02*
X643826000Y703063000D01*
X643826000Y703063000D02*
X644638000Y703875000D01*
X644638000Y703875000D02*
X645096000Y703875000D01*
X624776000Y701335000D02*
X624765000Y701324000D01*
X624765000Y701324000D02*
X624765000Y671472000D01*
X624776000Y702437000D02*
X624776000Y701335000D01*
X614616000Y704977000D02*
X614616000Y703875000D01*
X614680000Y666560000D02*
X614680000Y670622000D01*
X614680000Y670622000D02*
X613187000Y672115000D01*
X613187000Y672115000D02*
X613187000Y702904000D01*
X613187000Y702904000D02*
X614158000Y703875000D01*
X614158000Y703875000D02*
X614616000Y703875000D01*
M02*
