G04 #@! TF.GenerationSoftware,KiCad,Pcbnew,5.1.5+dfsg1-2build2*
G04 #@! TF.CreationDate,2021-12-26T10:41:42+01:00*
G04 #@! TF.ProjectId,MSX USB Drive,4d535820-5553-4422-9044-726976652e6b,rev?*
G04 #@! TF.SameCoordinates,Original*
G04 #@! TF.FileFunction,Copper,L1,Top*
G04 #@! TF.FilePolarity,Positive*
%FSLAX46Y46*%
G04 Gerber Fmt 4.6, Leading zero omitted, Abs format (unit mm)*
G04 Created by KiCad (PCBNEW 5.1.5+dfsg1-2build2) date 2021-12-26 10:41:42*
%MOMM*%
%LPD*%
G04 APERTURE LIST*
%ADD10O,1.700000X1.700000*%
%ADD11R,1.700000X1.700000*%
%ADD12C,1.600000*%
%ADD13R,1.600000X1.600000*%
%ADD14C,1.422400*%
%ADD15R,1.422400X1.422400*%
%ADD16C,1.397000*%
%ADD17R,1.397000X1.397000*%
%ADD18R,1.270000X7.620000*%
%ADD19C,1.000000*%
%ADD20C,0.800000*%
%ADD21C,0.400000*%
%ADD22C,0.250000*%
G04 APERTURE END LIST*
D10*
X614616000Y702437000D03*
X614616000Y704977000D03*
X617156000Y702437000D03*
X617156000Y704977000D03*
X619696000Y702437000D03*
X619696000Y704977000D03*
X622236000Y702437000D03*
X622236000Y704977000D03*
X624776000Y702437000D03*
X624776000Y704977000D03*
X627316000Y702437000D03*
X627316000Y704977000D03*
X629856000Y702437000D03*
X629856000Y704977000D03*
X632396000Y702437000D03*
X632396000Y704977000D03*
X634936000Y702437000D03*
X634936000Y704977000D03*
X637476000Y702437000D03*
X637476000Y704977000D03*
X640016000Y702437000D03*
X640016000Y704977000D03*
X642556000Y702437000D03*
X642556000Y704977000D03*
X645096000Y702437000D03*
X645096000Y704977000D03*
X647636000Y702437000D03*
X647636000Y704977000D03*
X650176000Y702437000D03*
X650176000Y704977000D03*
X652716000Y702437000D03*
X652716000Y704977000D03*
X655256000Y702437000D03*
X655256000Y704977000D03*
X657796000Y702437000D03*
X657796000Y704977000D03*
X660336000Y702437000D03*
X660336000Y704977000D03*
X662876000Y702437000D03*
X662876000Y704977000D03*
X665416000Y702437000D03*
X665416000Y704977000D03*
X667956000Y702437000D03*
X667956000Y704977000D03*
X670496000Y702437000D03*
X670496000Y704977000D03*
X673036000Y702437000D03*
X673036000Y704977000D03*
X675576000Y702437000D03*
D11*
X675576000Y704977000D03*
D12*
X623530000Y678116000D03*
D13*
X621030000Y678116000D03*
D14*
X667956000Y690626000D03*
X667956000Y688086000D03*
X667956000Y685546000D03*
X667956000Y683006000D03*
X665416000Y688086000D03*
X665416000Y685546000D03*
X665416000Y683006000D03*
X665416000Y680466000D03*
X665416000Y677926000D03*
X662876000Y677926000D03*
X660336000Y677926000D03*
X657796000Y677926000D03*
X667956000Y680466000D03*
X662876000Y680466000D03*
X660336000Y680466000D03*
X657796000Y680466000D03*
X655256000Y680466000D03*
X655256000Y683006000D03*
X655256000Y685546000D03*
X655256000Y688086000D03*
X655256000Y690626000D03*
X657796000Y683006000D03*
X657796000Y685546000D03*
X657796000Y688086000D03*
X657796000Y690626000D03*
X665416000Y693166000D03*
X662876000Y693166000D03*
X657796000Y693166000D03*
X660336000Y693166000D03*
X665416000Y690626000D03*
X660336000Y690626000D03*
D15*
X662876000Y690626000D03*
D16*
X638556000Y694690000D03*
X641096000Y692150000D03*
X641096000Y694690000D03*
X643636000Y692150000D03*
X643636000Y694690000D03*
X646176000Y692150000D03*
X643636000Y689610000D03*
X646176000Y689610000D03*
X643636000Y687070000D03*
X646176000Y687070000D03*
X643636000Y684530000D03*
X646176000Y684530000D03*
X643636000Y681990000D03*
X646176000Y681990000D03*
X643636000Y679450000D03*
X646176000Y679450000D03*
X643636000Y676910000D03*
X641096000Y679450000D03*
X641096000Y676910000D03*
X638556000Y679450000D03*
X638556000Y676910000D03*
X636016000Y679450000D03*
X636016000Y676910000D03*
X633476000Y679450000D03*
X633476000Y676910000D03*
X630936000Y679450000D03*
X630936000Y676910000D03*
X628396000Y679450000D03*
X630936000Y681990000D03*
X628396000Y681990000D03*
X630936000Y684530000D03*
X628396000Y684530000D03*
X630936000Y687070000D03*
X628396000Y687070000D03*
X630936000Y689610000D03*
X628396000Y689610000D03*
X630936000Y692150000D03*
X628396000Y692150000D03*
X630936000Y694690000D03*
X633476000Y692150000D03*
X633476000Y694690000D03*
X636016000Y692150000D03*
X636016000Y694690000D03*
D17*
X638556000Y692150000D03*
D11*
X636334000Y708152000D03*
D10*
X636334000Y710692000D03*
X638874000Y708152000D03*
X638874000Y710692000D03*
X641414000Y708152000D03*
X641414000Y710692000D03*
X643954000Y708152000D03*
X643954000Y710692000D03*
X646494000Y708152000D03*
X646494000Y710692000D03*
X649034000Y708152000D03*
X649034000Y710692000D03*
X651574000Y708152000D03*
X651574000Y710692000D03*
X654114000Y708152000D03*
X654114000Y710692000D03*
D11*
X624840000Y710756000D03*
D10*
X624840000Y708216000D03*
X622300000Y710756000D03*
X622300000Y708216000D03*
X619760000Y710756000D03*
X619760000Y708216000D03*
X617220000Y710756000D03*
X617220000Y708216000D03*
X614680000Y710756000D03*
X614680000Y708216000D03*
D18*
X617220000Y666560000D03*
X614680000Y666560000D03*
X665480000Y666560000D03*
X675640000Y666560000D03*
X668020000Y666560000D03*
X662940000Y666560000D03*
X660400000Y666560000D03*
X657860000Y666560000D03*
X670560000Y666560000D03*
X673100000Y666560000D03*
X642620000Y666560000D03*
X640080000Y666560000D03*
X637540000Y666560000D03*
X650240000Y666560000D03*
X647700000Y666560000D03*
X652780000Y666560000D03*
X645160000Y666560000D03*
X655320000Y666560000D03*
X624840000Y666560000D03*
X635000000Y666560000D03*
X632460000Y666560000D03*
X629920000Y666560000D03*
X627380000Y666560000D03*
X622300000Y667830000D03*
X619760000Y666560000D03*
D19*
X651489000Y688653000D03*
X641228000Y685377000D03*
X645632000Y675067000D03*
X623530000Y690677000D03*
D20*
X648027000Y695907000D03*
X668729000Y701232000D03*
X668956000Y694534000D03*
X651497000Y700734000D03*
X657708000Y691896000D03*
X632682000Y682297000D03*
X645063000Y680872000D03*
X655103000Y692795000D03*
X649168000Y678537000D03*
X637888000Y681664000D03*
X636864000Y675759000D03*
X628452000Y698039000D03*
X629598000Y674764000D03*
X663459000Y675351000D03*
X628235000Y670990000D03*
X632375000Y707649000D03*
X626876000Y672490000D03*
X631677000Y706997000D03*
X638814000Y703712000D03*
X652987000Y672370000D03*
X631980000Y671253000D03*
X647868000Y697818000D03*
X655200000Y691867000D03*
X633649000Y672101000D03*
X650886000Y671653000D03*
X653895000Y692320000D03*
X634823000Y671311000D03*
X640745000Y671025000D03*
X642932000Y671232000D03*
X653068000Y694086000D03*
X651423000Y683756000D03*
X653284000Y695014000D03*
X648229000Y680050000D03*
X646384000Y670622000D03*
X652277000Y676802000D03*
X651502000Y670420000D03*
X657220000Y698286000D03*
X659320000Y679099000D03*
X655028000Y670914000D03*
X645129000Y693941000D03*
X659192000Y706336000D03*
X649057000Y695847000D03*
X639638000Y689896000D03*
X619940000Y700367000D03*
X669696000Y682470000D03*
X645197000Y695388000D03*
X670428000Y677176000D03*
X624765000Y671472000D03*
D21*
X649034000Y710692000D02*
X650235000Y710692000D01*
X662876000Y693166000D02*
X662876000Y693690000D01*
X662876000Y693690000D02*
X657552000Y699014000D01*
X657552000Y699014000D02*
X656853000Y699014000D01*
X656853000Y699014000D02*
X654078000Y701789000D01*
X654078000Y701789000D02*
X654078000Y705671000D01*
X654078000Y705671000D02*
X652764000Y706985000D01*
X652764000Y706985000D02*
X652764000Y708671000D01*
X652764000Y708671000D02*
X652030000Y709405000D01*
X652030000Y709405000D02*
X651023000Y709405000D01*
X651023000Y709405000D02*
X650235000Y710193000D01*
X650235000Y710193000D02*
X650235000Y710692000D01*
X646176000Y687070000D02*
X646556000Y687450000D01*
X646556000Y687450000D02*
X650286000Y687450000D01*
X650286000Y687450000D02*
X651489000Y688653000D01*
X641228000Y685377000D02*
X641463000Y685612000D01*
X641463000Y685612000D02*
X644718000Y685612000D01*
X644718000Y685612000D02*
X646176000Y687070000D01*
X641228000Y685377000D02*
X640453000Y685377000D01*
X640453000Y685377000D02*
X636016000Y680940000D01*
X636016000Y679450000D02*
X636016000Y680940000D01*
X636016000Y680940000D02*
X629446000Y680940000D01*
X629446000Y680940000D02*
X628396000Y681990000D01*
X628396000Y681990000D02*
X624904000Y681990000D01*
X624904000Y681990000D02*
X622181000Y679267000D01*
X622181000Y679267000D02*
X622181000Y678116000D01*
X621030000Y678116000D02*
X622181000Y678116000D01*
X619696000Y704977000D02*
X617156000Y704977000D01*
X660336000Y677926000D02*
X657995000Y675585000D01*
X657995000Y675585000D02*
X646150000Y675585000D01*
X646150000Y675585000D02*
X645632000Y675067000D01*
X645632000Y675067000D02*
X645591000Y675026000D01*
X645591000Y675026000D02*
X636551000Y675026000D01*
X636551000Y675026000D02*
X636016000Y675561000D01*
X636016000Y675561000D02*
X636016000Y675861000D01*
X636016000Y675861000D02*
X625785000Y675861000D01*
X625785000Y675861000D02*
X623530000Y678116000D01*
X636016000Y675861000D02*
X636016000Y676910000D01*
X630936000Y689610000D02*
X629869000Y690677000D01*
X629869000Y690677000D02*
X623530000Y690677000D01*
X614680000Y708216000D02*
X615881000Y708216000D01*
X622236000Y704977000D02*
X621035000Y704977000D01*
X621035000Y704977000D02*
X621035000Y706062000D01*
X621035000Y706062000D02*
X620919000Y706178000D01*
X620919000Y706178000D02*
X617420000Y706178000D01*
X617420000Y706178000D02*
X615881000Y707717000D01*
X615881000Y707717000D02*
X615881000Y708216000D01*
X654114000Y710692000D02*
X651574000Y710692000D01*
D22*
X633476000Y694690000D02*
X634833000Y696047000D01*
X634833000Y696047000D02*
X647887000Y696047000D01*
X647887000Y696047000D02*
X648027000Y695907000D01*
X668729000Y701232000D02*
X669059000Y701562000D01*
X669059000Y701562000D02*
X669059000Y703160000D01*
X669059000Y703160000D02*
X668679000Y703540000D01*
X668679000Y703540000D02*
X667567000Y703540000D01*
X667567000Y703540000D02*
X666853000Y704254000D01*
X666853000Y704254000D02*
X666853000Y705554000D01*
X666853000Y705554000D02*
X666248000Y706159000D01*
X666248000Y706159000D02*
X664702000Y706159000D01*
X664702000Y706159000D02*
X663978000Y705435000D01*
X663978000Y705435000D02*
X663978000Y704977000D01*
X662876000Y704977000D02*
X663978000Y704977000D01*
X667740500Y693318500D02*
X658932000Y702127000D01*
X658932000Y702127000D02*
X658932000Y702929000D01*
X658932000Y702929000D02*
X659878000Y703875000D01*
X659878000Y703875000D02*
X660336000Y703875000D01*
X665416000Y690626000D02*
X667364000Y692574000D01*
X667364000Y692574000D02*
X667364000Y692894000D01*
X667364000Y692894000D02*
X667741000Y693271000D01*
X667741000Y693271000D02*
X667741000Y693318000D01*
X667741000Y693318000D02*
X667740500Y693318500D01*
X667740500Y693318500D02*
X668956000Y694534000D01*
X660336000Y704977000D02*
X660336000Y703875000D01*
X655256000Y704977000D02*
X655256000Y703875000D01*
X665416000Y685546000D02*
X666965000Y687095000D01*
X666965000Y687095000D02*
X668848000Y687095000D01*
X668848000Y687095000D02*
X669210000Y687457000D01*
X669210000Y687457000D02*
X669210000Y688253000D01*
X669210000Y688253000D02*
X667819000Y689644000D01*
X667819000Y689644000D02*
X664524000Y689644000D01*
X664524000Y689644000D02*
X664452000Y689716000D01*
X664452000Y689716000D02*
X664452000Y693955000D01*
X664452000Y693955000D02*
X656526000Y701881000D01*
X656526000Y701881000D02*
X656526000Y703063000D01*
X656526000Y703063000D02*
X655714000Y703875000D01*
X655714000Y703875000D02*
X655256000Y703875000D01*
X651497000Y700734000D02*
X656724000Y695507000D01*
X656724000Y695507000D02*
X656724000Y692327000D01*
X656724000Y692327000D02*
X657155000Y691896000D01*
X657155000Y691896000D02*
X657708000Y691896000D01*
X650176000Y703875000D02*
X649718000Y703875000D01*
X649718000Y703875000D02*
X649070000Y703227000D01*
X649070000Y703227000D02*
X649070000Y700518000D01*
X649070000Y700518000D02*
X655853000Y693735000D01*
X655853000Y693735000D02*
X655853000Y691223000D01*
X655853000Y691223000D02*
X655256000Y690626000D01*
X650176000Y704977000D02*
X650176000Y703875000D01*
X632682000Y682297000D02*
X639038000Y688653000D01*
X639038000Y688653000D02*
X647840000Y688653000D01*
X647840000Y688653000D02*
X649813000Y690626000D01*
X649813000Y690626000D02*
X655256000Y690626000D01*
X647636000Y704977000D02*
X648738000Y704977000D01*
X657796000Y693166000D02*
X657796000Y695430000D01*
X657796000Y695430000D02*
X651446000Y701780000D01*
X651446000Y701780000D02*
X651446000Y705617000D01*
X651446000Y705617000D02*
X650874000Y706189000D01*
X650874000Y706189000D02*
X649598000Y706189000D01*
X649598000Y706189000D02*
X648738000Y705329000D01*
X648738000Y705329000D02*
X648738000Y704977000D01*
X645063000Y680872000D02*
X641157000Y680872000D01*
X641157000Y680872000D02*
X639826000Y679541000D01*
X639826000Y679541000D02*
X639826000Y678854000D01*
X639826000Y678854000D02*
X639214000Y678242000D01*
X639214000Y678242000D02*
X635877000Y678242000D01*
X635877000Y678242000D02*
X634459000Y679660000D01*
X634459000Y679660000D02*
X634459000Y680330000D01*
X634459000Y680330000D02*
X634302000Y680487000D01*
X634302000Y680487000D02*
X629433000Y680487000D01*
X629433000Y680487000D02*
X628396000Y679450000D01*
X641096000Y676910000D02*
X642048000Y677862000D01*
X642048000Y677862000D02*
X650112000Y677862000D01*
X650112000Y677862000D02*
X655256000Y683006000D01*
X655103000Y692795000D02*
X654641000Y693257000D01*
X654641000Y693257000D02*
X652975000Y693257000D01*
X652975000Y693257000D02*
X650854000Y695378000D01*
X650854000Y695378000D02*
X650854000Y696289000D01*
X650854000Y696289000D02*
X648145000Y698998000D01*
X648145000Y698998000D02*
X644237000Y698998000D01*
X644237000Y698998000D02*
X641286000Y701949000D01*
X641286000Y701949000D02*
X641286000Y703063000D01*
X641286000Y703063000D02*
X640474000Y703875000D01*
X640474000Y703875000D02*
X640016000Y703875000D01*
X649168000Y678537000D02*
X648871000Y678240000D01*
X648871000Y678240000D02*
X639886000Y678240000D01*
X639886000Y678240000D02*
X638556000Y676910000D01*
X640016000Y704977000D02*
X640016000Y703875000D01*
X655256000Y688086000D02*
X653789000Y686619000D01*
X653789000Y686619000D02*
X650101000Y686619000D01*
X650101000Y686619000D02*
X646966000Y683484000D01*
X646966000Y683484000D02*
X639708000Y683484000D01*
X639708000Y683484000D02*
X637888000Y681664000D01*
X651574000Y708152000D02*
X650472000Y708152000D01*
X634936000Y704977000D02*
X636038000Y704977000D01*
X636038000Y704977000D02*
X636038000Y706007000D01*
X636038000Y706007000D02*
X636110000Y706079000D01*
X636110000Y706079000D02*
X648521000Y706079000D01*
X648521000Y706079000D02*
X650472000Y708030000D01*
X650472000Y708030000D02*
X650472000Y708152000D01*
X657796000Y677926000D02*
X655986000Y676116000D01*
X655986000Y676116000D02*
X645617000Y676116000D01*
X645617000Y676116000D02*
X645073000Y675572000D01*
X645073000Y675572000D02*
X637051000Y675572000D01*
X637051000Y675572000D02*
X636864000Y675759000D01*
X628452000Y698039000D02*
X628452000Y702859000D01*
X628452000Y702859000D02*
X629287000Y703694000D01*
X629287000Y703694000D02*
X631113000Y703694000D01*
X631113000Y703694000D02*
X632396000Y704977000D01*
X660336000Y680466000D02*
X661340000Y679462000D01*
X661340000Y679462000D02*
X661340000Y677258000D01*
X661340000Y677258000D02*
X659026000Y674944000D01*
X659026000Y674944000D02*
X646574000Y674944000D01*
X646574000Y674944000D02*
X645945000Y674315000D01*
X645945000Y674315000D02*
X645320000Y674315000D01*
X645320000Y674315000D02*
X645068000Y674567000D01*
X645068000Y674567000D02*
X636228000Y674567000D01*
X636228000Y674567000D02*
X635780000Y675015000D01*
X635780000Y675015000D02*
X629849000Y675015000D01*
X629849000Y675015000D02*
X629598000Y674764000D01*
X629598000Y674764000D02*
X622263000Y674764000D01*
X622263000Y674764000D02*
X619939000Y677088000D01*
X619939000Y677088000D02*
X619939000Y679123000D01*
X619939000Y679123000D02*
X623952000Y683136000D01*
X623952000Y683136000D02*
X628526000Y683136000D01*
X628526000Y683136000D02*
X629348000Y683958000D01*
X629348000Y683958000D02*
X629348000Y684466000D01*
X629348000Y684466000D02*
X630364000Y685482000D01*
X630364000Y685482000D02*
X630811000Y685482000D01*
X630811000Y685482000D02*
X631960000Y686631000D01*
X631960000Y686631000D02*
X631960000Y687407000D01*
X631960000Y687407000D02*
X631328000Y688039000D01*
X631328000Y688039000D02*
X629365000Y688039000D01*
X629365000Y688039000D02*
X628396000Y687070000D01*
X645392000Y708152000D02*
X645392000Y708030000D01*
X645392000Y708030000D02*
X644383000Y707021000D01*
X644383000Y707021000D02*
X634440000Y707021000D01*
X634440000Y707021000D02*
X632396000Y704977000D01*
X646494000Y708152000D02*
X645392000Y708152000D01*
X662876000Y680466000D02*
X661790000Y679380000D01*
X661790000Y679380000D02*
X661790000Y677175000D01*
X661790000Y677175000D02*
X659182000Y674567000D01*
X659182000Y674567000D02*
X646731000Y674567000D01*
X646731000Y674567000D02*
X646102000Y673938000D01*
X646102000Y673938000D02*
X645163000Y673938000D01*
X645163000Y673938000D02*
X644911000Y674190000D01*
X644911000Y674190000D02*
X636071000Y674190000D01*
X636071000Y674190000D02*
X635623000Y674638000D01*
X635623000Y674638000D02*
X630395000Y674638000D01*
X630395000Y674638000D02*
X629869000Y674112000D01*
X629869000Y674112000D02*
X622369000Y674112000D01*
X622369000Y674112000D02*
X619535000Y676946000D01*
X619535000Y676946000D02*
X619535000Y679762000D01*
X619535000Y679762000D02*
X628406000Y688633000D01*
X628406000Y688633000D02*
X631863000Y688633000D01*
X631863000Y688633000D02*
X631935000Y688705000D01*
X631935000Y688705000D02*
X631935000Y691151000D01*
X631935000Y691151000D02*
X630936000Y692150000D01*
X641414000Y708152000D02*
X640312000Y708152000D01*
X629856000Y704977000D02*
X630958000Y704977000D01*
X630958000Y704977000D02*
X630958000Y705263000D01*
X630958000Y705263000D02*
X634949000Y709254000D01*
X634949000Y709254000D02*
X639668000Y709254000D01*
X639668000Y709254000D02*
X640312000Y708610000D01*
X640312000Y708610000D02*
X640312000Y708152000D01*
X663459000Y675351000D02*
X661544000Y673436000D01*
X661544000Y673436000D02*
X649453000Y673436000D01*
X649453000Y673436000D02*
X648824000Y672807000D01*
X648824000Y672807000D02*
X644692000Y672807000D01*
X644692000Y672807000D02*
X644440000Y673059000D01*
X644440000Y673059000D02*
X635600000Y673059000D01*
X635600000Y673059000D02*
X635152000Y673507000D01*
X635152000Y673507000D02*
X631120000Y673507000D01*
X631120000Y673507000D02*
X628603000Y670990000D01*
X628603000Y670990000D02*
X628235000Y670990000D01*
X627316000Y704977000D02*
X629988000Y707649000D01*
X629988000Y707649000D02*
X632375000Y707649000D01*
X665416000Y677926000D02*
X665112000Y677926000D01*
X665112000Y677926000D02*
X660999000Y673813000D01*
X660999000Y673813000D02*
X649193000Y673813000D01*
X649193000Y673813000D02*
X648564000Y673184000D01*
X648564000Y673184000D02*
X644849000Y673184000D01*
X644849000Y673184000D02*
X644597000Y673436000D01*
X644597000Y673436000D02*
X635757000Y673436000D01*
X635757000Y673436000D02*
X635309000Y673884000D01*
X635309000Y673884000D02*
X630709000Y673884000D01*
X630709000Y673884000D02*
X629315000Y672490000D01*
X629315000Y672490000D02*
X627380000Y672490000D01*
X627380000Y672490000D02*
X626876000Y672490000D01*
X627380000Y672490000D02*
X627380000Y666560000D01*
X627316000Y702988000D02*
X627316000Y702437000D01*
X627316000Y702988000D02*
X627316000Y703539000D01*
X627316000Y703539000D02*
X627438000Y703539000D01*
X627438000Y703539000D02*
X628452000Y704553000D01*
X628452000Y704553000D02*
X628452000Y705195000D01*
X628452000Y705195000D02*
X630254000Y706997000D01*
X630254000Y706997000D02*
X631677000Y706997000D01*
X662876000Y677926000D02*
X663839000Y678889000D01*
X663839000Y678889000D02*
X665815000Y678889000D01*
X665815000Y678889000D02*
X666379000Y678325000D01*
X666379000Y678325000D02*
X666379000Y677346000D01*
X666379000Y677346000D02*
X662092000Y673059000D01*
X662092000Y673059000D02*
X650132000Y673059000D01*
X650132000Y673059000D02*
X649503000Y672430000D01*
X649503000Y672430000D02*
X644535000Y672430000D01*
X644535000Y672430000D02*
X644283000Y672682000D01*
X644283000Y672682000D02*
X635443000Y672682000D01*
X635443000Y672682000D02*
X634995000Y673130000D01*
X634995000Y673130000D02*
X632428000Y673130000D01*
X632428000Y673130000D02*
X629920000Y670622000D01*
X662876000Y677926000D02*
X662876000Y677727000D01*
X662876000Y677727000D02*
X659339000Y674190000D01*
X659339000Y674190000D02*
X646888000Y674190000D01*
X646888000Y674190000D02*
X646259000Y673561000D01*
X646259000Y673561000D02*
X645006000Y673561000D01*
X645006000Y673561000D02*
X644754000Y673813000D01*
X644754000Y673813000D02*
X635914000Y673813000D01*
X635914000Y673813000D02*
X635466000Y674261000D01*
X635466000Y674261000D02*
X630552000Y674261000D01*
X630552000Y674261000D02*
X630026000Y673735000D01*
X630026000Y673735000D02*
X622212000Y673735000D01*
X622212000Y673735000D02*
X619158000Y676789000D01*
X619158000Y676789000D02*
X619158000Y680372000D01*
X619158000Y680372000D02*
X628396000Y689610000D01*
X629920000Y666560000D02*
X629920000Y670622000D01*
X630958000Y702437000D02*
X630958000Y701407000D01*
X630958000Y701407000D02*
X631030000Y701335000D01*
X631030000Y701335000D02*
X633120000Y701335000D01*
X633120000Y701335000D02*
X633499000Y701714000D01*
X633499000Y701714000D02*
X633499000Y702826000D01*
X633499000Y702826000D02*
X634385000Y703712000D01*
X634385000Y703712000D02*
X638814000Y703712000D01*
X629856000Y702437000D02*
X630958000Y702437000D01*
X652987000Y672370000D02*
X650605000Y672370000D01*
X650605000Y672370000D02*
X650288000Y672053000D01*
X650288000Y672053000D02*
X644378000Y672053000D01*
X644378000Y672053000D02*
X644126000Y672305000D01*
X644126000Y672305000D02*
X635286000Y672305000D01*
X635286000Y672305000D02*
X634838000Y672753000D01*
X634838000Y672753000D02*
X633379000Y672753000D01*
X633379000Y672753000D02*
X631980000Y671354000D01*
X631980000Y671354000D02*
X631980000Y671253000D01*
X632460000Y670622000D02*
X631980000Y671102000D01*
X631980000Y671102000D02*
X631980000Y671253000D01*
X647932000Y708152000D02*
X647932000Y707122000D01*
X647932000Y707122000D02*
X647453000Y706643000D01*
X647453000Y706643000D02*
X634820000Y706643000D01*
X634820000Y706643000D02*
X633666000Y705489000D01*
X633666000Y705489000D02*
X633666000Y704351000D01*
X633666000Y704351000D02*
X632854000Y703539000D01*
X632854000Y703539000D02*
X632396000Y703539000D01*
X632460000Y666560000D02*
X632460000Y670622000D01*
X632396000Y702437000D02*
X632396000Y703539000D01*
X649034000Y708152000D02*
X647932000Y708152000D01*
X647868000Y697818000D02*
X648024000Y697818000D01*
X648024000Y697818000D02*
X650100000Y695742000D01*
X650100000Y695742000D02*
X650100000Y695064000D01*
X650100000Y695064000D02*
X653497000Y691667000D01*
X653497000Y691667000D02*
X655000000Y691667000D01*
X655000000Y691667000D02*
X655200000Y691867000D01*
X636038000Y702437000D02*
X636038000Y701979000D01*
X636038000Y701979000D02*
X640199000Y697818000D01*
X640199000Y697818000D02*
X647868000Y697818000D01*
X634034000Y671716000D02*
X633649000Y672101000D01*
X650886000Y671653000D02*
X643579000Y671653000D01*
X643579000Y671653000D02*
X643304000Y671928000D01*
X643304000Y671928000D02*
X635129000Y671928000D01*
X635129000Y671928000D02*
X635094000Y671963000D01*
X635094000Y671963000D02*
X634281000Y671963000D01*
X634281000Y671963000D02*
X634034000Y671716000D01*
X634034000Y671716000D02*
X634034000Y671079000D01*
X634034000Y671079000D02*
X634491000Y670622000D01*
X634491000Y670622000D02*
X635000000Y670622000D01*
X634936000Y702437000D02*
X636038000Y702437000D01*
X635000000Y666560000D02*
X635000000Y670622000D01*
X653895000Y692320000D02*
X653378000Y692320000D01*
X653378000Y692320000D02*
X650477000Y695221000D01*
X650477000Y695221000D02*
X650477000Y696132000D01*
X650477000Y696132000D02*
X647988000Y698621000D01*
X647988000Y698621000D02*
X641292000Y698621000D01*
X641292000Y698621000D02*
X638578000Y701335000D01*
X638578000Y701335000D02*
X638578000Y702437000D01*
X637476000Y702437000D02*
X638578000Y702437000D01*
X637540000Y666560000D02*
X637540000Y670622000D01*
X637540000Y670622000D02*
X636851000Y671311000D01*
X636851000Y671311000D02*
X634823000Y671311000D01*
X638556000Y679450000D02*
X642048000Y682942000D01*
X642048000Y682942000D02*
X647589000Y682942000D01*
X647589000Y682942000D02*
X649738000Y685091000D01*
X649738000Y685091000D02*
X652927000Y685091000D01*
X652927000Y685091000D02*
X654652000Y686816000D01*
X654652000Y686816000D02*
X656526000Y686816000D01*
X656526000Y686816000D02*
X657796000Y685546000D01*
X640080000Y670622000D02*
X640342000Y670622000D01*
X640342000Y670622000D02*
X640745000Y671025000D01*
X640080000Y666560000D02*
X640080000Y670622000D01*
X653068000Y694086000D02*
X652589000Y694565000D01*
X652589000Y694565000D02*
X652589000Y695088000D01*
X652589000Y695088000D02*
X647458000Y700219000D01*
X647458000Y700219000D02*
X645418000Y700219000D01*
X645418000Y700219000D02*
X643658000Y701979000D01*
X643658000Y701979000D02*
X643658000Y702437000D01*
X651423000Y683756000D02*
X651013000Y683756000D01*
X651013000Y683756000D02*
X647676000Y680419000D01*
X647676000Y680419000D02*
X645533000Y680419000D01*
X645533000Y680419000D02*
X645334000Y680220000D01*
X645334000Y680220000D02*
X644793000Y680220000D01*
X644793000Y680220000D02*
X644594000Y680419000D01*
X644594000Y680419000D02*
X642065000Y680419000D01*
X642065000Y680419000D02*
X641096000Y679450000D01*
X642620000Y666560000D02*
X642620000Y670622000D01*
X642620000Y670622000D02*
X642932000Y670934000D01*
X642932000Y670934000D02*
X642932000Y671232000D01*
X657796000Y683006000D02*
X656803000Y683999000D01*
X656803000Y683999000D02*
X651666000Y683999000D01*
X651666000Y683999000D02*
X651423000Y683756000D01*
X642556000Y702437000D02*
X643658000Y702437000D01*
X646198000Y702437000D02*
X646198000Y702100000D01*
X646198000Y702100000D02*
X653284000Y695014000D01*
X645160000Y670622000D02*
X646384000Y670622000D01*
X645096000Y702437000D02*
X646198000Y702437000D01*
X646176000Y679450000D02*
X647629000Y679450000D01*
X647629000Y679450000D02*
X648229000Y680050000D01*
X645160000Y666560000D02*
X645160000Y670622000D01*
X667956000Y688086000D02*
X667422000Y688086000D01*
X667422000Y688086000D02*
X666242000Y686906000D01*
X666242000Y686906000D02*
X665020000Y686906000D01*
X665020000Y686906000D02*
X664434000Y686320000D01*
X664434000Y686320000D02*
X664434000Y682096000D01*
X664434000Y682096000D02*
X664794000Y681736000D01*
X664794000Y681736000D02*
X665637000Y681736000D01*
X665637000Y681736000D02*
X666380000Y680993000D01*
X666380000Y680993000D02*
X666380000Y678858000D01*
X666380000Y678858000D02*
X666756000Y678482000D01*
X666756000Y678482000D02*
X666756000Y677132000D01*
X666756000Y677132000D02*
X662306000Y672682000D01*
X662306000Y672682000D02*
X654562000Y672682000D01*
X654562000Y672682000D02*
X653257000Y671377000D01*
X653257000Y671377000D02*
X651534000Y671377000D01*
X651534000Y671377000D02*
X651157000Y671000000D01*
X651157000Y671000000D02*
X648078000Y671000000D01*
X648078000Y671000000D02*
X647700000Y670622000D01*
X647700000Y666560000D02*
X647700000Y670622000D01*
X650176000Y702437000D02*
X650176000Y701133000D01*
X650176000Y701133000D02*
X656230000Y695079000D01*
X656230000Y695079000D02*
X656230000Y692192000D01*
X656230000Y692192000D02*
X657796000Y690626000D01*
X630936000Y679450000D02*
X632522000Y677864000D01*
X632522000Y677864000D02*
X636896000Y677864000D01*
X636896000Y677864000D02*
X636968000Y677792000D01*
X636968000Y677792000D02*
X636968000Y677048000D01*
X636968000Y677048000D02*
X638058000Y675958000D01*
X638058000Y675958000D02*
X644925000Y675958000D01*
X644925000Y675958000D02*
X645769000Y676802000D01*
X645769000Y676802000D02*
X652277000Y676802000D01*
X650240000Y670622000D02*
X651300000Y670622000D01*
X651300000Y670622000D02*
X651502000Y670420000D01*
X650240000Y666560000D02*
X650240000Y670622000D01*
X652780000Y666560000D02*
X652780000Y670622000D01*
X652780000Y670622000D02*
X653451000Y670622000D01*
X653451000Y670622000D02*
X654396000Y671567000D01*
X654396000Y671567000D02*
X661935000Y671567000D01*
X661935000Y671567000D02*
X667134000Y676766000D01*
X667134000Y676766000D02*
X667134000Y679092000D01*
X667134000Y679092000D02*
X666928000Y679298000D01*
X666928000Y679298000D02*
X666928000Y681978000D01*
X666928000Y681978000D02*
X667956000Y683006000D01*
X652716000Y701335000D02*
X655765000Y698286000D01*
X655765000Y698286000D02*
X657220000Y698286000D01*
X652716000Y702437000D02*
X652716000Y701335000D01*
X643636000Y676910000D02*
X644023000Y677297000D01*
X644023000Y677297000D02*
X650213000Y677297000D01*
X650213000Y677297000D02*
X654643000Y681727000D01*
X654643000Y681727000D02*
X659022000Y681727000D01*
X659022000Y681727000D02*
X663840000Y686545000D01*
X663840000Y686545000D02*
X663840000Y693567000D01*
X663840000Y693567000D02*
X656072000Y701335000D01*
X656072000Y701335000D02*
X655256000Y701335000D01*
X659022000Y681727000D02*
X659320000Y681429000D01*
X659320000Y681429000D02*
X659320000Y679099000D01*
X655256000Y702437000D02*
X655256000Y701335000D01*
X655320000Y670622000D02*
X655028000Y670914000D01*
X655320000Y666560000D02*
X655320000Y670622000D01*
X660400000Y670622000D02*
X661525000Y670622000D01*
X661525000Y670622000D02*
X668920000Y678017000D01*
X668920000Y678017000D02*
X668920000Y683900000D01*
X668920000Y683900000D02*
X668848000Y683972000D01*
X638556000Y693100000D02*
X638876000Y693420000D01*
X638876000Y693420000D02*
X644608000Y693420000D01*
X644608000Y693420000D02*
X645129000Y693941000D01*
X660336000Y702437000D02*
X667130000Y695643000D01*
X667130000Y695643000D02*
X668818000Y695643000D01*
X668818000Y695643000D02*
X669609000Y694852000D01*
X669609000Y694852000D02*
X669609000Y684733000D01*
X669609000Y684733000D02*
X668848000Y683972000D01*
X668848000Y683972000D02*
X666382000Y683972000D01*
X666382000Y683972000D02*
X665416000Y683006000D01*
X660400000Y666560000D02*
X660400000Y670622000D01*
X638556000Y692150000D02*
X638556000Y693100000D01*
X639425000Y710692000D02*
X639976000Y710692000D01*
X638874000Y710692000D02*
X639130000Y710692000D01*
X639425000Y710692000D02*
X639130000Y710692000D01*
X639976000Y710692000D02*
X639976000Y711150000D01*
X639976000Y711150000D02*
X640628000Y711802000D01*
X640628000Y711802000D02*
X654978000Y711802000D01*
X654978000Y711802000D02*
X659192000Y707588000D01*
X659192000Y707588000D02*
X659192000Y706336000D01*
X649057000Y695847000D02*
X648243000Y696661000D01*
X648243000Y696661000D02*
X632907000Y696661000D01*
X632907000Y696661000D02*
X630936000Y694690000D01*
X665416000Y702437000D02*
X665416000Y701183000D01*
X665416000Y701183000D02*
X670740000Y695859000D01*
X670740000Y695859000D02*
X670740000Y681933000D01*
X670740000Y681933000D02*
X670238000Y681431000D01*
X670238000Y681431000D02*
X670238000Y678220000D01*
X670238000Y678220000D02*
X665480000Y673462000D01*
X665480000Y673462000D02*
X665480000Y666560000D01*
X673036000Y702437000D02*
X673036000Y701335000D01*
X673100000Y666560000D02*
X673100000Y670622000D01*
X673100000Y670622000D02*
X674623000Y672145000D01*
X674623000Y672145000D02*
X674623000Y699748000D01*
X674623000Y699748000D02*
X673036000Y701335000D01*
X624840000Y709654000D02*
X625870000Y709654000D01*
X625870000Y709654000D02*
X625942000Y709582000D01*
X625942000Y709582000D02*
X625942000Y697968000D01*
X625942000Y697968000D02*
X630356000Y693554000D01*
X630356000Y693554000D02*
X636202000Y693554000D01*
X636202000Y693554000D02*
X637577000Y692179000D01*
X637577000Y692179000D02*
X637577000Y691270000D01*
X637577000Y691270000D02*
X638951000Y689896000D01*
X638951000Y689896000D02*
X639638000Y689896000D01*
X624840000Y710756000D02*
X624840000Y709654000D01*
X622300000Y709654000D02*
X622758000Y709654000D01*
X622758000Y709654000D02*
X623570000Y708842000D01*
X623570000Y708842000D02*
X623570000Y699806000D01*
X623570000Y699806000D02*
X630238000Y693138000D01*
X630238000Y693138000D02*
X631366000Y693138000D01*
X631366000Y693138000D02*
X632037000Y692467000D01*
X632037000Y692467000D02*
X632037000Y691584000D01*
X632037000Y691584000D02*
X634377000Y689244000D01*
X634377000Y689244000D02*
X643270000Y689244000D01*
X643270000Y689244000D02*
X643636000Y689610000D01*
X622300000Y710756000D02*
X622300000Y709654000D01*
X628396000Y692150000D02*
X620179000Y700367000D01*
X620179000Y700367000D02*
X619940000Y700367000D01*
X646176000Y681990000D02*
X647503000Y681990000D01*
X647503000Y681990000D02*
X650094000Y684581000D01*
X650094000Y684581000D02*
X658307000Y684581000D01*
X658307000Y684581000D02*
X662876000Y689150000D01*
X662876000Y689150000D02*
X662876000Y690626000D01*
X643636000Y687070000D02*
X644655000Y688089000D01*
X644655000Y688089000D02*
X649227000Y688089000D01*
X649227000Y688089000D02*
X650779000Y689641000D01*
X650779000Y689641000D02*
X659351000Y689641000D01*
X659351000Y689641000D02*
X660336000Y690626000D01*
X643636000Y684530000D02*
X644277000Y684530000D01*
X644277000Y684530000D02*
X645483000Y685736000D01*
X645483000Y685736000D02*
X647316000Y685736000D01*
X647316000Y685736000D02*
X648577000Y686997000D01*
X648577000Y686997000D02*
X652150000Y686997000D01*
X652150000Y686997000D02*
X654416000Y689263000D01*
X654416000Y689263000D02*
X660418000Y689263000D01*
X660418000Y689263000D02*
X661741000Y690586000D01*
X661741000Y690586000D02*
X661741000Y691761000D01*
X661741000Y691761000D02*
X660336000Y693166000D01*
X638556000Y694690000D02*
X639508000Y695642000D01*
X639508000Y695642000D02*
X644943000Y695642000D01*
X644943000Y695642000D02*
X645197000Y695388000D01*
X658898000Y704977000D02*
X658898000Y705108000D01*
X658898000Y705108000D02*
X659987000Y706197000D01*
X659987000Y706197000D02*
X660942000Y706197000D01*
X660942000Y706197000D02*
X661773000Y705366000D01*
X661773000Y705366000D02*
X661773000Y701826000D01*
X661773000Y701826000D02*
X667450000Y696149000D01*
X667450000Y696149000D02*
X668847000Y696149000D01*
X668847000Y696149000D02*
X669986000Y695010000D01*
X669986000Y695010000D02*
X669986000Y682760000D01*
X669986000Y682760000D02*
X669696000Y682470000D01*
X657796000Y704977000D02*
X658898000Y704977000D01*
D21*
X617156000Y702437000D02*
X617156000Y697775600D01*
X617220000Y666560000D02*
X617220000Y670622000D01*
X617220000Y670622000D02*
X615340400Y672501600D01*
X617156000Y697775600D02*
X615340400Y695960000D01*
X615340400Y695960000D02*
X615340400Y672501600D01*
X614616000Y702437000D02*
X614616000Y701335000D01*
X614680000Y666560000D02*
X614680000Y701271000D01*
D22*
X614680000Y701271000D02*
X614616000Y701335000D01*
X675576000Y702437000D02*
X675576000Y701335000D01*
X675640000Y666560000D02*
X675640000Y701271000D01*
X675640000Y701271000D02*
X675576000Y701335000D01*
X667956000Y702437000D02*
X667956000Y700580000D01*
X667956000Y700580000D02*
X671638000Y696898000D01*
X671638000Y696898000D02*
X671638000Y681661000D01*
X671638000Y681661000D02*
X671180000Y681203000D01*
X671180000Y681203000D02*
X671180000Y676697000D01*
X671180000Y676697000D02*
X668020000Y673537000D01*
X668020000Y673537000D02*
X668020000Y666560000D01*
X665416000Y703875000D02*
X665876000Y703875000D01*
X665876000Y703875000D02*
X666732000Y703019000D01*
X666732000Y703019000D02*
X666732000Y701147000D01*
X666732000Y701147000D02*
X671117000Y696762000D01*
X671117000Y696762000D02*
X671117000Y681776000D01*
X671117000Y681776000D02*
X670615000Y681274000D01*
X670615000Y681274000D02*
X670615000Y677363000D01*
X670615000Y677363000D02*
X670428000Y677176000D01*
X665416000Y704977000D02*
X665416000Y703875000D01*
X670496000Y702437000D02*
X670496000Y701335000D01*
X670560000Y666560000D02*
X670560000Y670622000D01*
X670560000Y670622000D02*
X671558000Y671620000D01*
X671558000Y671620000D02*
X671558000Y679686000D01*
X671558000Y679686000D02*
X672048000Y680176000D01*
X672048000Y680176000D02*
X672048000Y699783000D01*
X672048000Y699783000D02*
X670496000Y701335000D01*
X624840000Y670622000D02*
X624765000Y670697000D01*
X624765000Y670697000D02*
X624765000Y671472000D01*
X624840000Y666560000D02*
X624840000Y670622000D01*
X619696000Y701335000D02*
X618781000Y700420000D01*
X618781000Y700420000D02*
X618781000Y673075000D01*
X618781000Y673075000D02*
X619964000Y671892000D01*
X622236000Y702437000D02*
X621134000Y702437000D01*
X619696000Y701886000D02*
X620583000Y701886000D01*
X620583000Y701886000D02*
X621134000Y702437000D01*
X619696000Y701886000D02*
X619696000Y701335000D01*
X619696000Y702437000D02*
X619696000Y701886000D01*
X619760000Y670622000D02*
X619964000Y670826000D01*
X619964000Y670826000D02*
X619964000Y671892000D01*
X619964000Y671892000D02*
X622300000Y671892000D01*
X622300000Y667830000D02*
X622300000Y671892000D01*
X619760000Y666560000D02*
X619760000Y670622000D01*
X663978000Y702437000D02*
X663978000Y701637000D01*
X663978000Y701637000D02*
X670363000Y695252000D01*
X670363000Y695252000D02*
X670363000Y682090000D01*
X670363000Y682090000D02*
X669310000Y681037000D01*
X669310000Y681037000D02*
X669310000Y677873000D01*
X669310000Y677873000D02*
X662940000Y671503000D01*
X662940000Y671503000D02*
X662940000Y666560000D01*
X662876000Y702437000D02*
X663978000Y702437000D01*
M02*
