G04 #@! TF.GenerationSoftware,KiCad,Pcbnew,5.1.5+dfsg1-2build2*
G04 #@! TF.CreationDate,2021-12-26T10:41:42+01:00*
G04 #@! TF.ProjectId,MSX USB Drive,4d535820-5553-4422-9044-726976652e6b,rev?*
G04 #@! TF.SameCoordinates,Original*
G04 #@! TF.FileFunction,Legend,Bot*
G04 #@! TF.FilePolarity,Positive*
%FSLAX46Y46*%
G04 Gerber Fmt 4.6, Leading zero omitted, Abs format (unit mm)*
G04 Created by KiCad (PCBNEW 5.1.5+dfsg1-2build2) date 2021-12-26 10:41:42*
%MOMM*%
%LPD*%
G04 APERTURE LIST*
%ADD10C,0.200000*%
%ADD11C,0.150000*%
%ADD12C,0.250000*%
%ADD13C,0.010000*%
%ADD14C,0.120000*%
G04 APERTURE END LIST*
D10*
X625899752Y687162819D02*
X625899752Y687686628D01*
X625937847Y687781866D01*
X626014038Y687829485D01*
X626166419Y687829485D01*
X626242609Y687781866D01*
X625899752Y687210438D02*
X625975942Y687162819D01*
X626166419Y687162819D01*
X626242609Y687210438D01*
X626280704Y687305676D01*
X626280704Y687400914D01*
X626242609Y687496152D01*
X626166419Y687543771D01*
X625975942Y687543771D01*
X625899752Y687591390D01*
X625518800Y687829485D02*
X625518800Y687162819D01*
X625518800Y687734247D02*
X625480704Y687781866D01*
X625404514Y687829485D01*
X625290228Y687829485D01*
X625214038Y687781866D01*
X625175942Y687686628D01*
X625175942Y687162819D01*
X624452133Y687162819D02*
X624452133Y688162819D01*
X624452133Y687210438D02*
X624528323Y687162819D01*
X624680704Y687162819D01*
X624756895Y687210438D01*
X624794990Y687258057D01*
X624833085Y687353295D01*
X624833085Y687639009D01*
X624794990Y687734247D01*
X624756895Y687781866D01*
X624680704Y687829485D01*
X624528323Y687829485D01*
X624452133Y687781866D01*
X623118800Y687162819D02*
X623118800Y687686628D01*
X623156895Y687781866D01*
X623233085Y687829485D01*
X623385466Y687829485D01*
X623461657Y687781866D01*
X623118800Y687210438D02*
X623194990Y687162819D01*
X623385466Y687162819D01*
X623461657Y687210438D01*
X623499752Y687305676D01*
X623499752Y687400914D01*
X623461657Y687496152D01*
X623385466Y687543771D01*
X623194990Y687543771D01*
X623118800Y687591390D01*
X622394990Y687829485D02*
X622394990Y687162819D01*
X622737847Y687829485D02*
X622737847Y687305676D01*
X622699752Y687210438D01*
X622623561Y687162819D01*
X622509276Y687162819D01*
X622433085Y687210438D01*
X622394990Y687258057D01*
X622128323Y687829485D02*
X621823561Y687829485D01*
X622014038Y688162819D02*
X622014038Y687305676D01*
X621975942Y687210438D01*
X621899752Y687162819D01*
X621823561Y687162819D01*
X621442609Y687162819D02*
X621518800Y687210438D01*
X621556895Y687258057D01*
X621594990Y687353295D01*
X621594990Y687639009D01*
X621556895Y687734247D01*
X621518800Y687781866D01*
X621442609Y687829485D01*
X621328323Y687829485D01*
X621252133Y687781866D01*
X621214038Y687734247D01*
X621175942Y687639009D01*
X621175942Y687353295D01*
X621214038Y687258057D01*
X621252133Y687210438D01*
X621328323Y687162819D01*
X621442609Y687162819D01*
X620833085Y687162819D02*
X620833085Y687829485D01*
X620833085Y687639009D02*
X620794990Y687734247D01*
X620756895Y687781866D01*
X620680704Y687829485D01*
X620604514Y687829485D01*
X620223561Y687162819D02*
X620299752Y687210438D01*
X620337847Y687258057D01*
X620375942Y687353295D01*
X620375942Y687639009D01*
X620337847Y687734247D01*
X620299752Y687781866D01*
X620223561Y687829485D01*
X620109276Y687829485D01*
X620033085Y687781866D01*
X619994990Y687734247D01*
X619956895Y687639009D01*
X619956895Y687353295D01*
X619994990Y687258057D01*
X620033085Y687210438D01*
X620109276Y687162819D01*
X620223561Y687162819D01*
X619271180Y687829485D02*
X619271180Y687162819D01*
X619614038Y687829485D02*
X619614038Y687305676D01*
X619575942Y687210438D01*
X619499752Y687162819D01*
X619385466Y687162819D01*
X619309276Y687210438D01*
X619271180Y687258057D01*
X619004514Y687829485D02*
X618699752Y687829485D01*
X618890228Y688162819D02*
X618890228Y687305676D01*
X618852133Y687210438D01*
X618775942Y687162819D01*
X618699752Y687162819D01*
X618128323Y687210438D02*
X618204514Y687162819D01*
X618356895Y687162819D01*
X618433085Y687210438D01*
X618471180Y687305676D01*
X618471180Y687686628D01*
X618433085Y687781866D01*
X618356895Y687829485D01*
X618204514Y687829485D01*
X618128323Y687781866D01*
X618090228Y687686628D01*
X618090228Y687591390D01*
X618471180Y687496152D01*
X617404514Y687162819D02*
X617404514Y688162819D01*
X617404514Y687210438D02*
X617480704Y687162819D01*
X617633085Y687162819D01*
X617709276Y687210438D01*
X617747371Y687258057D01*
X617785466Y687353295D01*
X617785466Y687639009D01*
X617747371Y687734247D01*
X617709276Y687781866D01*
X617633085Y687829485D01*
X617480704Y687829485D01*
X617404514Y687781866D01*
X616490228Y687829485D02*
X616337847Y687162819D01*
X616185466Y687639009D01*
X616033085Y687162819D01*
X615880704Y687829485D01*
X615575942Y687162819D02*
X615575942Y687829485D01*
X615575942Y688162819D02*
X615614038Y688115200D01*
X615575942Y688067580D01*
X615537847Y688115200D01*
X615575942Y688162819D01*
X615575942Y688067580D01*
X615309276Y687829485D02*
X615004514Y687829485D01*
X615194990Y688162819D02*
X615194990Y687305676D01*
X615156895Y687210438D01*
X615080704Y687162819D01*
X615004514Y687162819D01*
X614737847Y687162819D02*
X614737847Y688162819D01*
X614394990Y687162819D02*
X614394990Y687686628D01*
X614433085Y687781866D01*
X614509276Y687829485D01*
X614623561Y687829485D01*
X614699752Y687781866D01*
X614737847Y687734247D01*
X627099752Y685462819D02*
X627099752Y686462819D01*
X626756895Y685462819D02*
X626756895Y685986628D01*
X626794990Y686081866D01*
X626871180Y686129485D01*
X626985466Y686129485D01*
X627061657Y686081866D01*
X627099752Y686034247D01*
X626490228Y686129485D02*
X626185466Y686129485D01*
X626375942Y686462819D02*
X626375942Y685605676D01*
X626337847Y685510438D01*
X626261657Y685462819D01*
X626185466Y685462819D01*
X626033085Y686129485D02*
X625728323Y686129485D01*
X625918800Y686462819D02*
X625918800Y685605676D01*
X625880704Y685510438D01*
X625804514Y685462819D01*
X625728323Y685462819D01*
X625461657Y686129485D02*
X625461657Y685129485D01*
X625461657Y686081866D02*
X625385466Y686129485D01*
X625233085Y686129485D01*
X625156895Y686081866D01*
X625118800Y686034247D01*
X625080704Y685939009D01*
X625080704Y685653295D01*
X625118800Y685558057D01*
X625156895Y685510438D01*
X625233085Y685462819D01*
X625385466Y685462819D01*
X625461657Y685510438D01*
X624775942Y685510438D02*
X624699752Y685462819D01*
X624547371Y685462819D01*
X624471180Y685510438D01*
X624433085Y685605676D01*
X624433085Y685653295D01*
X624471180Y685748533D01*
X624547371Y685796152D01*
X624661657Y685796152D01*
X624737847Y685843771D01*
X624775942Y685939009D01*
X624775942Y685986628D01*
X624737847Y686081866D01*
X624661657Y686129485D01*
X624547371Y686129485D01*
X624471180Y686081866D01*
X624090228Y685558057D02*
X624052133Y685510438D01*
X624090228Y685462819D01*
X624128323Y685510438D01*
X624090228Y685558057D01*
X624090228Y685462819D01*
X624090228Y686081866D02*
X624052133Y686034247D01*
X624090228Y685986628D01*
X624128323Y686034247D01*
X624090228Y686081866D01*
X624090228Y685986628D01*
X623137847Y686510438D02*
X623823561Y685224723D01*
X622299752Y686510438D02*
X622985466Y685224723D01*
X622147371Y686129485D02*
X621842609Y686129485D01*
X622033085Y685462819D02*
X622033085Y686319961D01*
X621994990Y686415200D01*
X621918800Y686462819D01*
X621842609Y686462819D01*
X621575942Y685462819D02*
X621575942Y686129485D01*
X621575942Y685939009D02*
X621537847Y686034247D01*
X621499752Y686081866D01*
X621423561Y686129485D01*
X621347371Y686129485D01*
X620775942Y685510438D02*
X620852133Y685462819D01*
X621004514Y685462819D01*
X621080704Y685510438D01*
X621118800Y685605676D01*
X621118800Y685986628D01*
X621080704Y686081866D01*
X621004514Y686129485D01*
X620852133Y686129485D01*
X620775942Y686081866D01*
X620737847Y685986628D01*
X620737847Y685891390D01*
X621118800Y685796152D01*
X620090228Y685510438D02*
X620166419Y685462819D01*
X620318800Y685462819D01*
X620394990Y685510438D01*
X620433085Y685605676D01*
X620433085Y685986628D01*
X620394990Y686081866D01*
X620318800Y686129485D01*
X620166419Y686129485D01*
X620090228Y686081866D01*
X620052133Y685986628D01*
X620052133Y685891390D01*
X620433085Y685796152D01*
X619709276Y685462819D02*
X619709276Y686129485D01*
X619709276Y685939009D02*
X619671180Y686034247D01*
X619633085Y686081866D01*
X619556895Y686129485D01*
X619480704Y686129485D01*
X619099752Y685462819D02*
X619175942Y685510438D01*
X619214038Y685558057D01*
X619252133Y685653295D01*
X619252133Y685939009D01*
X619214038Y686034247D01*
X619175942Y686081866D01*
X619099752Y686129485D01*
X618985466Y686129485D01*
X618909276Y686081866D01*
X618871180Y686034247D01*
X618833085Y685939009D01*
X618833085Y685653295D01*
X618871180Y685558057D01*
X618909276Y685510438D01*
X618985466Y685462819D01*
X619099752Y685462819D01*
X618147371Y686129485D02*
X618147371Y685462819D01*
X618490228Y686129485D02*
X618490228Y685605676D01*
X618452133Y685510438D01*
X618375942Y685462819D01*
X618261657Y685462819D01*
X618185466Y685510438D01*
X618147371Y685558057D01*
X617880704Y686129485D02*
X617575942Y686129485D01*
X617766419Y686462819D02*
X617766419Y685605676D01*
X617728323Y685510438D01*
X617652133Y685462819D01*
X617575942Y685462819D01*
X617309276Y685462819D02*
X617309276Y686129485D01*
X617309276Y686462819D02*
X617347371Y686415200D01*
X617309276Y686367580D01*
X617271180Y686415200D01*
X617309276Y686462819D01*
X617309276Y686367580D01*
X616928323Y686129485D02*
X616928323Y685462819D01*
X616928323Y686034247D02*
X616890228Y686081866D01*
X616814038Y686129485D01*
X616699752Y686129485D01*
X616623561Y686081866D01*
X616585466Y685986628D01*
X616585466Y685462819D01*
X615861657Y686129485D02*
X615861657Y685319961D01*
X615899752Y685224723D01*
X615937847Y685177104D01*
X616014038Y685129485D01*
X616128323Y685129485D01*
X616204514Y685177104D01*
X615861657Y685510438D02*
X615937847Y685462819D01*
X616090228Y685462819D01*
X616166419Y685510438D01*
X616204514Y685558057D01*
X616242609Y685653295D01*
X616242609Y685939009D01*
X616204514Y686034247D01*
X616166419Y686081866D01*
X616090228Y686129485D01*
X615937847Y686129485D01*
X615861657Y686081866D01*
X615480704Y685558057D02*
X615442609Y685510438D01*
X615480704Y685462819D01*
X615518800Y685510438D01*
X615480704Y685558057D01*
X615480704Y685462819D01*
X614985466Y685462819D02*
X615061657Y685510438D01*
X615099752Y685558057D01*
X615137847Y685653295D01*
X615137847Y685939009D01*
X615099752Y686034247D01*
X615061657Y686081866D01*
X614985466Y686129485D01*
X614871180Y686129485D01*
X614794990Y686081866D01*
X614756895Y686034247D01*
X614718800Y685939009D01*
X614718800Y685653295D01*
X614756895Y685558057D01*
X614794990Y685510438D01*
X614871180Y685462819D01*
X614985466Y685462819D01*
X614375942Y685462819D02*
X614375942Y686129485D01*
X614375942Y685939009D02*
X614337847Y686034247D01*
X614299752Y686081866D01*
X614223561Y686129485D01*
X614147371Y686129485D01*
X613537847Y686129485D02*
X613537847Y685319961D01*
X613575942Y685224723D01*
X613614038Y685177104D01*
X613690228Y685129485D01*
X613804514Y685129485D01*
X613880704Y685177104D01*
X613537847Y685510438D02*
X613614038Y685462819D01*
X613766419Y685462819D01*
X613842609Y685510438D01*
X613880704Y685558057D01*
X613918800Y685653295D01*
X613918800Y685939009D01*
X613880704Y686034247D01*
X613842609Y686081866D01*
X613766419Y686129485D01*
X613614038Y686129485D01*
X613537847Y686081866D01*
D11*
X662857504Y687571447D02*
X662857504Y687495257D01*
X662895600Y687419066D01*
X662933695Y687380971D01*
X663009885Y687342876D01*
X663162266Y687304780D01*
X663352742Y687304780D01*
X663505123Y687342876D01*
X663581314Y687380971D01*
X663619409Y687419066D01*
X663657504Y687495257D01*
X663657504Y687571447D01*
X663619409Y687647638D01*
X663581314Y687685733D01*
X663505123Y687723828D01*
X663352742Y687761923D01*
X663162266Y687761923D01*
X663009885Y687723828D01*
X662933695Y687685733D01*
X662895600Y687647638D01*
X662857504Y687571447D01*
X663581314Y686961923D02*
X663619409Y686923828D01*
X663657504Y686961923D01*
X663619409Y687000019D01*
X663581314Y686961923D01*
X663657504Y686961923D01*
X663657504Y686161923D02*
X663657504Y686619066D01*
X663657504Y686390495D02*
X662857504Y686390495D01*
X662971790Y686466685D01*
X663047980Y686542876D01*
X663086076Y686619066D01*
X663124171Y684866685D02*
X663657504Y684866685D01*
X663124171Y685209542D02*
X663543219Y685209542D01*
X663619409Y685171447D01*
X663657504Y685095257D01*
X663657504Y684980971D01*
X663619409Y684904780D01*
X663581314Y684866685D01*
X663238457Y684219066D02*
X663238457Y684485733D01*
X663657504Y684485733D02*
X662857504Y684485733D01*
X662857504Y684104780D01*
X639235504Y683710647D02*
X639235504Y683634457D01*
X639273600Y683558266D01*
X639311695Y683520171D01*
X639387885Y683482076D01*
X639540266Y683443980D01*
X639730742Y683443980D01*
X639883123Y683482076D01*
X639959314Y683520171D01*
X639997409Y683558266D01*
X640035504Y683634457D01*
X640035504Y683710647D01*
X639997409Y683786838D01*
X639959314Y683824933D01*
X639883123Y683863028D01*
X639730742Y683901123D01*
X639540266Y683901123D01*
X639387885Y683863028D01*
X639311695Y683824933D01*
X639273600Y683786838D01*
X639235504Y683710647D01*
X639959314Y683101123D02*
X639997409Y683063028D01*
X640035504Y683101123D01*
X639997409Y683139219D01*
X639959314Y683101123D01*
X640035504Y683101123D01*
X640035504Y682301123D02*
X640035504Y682758266D01*
X640035504Y682529695D02*
X639235504Y682529695D01*
X639349790Y682605885D01*
X639425980Y682682076D01*
X639464076Y682758266D01*
X639502171Y681005885D02*
X640035504Y681005885D01*
X639502171Y681348742D02*
X639921219Y681348742D01*
X639997409Y681310647D01*
X640035504Y681234457D01*
X640035504Y681120171D01*
X639997409Y681043980D01*
X639959314Y681005885D01*
X639616457Y680358266D02*
X639616457Y680624933D01*
X640035504Y680624933D02*
X639235504Y680624933D01*
X639235504Y680243980D01*
X634511104Y683558247D02*
X634511104Y683482057D01*
X634549200Y683405866D01*
X634587295Y683367771D01*
X634663485Y683329676D01*
X634815866Y683291580D01*
X635006342Y683291580D01*
X635158723Y683329676D01*
X635234914Y683367771D01*
X635273009Y683405866D01*
X635311104Y683482057D01*
X635311104Y683558247D01*
X635273009Y683634438D01*
X635234914Y683672533D01*
X635158723Y683710628D01*
X635006342Y683748723D01*
X634815866Y683748723D01*
X634663485Y683710628D01*
X634587295Y683672533D01*
X634549200Y683634438D01*
X634511104Y683558247D01*
X635234914Y682948723D02*
X635273009Y682910628D01*
X635311104Y682948723D01*
X635273009Y682986819D01*
X635234914Y682948723D01*
X635311104Y682948723D01*
X635311104Y682148723D02*
X635311104Y682605866D01*
X635311104Y682377295D02*
X634511104Y682377295D01*
X634625390Y682453485D01*
X634701580Y682529676D01*
X634739676Y682605866D01*
X634777771Y680853485D02*
X635311104Y680853485D01*
X634777771Y681196342D02*
X635196819Y681196342D01*
X635273009Y681158247D01*
X635311104Y681082057D01*
X635311104Y680967771D01*
X635273009Y680891580D01*
X635234914Y680853485D01*
X634892057Y680205866D02*
X634892057Y680472533D01*
X635311104Y680472533D02*
X634511104Y680472533D01*
X634511104Y680091580D01*
D12*
X660417276Y698301619D02*
X660417276Y699301619D01*
X659988704Y698301619D02*
X659988704Y698825428D01*
X660036323Y698920666D01*
X660131561Y698968285D01*
X660274419Y698968285D01*
X660369657Y698920666D01*
X660417276Y698873047D01*
X659655371Y698968285D02*
X659274419Y698968285D01*
X659512514Y699301619D02*
X659512514Y698444476D01*
X659464895Y698349238D01*
X659369657Y698301619D01*
X659274419Y698301619D01*
X659083942Y698968285D02*
X658702990Y698968285D01*
X658941085Y699301619D02*
X658941085Y698444476D01*
X658893466Y698349238D01*
X658798228Y698301619D01*
X658702990Y698301619D01*
X658369657Y698968285D02*
X658369657Y697968285D01*
X658369657Y698920666D02*
X658274419Y698968285D01*
X658083942Y698968285D01*
X657988704Y698920666D01*
X657941085Y698873047D01*
X657893466Y698777809D01*
X657893466Y698492095D01*
X657941085Y698396857D01*
X657988704Y698349238D01*
X658083942Y698301619D01*
X658274419Y698301619D01*
X658369657Y698349238D01*
X657512514Y698349238D02*
X657417276Y698301619D01*
X657226800Y698301619D01*
X657131561Y698349238D01*
X657083942Y698444476D01*
X657083942Y698492095D01*
X657131561Y698587333D01*
X657226800Y698634952D01*
X657369657Y698634952D01*
X657464895Y698682571D01*
X657512514Y698777809D01*
X657512514Y698825428D01*
X657464895Y698920666D01*
X657369657Y698968285D01*
X657226800Y698968285D01*
X657131561Y698920666D01*
X656655371Y698396857D02*
X656607752Y698349238D01*
X656655371Y698301619D01*
X656702990Y698349238D01*
X656655371Y698396857D01*
X656655371Y698301619D01*
X656655371Y698920666D02*
X656607752Y698873047D01*
X656655371Y698825428D01*
X656702990Y698873047D01*
X656655371Y698920666D01*
X656655371Y698825428D01*
X655464895Y699349238D02*
X656322038Y698063523D01*
X654417276Y699349238D02*
X655274419Y698063523D01*
X653655371Y698968285D02*
X653655371Y698158761D01*
X653702990Y698063523D01*
X653750609Y698015904D01*
X653845847Y697968285D01*
X653988704Y697968285D01*
X654083942Y698015904D01*
X653655371Y698349238D02*
X653750609Y698301619D01*
X653941085Y698301619D01*
X654036323Y698349238D01*
X654083942Y698396857D01*
X654131561Y698492095D01*
X654131561Y698777809D01*
X654083942Y698873047D01*
X654036323Y698920666D01*
X653941085Y698968285D01*
X653750609Y698968285D01*
X653655371Y698920666D01*
X653179180Y698301619D02*
X653179180Y698968285D01*
X653179180Y699301619D02*
X653226800Y699254000D01*
X653179180Y699206380D01*
X653131561Y699254000D01*
X653179180Y699301619D01*
X653179180Y699206380D01*
X652845847Y698968285D02*
X652464895Y698968285D01*
X652702990Y699301619D02*
X652702990Y698444476D01*
X652655371Y698349238D01*
X652560133Y698301619D01*
X652464895Y698301619D01*
X652131561Y698301619D02*
X652131561Y699301619D01*
X651702990Y698301619D02*
X651702990Y698825428D01*
X651750609Y698920666D01*
X651845847Y698968285D01*
X651988704Y698968285D01*
X652083942Y698920666D01*
X652131561Y698873047D01*
X650798228Y698968285D02*
X650798228Y698301619D01*
X651226800Y698968285D02*
X651226800Y698444476D01*
X651179180Y698349238D01*
X651083942Y698301619D01*
X650941085Y698301619D01*
X650845847Y698349238D01*
X650798228Y698396857D01*
X650322038Y698301619D02*
X650322038Y699301619D01*
X650322038Y698920666D02*
X650226800Y698968285D01*
X650036323Y698968285D01*
X649941085Y698920666D01*
X649893466Y698873047D01*
X649845847Y698777809D01*
X649845847Y698492095D01*
X649893466Y698396857D01*
X649941085Y698349238D01*
X650036323Y698301619D01*
X650226800Y698301619D01*
X650322038Y698349238D01*
X649417276Y698396857D02*
X649369657Y698349238D01*
X649417276Y698301619D01*
X649464895Y698349238D01*
X649417276Y698396857D01*
X649417276Y698301619D01*
X648512514Y698349238D02*
X648607752Y698301619D01*
X648798228Y698301619D01*
X648893466Y698349238D01*
X648941085Y698396857D01*
X648988704Y698492095D01*
X648988704Y698777809D01*
X648941085Y698873047D01*
X648893466Y698920666D01*
X648798228Y698968285D01*
X648607752Y698968285D01*
X648512514Y698920666D01*
X647941085Y698301619D02*
X648036323Y698349238D01*
X648083942Y698396857D01*
X648131561Y698492095D01*
X648131561Y698777809D01*
X648083942Y698873047D01*
X648036323Y698920666D01*
X647941085Y698968285D01*
X647798228Y698968285D01*
X647702990Y698920666D01*
X647655371Y698873047D01*
X647607752Y698777809D01*
X647607752Y698492095D01*
X647655371Y698396857D01*
X647702990Y698349238D01*
X647798228Y698301619D01*
X647941085Y698301619D01*
X647179180Y698301619D02*
X647179180Y698968285D01*
X647179180Y698873047D02*
X647131561Y698920666D01*
X647036323Y698968285D01*
X646893466Y698968285D01*
X646798228Y698920666D01*
X646750609Y698825428D01*
X646750609Y698301619D01*
X646750609Y698825428D02*
X646702990Y698920666D01*
X646607752Y698968285D01*
X646464895Y698968285D01*
X646369657Y698920666D01*
X646322038Y698825428D01*
X646322038Y698301619D01*
X645131561Y699349238D02*
X645988704Y698063523D01*
X644798228Y698301619D02*
X644798228Y698968285D01*
X644798228Y699301619D02*
X644845847Y699254000D01*
X644798228Y699206380D01*
X644750609Y699254000D01*
X644798228Y699301619D01*
X644798228Y699206380D01*
X644369657Y698349238D02*
X644274419Y698301619D01*
X644083942Y698301619D01*
X643988704Y698349238D01*
X643941085Y698444476D01*
X643941085Y698492095D01*
X643988704Y698587333D01*
X644083942Y698634952D01*
X644226800Y698634952D01*
X644322038Y698682571D01*
X644369657Y698777809D01*
X644369657Y698825428D01*
X644322038Y698920666D01*
X644226800Y698968285D01*
X644083942Y698968285D01*
X643988704Y698920666D01*
X643560133Y698349238D02*
X643464895Y698301619D01*
X643274419Y698301619D01*
X643179180Y698349238D01*
X643131561Y698444476D01*
X643131561Y698492095D01*
X643179180Y698587333D01*
X643274419Y698634952D01*
X643417276Y698634952D01*
X643512514Y698682571D01*
X643560133Y698777809D01*
X643560133Y698825428D01*
X643512514Y698920666D01*
X643417276Y698968285D01*
X643274419Y698968285D01*
X643179180Y698920666D01*
X642274419Y698301619D02*
X642274419Y698825428D01*
X642322038Y698920666D01*
X642417276Y698968285D01*
X642607752Y698968285D01*
X642702990Y698920666D01*
X642274419Y698349238D02*
X642369657Y698301619D01*
X642607752Y698301619D01*
X642702990Y698349238D01*
X642750609Y698444476D01*
X642750609Y698539714D01*
X642702990Y698634952D01*
X642607752Y698682571D01*
X642369657Y698682571D01*
X642274419Y698730190D01*
X641655371Y698301619D02*
X641750609Y698349238D01*
X641798228Y698444476D01*
X641798228Y699301619D01*
X641274419Y698301619D02*
X641274419Y698968285D01*
X641274419Y699301619D02*
X641322038Y699254000D01*
X641274419Y699206380D01*
X641226800Y699254000D01*
X641274419Y699301619D01*
X641274419Y699206380D01*
X640369657Y698968285D02*
X640369657Y698158761D01*
X640417276Y698063523D01*
X640464895Y698015904D01*
X640560133Y697968285D01*
X640702990Y697968285D01*
X640798228Y698015904D01*
X640369657Y698349238D02*
X640464895Y698301619D01*
X640655371Y698301619D01*
X640750609Y698349238D01*
X640798228Y698396857D01*
X640845847Y698492095D01*
X640845847Y698777809D01*
X640798228Y698873047D01*
X640750609Y698920666D01*
X640655371Y698968285D01*
X640464895Y698968285D01*
X640369657Y698920666D01*
X639179180Y699349238D02*
X640036323Y698063523D01*
X638845847Y698301619D02*
X638845847Y699301619D01*
X638512514Y698587333D01*
X638179180Y699301619D01*
X638179180Y698301619D01*
X637750609Y698349238D02*
X637607752Y698301619D01*
X637369657Y698301619D01*
X637274419Y698349238D01*
X637226800Y698396857D01*
X637179180Y698492095D01*
X637179180Y698587333D01*
X637226800Y698682571D01*
X637274419Y698730190D01*
X637369657Y698777809D01*
X637560133Y698825428D01*
X637655371Y698873047D01*
X637702990Y698920666D01*
X637750609Y699015904D01*
X637750609Y699111142D01*
X637702990Y699206380D01*
X637655371Y699254000D01*
X637560133Y699301619D01*
X637322038Y699301619D01*
X637179180Y699254000D01*
X636845847Y699301619D02*
X636179180Y698301619D01*
X636179180Y699301619D02*
X636845847Y698301619D01*
X635798228Y698682571D02*
X635036323Y698682571D01*
X634560133Y699301619D02*
X634560133Y698492095D01*
X634512514Y698396857D01*
X634464895Y698349238D01*
X634369657Y698301619D01*
X634179180Y698301619D01*
X634083942Y698349238D01*
X634036323Y698396857D01*
X633988704Y698492095D01*
X633988704Y699301619D01*
X633560133Y698349238D02*
X633417276Y698301619D01*
X633179180Y698301619D01*
X633083942Y698349238D01*
X633036323Y698396857D01*
X632988704Y698492095D01*
X632988704Y698587333D01*
X633036323Y698682571D01*
X633083942Y698730190D01*
X633179180Y698777809D01*
X633369657Y698825428D01*
X633464895Y698873047D01*
X633512514Y698920666D01*
X633560133Y699015904D01*
X633560133Y699111142D01*
X633512514Y699206380D01*
X633464895Y699254000D01*
X633369657Y699301619D01*
X633131561Y699301619D01*
X632988704Y699254000D01*
X632226800Y698825428D02*
X632083942Y698777809D01*
X632036323Y698730190D01*
X631988704Y698634952D01*
X631988704Y698492095D01*
X632036323Y698396857D01*
X632083942Y698349238D01*
X632179180Y698301619D01*
X632560133Y698301619D01*
X632560133Y699301619D01*
X632226800Y699301619D01*
X632131561Y699254000D01*
X632083942Y699206380D01*
X632036323Y699111142D01*
X632036323Y699015904D01*
X632083942Y698920666D01*
X632131561Y698873047D01*
X632226800Y698825428D01*
X632560133Y698825428D01*
D11*
X615021261Y673834857D02*
X615068880Y673749142D01*
X615068880Y673606285D01*
X615021261Y673549142D01*
X614973642Y673520571D01*
X614878404Y673492000D01*
X614783166Y673492000D01*
X614687928Y673520571D01*
X614640309Y673549142D01*
X614592690Y673606285D01*
X614545071Y673720571D01*
X614497452Y673777714D01*
X614449833Y673806285D01*
X614354595Y673834857D01*
X614259357Y673834857D01*
X614164119Y673806285D01*
X614116500Y673777714D01*
X614068880Y673720571D01*
X614068880Y673577714D01*
X614116500Y673492000D01*
X615068880Y673234857D02*
X614068880Y673234857D01*
X615068880Y672892000D01*
X614068880Y672892000D01*
X615068880Y672606285D02*
X614068880Y672606285D01*
X614068880Y672463428D01*
X614116500Y672377714D01*
X614211738Y672320571D01*
X614306976Y672292000D01*
X614497452Y672263428D01*
X614640309Y672263428D01*
X614830785Y672292000D01*
X614926023Y672320571D01*
X615021261Y672377714D01*
X615068880Y672463428D01*
X615068880Y672606285D01*
X615068880Y672006285D02*
X614068880Y672006285D01*
X615068880Y671720571D02*
X614068880Y671720571D01*
X615068880Y671377714D01*
X614068880Y671377714D01*
X624213000Y673144357D02*
X624165380Y673201500D01*
X624165380Y673287214D01*
X624213000Y673372928D01*
X624308238Y673430071D01*
X624403476Y673458642D01*
X624593952Y673487214D01*
X624736809Y673487214D01*
X624927285Y673458642D01*
X625022523Y673430071D01*
X625117761Y673372928D01*
X625165380Y673287214D01*
X625165380Y673230071D01*
X625117761Y673144357D01*
X625070142Y673115785D01*
X624736809Y673115785D01*
X624736809Y673230071D01*
X625165380Y672858642D02*
X624165380Y672858642D01*
X625165380Y672515785D01*
X624165380Y672515785D01*
X625165380Y672230071D02*
X624165380Y672230071D01*
X624165380Y672087214D01*
X624213000Y672001500D01*
X624308238Y671944357D01*
X624403476Y671915785D01*
X624593952Y671887214D01*
X624736809Y671887214D01*
X624927285Y671915785D01*
X625022523Y671944357D01*
X625117761Y672001500D01*
X625165380Y672087214D01*
X625165380Y672230071D01*
X624260619Y671658642D02*
X624213000Y671630071D01*
X624165380Y671572928D01*
X624165380Y671430071D01*
X624213000Y671372928D01*
X624260619Y671344357D01*
X624355857Y671315785D01*
X624451095Y671315785D01*
X624593952Y671344357D01*
X625165380Y671687214D01*
X625165380Y671315785D01*
X621800000Y673131657D02*
X621752380Y673188800D01*
X621752380Y673274514D01*
X621800000Y673360228D01*
X621895238Y673417371D01*
X621990476Y673445942D01*
X622180952Y673474514D01*
X622323809Y673474514D01*
X622514285Y673445942D01*
X622609523Y673417371D01*
X622704761Y673360228D01*
X622752380Y673274514D01*
X622752380Y673217371D01*
X622704761Y673131657D01*
X622657142Y673103085D01*
X622323809Y673103085D01*
X622323809Y673217371D01*
X622752380Y672845942D02*
X621752380Y672845942D01*
X622752380Y672503085D01*
X621752380Y672503085D01*
X622752380Y672217371D02*
X621752380Y672217371D01*
X621752380Y672074514D01*
X621800000Y671988800D01*
X621895238Y671931657D01*
X621990476Y671903085D01*
X622180952Y671874514D01*
X622323809Y671874514D01*
X622514285Y671903085D01*
X622609523Y671931657D01*
X622704761Y671988800D01*
X622752380Y672074514D01*
X622752380Y672217371D01*
X622752380Y671303085D02*
X622752380Y671645942D01*
X622752380Y671474514D02*
X621752380Y671474514D01*
X621895238Y671531657D01*
X621990476Y671588800D01*
X622038095Y671645942D01*
X619704428Y673458642D02*
X619704428Y673001500D01*
X620085380Y673230071D02*
X619323476Y673230071D01*
X619085380Y672430071D02*
X619085380Y672715785D01*
X619561571Y672744357D01*
X619513952Y672715785D01*
X619466333Y672658642D01*
X619466333Y672515785D01*
X619513952Y672458642D01*
X619561571Y672430071D01*
X619656809Y672401500D01*
X619894904Y672401500D01*
X619990142Y672430071D01*
X620037761Y672458642D01*
X620085380Y672515785D01*
X620085380Y672658642D01*
X620037761Y672715785D01*
X619990142Y672744357D01*
X619085380Y672230071D02*
X620085380Y672030071D01*
X619085380Y671830071D01*
X619180619Y671658642D02*
X619133000Y671630071D01*
X619085380Y671572928D01*
X619085380Y671430071D01*
X619133000Y671372928D01*
X619180619Y671344357D01*
X619275857Y671315785D01*
X619371095Y671315785D01*
X619513952Y671344357D01*
X620085380Y671687214D01*
X620085380Y671315785D01*
X617164428Y673458642D02*
X617164428Y673001500D01*
X617545380Y673230071D02*
X616783476Y673230071D01*
X616545380Y672430071D02*
X616545380Y672715785D01*
X617021571Y672744357D01*
X616973952Y672715785D01*
X616926333Y672658642D01*
X616926333Y672515785D01*
X616973952Y672458642D01*
X617021571Y672430071D01*
X617116809Y672401500D01*
X617354904Y672401500D01*
X617450142Y672430071D01*
X617497761Y672458642D01*
X617545380Y672515785D01*
X617545380Y672658642D01*
X617497761Y672715785D01*
X617450142Y672744357D01*
X616545380Y672230071D02*
X617545380Y672030071D01*
X616545380Y671830071D01*
X617545380Y671315785D02*
X617545380Y671658642D01*
X617545380Y671487214D02*
X616545380Y671487214D01*
X616688238Y671544357D01*
X616783476Y671601500D01*
X616831095Y671658642D01*
X627832380Y672272857D02*
X626832380Y672272857D01*
X626832380Y672130000D01*
X626880000Y672044285D01*
X626975238Y671987142D01*
X627070476Y671958571D01*
X627260952Y671930000D01*
X627403809Y671930000D01*
X627594285Y671958571D01*
X627689523Y671987142D01*
X627784761Y672044285D01*
X627832380Y672130000D01*
X627832380Y672272857D01*
X626832380Y671730000D02*
X626832380Y671330000D01*
X627832380Y671587142D01*
X637706666Y672258571D02*
X637706666Y671972857D01*
X637992380Y672315714D02*
X636992380Y672115714D01*
X637992380Y671915714D01*
X636992380Y671430000D02*
X636992380Y671715714D01*
X637468571Y671744285D01*
X637420952Y671715714D01*
X637373333Y671658571D01*
X637373333Y671515714D01*
X637420952Y671458571D01*
X637468571Y671430000D01*
X637563809Y671401428D01*
X637801904Y671401428D01*
X637897142Y671430000D01*
X637944761Y671458571D01*
X637992380Y671515714D01*
X637992380Y671658571D01*
X637944761Y671715714D01*
X637897142Y671744285D01*
X635452380Y672272857D02*
X634452380Y672272857D01*
X634452380Y672130000D01*
X634500000Y672044285D01*
X634595238Y671987142D01*
X634690476Y671958571D01*
X634880952Y671930000D01*
X635023809Y671930000D01*
X635214285Y671958571D01*
X635309523Y671987142D01*
X635404761Y672044285D01*
X635452380Y672130000D01*
X635452380Y672272857D01*
X635452380Y671358571D02*
X635452380Y671701428D01*
X635452380Y671530000D02*
X634452380Y671530000D01*
X634595238Y671587142D01*
X634690476Y671644285D01*
X634738095Y671701428D01*
X632912380Y672272857D02*
X631912380Y672272857D01*
X631912380Y672130000D01*
X631960000Y672044285D01*
X632055238Y671987142D01*
X632150476Y671958571D01*
X632340952Y671930000D01*
X632483809Y671930000D01*
X632674285Y671958571D01*
X632769523Y671987142D01*
X632864761Y672044285D01*
X632912380Y672130000D01*
X632912380Y672272857D01*
X631912380Y671730000D02*
X631912380Y671358571D01*
X632293333Y671558571D01*
X632293333Y671472857D01*
X632340952Y671415714D01*
X632388571Y671387142D01*
X632483809Y671358571D01*
X632721904Y671358571D01*
X632817142Y671387142D01*
X632864761Y671415714D01*
X632912380Y671472857D01*
X632912380Y671644285D01*
X632864761Y671701428D01*
X632817142Y671730000D01*
X630372380Y672272857D02*
X629372380Y672272857D01*
X629372380Y672130000D01*
X629420000Y672044285D01*
X629515238Y671987142D01*
X629610476Y671958571D01*
X629800952Y671930000D01*
X629943809Y671930000D01*
X630134285Y671958571D01*
X630229523Y671987142D01*
X630324761Y672044285D01*
X630372380Y672130000D01*
X630372380Y672272857D01*
X629372380Y671387142D02*
X629372380Y671672857D01*
X629848571Y671701428D01*
X629800952Y671672857D01*
X629753333Y671615714D01*
X629753333Y671472857D01*
X629800952Y671415714D01*
X629848571Y671387142D01*
X629943809Y671358571D01*
X630181904Y671358571D01*
X630277142Y671387142D01*
X630324761Y671415714D01*
X630372380Y671472857D01*
X630372380Y671615714D01*
X630324761Y671672857D01*
X630277142Y671701428D01*
X640183166Y672258571D02*
X640183166Y671972857D01*
X640468880Y672315714D02*
X639468880Y672115714D01*
X640468880Y671915714D01*
X639468880Y671772857D02*
X639468880Y671401428D01*
X639849833Y671601428D01*
X639849833Y671515714D01*
X639897452Y671458571D01*
X639945071Y671430000D01*
X640040309Y671401428D01*
X640278404Y671401428D01*
X640373642Y671430000D01*
X640421261Y671458571D01*
X640468880Y671515714D01*
X640468880Y671687142D01*
X640421261Y671744285D01*
X640373642Y671772857D01*
X650343166Y672322071D02*
X650343166Y672036357D01*
X650628880Y672379214D02*
X649628880Y672179214D01*
X650628880Y671979214D01*
X649628880Y671836357D02*
X649628880Y671436357D01*
X650628880Y671693500D01*
X647803166Y672861785D02*
X647803166Y672576071D01*
X648088880Y672918928D02*
X647088880Y672718928D01*
X648088880Y672518928D01*
X648088880Y672004642D02*
X648088880Y672347500D01*
X648088880Y672176071D02*
X647088880Y672176071D01*
X647231738Y672233214D01*
X647326976Y672290357D01*
X647374595Y672347500D01*
X647184119Y671776071D02*
X647136500Y671747500D01*
X647088880Y671690357D01*
X647088880Y671547500D01*
X647136500Y671490357D01*
X647184119Y671461785D01*
X647279357Y671433214D01*
X647374595Y671433214D01*
X647517452Y671461785D01*
X648088880Y671804642D01*
X648088880Y671433214D01*
X645263166Y672861785D02*
X645263166Y672576071D01*
X645548880Y672918928D02*
X644548880Y672718928D01*
X645548880Y672518928D01*
X645548880Y672004642D02*
X645548880Y672347500D01*
X645548880Y672176071D02*
X644548880Y672176071D01*
X644691738Y672233214D01*
X644786976Y672290357D01*
X644834595Y672347500D01*
X644882214Y671490357D02*
X645548880Y671490357D01*
X644501261Y671633214D02*
X645215547Y671776071D01*
X645215547Y671404642D01*
X642723166Y672195071D02*
X642723166Y671909357D01*
X643008880Y672252214D02*
X642008880Y672052214D01*
X643008880Y671852214D01*
X643008880Y671337928D02*
X643008880Y671680785D01*
X643008880Y671509357D02*
X642008880Y671509357D01*
X642151738Y671566500D01*
X642246976Y671623642D01*
X642294595Y671680785D01*
X652946666Y672798285D02*
X652946666Y672512571D01*
X653232380Y672855428D02*
X652232380Y672655428D01*
X653232380Y672455428D01*
X653232380Y671941142D02*
X653232380Y672284000D01*
X653232380Y672112571D02*
X652232380Y672112571D01*
X652375238Y672169714D01*
X652470476Y672226857D01*
X652518095Y672284000D01*
X653232380Y671369714D02*
X653232380Y671712571D01*
X653232380Y671541142D02*
X652232380Y671541142D01*
X652375238Y671598285D01*
X652470476Y671655428D01*
X652518095Y671712571D01*
X662344761Y673279285D02*
X663630476Y673793571D01*
X663392380Y673079285D02*
X662392380Y673079285D01*
X662392380Y672679285D02*
X662392380Y672565000D01*
X662440000Y672507857D01*
X662535238Y672450714D01*
X662725714Y672422142D01*
X663059047Y672422142D01*
X663249523Y672450714D01*
X663344761Y672507857D01*
X663392380Y672565000D01*
X663392380Y672679285D01*
X663344761Y672736428D01*
X663249523Y672793571D01*
X663059047Y672822142D01*
X662725714Y672822142D01*
X662535238Y672793571D01*
X662440000Y672736428D01*
X662392380Y672679285D01*
X663392380Y671822142D02*
X662916190Y672022142D01*
X663392380Y672165000D02*
X662392380Y672165000D01*
X662392380Y671936428D01*
X662440000Y671879285D01*
X662487619Y671850714D01*
X662582857Y671822142D01*
X662725714Y671822142D01*
X662820952Y671850714D01*
X662868571Y671879285D01*
X662916190Y671936428D01*
X662916190Y672165000D01*
X663487619Y671165000D02*
X663440000Y671222142D01*
X663344761Y671279285D01*
X663201904Y671365000D01*
X663154285Y671422142D01*
X663154285Y671479285D01*
X663392380Y671450714D02*
X663344761Y671507857D01*
X663249523Y671565000D01*
X663059047Y671593571D01*
X662725714Y671593571D01*
X662535238Y671565000D01*
X662440000Y671507857D01*
X662392380Y671450714D01*
X662392380Y671336428D01*
X662440000Y671279285D01*
X662535238Y671222142D01*
X662725714Y671193571D01*
X663059047Y671193571D01*
X663249523Y671222142D01*
X663344761Y671279285D01*
X663392380Y671336428D01*
X663392380Y671450714D01*
X659804761Y672469714D02*
X661090476Y672984000D01*
X659852380Y672326857D02*
X660852380Y672184000D01*
X660138095Y672069714D01*
X660852380Y671955428D01*
X659852380Y671812571D01*
X660852380Y671241142D02*
X660376190Y671441142D01*
X660852380Y671584000D02*
X659852380Y671584000D01*
X659852380Y671355428D01*
X659900000Y671298285D01*
X659947619Y671269714D01*
X660042857Y671241142D01*
X660185714Y671241142D01*
X660280952Y671269714D01*
X660328571Y671298285D01*
X660376190Y671355428D01*
X660376190Y671584000D01*
X657264761Y673946000D02*
X658550476Y674460285D01*
X658312380Y673403142D02*
X657836190Y673603142D01*
X658312380Y673746000D02*
X657312380Y673746000D01*
X657312380Y673517428D01*
X657360000Y673460285D01*
X657407619Y673431714D01*
X657502857Y673403142D01*
X657645714Y673403142D01*
X657740952Y673431714D01*
X657788571Y673460285D01*
X657836190Y673517428D01*
X657836190Y673746000D01*
X657788571Y673146000D02*
X657788571Y672946000D01*
X658312380Y672860285D02*
X658312380Y673146000D01*
X657312380Y673146000D01*
X657312380Y672860285D01*
X658264761Y672631714D02*
X658312380Y672546000D01*
X658312380Y672403142D01*
X658264761Y672346000D01*
X658217142Y672317428D01*
X658121904Y672288857D01*
X658026666Y672288857D01*
X657931428Y672317428D01*
X657883809Y672346000D01*
X657836190Y672403142D01*
X657788571Y672517428D01*
X657740952Y672574571D01*
X657693333Y672603142D01*
X657598095Y672631714D01*
X657502857Y672631714D01*
X657407619Y672603142D01*
X657360000Y672574571D01*
X657312380Y672517428D01*
X657312380Y672374571D01*
X657360000Y672288857D01*
X657788571Y672031714D02*
X657788571Y671831714D01*
X658312380Y671746000D02*
X658312380Y672031714D01*
X657312380Y672031714D01*
X657312380Y671746000D01*
X657312380Y671574571D02*
X657312380Y671231714D01*
X658312380Y671403142D02*
X657312380Y671403142D01*
X655486666Y672258571D02*
X655486666Y671972857D01*
X655772380Y672315714D02*
X654772380Y672115714D01*
X655772380Y671915714D01*
X655772380Y671687142D02*
X655772380Y671572857D01*
X655724761Y671515714D01*
X655677142Y671487142D01*
X655534285Y671430000D01*
X655343809Y671401428D01*
X654962857Y671401428D01*
X654867619Y671430000D01*
X654820000Y671458571D01*
X654772380Y671515714D01*
X654772380Y671630000D01*
X654820000Y671687142D01*
X654867619Y671715714D01*
X654962857Y671744285D01*
X655200952Y671744285D01*
X655296190Y671715714D01*
X655343809Y671687142D01*
X655391428Y671630000D01*
X655391428Y671515714D01*
X655343809Y671458571D01*
X655296190Y671430000D01*
X655200952Y671401428D01*
X664884761Y672328428D02*
X666170476Y672842714D01*
X665932380Y672128428D02*
X664932380Y672128428D01*
X665646666Y671928428D01*
X664932380Y671728428D01*
X665932380Y671728428D01*
X665932380Y671128428D02*
X665932380Y671471285D01*
X665932380Y671299857D02*
X664932380Y671299857D01*
X665075238Y671357000D01*
X665170476Y671414142D01*
X665218095Y671471285D01*
X667424761Y673052285D02*
X668710476Y673566571D01*
X667472380Y672909428D02*
X668472380Y672766571D01*
X667758095Y672652285D01*
X668472380Y672538000D01*
X667472380Y672395142D01*
X668186666Y672195142D02*
X668186666Y671909428D01*
X668472380Y672252285D02*
X667472380Y672052285D01*
X668472380Y671852285D01*
X668472380Y671652285D02*
X667472380Y671652285D01*
X667472380Y671452285D02*
X667472380Y671109428D01*
X668472380Y671280857D02*
X667472380Y671280857D01*
X669964761Y673861857D02*
X671250476Y674376142D01*
X671012380Y673319000D02*
X670536190Y673519000D01*
X671012380Y673661857D02*
X670012380Y673661857D01*
X670012380Y673433285D01*
X670060000Y673376142D01*
X670107619Y673347571D01*
X670202857Y673319000D01*
X670345714Y673319000D01*
X670440952Y673347571D01*
X670488571Y673376142D01*
X670536190Y673433285D01*
X670536190Y673661857D01*
X670488571Y673061857D02*
X670488571Y672861857D01*
X671012380Y672776142D02*
X671012380Y673061857D01*
X670012380Y673061857D01*
X670012380Y672776142D01*
X670964761Y672547571D02*
X671012380Y672461857D01*
X671012380Y672319000D01*
X670964761Y672261857D01*
X670917142Y672233285D01*
X670821904Y672204714D01*
X670726666Y672204714D01*
X670631428Y672233285D01*
X670583809Y672261857D01*
X670536190Y672319000D01*
X670488571Y672433285D01*
X670440952Y672490428D01*
X670393333Y672519000D01*
X670298095Y672547571D01*
X670202857Y672547571D01*
X670107619Y672519000D01*
X670060000Y672490428D01*
X670012380Y672433285D01*
X670012380Y672290428D01*
X670060000Y672204714D01*
X670012380Y672033285D02*
X671012380Y671833285D01*
X670012380Y671633285D01*
X670107619Y671461857D02*
X670060000Y671433285D01*
X670012380Y671376142D01*
X670012380Y671233285D01*
X670060000Y671176142D01*
X670107619Y671147571D01*
X670202857Y671119000D01*
X670298095Y671119000D01*
X670440952Y671147571D01*
X671012380Y671490428D01*
X671012380Y671119000D01*
X672504761Y673365000D02*
X673790476Y673879285D01*
X673457142Y672822142D02*
X673504761Y672850714D01*
X673552380Y672936428D01*
X673552380Y672993571D01*
X673504761Y673079285D01*
X673409523Y673136428D01*
X673314285Y673165000D01*
X673123809Y673193571D01*
X672980952Y673193571D01*
X672790476Y673165000D01*
X672695238Y673136428D01*
X672600000Y673079285D01*
X672552380Y672993571D01*
X672552380Y672936428D01*
X672600000Y672850714D01*
X672647619Y672822142D01*
X673504761Y672593571D02*
X673552380Y672507857D01*
X673552380Y672365000D01*
X673504761Y672307857D01*
X673457142Y672279285D01*
X673361904Y672250714D01*
X673266666Y672250714D01*
X673171428Y672279285D01*
X673123809Y672307857D01*
X673076190Y672365000D01*
X673028571Y672479285D01*
X672980952Y672536428D01*
X672933333Y672565000D01*
X672838095Y672593571D01*
X672742857Y672593571D01*
X672647619Y672565000D01*
X672600000Y672536428D01*
X672552380Y672479285D01*
X672552380Y672336428D01*
X672600000Y672250714D01*
X673552380Y671679285D02*
X673552380Y672022142D01*
X673552380Y671850714D02*
X672552380Y671850714D01*
X672695238Y671907857D01*
X672790476Y671965000D01*
X672838095Y672022142D01*
X672647619Y671450714D02*
X672600000Y671422142D01*
X672552380Y671365000D01*
X672552380Y671222142D01*
X672600000Y671165000D01*
X672647619Y671136428D01*
X672742857Y671107857D01*
X672838095Y671107857D01*
X672980952Y671136428D01*
X673552380Y671479285D01*
X673552380Y671107857D01*
X675044761Y672698285D02*
X676330476Y673212571D01*
X675997142Y672155428D02*
X676044761Y672184000D01*
X676092380Y672269714D01*
X676092380Y672326857D01*
X676044761Y672412571D01*
X675949523Y672469714D01*
X675854285Y672498285D01*
X675663809Y672526857D01*
X675520952Y672526857D01*
X675330476Y672498285D01*
X675235238Y672469714D01*
X675140000Y672412571D01*
X675092380Y672326857D01*
X675092380Y672269714D01*
X675140000Y672184000D01*
X675187619Y672155428D01*
X676044761Y671926857D02*
X676092380Y671841142D01*
X676092380Y671698285D01*
X676044761Y671641142D01*
X675997142Y671612571D01*
X675901904Y671584000D01*
X675806666Y671584000D01*
X675711428Y671612571D01*
X675663809Y671641142D01*
X675616190Y671698285D01*
X675568571Y671812571D01*
X675520952Y671869714D01*
X675473333Y671898285D01*
X675378095Y671926857D01*
X675282857Y671926857D01*
X675187619Y671898285D01*
X675140000Y671869714D01*
X675092380Y671812571D01*
X675092380Y671669714D01*
X675140000Y671584000D01*
X676092380Y671012571D02*
X676092380Y671355428D01*
X676092380Y671184000D02*
X675092380Y671184000D01*
X675235238Y671241142D01*
X675330476Y671298285D01*
X675378095Y671355428D01*
D13*
G36*
X614089977Y690180267D02*
G01*
X614058598Y690158024D01*
X614030889Y690130315D01*
X614030889Y689820880D01*
X614030962Y689729001D01*
X614031305Y689656960D01*
X614032108Y689602020D01*
X614033559Y689561440D01*
X614035848Y689532483D01*
X614039164Y689512409D01*
X614043695Y689498479D01*
X614049631Y689487955D01*
X614054286Y689481700D01*
X614085017Y689457127D01*
X614120304Y689454459D01*
X614152555Y689469529D01*
X614163212Y689478426D01*
X614170336Y689490243D01*
X614174633Y689509274D01*
X614176809Y689539808D01*
X614177572Y689586138D01*
X614177645Y689621929D01*
X614177645Y689756755D01*
X614674356Y689756755D01*
X614674356Y689634100D01*
X614674869Y689578013D01*
X614676924Y689539467D01*
X614681292Y689513439D01*
X614688744Y689494903D01*
X614697753Y689481700D01*
X614728656Y689457196D01*
X614763604Y689454294D01*
X614797062Y689471711D01*
X614806196Y689480841D01*
X614812648Y689492945D01*
X614816903Y689511799D01*
X614819448Y689541180D01*
X614820771Y689584863D01*
X614821357Y689646625D01*
X614821425Y689660800D01*
X614821909Y689777169D01*
X614822159Y689873073D01*
X614822077Y689950623D01*
X614821569Y690011931D01*
X614820538Y690059110D01*
X614818887Y690094270D01*
X614816521Y690119524D01*
X614813343Y690136983D01*
X614809256Y690148759D01*
X614804166Y690156965D01*
X614798534Y690163155D01*
X614766672Y690182956D01*
X614733443Y690180267D01*
X614702065Y690158024D01*
X614689367Y690143674D01*
X614681274Y690127822D01*
X614676758Y690105246D01*
X614674794Y690070722D01*
X614674356Y690019024D01*
X614674356Y689903511D01*
X614177645Y689903511D01*
X614177645Y690022044D01*
X614177138Y690076652D01*
X614175102Y690113525D01*
X614170765Y690137493D01*
X614163353Y690153385D01*
X614155067Y690163155D01*
X614123206Y690182956D01*
X614089977Y690180267D01*
G37*
X614089977Y690180267D02*
X614058598Y690158024D01*
X614030889Y690130315D01*
X614030889Y689820880D01*
X614030962Y689729001D01*
X614031305Y689656960D01*
X614032108Y689602020D01*
X614033559Y689561440D01*
X614035848Y689532483D01*
X614039164Y689512409D01*
X614043695Y689498479D01*
X614049631Y689487955D01*
X614054286Y689481700D01*
X614085017Y689457127D01*
X614120304Y689454459D01*
X614152555Y689469529D01*
X614163212Y689478426D01*
X614170336Y689490243D01*
X614174633Y689509274D01*
X614176809Y689539808D01*
X614177572Y689586138D01*
X614177645Y689621929D01*
X614177645Y689756755D01*
X614674356Y689756755D01*
X614674356Y689634100D01*
X614674869Y689578013D01*
X614676924Y689539467D01*
X614681292Y689513439D01*
X614688744Y689494903D01*
X614697753Y689481700D01*
X614728656Y689457196D01*
X614763604Y689454294D01*
X614797062Y689471711D01*
X614806196Y689480841D01*
X614812648Y689492945D01*
X614816903Y689511799D01*
X614819448Y689541180D01*
X614820771Y689584863D01*
X614821357Y689646625D01*
X614821425Y689660800D01*
X614821909Y689777169D01*
X614822159Y689873073D01*
X614822077Y689950623D01*
X614821569Y690011931D01*
X614820538Y690059110D01*
X614818887Y690094270D01*
X614816521Y690119524D01*
X614813343Y690136983D01*
X614809256Y690148759D01*
X614804166Y690156965D01*
X614798534Y690163155D01*
X614766672Y690182956D01*
X614733443Y690180267D01*
X614702065Y690158024D01*
X614689367Y690143674D01*
X614681274Y690127822D01*
X614676758Y690105246D01*
X614674794Y690070722D01*
X614674356Y690019024D01*
X614674356Y689903511D01*
X614177645Y689903511D01*
X614177645Y690022044D01*
X614177138Y690076652D01*
X614175102Y690113525D01*
X614170765Y690137493D01*
X614163353Y690153385D01*
X614155067Y690163155D01*
X614123206Y690182956D01*
X614089977Y690180267D01*
G36*
X615355735Y690185637D02*
G01*
X615277028Y690185258D01*
X615215937Y690184467D01*
X615169983Y690183130D01*
X615136686Y690181117D01*
X615113564Y690178294D01*
X615098138Y690174531D01*
X615087929Y690169695D01*
X615082987Y690165978D01*
X615057343Y690133442D01*
X615054241Y690099662D01*
X615070089Y690068974D01*
X615080452Y690056711D01*
X615091604Y690048350D01*
X615107765Y690043143D01*
X615133158Y690040343D01*
X615172002Y690039204D01*
X615228520Y690038979D01*
X615239620Y690038978D01*
X615385556Y690038978D01*
X615385556Y689768044D01*
X615385652Y689682646D01*
X615386089Y689616936D01*
X615387088Y689568026D01*
X615388872Y689533027D01*
X615391663Y689509051D01*
X615395683Y689493207D01*
X615401155Y689482609D01*
X615408134Y689474533D01*
X615441066Y689454688D01*
X615475446Y689456252D01*
X615506624Y689478894D01*
X615508914Y689481700D01*
X615516371Y689492308D01*
X615522053Y689504719D01*
X615526199Y689521950D01*
X615529050Y689547016D01*
X615530846Y689582933D01*
X615531828Y689632717D01*
X615532236Y689699383D01*
X615532311Y689775211D01*
X615532311Y690038978D01*
X615671673Y690038978D01*
X615731478Y690039382D01*
X615772882Y690040960D01*
X615800052Y690044253D01*
X615817154Y690049808D01*
X615828357Y690058169D01*
X615829717Y690059622D01*
X615846075Y690092861D01*
X615844628Y690130438D01*
X615825822Y690163155D01*
X615818550Y690169502D01*
X615809173Y690174534D01*
X615795191Y690178404D01*
X615774104Y690181263D01*
X615743411Y690183265D01*
X615700611Y690184561D01*
X615643205Y690185302D01*
X615568690Y690185642D01*
X615474567Y690185732D01*
X615454540Y690185733D01*
X615355735Y690185637D01*
G37*
X615355735Y690185637D02*
X615277028Y690185258D01*
X615215937Y690184467D01*
X615169983Y690183130D01*
X615136686Y690181117D01*
X615113564Y690178294D01*
X615098138Y690174531D01*
X615087929Y690169695D01*
X615082987Y690165978D01*
X615057343Y690133442D01*
X615054241Y690099662D01*
X615070089Y690068974D01*
X615080452Y690056711D01*
X615091604Y690048350D01*
X615107765Y690043143D01*
X615133158Y690040343D01*
X615172002Y690039204D01*
X615228520Y690038979D01*
X615239620Y690038978D01*
X615385556Y690038978D01*
X615385556Y689768044D01*
X615385652Y689682646D01*
X615386089Y689616936D01*
X615387088Y689568026D01*
X615388872Y689533027D01*
X615391663Y689509051D01*
X615395683Y689493207D01*
X615401155Y689482609D01*
X615408134Y689474533D01*
X615441066Y689454688D01*
X615475446Y689456252D01*
X615506624Y689478894D01*
X615508914Y689481700D01*
X615516371Y689492308D01*
X615522053Y689504719D01*
X615526199Y689521950D01*
X615529050Y689547016D01*
X615530846Y689582933D01*
X615531828Y689632717D01*
X615532236Y689699383D01*
X615532311Y689775211D01*
X615532311Y690038978D01*
X615671673Y690038978D01*
X615731478Y690039382D01*
X615772882Y690040960D01*
X615800052Y690044253D01*
X615817154Y690049808D01*
X615828357Y690058169D01*
X615829717Y690059622D01*
X615846075Y690092861D01*
X615844628Y690130438D01*
X615825822Y690163155D01*
X615818550Y690169502D01*
X615809173Y690174534D01*
X615795191Y690178404D01*
X615774104Y690181263D01*
X615743411Y690183265D01*
X615700611Y690184561D01*
X615643205Y690185302D01*
X615568690Y690185642D01*
X615474567Y690185732D01*
X615454540Y690185733D01*
X615355735Y690185637D01*
G36*
X616130186Y690178923D02*
G01*
X616106473Y690164153D01*
X616079822Y690142573D01*
X616079822Y689821027D01*
X616079907Y689726970D01*
X616080271Y689652868D01*
X616081076Y689596096D01*
X616082487Y689554032D01*
X616084667Y689524052D01*
X616087779Y689503533D01*
X616091986Y689489851D01*
X616097452Y689480384D01*
X616101328Y689475718D01*
X616132766Y689455225D01*
X616168567Y689456061D01*
X616199927Y689473536D01*
X616226578Y689495116D01*
X616226578Y690142573D01*
X616199927Y690164153D01*
X616174206Y690179851D01*
X616153200Y690185733D01*
X616130186Y690178923D01*
G37*
X616130186Y690178923D02*
X616106473Y690164153D01*
X616079822Y690142573D01*
X616079822Y689821027D01*
X616079907Y689726970D01*
X616080271Y689652868D01*
X616081076Y689596096D01*
X616082487Y689554032D01*
X616084667Y689524052D01*
X616087779Y689503533D01*
X616091986Y689489851D01*
X616097452Y689480384D01*
X616101328Y689475718D01*
X616132766Y689455225D01*
X616168567Y689456061D01*
X616199927Y689473536D01*
X616226578Y689495116D01*
X616226578Y690142573D01*
X616199927Y690164153D01*
X616174206Y690179851D01*
X616153200Y690185733D01*
X616130186Y690178923D01*
G36*
X616574135Y690183766D02*
G01*
X616554545Y690176765D01*
X616553790Y690176423D01*
X616527187Y690156122D01*
X616512530Y690135239D01*
X616509662Y690125448D01*
X616509804Y690112439D01*
X616513839Y690093905D01*
X616522654Y690067543D01*
X616537131Y690031048D01*
X616558155Y689982113D01*
X616586612Y689918435D01*
X616623385Y689837707D01*
X616643625Y689793584D01*
X616680175Y689714815D01*
X616714485Y689642377D01*
X616745248Y689578920D01*
X616771152Y689527092D01*
X616790890Y689489541D01*
X616803150Y689468916D01*
X616805576Y689466067D01*
X616836617Y689453498D01*
X616871679Y689455181D01*
X616899800Y689470468D01*
X616900946Y689471711D01*
X616912132Y689488646D01*
X616930896Y689521630D01*
X616954925Y689566420D01*
X616981903Y689618768D01*
X616991599Y689638058D01*
X617064786Y689784650D01*
X617144560Y689625407D01*
X617173033Y689570385D01*
X617199450Y689522668D01*
X617221652Y689485907D01*
X617237481Y689463756D01*
X617242846Y689459059D01*
X617284543Y689452698D01*
X617318951Y689466067D01*
X617329072Y689480354D01*
X617346586Y689512108D01*
X617370065Y689558203D01*
X617398080Y689615515D01*
X617429201Y689680920D01*
X617462001Y689751293D01*
X617495050Y689823509D01*
X617526919Y689894445D01*
X617556181Y689960975D01*
X617581405Y690019974D01*
X617601164Y690068319D01*
X617614028Y690102885D01*
X617618569Y690120547D01*
X617618523Y690121187D01*
X617607474Y690143412D01*
X617585390Y690166047D01*
X617584090Y690167032D01*
X617556947Y690182375D01*
X617531842Y690182226D01*
X617522432Y690179334D01*
X617510966Y690173082D01*
X617498790Y690160786D01*
X617484443Y690139892D01*
X617466464Y690107851D01*
X617443393Y690062112D01*
X617413770Y690000123D01*
X617387055Y689942902D01*
X617356320Y689876574D01*
X617328779Y689816926D01*
X617305862Y689767075D01*
X617289002Y689730136D01*
X617279627Y689709227D01*
X617278260Y689705955D01*
X617272111Y689711303D01*
X617257978Y689733691D01*
X617237743Y689769854D01*
X617213285Y689816523D01*
X617203552Y689835778D01*
X617170583Y689900796D01*
X617145157Y689948146D01*
X617125188Y689980581D01*
X617108590Y690000854D01*
X617093276Y690011718D01*
X617077160Y690015925D01*
X617066657Y690016400D01*
X617048130Y690014758D01*
X617031896Y690007969D01*
X617015765Y689993234D01*
X616997549Y689967756D01*
X616975061Y689928739D01*
X616946111Y689873386D01*
X616930138Y689841897D01*
X616904230Y689791713D01*
X616881633Y689750096D01*
X616864342Y689720558D01*
X616854350Y689706611D01*
X616852991Y689706030D01*
X616846539Y689717007D01*
X616832092Y689745510D01*
X616811097Y689788556D01*
X616785003Y689843162D01*
X616755254Y689906346D01*
X616740620Y689937729D01*
X616702550Y690018722D01*
X616671895Y690081044D01*
X616647063Y690126729D01*
X616626463Y690157811D01*
X616608502Y690176322D01*
X616591590Y690184296D01*
X616574135Y690183766D01*
G37*
X616574135Y690183766D02*
X616554545Y690176765D01*
X616553790Y690176423D01*
X616527187Y690156122D01*
X616512530Y690135239D01*
X616509662Y690125448D01*
X616509804Y690112439D01*
X616513839Y690093905D01*
X616522654Y690067543D01*
X616537131Y690031048D01*
X616558155Y689982113D01*
X616586612Y689918435D01*
X616623385Y689837707D01*
X616643625Y689793584D01*
X616680175Y689714815D01*
X616714485Y689642377D01*
X616745248Y689578920D01*
X616771152Y689527092D01*
X616790890Y689489541D01*
X616803150Y689468916D01*
X616805576Y689466067D01*
X616836617Y689453498D01*
X616871679Y689455181D01*
X616899800Y689470468D01*
X616900946Y689471711D01*
X616912132Y689488646D01*
X616930896Y689521630D01*
X616954925Y689566420D01*
X616981903Y689618768D01*
X616991599Y689638058D01*
X617064786Y689784650D01*
X617144560Y689625407D01*
X617173033Y689570385D01*
X617199450Y689522668D01*
X617221652Y689485907D01*
X617237481Y689463756D01*
X617242846Y689459059D01*
X617284543Y689452698D01*
X617318951Y689466067D01*
X617329072Y689480354D01*
X617346586Y689512108D01*
X617370065Y689558203D01*
X617398080Y689615515D01*
X617429201Y689680920D01*
X617462001Y689751293D01*
X617495050Y689823509D01*
X617526919Y689894445D01*
X617556181Y689960975D01*
X617581405Y690019974D01*
X617601164Y690068319D01*
X617614028Y690102885D01*
X617618569Y690120547D01*
X617618523Y690121187D01*
X617607474Y690143412D01*
X617585390Y690166047D01*
X617584090Y690167032D01*
X617556947Y690182375D01*
X617531842Y690182226D01*
X617522432Y690179334D01*
X617510966Y690173082D01*
X617498790Y690160786D01*
X617484443Y690139892D01*
X617466464Y690107851D01*
X617443393Y690062112D01*
X617413770Y690000123D01*
X617387055Y689942902D01*
X617356320Y689876574D01*
X617328779Y689816926D01*
X617305862Y689767075D01*
X617289002Y689730136D01*
X617279627Y689709227D01*
X617278260Y689705955D01*
X617272111Y689711303D01*
X617257978Y689733691D01*
X617237743Y689769854D01*
X617213285Y689816523D01*
X617203552Y689835778D01*
X617170583Y689900796D01*
X617145157Y689948146D01*
X617125188Y689980581D01*
X617108590Y690000854D01*
X617093276Y690011718D01*
X617077160Y690015925D01*
X617066657Y690016400D01*
X617048130Y690014758D01*
X617031896Y690007969D01*
X617015765Y689993234D01*
X616997549Y689967756D01*
X616975061Y689928739D01*
X616946111Y689873386D01*
X616930138Y689841897D01*
X616904230Y689791713D01*
X616881633Y689750096D01*
X616864342Y689720558D01*
X616854350Y689706611D01*
X616852991Y689706030D01*
X616846539Y689717007D01*
X616832092Y689745510D01*
X616811097Y689788556D01*
X616785003Y689843162D01*
X616755254Y689906346D01*
X616740620Y689937729D01*
X616702550Y690018722D01*
X616671895Y690081044D01*
X616647063Y690126729D01*
X616626463Y690157811D01*
X616608502Y690176322D01*
X616591590Y690184296D01*
X616574135Y690183766D01*
G36*
X619300491Y690185525D02*
G01*
X619171512Y690181164D01*
X619061809Y690167939D01*
X618969574Y690145059D01*
X618892998Y690111730D01*
X618830273Y690067162D01*
X618779588Y690010564D01*
X618739137Y689941142D01*
X618738341Y689939449D01*
X618714199Y689877317D01*
X618705597Y689822291D01*
X618712569Y689766913D01*
X618735146Y689703727D01*
X618739428Y689694111D01*
X618768628Y689637834D01*
X618801444Y689594349D01*
X618843798Y689557383D01*
X618901610Y689520665D01*
X618904969Y689518748D01*
X618955296Y689494573D01*
X619012179Y689476518D01*
X619079273Y689463961D01*
X619160235Y689456278D01*
X619258718Y689452847D01*
X619293514Y689452549D01*
X619459206Y689451955D01*
X619482603Y689481700D01*
X619489543Y689491481D01*
X619494958Y689502903D01*
X619499035Y689518705D01*
X619501963Y689541625D01*
X619503933Y689574404D01*
X619504575Y689598711D01*
X619347956Y689598711D01*
X619254074Y689598711D01*
X619199136Y689600317D01*
X619142740Y689604545D01*
X619096455Y689610508D01*
X619093661Y689611010D01*
X619011452Y689633064D01*
X618947686Y689666200D01*
X618900348Y689711953D01*
X618867418Y689771861D01*
X618861692Y689787739D01*
X618856079Y689812467D01*
X618858509Y689836898D01*
X618870333Y689869400D01*
X618877460Y689885366D01*
X618900800Y689927794D01*
X618928920Y689957560D01*
X618959860Y689978289D01*
X619021834Y690005263D01*
X619101149Y690024802D01*
X619193547Y690036054D01*
X619260467Y690038530D01*
X619347956Y690038978D01*
X619347956Y689598711D01*
X619504575Y689598711D01*
X619505132Y689619779D01*
X619505750Y689680489D01*
X619505975Y689759274D01*
X619506000Y689820880D01*
X619506000Y690130315D01*
X619478291Y690158024D01*
X619465994Y690169256D01*
X619452697Y690176947D01*
X619434128Y690181760D01*
X619406014Y690184354D01*
X619364083Y690185390D01*
X619304063Y690185530D01*
X619300491Y690185525D01*
G37*
X619300491Y690185525D02*
X619171512Y690181164D01*
X619061809Y690167939D01*
X618969574Y690145059D01*
X618892998Y690111730D01*
X618830273Y690067162D01*
X618779588Y690010564D01*
X618739137Y689941142D01*
X618738341Y689939449D01*
X618714199Y689877317D01*
X618705597Y689822291D01*
X618712569Y689766913D01*
X618735146Y689703727D01*
X618739428Y689694111D01*
X618768628Y689637834D01*
X618801444Y689594349D01*
X618843798Y689557383D01*
X618901610Y689520665D01*
X618904969Y689518748D01*
X618955296Y689494573D01*
X619012179Y689476518D01*
X619079273Y689463961D01*
X619160235Y689456278D01*
X619258718Y689452847D01*
X619293514Y689452549D01*
X619459206Y689451955D01*
X619482603Y689481700D01*
X619489543Y689491481D01*
X619494958Y689502903D01*
X619499035Y689518705D01*
X619501963Y689541625D01*
X619503933Y689574404D01*
X619504575Y689598711D01*
X619347956Y689598711D01*
X619254074Y689598711D01*
X619199136Y689600317D01*
X619142740Y689604545D01*
X619096455Y689610508D01*
X619093661Y689611010D01*
X619011452Y689633064D01*
X618947686Y689666200D01*
X618900348Y689711953D01*
X618867418Y689771861D01*
X618861692Y689787739D01*
X618856079Y689812467D01*
X618858509Y689836898D01*
X618870333Y689869400D01*
X618877460Y689885366D01*
X618900800Y689927794D01*
X618928920Y689957560D01*
X618959860Y689978289D01*
X619021834Y690005263D01*
X619101149Y690024802D01*
X619193547Y690036054D01*
X619260467Y690038530D01*
X619347956Y690038978D01*
X619347956Y689598711D01*
X619504575Y689598711D01*
X619505132Y689619779D01*
X619505750Y689680489D01*
X619505975Y689759274D01*
X619506000Y689820880D01*
X619506000Y690130315D01*
X619478291Y690158024D01*
X619465994Y690169256D01*
X619452697Y690176947D01*
X619434128Y690181760D01*
X619406014Y690184354D01*
X619364083Y690185390D01*
X619304063Y690185530D01*
X619300491Y690185525D01*
G36*
X620088457Y690185540D02*
G01*
X620012099Y690184626D01*
X619953583Y690182489D01*
X619910545Y690178625D01*
X619880617Y690172533D01*
X619861432Y690163710D01*
X619850624Y690151654D01*
X619845827Y690135861D01*
X619844673Y690115830D01*
X619844667Y690113465D01*
X619845669Y690090808D01*
X619850404Y690073297D01*
X619861467Y690060226D01*
X619881452Y690050887D01*
X619912954Y690044573D01*
X619958568Y690040578D01*
X620020887Y690038194D01*
X620102507Y690036714D01*
X620127523Y690036386D01*
X620369600Y690033333D01*
X620372986Y689968422D01*
X620376371Y689903511D01*
X620208224Y689903511D01*
X620142534Y689903269D01*
X620095628Y689902244D01*
X620063717Y689899989D01*
X620043009Y689896058D01*
X620029716Y689890002D01*
X620020045Y689881376D01*
X620019983Y689881307D01*
X620002444Y689847688D01*
X620003078Y689811352D01*
X620021486Y689780377D01*
X620025129Y689777193D01*
X620038059Y689768988D01*
X620055776Y689763279D01*
X620082230Y689759638D01*
X620121368Y689757633D01*
X620177138Y689756836D01*
X620212806Y689756755D01*
X620375245Y689756755D01*
X620375245Y689598711D01*
X620128639Y689598711D01*
X620047220Y689598569D01*
X619985390Y689597986D01*
X619940163Y689596732D01*
X619908552Y689594573D01*
X619887569Y689591277D01*
X619874227Y689586611D01*
X619865539Y689580343D01*
X619863350Y689578067D01*
X619847186Y689546520D01*
X619846003Y689510632D01*
X619859264Y689479515D01*
X619869757Y689469529D01*
X619880671Y689464031D01*
X619897583Y689459778D01*
X619923167Y689456620D01*
X619960099Y689454408D01*
X620011054Y689452994D01*
X620078706Y689452228D01*
X620165731Y689451962D01*
X620185406Y689451955D01*
X620273889Y689452013D01*
X620342573Y689452333D01*
X620394236Y689453133D01*
X620431655Y689454633D01*
X620457610Y689457051D01*
X620474878Y689460606D01*
X620486238Y689465518D01*
X620494468Y689472005D01*
X620498983Y689476662D01*
X620505779Y689484911D01*
X620511088Y689495131D01*
X620515094Y689510000D01*
X620517979Y689532198D01*
X620519926Y689564407D01*
X620521119Y689609304D01*
X620521739Y689669572D01*
X620521971Y689747889D01*
X620522000Y689813806D01*
X620521929Y689906172D01*
X620521592Y689978683D01*
X620520802Y690034063D01*
X620519374Y690075035D01*
X620517121Y690104322D01*
X620513857Y690124647D01*
X620509396Y690138734D01*
X620503552Y690149305D01*
X620498603Y690155989D01*
X620475206Y690185733D01*
X620185026Y690185733D01*
X620088457Y690185540D01*
G37*
X620088457Y690185540D02*
X620012099Y690184626D01*
X619953583Y690182489D01*
X619910545Y690178625D01*
X619880617Y690172533D01*
X619861432Y690163710D01*
X619850624Y690151654D01*
X619845827Y690135861D01*
X619844673Y690115830D01*
X619844667Y690113465D01*
X619845669Y690090808D01*
X619850404Y690073297D01*
X619861467Y690060226D01*
X619881452Y690050887D01*
X619912954Y690044573D01*
X619958568Y690040578D01*
X620020887Y690038194D01*
X620102507Y690036714D01*
X620127523Y690036386D01*
X620369600Y690033333D01*
X620372986Y689968422D01*
X620376371Y689903511D01*
X620208224Y689903511D01*
X620142534Y689903269D01*
X620095628Y689902244D01*
X620063717Y689899989D01*
X620043009Y689896058D01*
X620029716Y689890002D01*
X620020045Y689881376D01*
X620019983Y689881307D01*
X620002444Y689847688D01*
X620003078Y689811352D01*
X620021486Y689780377D01*
X620025129Y689777193D01*
X620038059Y689768988D01*
X620055776Y689763279D01*
X620082230Y689759638D01*
X620121368Y689757633D01*
X620177138Y689756836D01*
X620212806Y689756755D01*
X620375245Y689756755D01*
X620375245Y689598711D01*
X620128639Y689598711D01*
X620047220Y689598569D01*
X619985390Y689597986D01*
X619940163Y689596732D01*
X619908552Y689594573D01*
X619887569Y689591277D01*
X619874227Y689586611D01*
X619865539Y689580343D01*
X619863350Y689578067D01*
X619847186Y689546520D01*
X619846003Y689510632D01*
X619859264Y689479515D01*
X619869757Y689469529D01*
X619880671Y689464031D01*
X619897583Y689459778D01*
X619923167Y689456620D01*
X619960099Y689454408D01*
X620011054Y689452994D01*
X620078706Y689452228D01*
X620165731Y689451962D01*
X620185406Y689451955D01*
X620273889Y689452013D01*
X620342573Y689452333D01*
X620394236Y689453133D01*
X620431655Y689454633D01*
X620457610Y689457051D01*
X620474878Y689460606D01*
X620486238Y689465518D01*
X620494468Y689472005D01*
X620498983Y689476662D01*
X620505779Y689484911D01*
X620511088Y689495131D01*
X620515094Y689510000D01*
X620517979Y689532198D01*
X620519926Y689564407D01*
X620521119Y689609304D01*
X620521739Y689669572D01*
X620521971Y689747889D01*
X620522000Y689813806D01*
X620521929Y689906172D01*
X620521592Y689978683D01*
X620520802Y690034063D01*
X620519374Y690075035D01*
X620517121Y690104322D01*
X620513857Y690124647D01*
X620509396Y690138734D01*
X620503552Y690149305D01*
X620498603Y690155989D01*
X620475206Y690185733D01*
X620185026Y690185733D01*
X620088457Y690185540D01*
G36*
X621618914Y690181352D02*
G01*
X621595348Y690167527D01*
X621564535Y690144919D01*
X621524878Y690112462D01*
X621474780Y690069092D01*
X621412643Y690013742D01*
X621336872Y689945349D01*
X621250134Y689866716D01*
X621069511Y689702922D01*
X621063867Y689922771D01*
X621061829Y689998449D01*
X621059863Y690054806D01*
X621057534Y690095094D01*
X621054406Y690122565D01*
X621050045Y690140471D01*
X621044016Y690152063D01*
X621035884Y690160592D01*
X621031572Y690164177D01*
X620997041Y690183130D01*
X620964183Y690180359D01*
X620938118Y690164167D01*
X620911467Y690142601D01*
X620908152Y689827649D01*
X620907235Y689735021D01*
X620906768Y689662256D01*
X620906913Y689606639D01*
X620907832Y689565458D01*
X620909687Y689535997D01*
X620912639Y689515545D01*
X620916850Y689501387D01*
X620922482Y689490809D01*
X620928727Y689482326D01*
X620942239Y689466593D01*
X620955683Y689456164D01*
X620970924Y689452161D01*
X620989826Y689455706D01*
X621014255Y689467921D01*
X621046073Y689489929D01*
X621087148Y689522851D01*
X621139342Y689567809D01*
X621204522Y689625925D01*
X621278356Y689692701D01*
X621543645Y689933342D01*
X621549289Y689714211D01*
X621551331Y689638672D01*
X621553302Y689582446D01*
X621555639Y689542276D01*
X621558781Y689514904D01*
X621563164Y689497072D01*
X621569224Y689485521D01*
X621577400Y689476993D01*
X621581584Y689473518D01*
X621618565Y689454428D01*
X621653508Y689457307D01*
X621683936Y689481700D01*
X621690897Y689491514D01*
X621696323Y689502974D01*
X621700403Y689518832D01*
X621703329Y689541837D01*
X621705292Y689574738D01*
X621706483Y689620284D01*
X621707092Y689681227D01*
X621707311Y689760314D01*
X621707334Y689818844D01*
X621707260Y689910393D01*
X621706913Y689982113D01*
X621706101Y690036755D01*
X621704633Y690077068D01*
X621702319Y690105802D01*
X621698967Y690125707D01*
X621694388Y690139532D01*
X621688389Y690150028D01*
X621683936Y690155989D01*
X621672650Y690170109D01*
X621662101Y690180771D01*
X621650693Y690186908D01*
X621636830Y690187457D01*
X621618914Y690181352D01*
G37*
X621618914Y690181352D02*
X621595348Y690167527D01*
X621564535Y690144919D01*
X621524878Y690112462D01*
X621474780Y690069092D01*
X621412643Y690013742D01*
X621336872Y689945349D01*
X621250134Y689866716D01*
X621069511Y689702922D01*
X621063867Y689922771D01*
X621061829Y689998449D01*
X621059863Y690054806D01*
X621057534Y690095094D01*
X621054406Y690122565D01*
X621050045Y690140471D01*
X621044016Y690152063D01*
X621035884Y690160592D01*
X621031572Y690164177D01*
X620997041Y690183130D01*
X620964183Y690180359D01*
X620938118Y690164167D01*
X620911467Y690142601D01*
X620908152Y689827649D01*
X620907235Y689735021D01*
X620906768Y689662256D01*
X620906913Y689606639D01*
X620907832Y689565458D01*
X620909687Y689535997D01*
X620912639Y689515545D01*
X620916850Y689501387D01*
X620922482Y689490809D01*
X620928727Y689482326D01*
X620942239Y689466593D01*
X620955683Y689456164D01*
X620970924Y689452161D01*
X620989826Y689455706D01*
X621014255Y689467921D01*
X621046073Y689489929D01*
X621087148Y689522851D01*
X621139342Y689567809D01*
X621204522Y689625925D01*
X621278356Y689692701D01*
X621543645Y689933342D01*
X621549289Y689714211D01*
X621551331Y689638672D01*
X621553302Y689582446D01*
X621555639Y689542276D01*
X621558781Y689514904D01*
X621563164Y689497072D01*
X621569224Y689485521D01*
X621577400Y689476993D01*
X621581584Y689473518D01*
X621618565Y689454428D01*
X621653508Y689457307D01*
X621683936Y689481700D01*
X621690897Y689491514D01*
X621696323Y689502974D01*
X621700403Y689518832D01*
X621703329Y689541837D01*
X621705292Y689574738D01*
X621706483Y689620284D01*
X621707092Y689681227D01*
X621707311Y689760314D01*
X621707334Y689818844D01*
X621707260Y689910393D01*
X621706913Y689982113D01*
X621706101Y690036755D01*
X621704633Y690077068D01*
X621702319Y690105802D01*
X621698967Y690125707D01*
X621694388Y690139532D01*
X621688389Y690150028D01*
X621683936Y690155989D01*
X621672650Y690170109D01*
X621662101Y690180771D01*
X621650693Y690186908D01*
X621636830Y690187457D01*
X621618914Y690181352D01*
G36*
X622268881Y690180201D02*
G01*
X622200365Y690168705D01*
X622147743Y690150833D01*
X622113508Y690127301D01*
X622104179Y690113876D01*
X622094693Y690082652D01*
X622101077Y690054405D01*
X622121230Y690027618D01*
X622152545Y690015087D01*
X622197983Y690016104D01*
X622233126Y690022894D01*
X622311219Y690035829D01*
X622391026Y690037058D01*
X622480355Y690026559D01*
X622505029Y690022110D01*
X622588091Y689998692D01*
X622653073Y689963855D01*
X622699261Y689918196D01*
X622725945Y689862306D01*
X622731463Y689833412D01*
X622727851Y689774788D01*
X622704529Y689722921D01*
X622663624Y689678822D01*
X622607259Y689643501D01*
X622537560Y689617971D01*
X622456652Y689603241D01*
X622366660Y689600322D01*
X622269710Y689610225D01*
X622264236Y689611159D01*
X622225675Y689618341D01*
X622204294Y689625279D01*
X622195027Y689635573D01*
X622192806Y689652824D01*
X622192756Y689661959D01*
X622192756Y689700311D01*
X622261231Y689700311D01*
X622321700Y689704453D01*
X622362965Y689717653D01*
X622386975Y689741070D01*
X622395677Y689775864D01*
X622395783Y689780406D01*
X622390692Y689810146D01*
X622373233Y689831381D01*
X622340739Y689845434D01*
X622290543Y689853627D01*
X622241923Y689856639D01*
X622171256Y689858367D01*
X622119998Y689855730D01*
X622085039Y689846000D01*
X622063270Y689826447D01*
X622051580Y689794344D01*
X622046860Y689746962D01*
X622046000Y689684729D01*
X622047409Y689615265D01*
X622051648Y689568014D01*
X622058736Y689542788D01*
X622060111Y689540812D01*
X622099028Y689509292D01*
X622156086Y689484330D01*
X622227669Y689466460D01*
X622310158Y689456214D01*
X622399939Y689454127D01*
X622493392Y689460732D01*
X622548356Y689468844D01*
X622634566Y689493246D01*
X622714692Y689533138D01*
X622781777Y689584913D01*
X622791973Y689595261D01*
X622825102Y689638765D01*
X622854994Y689692682D01*
X622878157Y689749208D01*
X622891098Y689800541D01*
X622892658Y689820256D01*
X622886018Y689861381D01*
X622868368Y689912548D01*
X622843097Y689966406D01*
X622813589Y690015605D01*
X622787519Y690048466D01*
X622726565Y690097348D01*
X622647769Y690136255D01*
X622553957Y690164306D01*
X622447950Y690180621D01*
X622350800Y690184608D01*
X622268881Y690180201D01*
G37*
X622268881Y690180201D02*
X622200365Y690168705D01*
X622147743Y690150833D01*
X622113508Y690127301D01*
X622104179Y690113876D01*
X622094693Y690082652D01*
X622101077Y690054405D01*
X622121230Y690027618D01*
X622152545Y690015087D01*
X622197983Y690016104D01*
X622233126Y690022894D01*
X622311219Y690035829D01*
X622391026Y690037058D01*
X622480355Y690026559D01*
X622505029Y690022110D01*
X622588091Y689998692D01*
X622653073Y689963855D01*
X622699261Y689918196D01*
X622725945Y689862306D01*
X622731463Y689833412D01*
X622727851Y689774788D01*
X622704529Y689722921D01*
X622663624Y689678822D01*
X622607259Y689643501D01*
X622537560Y689617971D01*
X622456652Y689603241D01*
X622366660Y689600322D01*
X622269710Y689610225D01*
X622264236Y689611159D01*
X622225675Y689618341D01*
X622204294Y689625279D01*
X622195027Y689635573D01*
X622192806Y689652824D01*
X622192756Y689661959D01*
X622192756Y689700311D01*
X622261231Y689700311D01*
X622321700Y689704453D01*
X622362965Y689717653D01*
X622386975Y689741070D01*
X622395677Y689775864D01*
X622395783Y689780406D01*
X622390692Y689810146D01*
X622373233Y689831381D01*
X622340739Y689845434D01*
X622290543Y689853627D01*
X622241923Y689856639D01*
X622171256Y689858367D01*
X622119998Y689855730D01*
X622085039Y689846000D01*
X622063270Y689826447D01*
X622051580Y689794344D01*
X622046860Y689746962D01*
X622046000Y689684729D01*
X622047409Y689615265D01*
X622051648Y689568014D01*
X622058736Y689542788D01*
X622060111Y689540812D01*
X622099028Y689509292D01*
X622156086Y689484330D01*
X622227669Y689466460D01*
X622310158Y689456214D01*
X622399939Y689454127D01*
X622493392Y689460732D01*
X622548356Y689468844D01*
X622634566Y689493246D01*
X622714692Y689533138D01*
X622781777Y689584913D01*
X622791973Y689595261D01*
X622825102Y689638765D01*
X622854994Y689692682D01*
X622878157Y689749208D01*
X622891098Y689800541D01*
X622892658Y689820256D01*
X622886018Y689861381D01*
X622868368Y689912548D01*
X622843097Y689966406D01*
X622813589Y690015605D01*
X622787519Y690048466D01*
X622726565Y690097348D01*
X622647769Y690136255D01*
X622553957Y690164306D01*
X622447950Y690180621D01*
X622350800Y690184608D01*
X622268881Y690180201D01*
G36*
X623242622Y690163155D02*
G01*
X623236042Y690155582D01*
X623230879Y690145813D01*
X623226964Y690131229D01*
X623224124Y690109215D01*
X623222187Y690077152D01*
X623220983Y690032425D01*
X623220339Y689972415D01*
X623220084Y689894506D01*
X623220045Y689818844D01*
X623220114Y689724998D01*
X623220438Y689651111D01*
X623221186Y689594568D01*
X623222532Y689552751D01*
X623224646Y689523043D01*
X623227700Y689502827D01*
X623231866Y689489486D01*
X623237316Y689480402D01*
X623242622Y689474533D01*
X623275626Y689454853D01*
X623310791Y689456619D01*
X623342255Y689478083D01*
X623349484Y689486463D01*
X623355134Y689496186D01*
X623359399Y689509939D01*
X623362473Y689530411D01*
X623364552Y689560288D01*
X623365830Y689602259D01*
X623366501Y689659011D01*
X623366759Y689733233D01*
X623366800Y689817263D01*
X623366800Y690130315D01*
X623339091Y690158024D01*
X623304937Y690181337D01*
X623271806Y690182177D01*
X623242622Y690163155D01*
G37*
X623242622Y690163155D02*
X623236042Y690155582D01*
X623230879Y690145813D01*
X623226964Y690131229D01*
X623224124Y690109215D01*
X623222187Y690077152D01*
X623220983Y690032425D01*
X623220339Y689972415D01*
X623220084Y689894506D01*
X623220045Y689818844D01*
X623220114Y689724998D01*
X623220438Y689651111D01*
X623221186Y689594568D01*
X623222532Y689552751D01*
X623224646Y689523043D01*
X623227700Y689502827D01*
X623231866Y689489486D01*
X623237316Y689480402D01*
X623242622Y689474533D01*
X623275626Y689454853D01*
X623310791Y689456619D01*
X623342255Y689478083D01*
X623349484Y689486463D01*
X623355134Y689496186D01*
X623359399Y689509939D01*
X623362473Y689530411D01*
X623364552Y689560288D01*
X623365830Y689602259D01*
X623366501Y689659011D01*
X623366759Y689733233D01*
X623366800Y689817263D01*
X623366800Y690130315D01*
X623339091Y690158024D01*
X623304937Y690181337D01*
X623271806Y690182177D01*
X623242622Y690163155D01*
G36*
X624010503Y690184449D02*
G01*
X623935688Y690179219D01*
X623866106Y690171050D01*
X623805802Y690160250D01*
X623758820Y690147127D01*
X623729206Y690131987D01*
X623724660Y690127531D01*
X623708854Y690092950D01*
X623713647Y690057449D01*
X623738164Y690027075D01*
X623739334Y690026204D01*
X623753754Y690016846D01*
X623768808Y690011924D01*
X623789805Y690011327D01*
X623822057Y690014939D01*
X623870873Y690022646D01*
X623874800Y690023295D01*
X623947539Y690032231D01*
X624026017Y690036639D01*
X624104727Y690036681D01*
X624178161Y690032521D01*
X624240811Y690024321D01*
X624287170Y690012243D01*
X624290216Y690011029D01*
X624323848Y689992185D01*
X624335664Y689973115D01*
X624326414Y689954361D01*
X624296847Y689936463D01*
X624247711Y689919963D01*
X624179757Y689905404D01*
X624134445Y689898394D01*
X624040256Y689884911D01*
X623965344Y689872586D01*
X623906517Y689860351D01*
X623860585Y689847139D01*
X623824355Y689831883D01*
X623794638Y689813515D01*
X623768242Y689790969D01*
X623747030Y689768829D01*
X623721865Y689737981D01*
X623709481Y689711455D01*
X623705608Y689678774D01*
X623705467Y689666805D01*
X623708376Y689627088D01*
X623720002Y689597541D01*
X623740123Y689571314D01*
X623781016Y689531224D01*
X623826617Y689500651D01*
X623880313Y689478597D01*
X623945492Y689464065D01*
X624025544Y689456059D01*
X624123857Y689453582D01*
X624140089Y689453623D01*
X624205649Y689454982D01*
X624270666Y689458070D01*
X624328052Y689462444D01*
X624370722Y689467660D01*
X624374172Y689468259D01*
X624416596Y689478309D01*
X624452580Y689491004D01*
X624472950Y689502610D01*
X624491907Y689533228D01*
X624493227Y689568882D01*
X624476885Y689600656D01*
X624473229Y689604249D01*
X624458115Y689614924D01*
X624439215Y689619524D01*
X624409962Y689618741D01*
X624374451Y689614673D01*
X624334770Y689611038D01*
X624279145Y689607972D01*
X624214206Y689605747D01*
X624146585Y689604636D01*
X624128800Y689604563D01*
X624060928Y689604836D01*
X624011254Y689606154D01*
X623975410Y689608973D01*
X623949024Y689613750D01*
X623927726Y689620943D01*
X623914926Y689626933D01*
X623886800Y689643567D01*
X623868868Y689658632D01*
X623866247Y689662903D01*
X623871776Y689680537D01*
X623898060Y689697608D01*
X623943278Y689713342D01*
X624005608Y689726962D01*
X624023971Y689729996D01*
X624119890Y689745062D01*
X624196441Y689757654D01*
X624256580Y689768689D01*
X624303260Y689779080D01*
X624339437Y689789744D01*
X624368065Y689801595D01*
X624392098Y689815549D01*
X624414492Y689832519D01*
X624438202Y689853422D01*
X624446180Y689860751D01*
X624474153Y689888101D01*
X624488960Y689909771D01*
X624494752Y689934568D01*
X624495689Y689965817D01*
X624485375Y690027095D01*
X624454552Y690079160D01*
X624403395Y690121842D01*
X624332083Y690154975D01*
X624281200Y690169836D01*
X624225900Y690179434D01*
X624159653Y690184864D01*
X624086506Y690186433D01*
X624010503Y690184449D01*
G37*
X624010503Y690184449D02*
X623935688Y690179219D01*
X623866106Y690171050D01*
X623805802Y690160250D01*
X623758820Y690147127D01*
X623729206Y690131987D01*
X623724660Y690127531D01*
X623708854Y690092950D01*
X623713647Y690057449D01*
X623738164Y690027075D01*
X623739334Y690026204D01*
X623753754Y690016846D01*
X623768808Y690011924D01*
X623789805Y690011327D01*
X623822057Y690014939D01*
X623870873Y690022646D01*
X623874800Y690023295D01*
X623947539Y690032231D01*
X624026017Y690036639D01*
X624104727Y690036681D01*
X624178161Y690032521D01*
X624240811Y690024321D01*
X624287170Y690012243D01*
X624290216Y690011029D01*
X624323848Y689992185D01*
X624335664Y689973115D01*
X624326414Y689954361D01*
X624296847Y689936463D01*
X624247711Y689919963D01*
X624179757Y689905404D01*
X624134445Y689898394D01*
X624040256Y689884911D01*
X623965344Y689872586D01*
X623906517Y689860351D01*
X623860585Y689847139D01*
X623824355Y689831883D01*
X623794638Y689813515D01*
X623768242Y689790969D01*
X623747030Y689768829D01*
X623721865Y689737981D01*
X623709481Y689711455D01*
X623705608Y689678774D01*
X623705467Y689666805D01*
X623708376Y689627088D01*
X623720002Y689597541D01*
X623740123Y689571314D01*
X623781016Y689531224D01*
X623826617Y689500651D01*
X623880313Y689478597D01*
X623945492Y689464065D01*
X624025544Y689456059D01*
X624123857Y689453582D01*
X624140089Y689453623D01*
X624205649Y689454982D01*
X624270666Y689458070D01*
X624328052Y689462444D01*
X624370722Y689467660D01*
X624374172Y689468259D01*
X624416596Y689478309D01*
X624452580Y689491004D01*
X624472950Y689502610D01*
X624491907Y689533228D01*
X624493227Y689568882D01*
X624476885Y689600656D01*
X624473229Y689604249D01*
X624458115Y689614924D01*
X624439215Y689619524D01*
X624409962Y689618741D01*
X624374451Y689614673D01*
X624334770Y689611038D01*
X624279145Y689607972D01*
X624214206Y689605747D01*
X624146585Y689604636D01*
X624128800Y689604563D01*
X624060928Y689604836D01*
X624011254Y689606154D01*
X623975410Y689608973D01*
X623949024Y689613750D01*
X623927726Y689620943D01*
X623914926Y689626933D01*
X623886800Y689643567D01*
X623868868Y689658632D01*
X623866247Y689662903D01*
X623871776Y689680537D01*
X623898060Y689697608D01*
X623943278Y689713342D01*
X624005608Y689726962D01*
X624023971Y689729996D01*
X624119890Y689745062D01*
X624196441Y689757654D01*
X624256580Y689768689D01*
X624303260Y689779080D01*
X624339437Y689789744D01*
X624368065Y689801595D01*
X624392098Y689815549D01*
X624414492Y689832519D01*
X624438202Y689853422D01*
X624446180Y689860751D01*
X624474153Y689888101D01*
X624488960Y689909771D01*
X624494752Y689934568D01*
X624495689Y689965817D01*
X624485375Y690027095D01*
X624454552Y690079160D01*
X624403395Y690121842D01*
X624332083Y690154975D01*
X624281200Y690169836D01*
X624225900Y690179434D01*
X624159653Y690184864D01*
X624086506Y690186433D01*
X624010503Y690184449D01*
G36*
X625031594Y690185654D02*
G01*
X624962186Y690185282D01*
X624909797Y690184415D01*
X624871647Y690182854D01*
X624844959Y690180397D01*
X624826953Y690176843D01*
X624814849Y690171990D01*
X624805869Y690165639D01*
X624802618Y690162716D01*
X624782843Y690131658D01*
X624779282Y690095972D01*
X624792291Y690064290D01*
X624798306Y690057887D01*
X624808035Y690051679D01*
X624823701Y690046890D01*
X624848208Y690043286D01*
X624884461Y690040636D01*
X624935365Y690038705D01*
X625003826Y690037261D01*
X625066417Y690036382D01*
X625314134Y690033333D01*
X625317519Y689968422D01*
X625320905Y689903511D01*
X625152758Y689903511D01*
X625079759Y689902881D01*
X625026317Y689900247D01*
X624989428Y689894491D01*
X624966088Y689884496D01*
X624953294Y689869144D01*
X624948042Y689847318D01*
X624947245Y689827062D01*
X624949723Y689802208D01*
X624959077Y689783894D01*
X624978183Y689771163D01*
X625009918Y689763059D01*
X625057159Y689758624D01*
X625122783Y689756901D01*
X625158601Y689756755D01*
X625319778Y689756755D01*
X625319778Y689598711D01*
X625071422Y689598711D01*
X624990013Y689598598D01*
X624928142Y689598088D01*
X624882768Y689596930D01*
X624850854Y689594870D01*
X624829359Y689591654D01*
X624815243Y689587028D01*
X624805468Y689580741D01*
X624800489Y689576133D01*
X624783410Y689549240D01*
X624777911Y689525333D01*
X624785763Y689496133D01*
X624800489Y689474533D01*
X624808346Y689467734D01*
X624818488Y689462454D01*
X624833644Y689458502D01*
X624856541Y689455687D01*
X624889909Y689453818D01*
X624936475Y689452702D01*
X624998967Y689452149D01*
X625080114Y689451967D01*
X625122222Y689451955D01*
X625212398Y689452035D01*
X625282724Y689452402D01*
X625335929Y689453248D01*
X625374740Y689454764D01*
X625401887Y689457141D01*
X625420098Y689460571D01*
X625432100Y689465246D01*
X625440622Y689471356D01*
X625443956Y689474533D01*
X625450555Y689482130D01*
X625455727Y689491930D01*
X625459646Y689506561D01*
X625462484Y689528648D01*
X625464415Y689560818D01*
X625465612Y689605697D01*
X625466248Y689665911D01*
X625466497Y689744087D01*
X625466534Y689816877D01*
X625466500Y689910093D01*
X625466265Y689983369D01*
X625465630Y690039342D01*
X625464394Y690080649D01*
X625462356Y690109928D01*
X625459317Y690129816D01*
X625455077Y690142950D01*
X625449435Y690151968D01*
X625442191Y690159507D01*
X625440406Y690161188D01*
X625431745Y690168628D01*
X625421682Y690174391D01*
X625407425Y690178688D01*
X625386183Y690181736D01*
X625355164Y690183749D01*
X625311577Y690184940D01*
X625252631Y690185525D01*
X625175534Y690185717D01*
X625120801Y690185733D01*
X625031594Y690185654D01*
G37*
X625031594Y690185654D02*
X624962186Y690185282D01*
X624909797Y690184415D01*
X624871647Y690182854D01*
X624844959Y690180397D01*
X624826953Y690176843D01*
X624814849Y690171990D01*
X624805869Y690165639D01*
X624802618Y690162716D01*
X624782843Y690131658D01*
X624779282Y690095972D01*
X624792291Y690064290D01*
X624798306Y690057887D01*
X624808035Y690051679D01*
X624823701Y690046890D01*
X624848208Y690043286D01*
X624884461Y690040636D01*
X624935365Y690038705D01*
X625003826Y690037261D01*
X625066417Y690036382D01*
X625314134Y690033333D01*
X625317519Y689968422D01*
X625320905Y689903511D01*
X625152758Y689903511D01*
X625079759Y689902881D01*
X625026317Y689900247D01*
X624989428Y689894491D01*
X624966088Y689884496D01*
X624953294Y689869144D01*
X624948042Y689847318D01*
X624947245Y689827062D01*
X624949723Y689802208D01*
X624959077Y689783894D01*
X624978183Y689771163D01*
X625009918Y689763059D01*
X625057159Y689758624D01*
X625122783Y689756901D01*
X625158601Y689756755D01*
X625319778Y689756755D01*
X625319778Y689598711D01*
X625071422Y689598711D01*
X624990013Y689598598D01*
X624928142Y689598088D01*
X624882768Y689596930D01*
X624850854Y689594870D01*
X624829359Y689591654D01*
X624815243Y689587028D01*
X624805468Y689580741D01*
X624800489Y689576133D01*
X624783410Y689549240D01*
X624777911Y689525333D01*
X624785763Y689496133D01*
X624800489Y689474533D01*
X624808346Y689467734D01*
X624818488Y689462454D01*
X624833644Y689458502D01*
X624856541Y689455687D01*
X624889909Y689453818D01*
X624936475Y689452702D01*
X624998967Y689452149D01*
X625080114Y689451967D01*
X625122222Y689451955D01*
X625212398Y689452035D01*
X625282724Y689452402D01*
X625335929Y689453248D01*
X625374740Y689454764D01*
X625401887Y689457141D01*
X625420098Y689460571D01*
X625432100Y689465246D01*
X625440622Y689471356D01*
X625443956Y689474533D01*
X625450555Y689482130D01*
X625455727Y689491930D01*
X625459646Y689506561D01*
X625462484Y689528648D01*
X625464415Y689560818D01*
X625465612Y689605697D01*
X625466248Y689665911D01*
X625466497Y689744087D01*
X625466534Y689816877D01*
X625466500Y689910093D01*
X625466265Y689983369D01*
X625465630Y690039342D01*
X625464394Y690080649D01*
X625462356Y690109928D01*
X625459317Y690129816D01*
X625455077Y690142950D01*
X625449435Y690151968D01*
X625442191Y690159507D01*
X625440406Y690161188D01*
X625431745Y690168628D01*
X625421682Y690174391D01*
X625407425Y690178688D01*
X625386183Y690181736D01*
X625355164Y690183749D01*
X625311577Y690184940D01*
X625252631Y690185525D01*
X625175534Y690185717D01*
X625120801Y690185733D01*
X625031594Y690185654D01*
G36*
X626440171Y690185734D02*
G01*
X626400689Y690185333D01*
X626285000Y690182541D01*
X626188111Y690174250D01*
X626106719Y690159568D01*
X626037523Y690137607D01*
X625977220Y690107478D01*
X625922508Y690068290D01*
X625902967Y690051268D01*
X625870550Y690011437D01*
X625841320Y689957387D01*
X625818791Y689897477D01*
X625806479Y689840061D01*
X625805200Y689818844D01*
X625813217Y689760031D01*
X625834699Y689695787D01*
X625865799Y689634979D01*
X625902666Y689586470D01*
X625908654Y689580618D01*
X625959379Y689539479D01*
X626014925Y689507365D01*
X626078496Y689483435D01*
X626153294Y689466847D01*
X626242522Y689456759D01*
X626349382Y689452331D01*
X626398328Y689451955D01*
X626460562Y689452255D01*
X626504328Y689453508D01*
X626533731Y689456246D01*
X626552879Y689460999D01*
X626565877Y689468299D01*
X626572845Y689474533D01*
X626579426Y689482106D01*
X626584588Y689491876D01*
X626588503Y689506460D01*
X626591343Y689528474D01*
X626593280Y689560536D01*
X626594484Y689605264D01*
X626595128Y689665274D01*
X626595383Y689743183D01*
X626595422Y689818844D01*
X626595670Y689919759D01*
X626595617Y690000373D01*
X626594657Y690038978D01*
X626448667Y690038978D01*
X626448667Y689598711D01*
X626355534Y689598796D01*
X626299493Y689600404D01*
X626240799Y689604544D01*
X626191828Y689610336D01*
X626190338Y689610574D01*
X626111192Y689629710D01*
X626049802Y689659513D01*
X626003105Y689701922D01*
X625973435Y689747839D01*
X625955153Y689798774D01*
X625956571Y689846600D01*
X625977788Y689897867D01*
X626019289Y689950901D01*
X626076798Y689990200D01*
X626151550Y690016469D01*
X626201508Y690025765D01*
X626258216Y690032293D01*
X626318319Y690037018D01*
X626369439Y690038983D01*
X626372467Y690038992D01*
X626448667Y690038978D01*
X626594657Y690038978D01*
X626594060Y690062949D01*
X626589798Y690109745D01*
X626581630Y690143022D01*
X626568356Y690165041D01*
X626548774Y690178061D01*
X626521683Y690184343D01*
X626485882Y690186147D01*
X626440171Y690185734D01*
G37*
X626440171Y690185734D02*
X626400689Y690185333D01*
X626285000Y690182541D01*
X626188111Y690174250D01*
X626106719Y690159568D01*
X626037523Y690137607D01*
X625977220Y690107478D01*
X625922508Y690068290D01*
X625902967Y690051268D01*
X625870550Y690011437D01*
X625841320Y689957387D01*
X625818791Y689897477D01*
X625806479Y689840061D01*
X625805200Y689818844D01*
X625813217Y689760031D01*
X625834699Y689695787D01*
X625865799Y689634979D01*
X625902666Y689586470D01*
X625908654Y689580618D01*
X625959379Y689539479D01*
X626014925Y689507365D01*
X626078496Y689483435D01*
X626153294Y689466847D01*
X626242522Y689456759D01*
X626349382Y689452331D01*
X626398328Y689451955D01*
X626460562Y689452255D01*
X626504328Y689453508D01*
X626533731Y689456246D01*
X626552879Y689460999D01*
X626565877Y689468299D01*
X626572845Y689474533D01*
X626579426Y689482106D01*
X626584588Y689491876D01*
X626588503Y689506460D01*
X626591343Y689528474D01*
X626593280Y689560536D01*
X626594484Y689605264D01*
X626595128Y689665274D01*
X626595383Y689743183D01*
X626595422Y689818844D01*
X626595670Y689919759D01*
X626595617Y690000373D01*
X626594657Y690038978D01*
X626448667Y690038978D01*
X626448667Y689598711D01*
X626355534Y689598796D01*
X626299493Y689600404D01*
X626240799Y689604544D01*
X626191828Y689610336D01*
X626190338Y689610574D01*
X626111192Y689629710D01*
X626049802Y689659513D01*
X626003105Y689701922D01*
X625973435Y689747839D01*
X625955153Y689798774D01*
X625956571Y689846600D01*
X625977788Y689897867D01*
X626019289Y689950901D01*
X626076798Y689990200D01*
X626151550Y690016469D01*
X626201508Y690025765D01*
X626258216Y690032293D01*
X626318319Y690037018D01*
X626369439Y690038983D01*
X626372467Y690038992D01*
X626448667Y690038978D01*
X626594657Y690038978D01*
X626594060Y690062949D01*
X626589798Y690109745D01*
X626581630Y690143022D01*
X626568356Y690165041D01*
X626548774Y690178061D01*
X626521683Y690184343D01*
X626485882Y690186147D01*
X626440171Y690185734D01*
G36*
X622591843Y695428229D02*
G01*
X622495568Y695403991D01*
X622408984Y695361159D01*
X622334173Y695301381D01*
X622273218Y695226306D01*
X622228199Y695137580D01*
X622201936Y695041270D01*
X622196086Y694944005D01*
X622210940Y694850146D01*
X622244640Y694762289D01*
X622295328Y694683030D01*
X622361145Y694614964D01*
X622440234Y694560688D01*
X622530734Y694522798D01*
X622582000Y694510374D01*
X622626498Y694502853D01*
X622660799Y694499881D01*
X622693760Y694501706D01*
X622734234Y694508575D01*
X622767331Y694515550D01*
X622860747Y694547059D01*
X622944419Y694598183D01*
X623016465Y694667371D01*
X623075000Y694753072D01*
X623088948Y694780311D01*
X623105386Y694816678D01*
X623115694Y694847218D01*
X623121260Y694879350D01*
X623123469Y694920493D01*
X623123748Y694966578D01*
X623119661Y695050935D01*
X623106246Y695120214D01*
X623081056Y695180839D01*
X623041646Y695239233D01*
X623003098Y695283498D01*
X622931206Y695349316D01*
X622856113Y695394747D01*
X622773362Y695421950D01*
X622695728Y695432224D01*
X622591843Y695428229D01*
G37*
X622591843Y695428229D02*
X622495568Y695403991D01*
X622408984Y695361159D01*
X622334173Y695301381D01*
X622273218Y695226306D01*
X622228199Y695137580D01*
X622201936Y695041270D01*
X622196086Y694944005D01*
X622210940Y694850146D01*
X622244640Y694762289D01*
X622295328Y694683030D01*
X622361145Y694614964D01*
X622440234Y694560688D01*
X622530734Y694522798D01*
X622582000Y694510374D01*
X622626498Y694502853D01*
X622660799Y694499881D01*
X622693760Y694501706D01*
X622734234Y694508575D01*
X622767331Y694515550D01*
X622860747Y694547059D01*
X622944419Y694598183D01*
X623016465Y694667371D01*
X623075000Y694753072D01*
X623088948Y694780311D01*
X623105386Y694816678D01*
X623115694Y694847218D01*
X623121260Y694879350D01*
X623123469Y694920493D01*
X623123748Y694966578D01*
X623119661Y695050935D01*
X623106246Y695120214D01*
X623081056Y695180839D01*
X623041646Y695239233D01*
X623003098Y695283498D01*
X622931206Y695349316D01*
X622856113Y695394747D01*
X622773362Y695421950D01*
X622695728Y695432224D01*
X622591843Y695428229D01*
G36*
X614132293Y692982555D02*
G01*
X614132274Y692748138D01*
X614132248Y692535197D01*
X614132175Y692342632D01*
X614132018Y692169341D01*
X614131736Y692014224D01*
X614131291Y691876180D01*
X614130644Y691754108D01*
X614129755Y691646906D01*
X614128587Y691553474D01*
X614127099Y691472710D01*
X614125254Y691403514D01*
X614123011Y691344785D01*
X614120331Y691295421D01*
X614117177Y691254322D01*
X614113508Y691220387D01*
X614109287Y691192514D01*
X614104473Y691169602D01*
X614099027Y691150551D01*
X614092912Y691134260D01*
X614086088Y691119627D01*
X614078515Y691105551D01*
X614070155Y691090932D01*
X614064961Y691081826D01*
X614030696Y691021111D01*
X614888845Y691021111D01*
X614888845Y691117067D01*
X614889576Y691160430D01*
X614891528Y691193595D01*
X614894337Y691211376D01*
X614895579Y691213022D01*
X614907001Y691206138D01*
X614929716Y691188295D01*
X614952415Y691168921D01*
X615007000Y691128186D01*
X615076479Y691087183D01*
X615153530Y691049677D01*
X615230835Y691019436D01*
X615261687Y691009788D01*
X615330184Y690995222D01*
X615413036Y690985261D01*
X615502429Y690980217D01*
X615590552Y690980404D01*
X615669593Y690986134D01*
X615707289Y690991942D01*
X615845386Y691030003D01*
X615972687Y691087727D01*
X616088508Y691164589D01*
X616192163Y691260061D01*
X616282967Y691373621D01*
X616349769Y691484419D01*
X616404636Y691601175D01*
X616446637Y691720524D01*
X616476633Y691846517D01*
X616495489Y691983206D01*
X616504068Y692134642D01*
X616504794Y692212089D01*
X616502700Y692268866D01*
X615673583Y692268866D01*
X615673376Y692175798D01*
X615670463Y692088108D01*
X615664800Y692011028D01*
X615656345Y691949791D01*
X615653762Y691937450D01*
X615621960Y691830167D01*
X615580302Y691743142D01*
X615528437Y691676158D01*
X615466019Y691628995D01*
X615392700Y691601435D01*
X615308131Y691593259D01*
X615211965Y691604249D01*
X615148489Y691619971D01*
X615099346Y691638161D01*
X615045217Y691664009D01*
X615004556Y691687711D01*
X614934000Y691734079D01*
X614934000Y692884270D01*
X615001408Y692927838D01*
X615079933Y692968760D01*
X615164119Y692995411D01*
X615249243Y693007335D01*
X615330584Y693004078D01*
X615403420Y692985185D01*
X615435374Y692969616D01*
X615493299Y692926619D01*
X615542256Y692869847D01*
X615583410Y692797225D01*
X615617926Y692706679D01*
X615646967Y692596134D01*
X615648248Y692590267D01*
X615658419Y692528012D01*
X615666061Y692450206D01*
X615671130Y692362080D01*
X615673583Y692268866D01*
X616502700Y692268866D01*
X616496943Y692424905D01*
X616474998Y692620741D01*
X616439014Y692799468D01*
X616389041Y692960955D01*
X616325132Y693105074D01*
X616247338Y693231694D01*
X616155711Y693340685D01*
X616050303Y693431917D01*
X616005138Y693462868D01*
X615904189Y693519015D01*
X615800899Y693558626D01*
X615690811Y693582786D01*
X615569470Y693592581D01*
X615476964Y693591535D01*
X615347310Y693580569D01*
X615234716Y693558754D01*
X615135925Y693525086D01*
X615047679Y693478564D01*
X614998814Y693444352D01*
X614969447Y693422438D01*
X614947757Y693407467D01*
X614939547Y693403067D01*
X614937932Y693413896D01*
X614936641Y693444549D01*
X614935662Y693492274D01*
X614934983Y693554321D01*
X614934590Y693627938D01*
X614934470Y693710373D01*
X614934612Y693798875D01*
X614935003Y693890693D01*
X614935629Y693983076D01*
X614936480Y694073272D01*
X614937540Y694158529D01*
X614938799Y694236097D01*
X614940244Y694303224D01*
X614941862Y694357159D01*
X614943639Y694395150D01*
X614944131Y694402133D01*
X614951708Y694472549D01*
X614963269Y694527698D01*
X614981008Y694574819D01*
X615007118Y694621153D01*
X615013385Y694630733D01*
X615037817Y694667422D01*
X614132489Y694667422D01*
X614132293Y692982555D01*
G37*
X614132293Y692982555D02*
X614132274Y692748138D01*
X614132248Y692535197D01*
X614132175Y692342632D01*
X614132018Y692169341D01*
X614131736Y692014224D01*
X614131291Y691876180D01*
X614130644Y691754108D01*
X614129755Y691646906D01*
X614128587Y691553474D01*
X614127099Y691472710D01*
X614125254Y691403514D01*
X614123011Y691344785D01*
X614120331Y691295421D01*
X614117177Y691254322D01*
X614113508Y691220387D01*
X614109287Y691192514D01*
X614104473Y691169602D01*
X614099027Y691150551D01*
X614092912Y691134260D01*
X614086088Y691119627D01*
X614078515Y691105551D01*
X614070155Y691090932D01*
X614064961Y691081826D01*
X614030696Y691021111D01*
X614888845Y691021111D01*
X614888845Y691117067D01*
X614889576Y691160430D01*
X614891528Y691193595D01*
X614894337Y691211376D01*
X614895579Y691213022D01*
X614907001Y691206138D01*
X614929716Y691188295D01*
X614952415Y691168921D01*
X615007000Y691128186D01*
X615076479Y691087183D01*
X615153530Y691049677D01*
X615230835Y691019436D01*
X615261687Y691009788D01*
X615330184Y690995222D01*
X615413036Y690985261D01*
X615502429Y690980217D01*
X615590552Y690980404D01*
X615669593Y690986134D01*
X615707289Y690991942D01*
X615845386Y691030003D01*
X615972687Y691087727D01*
X616088508Y691164589D01*
X616192163Y691260061D01*
X616282967Y691373621D01*
X616349769Y691484419D01*
X616404636Y691601175D01*
X616446637Y691720524D01*
X616476633Y691846517D01*
X616495489Y691983206D01*
X616504068Y692134642D01*
X616504794Y692212089D01*
X616502700Y692268866D01*
X615673583Y692268866D01*
X615673376Y692175798D01*
X615670463Y692088108D01*
X615664800Y692011028D01*
X615656345Y691949791D01*
X615653762Y691937450D01*
X615621960Y691830167D01*
X615580302Y691743142D01*
X615528437Y691676158D01*
X615466019Y691628995D01*
X615392700Y691601435D01*
X615308131Y691593259D01*
X615211965Y691604249D01*
X615148489Y691619971D01*
X615099346Y691638161D01*
X615045217Y691664009D01*
X615004556Y691687711D01*
X614934000Y691734079D01*
X614934000Y692884270D01*
X615001408Y692927838D01*
X615079933Y692968760D01*
X615164119Y692995411D01*
X615249243Y693007335D01*
X615330584Y693004078D01*
X615403420Y692985185D01*
X615435374Y692969616D01*
X615493299Y692926619D01*
X615542256Y692869847D01*
X615583410Y692797225D01*
X615617926Y692706679D01*
X615646967Y692596134D01*
X615648248Y692590267D01*
X615658419Y692528012D01*
X615666061Y692450206D01*
X615671130Y692362080D01*
X615673583Y692268866D01*
X616502700Y692268866D01*
X616496943Y692424905D01*
X616474998Y692620741D01*
X616439014Y692799468D01*
X616389041Y692960955D01*
X616325132Y693105074D01*
X616247338Y693231694D01*
X616155711Y693340685D01*
X616050303Y693431917D01*
X616005138Y693462868D01*
X615904189Y693519015D01*
X615800899Y693558626D01*
X615690811Y693582786D01*
X615569470Y693592581D01*
X615476964Y693591535D01*
X615347310Y693580569D01*
X615234716Y693558754D01*
X615135925Y693525086D01*
X615047679Y693478564D01*
X614998814Y693444352D01*
X614969447Y693422438D01*
X614947757Y693407467D01*
X614939547Y693403067D01*
X614937932Y693413896D01*
X614936641Y693444549D01*
X614935662Y693492274D01*
X614934983Y693554321D01*
X614934590Y693627938D01*
X614934470Y693710373D01*
X614934612Y693798875D01*
X614935003Y693890693D01*
X614935629Y693983076D01*
X614936480Y694073272D01*
X614937540Y694158529D01*
X614938799Y694236097D01*
X614940244Y694303224D01*
X614941862Y694357159D01*
X614943639Y694395150D01*
X614944131Y694402133D01*
X614951708Y694472549D01*
X614963269Y694527698D01*
X614981008Y694574819D01*
X615007118Y694621153D01*
X615013385Y694630733D01*
X615037817Y694667422D01*
X614132489Y694667422D01*
X614132293Y692982555D01*
G36*
X617645226Y693588248D02*
G01*
X617493308Y693568233D01*
X617358044Y693534598D01*
X617238561Y693487075D01*
X617133985Y693425395D01*
X617056376Y693361835D01*
X616987535Y693287701D01*
X616933794Y693207929D01*
X616890890Y693115709D01*
X616875416Y693072639D01*
X616862556Y693033658D01*
X616851354Y692997511D01*
X616841680Y692962366D01*
X616833404Y692926390D01*
X616826397Y692887750D01*
X616820528Y692844615D01*
X616815669Y692795151D01*
X616811690Y692737527D01*
X616808460Y692669909D01*
X616805851Y692590466D01*
X616803733Y692497364D01*
X616801976Y692388773D01*
X616800451Y692262858D01*
X616799028Y692117788D01*
X616797775Y691975022D01*
X616796449Y691818832D01*
X616795244Y691683561D01*
X616794034Y691567554D01*
X616792694Y691469155D01*
X616791100Y691386707D01*
X616789125Y691318554D01*
X616786644Y691263040D01*
X616783531Y691218508D01*
X616779662Y691183302D01*
X616774911Y691155766D01*
X616769152Y691134244D01*
X616762261Y691117078D01*
X616754111Y691102614D01*
X616744577Y691089194D01*
X616733534Y691075162D01*
X616729234Y691069729D01*
X616713414Y691046890D01*
X616706378Y691031337D01*
X616706356Y691030878D01*
X616717233Y691028679D01*
X616748218Y691026653D01*
X616796843Y691024858D01*
X616860637Y691023349D01*
X616937131Y691022184D01*
X617023856Y691021420D01*
X617118343Y691021114D01*
X617129250Y691021111D01*
X617552143Y691021111D01*
X617555405Y691117178D01*
X617558667Y691213244D01*
X617620756Y691162257D01*
X617718086Y691094743D01*
X617827987Y691040051D01*
X617914451Y691009822D01*
X617983522Y690995134D01*
X618066875Y690985141D01*
X618156641Y690980154D01*
X618244955Y690980487D01*
X618323949Y690986449D01*
X618360178Y690992162D01*
X618500197Y691030024D01*
X618626622Y691084868D01*
X618738540Y691155876D01*
X618835038Y691242232D01*
X618915200Y691343121D01*
X618978113Y691457724D01*
X619022488Y691583816D01*
X619034822Y691640399D01*
X619042432Y691702598D01*
X619046061Y691777437D01*
X619046555Y691811333D01*
X619046490Y691814518D01*
X618286552Y691814518D01*
X618277259Y691739467D01*
X618249072Y691675640D01*
X618200603Y691620002D01*
X618195546Y691615589D01*
X618147252Y691580763D01*
X618095543Y691558180D01*
X618034811Y691546260D01*
X617959448Y691543417D01*
X617941341Y691543822D01*
X617887522Y691546475D01*
X617847492Y691551891D01*
X617812476Y691562055D01*
X617773697Y691578950D01*
X617763055Y691584128D01*
X617702404Y691619956D01*
X617655585Y691662588D01*
X617642848Y691677827D01*
X617598178Y691734338D01*
X617598178Y691930214D01*
X617598714Y692008861D01*
X617600404Y692066812D01*
X617603372Y692105925D01*
X617607743Y692128059D01*
X617611828Y692134526D01*
X617627753Y692137689D01*
X617661536Y692140312D01*
X617708460Y692142145D01*
X617763807Y692142943D01*
X617772694Y692142958D01*
X617893470Y692137704D01*
X617996140Y692121537D01*
X618082694Y692093839D01*
X618155119Y692053992D01*
X618210049Y692007042D01*
X618254596Y691949155D01*
X618279320Y691886107D01*
X618286552Y691814518D01*
X619046490Y691814518D01*
X619044622Y691905088D01*
X619036278Y691983988D01*
X619020032Y692055210D01*
X618994395Y692125936D01*
X618970399Y692178307D01*
X618911780Y692273604D01*
X618833683Y692361630D01*
X618738485Y692440783D01*
X618628562Y692509460D01*
X618506290Y692566059D01*
X618374045Y692608979D01*
X618309378Y692623918D01*
X618173196Y692646023D01*
X618024751Y692660606D01*
X617873295Y692666987D01*
X617746736Y692665355D01*
X617584850Y692658576D01*
X617592270Y692717555D01*
X617611562Y692816708D01*
X617642696Y692897428D01*
X617686531Y692960334D01*
X617743929Y693006044D01*
X617815752Y693035178D01*
X617902859Y693048353D01*
X618006114Y693046189D01*
X618044089Y693042188D01*
X618185280Y693017020D01*
X618322093Y692975986D01*
X618416622Y692937985D01*
X618461782Y692918610D01*
X618500215Y692903040D01*
X618526566Y692893395D01*
X618534254Y692891348D01*
X618543998Y692900426D01*
X618560717Y692929395D01*
X618584568Y692978583D01*
X618615707Y693048316D01*
X618654293Y693138921D01*
X618660890Y693154711D01*
X618690947Y693227028D01*
X618717926Y693292375D01*
X618740664Y693347894D01*
X618757994Y693390728D01*
X618768752Y693418019D01*
X618771859Y693426858D01*
X618761860Y693431613D01*
X618735583Y693436890D01*
X618707311Y693440569D01*
X618677154Y693445326D01*
X618629367Y693454772D01*
X618568188Y693467980D01*
X618497854Y693484024D01*
X618422606Y693501980D01*
X618394045Y693509003D01*
X618288984Y693534591D01*
X618201320Y693554653D01*
X618126732Y693569831D01*
X618060897Y693580765D01*
X617999493Y693588096D01*
X617938198Y693592465D01*
X617872690Y693594513D01*
X617814672Y693594911D01*
X617645226Y693588248D01*
G37*
X617645226Y693588248D02*
X617493308Y693568233D01*
X617358044Y693534598D01*
X617238561Y693487075D01*
X617133985Y693425395D01*
X617056376Y693361835D01*
X616987535Y693287701D01*
X616933794Y693207929D01*
X616890890Y693115709D01*
X616875416Y693072639D01*
X616862556Y693033658D01*
X616851354Y692997511D01*
X616841680Y692962366D01*
X616833404Y692926390D01*
X616826397Y692887750D01*
X616820528Y692844615D01*
X616815669Y692795151D01*
X616811690Y692737527D01*
X616808460Y692669909D01*
X616805851Y692590466D01*
X616803733Y692497364D01*
X616801976Y692388773D01*
X616800451Y692262858D01*
X616799028Y692117788D01*
X616797775Y691975022D01*
X616796449Y691818832D01*
X616795244Y691683561D01*
X616794034Y691567554D01*
X616792694Y691469155D01*
X616791100Y691386707D01*
X616789125Y691318554D01*
X616786644Y691263040D01*
X616783531Y691218508D01*
X616779662Y691183302D01*
X616774911Y691155766D01*
X616769152Y691134244D01*
X616762261Y691117078D01*
X616754111Y691102614D01*
X616744577Y691089194D01*
X616733534Y691075162D01*
X616729234Y691069729D01*
X616713414Y691046890D01*
X616706378Y691031337D01*
X616706356Y691030878D01*
X616717233Y691028679D01*
X616748218Y691026653D01*
X616796843Y691024858D01*
X616860637Y691023349D01*
X616937131Y691022184D01*
X617023856Y691021420D01*
X617118343Y691021114D01*
X617129250Y691021111D01*
X617552143Y691021111D01*
X617555405Y691117178D01*
X617558667Y691213244D01*
X617620756Y691162257D01*
X617718086Y691094743D01*
X617827987Y691040051D01*
X617914451Y691009822D01*
X617983522Y690995134D01*
X618066875Y690985141D01*
X618156641Y690980154D01*
X618244955Y690980487D01*
X618323949Y690986449D01*
X618360178Y690992162D01*
X618500197Y691030024D01*
X618626622Y691084868D01*
X618738540Y691155876D01*
X618835038Y691242232D01*
X618915200Y691343121D01*
X618978113Y691457724D01*
X619022488Y691583816D01*
X619034822Y691640399D01*
X619042432Y691702598D01*
X619046061Y691777437D01*
X619046555Y691811333D01*
X619046490Y691814518D01*
X618286552Y691814518D01*
X618277259Y691739467D01*
X618249072Y691675640D01*
X618200603Y691620002D01*
X618195546Y691615589D01*
X618147252Y691580763D01*
X618095543Y691558180D01*
X618034811Y691546260D01*
X617959448Y691543417D01*
X617941341Y691543822D01*
X617887522Y691546475D01*
X617847492Y691551891D01*
X617812476Y691562055D01*
X617773697Y691578950D01*
X617763055Y691584128D01*
X617702404Y691619956D01*
X617655585Y691662588D01*
X617642848Y691677827D01*
X617598178Y691734338D01*
X617598178Y691930214D01*
X617598714Y692008861D01*
X617600404Y692066812D01*
X617603372Y692105925D01*
X617607743Y692128059D01*
X617611828Y692134526D01*
X617627753Y692137689D01*
X617661536Y692140312D01*
X617708460Y692142145D01*
X617763807Y692142943D01*
X617772694Y692142958D01*
X617893470Y692137704D01*
X617996140Y692121537D01*
X618082694Y692093839D01*
X618155119Y692053992D01*
X618210049Y692007042D01*
X618254596Y691949155D01*
X618279320Y691886107D01*
X618286552Y691814518D01*
X619046490Y691814518D01*
X619044622Y691905088D01*
X619036278Y691983988D01*
X619020032Y692055210D01*
X618994395Y692125936D01*
X618970399Y692178307D01*
X618911780Y692273604D01*
X618833683Y692361630D01*
X618738485Y692440783D01*
X618628562Y692509460D01*
X618506290Y692566059D01*
X618374045Y692608979D01*
X618309378Y692623918D01*
X618173196Y692646023D01*
X618024751Y692660606D01*
X617873295Y692666987D01*
X617746736Y692665355D01*
X617584850Y692658576D01*
X617592270Y692717555D01*
X617611562Y692816708D01*
X617642696Y692897428D01*
X617686531Y692960334D01*
X617743929Y693006044D01*
X617815752Y693035178D01*
X617902859Y693048353D01*
X618006114Y693046189D01*
X618044089Y693042188D01*
X618185280Y693017020D01*
X618322093Y692975986D01*
X618416622Y692937985D01*
X618461782Y692918610D01*
X618500215Y692903040D01*
X618526566Y692893395D01*
X618534254Y692891348D01*
X618543998Y692900426D01*
X618560717Y692929395D01*
X618584568Y692978583D01*
X618615707Y693048316D01*
X618654293Y693138921D01*
X618660890Y693154711D01*
X618690947Y693227028D01*
X618717926Y693292375D01*
X618740664Y693347894D01*
X618757994Y693390728D01*
X618768752Y693418019D01*
X618771859Y693426858D01*
X618761860Y693431613D01*
X618735583Y693436890D01*
X618707311Y693440569D01*
X618677154Y693445326D01*
X618629367Y693454772D01*
X618568188Y693467980D01*
X618497854Y693484024D01*
X618422606Y693501980D01*
X618394045Y693509003D01*
X618288984Y693534591D01*
X618201320Y693554653D01*
X618126732Y693569831D01*
X618060897Y693580765D01*
X617999493Y693588096D01*
X617938198Y693592465D01*
X617872690Y693594513D01*
X617814672Y693594911D01*
X617645226Y693588248D01*
G36*
X619990371Y694505729D02*
G01*
X619830230Y694484555D01*
X619666290Y694444415D01*
X619496487Y694384911D01*
X619318757Y694305646D01*
X619307490Y694300101D01*
X619249795Y694272075D01*
X619198248Y694247998D01*
X619156609Y694229551D01*
X619128638Y694218414D01*
X619119067Y694215867D01*
X619099850Y694210859D01*
X619095239Y694206653D01*
X619100342Y694196220D01*
X619116382Y694169932D01*
X619141512Y694130543D01*
X619173886Y694080809D01*
X619211657Y694023485D01*
X619252978Y693961324D01*
X619296002Y693897082D01*
X619338883Y693833515D01*
X619379774Y693773375D01*
X619416829Y693719420D01*
X619448200Y693674403D01*
X619472041Y693641079D01*
X619486506Y693622203D01*
X619488491Y693620013D01*
X619498609Y693624662D01*
X619520950Y693641838D01*
X619551520Y693668360D01*
X619567264Y693682836D01*
X619663753Y693758118D01*
X619770464Y693813559D01*
X619885968Y693848659D01*
X620008838Y693862920D01*
X620078239Y693861749D01*
X620199377Y693844588D01*
X620308595Y693808706D01*
X620406218Y693753841D01*
X620492572Y693679730D01*
X620567985Y693586112D01*
X620632782Y693472724D01*
X620670199Y693386133D01*
X620714052Y693250434D01*
X620746372Y693102950D01*
X620767243Y692947486D01*
X620776749Y692787844D01*
X620774973Y692627827D01*
X620761997Y692471239D01*
X620737906Y692321882D01*
X620702782Y692183560D01*
X620656708Y692060076D01*
X620640427Y692025822D01*
X620572180Y691911736D01*
X620491721Y691815243D01*
X620400230Y691737130D01*
X620298889Y691678183D01*
X620188880Y691639188D01*
X620071385Y691620932D01*
X620029917Y691619589D01*
X619908359Y691630510D01*
X619787922Y691663326D01*
X619670134Y691717361D01*
X619556523Y691791935D01*
X619465115Y691870261D01*
X619418585Y691914792D01*
X619237317Y691617529D01*
X619192220Y691543367D01*
X619150981Y691475154D01*
X619115065Y691415341D01*
X619085934Y691366380D01*
X619065050Y691330721D01*
X619053876Y691310816D01*
X619052425Y691307721D01*
X619060654Y691298082D01*
X619086233Y691280801D01*
X619125927Y691257517D01*
X619176503Y691229866D01*
X619234726Y691199485D01*
X619297363Y691168010D01*
X619361179Y691137078D01*
X619422940Y691108327D01*
X619479412Y691083392D01*
X619527362Y691063911D01*
X619550814Y691055482D01*
X619684579Y691017667D01*
X619822473Y690992664D01*
X619970178Y690979660D01*
X620096967Y690977332D01*
X620164922Y690978427D01*
X620230523Y690980525D01*
X620287953Y690983366D01*
X620331397Y690986694D01*
X620345502Y690988378D01*
X620484516Y691017213D01*
X620626043Y691062332D01*
X620763525Y691121050D01*
X620890406Y691190680D01*
X620967911Y691243359D01*
X621095319Y691351561D01*
X621213622Y691478129D01*
X621320628Y691619934D01*
X621414148Y691773849D01*
X621491990Y691936747D01*
X621535844Y692054044D01*
X621586092Y692237672D01*
X621619591Y692432219D01*
X621636351Y692633475D01*
X621636384Y692837232D01*
X621619699Y693039279D01*
X621586307Y693235408D01*
X621536220Y693421409D01*
X621532403Y693432997D01*
X621469519Y693595050D01*
X621392772Y693742968D01*
X621299558Y693880935D01*
X621187273Y694013139D01*
X621143408Y694058401D01*
X621007266Y694182343D01*
X620867309Y694284885D01*
X620721389Y694367144D01*
X620567358Y694430236D01*
X620403068Y694475277D01*
X620307511Y694492767D01*
X620148777Y694508334D01*
X619990371Y694505729D01*
G37*
X619990371Y694505729D02*
X619830230Y694484555D01*
X619666290Y694444415D01*
X619496487Y694384911D01*
X619318757Y694305646D01*
X619307490Y694300101D01*
X619249795Y694272075D01*
X619198248Y694247998D01*
X619156609Y694229551D01*
X619128638Y694218414D01*
X619119067Y694215867D01*
X619099850Y694210859D01*
X619095239Y694206653D01*
X619100342Y694196220D01*
X619116382Y694169932D01*
X619141512Y694130543D01*
X619173886Y694080809D01*
X619211657Y694023485D01*
X619252978Y693961324D01*
X619296002Y693897082D01*
X619338883Y693833515D01*
X619379774Y693773375D01*
X619416829Y693719420D01*
X619448200Y693674403D01*
X619472041Y693641079D01*
X619486506Y693622203D01*
X619488491Y693620013D01*
X619498609Y693624662D01*
X619520950Y693641838D01*
X619551520Y693668360D01*
X619567264Y693682836D01*
X619663753Y693758118D01*
X619770464Y693813559D01*
X619885968Y693848659D01*
X620008838Y693862920D01*
X620078239Y693861749D01*
X620199377Y693844588D01*
X620308595Y693808706D01*
X620406218Y693753841D01*
X620492572Y693679730D01*
X620567985Y693586112D01*
X620632782Y693472724D01*
X620670199Y693386133D01*
X620714052Y693250434D01*
X620746372Y693102950D01*
X620767243Y692947486D01*
X620776749Y692787844D01*
X620774973Y692627827D01*
X620761997Y692471239D01*
X620737906Y692321882D01*
X620702782Y692183560D01*
X620656708Y692060076D01*
X620640427Y692025822D01*
X620572180Y691911736D01*
X620491721Y691815243D01*
X620400230Y691737130D01*
X620298889Y691678183D01*
X620188880Y691639188D01*
X620071385Y691620932D01*
X620029917Y691619589D01*
X619908359Y691630510D01*
X619787922Y691663326D01*
X619670134Y691717361D01*
X619556523Y691791935D01*
X619465115Y691870261D01*
X619418585Y691914792D01*
X619237317Y691617529D01*
X619192220Y691543367D01*
X619150981Y691475154D01*
X619115065Y691415341D01*
X619085934Y691366380D01*
X619065050Y691330721D01*
X619053876Y691310816D01*
X619052425Y691307721D01*
X619060654Y691298082D01*
X619086233Y691280801D01*
X619125927Y691257517D01*
X619176503Y691229866D01*
X619234726Y691199485D01*
X619297363Y691168010D01*
X619361179Y691137078D01*
X619422940Y691108327D01*
X619479412Y691083392D01*
X619527362Y691063911D01*
X619550814Y691055482D01*
X619684579Y691017667D01*
X619822473Y690992664D01*
X619970178Y690979660D01*
X620096967Y690977332D01*
X620164922Y690978427D01*
X620230523Y690980525D01*
X620287953Y690983366D01*
X620331397Y690986694D01*
X620345502Y690988378D01*
X620484516Y691017213D01*
X620626043Y691062332D01*
X620763525Y691121050D01*
X620890406Y691190680D01*
X620967911Y691243359D01*
X621095319Y691351561D01*
X621213622Y691478129D01*
X621320628Y691619934D01*
X621414148Y691773849D01*
X621491990Y691936747D01*
X621535844Y692054044D01*
X621586092Y692237672D01*
X621619591Y692432219D01*
X621636351Y692633475D01*
X621636384Y692837232D01*
X621619699Y693039279D01*
X621586307Y693235408D01*
X621536220Y693421409D01*
X621532403Y693432997D01*
X621469519Y693595050D01*
X621392772Y693742968D01*
X621299558Y693880935D01*
X621187273Y694013139D01*
X621143408Y694058401D01*
X621007266Y694182343D01*
X620867309Y694284885D01*
X620721389Y694367144D01*
X620567358Y694430236D01*
X620403068Y694475277D01*
X620307511Y694492767D01*
X620148777Y694508334D01*
X619990371Y694505729D01*
G36*
X623265200Y694965746D02*
G01*
X623254335Y694851807D01*
X623222718Y694744184D01*
X623171815Y694645185D01*
X623103093Y694557116D01*
X623018019Y694482284D01*
X622921032Y694424416D01*
X622814764Y694384795D01*
X622707750Y694366227D01*
X622602100Y694367366D01*
X622499925Y694386870D01*
X622403334Y694423394D01*
X622314438Y694475595D01*
X622235346Y694542127D01*
X622168169Y694621648D01*
X622115017Y694712813D01*
X622077999Y694814277D01*
X622059227Y694924698D01*
X622057289Y694974594D01*
X622057289Y695062533D01*
X622005360Y695062533D01*
X621969053Y695059689D01*
X621942155Y695047889D01*
X621915049Y695024151D01*
X621876667Y694985769D01*
X621876667Y692794198D01*
X621876676Y692532061D01*
X621876708Y692291559D01*
X621876772Y692071752D01*
X621876876Y691871699D01*
X621877027Y691690456D01*
X621877234Y691527084D01*
X621877506Y691380640D01*
X621877850Y691250183D01*
X621878274Y691134771D01*
X621878787Y691033462D01*
X621879397Y690945316D01*
X621880112Y690869390D01*
X621880940Y690804743D01*
X621881889Y690750433D01*
X621882967Y690705520D01*
X621884183Y690669060D01*
X621885545Y690640113D01*
X621887061Y690617737D01*
X621888738Y690600991D01*
X621890586Y690588932D01*
X621892613Y690580620D01*
X621894825Y690575113D01*
X621895908Y690573263D01*
X621900071Y690566251D01*
X621903605Y690559804D01*
X621907435Y690553900D01*
X621912482Y690548514D01*
X621919671Y690543622D01*
X621929923Y690539202D01*
X621944164Y690535228D01*
X621963314Y690531679D01*
X621988299Y690528530D01*
X622020040Y690525758D01*
X622059462Y690523339D01*
X622107486Y690521249D01*
X622165037Y690519465D01*
X622233037Y690517963D01*
X622312410Y690516720D01*
X622404079Y690515711D01*
X622508966Y690514915D01*
X622627996Y690514306D01*
X622762090Y690513861D01*
X622912173Y690513557D01*
X623079167Y690513370D01*
X623263996Y690513276D01*
X623467583Y690513252D01*
X623690850Y690513275D01*
X623934722Y690513320D01*
X624200121Y690513363D01*
X624238504Y690513368D01*
X624505482Y690513411D01*
X624750802Y690513482D01*
X624975383Y690513587D01*
X625180145Y690513734D01*
X625366006Y690513931D01*
X625533888Y690514184D01*
X625684708Y690514500D01*
X625819387Y690514887D01*
X625938844Y690515353D01*
X626043999Y690515903D01*
X626135771Y690516547D01*
X626215079Y690517289D01*
X626282843Y690518139D01*
X626339982Y690519103D01*
X626387417Y690520189D01*
X626426066Y690521403D01*
X626456849Y690522753D01*
X626480685Y690524245D01*
X626498494Y690525889D01*
X626511195Y690527689D01*
X626519708Y690529655D01*
X626524066Y690531323D01*
X626532528Y690534894D01*
X626540297Y690537530D01*
X626547402Y690540166D01*
X626553873Y690543738D01*
X626559739Y690549179D01*
X626565029Y690557425D01*
X626569774Y690569410D01*
X626574002Y690586069D01*
X626577743Y690608337D01*
X626581027Y690637148D01*
X626583883Y690673437D01*
X626586340Y690718139D01*
X626588429Y690772189D01*
X626590178Y690836521D01*
X626591617Y690912070D01*
X626592776Y690999770D01*
X626593683Y691100557D01*
X626594369Y691215366D01*
X626594863Y691345130D01*
X626595195Y691490785D01*
X626595393Y691653265D01*
X626595487Y691833505D01*
X626595508Y692032440D01*
X626595485Y692251004D01*
X626595446Y692490132D01*
X626595422Y692750760D01*
X626595422Y692792911D01*
X626595436Y693055808D01*
X626595461Y693297068D01*
X626595471Y693517635D01*
X626595442Y693718448D01*
X626595348Y693900451D01*
X626595162Y694064584D01*
X626594859Y694211789D01*
X626594414Y694343008D01*
X626593834Y694452933D01*
X626290997Y694452933D01*
X626251207Y694395089D01*
X626240036Y694379321D01*
X626229966Y694365359D01*
X626220938Y694352016D01*
X626212897Y694338107D01*
X626205786Y694322444D01*
X626199547Y694303842D01*
X626194125Y694281114D01*
X626189462Y694253073D01*
X626185501Y694218533D01*
X626182185Y694176308D01*
X626179459Y694125211D01*
X626177264Y694064056D01*
X626175545Y693991656D01*
X626174244Y693906825D01*
X626173305Y693808378D01*
X626172670Y693695126D01*
X626172284Y693565884D01*
X626172088Y693419466D01*
X626172027Y693254684D01*
X626172043Y693070353D01*
X626172080Y692865287D01*
X626172089Y692742667D01*
X626172065Y692525718D01*
X626172031Y692330158D01*
X626172043Y692154801D01*
X626172158Y691998459D01*
X626172430Y691859943D01*
X626172918Y691738066D01*
X626173676Y691631640D01*
X626174762Y691539478D01*
X626176231Y691460391D01*
X626178140Y691393192D01*
X626180544Y691336693D01*
X626183501Y691289707D01*
X626187066Y691251045D01*
X626191295Y691219520D01*
X626196246Y691193945D01*
X626201973Y691173130D01*
X626208533Y691155889D01*
X626215983Y691141035D01*
X626224379Y691127378D01*
X626233776Y691113731D01*
X626244232Y691098907D01*
X626250323Y691090017D01*
X626289096Y691032400D01*
X625757532Y691032400D01*
X625634283Y691032435D01*
X625531787Y691032585D01*
X625448220Y691032922D01*
X625381756Y691033514D01*
X625330571Y691034433D01*
X625292841Y691035749D01*
X625266740Y691037531D01*
X625250444Y691039849D01*
X625242128Y691042774D01*
X625239968Y691046376D01*
X625242139Y691050725D01*
X625243335Y691052155D01*
X625268485Y691089227D01*
X625294383Y691142028D01*
X625317992Y691204030D01*
X625326261Y691230443D01*
X625330878Y691248384D01*
X625334779Y691269445D01*
X625338048Y691295711D01*
X625340766Y691329268D01*
X625343015Y691372201D01*
X625344877Y691426596D01*
X625346436Y691494538D01*
X625347772Y691578112D01*
X625348969Y691679405D01*
X625350108Y691800500D01*
X625350485Y691845200D01*
X625351502Y691970351D01*
X625352260Y692074718D01*
X625352703Y692160093D01*
X625352770Y692228267D01*
X625352405Y692281035D01*
X625351548Y692320186D01*
X625350141Y692347515D01*
X625348125Y692364814D01*
X625345443Y692373874D01*
X625342036Y692376488D01*
X625337844Y692374449D01*
X625333371Y692370133D01*
X625323016Y692357198D01*
X625300958Y692328124D01*
X625268757Y692285041D01*
X625227974Y692230082D01*
X625180170Y692165377D01*
X625126905Y692093058D01*
X625069740Y692015256D01*
X625010237Y691934102D01*
X624949955Y691851728D01*
X624890455Y691770264D01*
X624833298Y691691843D01*
X624780045Y691618596D01*
X624732257Y691552653D01*
X624691493Y691496146D01*
X624659316Y691451207D01*
X624637285Y691419966D01*
X624632717Y691413334D01*
X624609796Y691376431D01*
X624582988Y691328441D01*
X624557589Y691278903D01*
X624554368Y691272223D01*
X624532690Y691224028D01*
X624520104Y691186466D01*
X624514374Y691150640D01*
X624513256Y691108600D01*
X624513890Y691032400D01*
X623359451Y691032400D01*
X623450615Y691126131D01*
X623497412Y691176025D01*
X623547699Y691232505D01*
X623593744Y691286774D01*
X623614169Y691312127D01*
X623644607Y691351672D01*
X623684662Y691404884D01*
X623733161Y691470133D01*
X623788935Y691545789D01*
X623850811Y691630223D01*
X623917619Y691721806D01*
X623988187Y691818908D01*
X624061345Y691919899D01*
X624135921Y692023150D01*
X624210744Y692127032D01*
X624284643Y692229915D01*
X624356446Y692330169D01*
X624424984Y692426164D01*
X624489084Y692516273D01*
X624547575Y692598864D01*
X624599286Y692672308D01*
X624643047Y692734976D01*
X624677685Y692785239D01*
X624702030Y692821466D01*
X624714911Y692842029D01*
X624716669Y692846132D01*
X624708710Y692857458D01*
X624687915Y692884638D01*
X624655647Y692925971D01*
X624613270Y692979756D01*
X624562147Y693044294D01*
X624503641Y693117882D01*
X624439114Y693198822D01*
X624369931Y693285412D01*
X624297453Y693375952D01*
X624223046Y693468740D01*
X624163317Y693543098D01*
X623152311Y693543098D01*
X623146402Y693530141D01*
X623132072Y693507892D01*
X623131025Y693506409D01*
X623112238Y693476256D01*
X623092591Y693439425D01*
X623088692Y693431289D01*
X623085156Y693422860D01*
X623082030Y693412741D01*
X623079286Y693399540D01*
X623076892Y693381862D01*
X623074819Y693358316D01*
X623073035Y693327507D01*
X623071512Y693288043D01*
X623070219Y693238531D01*
X623069126Y693177577D01*
X623068203Y693103789D01*
X623067419Y693015772D01*
X623066745Y692912135D01*
X623066150Y692791484D01*
X623065605Y692652426D01*
X623065079Y692493568D01*
X623064545Y692314711D01*
X623064006Y692129593D01*
X623063572Y691965655D01*
X623063309Y691821497D01*
X623063284Y691695721D01*
X623063565Y691586929D01*
X623064219Y691493723D01*
X623065314Y691414703D01*
X623066918Y691348472D01*
X623069097Y691293630D01*
X623071919Y691248779D01*
X623075451Y691212522D01*
X623079761Y691183459D01*
X623084917Y691160191D01*
X623090985Y691141321D01*
X623098033Y691125449D01*
X623106129Y691111178D01*
X623115340Y691097109D01*
X623123840Y691084642D01*
X623140976Y691058348D01*
X623151122Y691040763D01*
X623152311Y691037543D01*
X623141404Y691036466D01*
X623110211Y691035465D01*
X623061023Y691034565D01*
X622996133Y691033790D01*
X622917830Y691033163D01*
X622828407Y691032709D01*
X622730156Y691032451D01*
X622661245Y691032400D01*
X622556252Y691032620D01*
X622459410Y691033252D01*
X622372907Y691034251D01*
X622298932Y691035573D01*
X622239674Y691037174D01*
X622197320Y691039009D01*
X622174060Y691041035D01*
X622170178Y691042307D01*
X622177876Y691057209D01*
X622185874Y691065240D01*
X622199046Y691082366D01*
X622216285Y691112617D01*
X622228207Y691137178D01*
X622254845Y691196089D01*
X622257920Y692372955D01*
X622260995Y693549822D01*
X622706653Y693549822D01*
X622804470Y693549658D01*
X622894864Y693549189D01*
X622975430Y693548453D01*
X623043762Y693547484D01*
X623097456Y693546320D01*
X623134105Y693544997D01*
X623151304Y693543551D01*
X623152311Y693543098D01*
X624163317Y693543098D01*
X624148070Y693562078D01*
X624073890Y693654263D01*
X624001869Y693743596D01*
X623933369Y693828376D01*
X623869755Y693906902D01*
X623812388Y693977474D01*
X623762633Y694038391D01*
X623721852Y694087953D01*
X623704688Y694108622D01*
X623618396Y694209284D01*
X623541797Y694292541D01*
X623472983Y694360362D01*
X623410048Y694414711D01*
X623400667Y694422078D01*
X623361156Y694452683D01*
X624492916Y694452933D01*
X624487627Y694404956D01*
X624490930Y694347612D01*
X624512461Y694279337D01*
X624552435Y694199588D01*
X624597743Y694127305D01*
X624613961Y694104660D01*
X624642014Y694067104D01*
X624680230Y694016779D01*
X624726937Y693955827D01*
X624780461Y693886389D01*
X624839131Y693810606D01*
X624901275Y693730620D01*
X624965221Y693648572D01*
X625029295Y693566604D01*
X625091827Y693486857D01*
X625151143Y693411473D01*
X625205571Y693342593D01*
X625253439Y693282358D01*
X625293075Y693232911D01*
X625322806Y693196392D01*
X625340961Y693174942D01*
X625344020Y693171644D01*
X625346879Y693179651D01*
X625349093Y693209945D01*
X625350657Y693262244D01*
X625351567Y693336269D01*
X625351820Y693431737D01*
X625351413Y693548366D01*
X625350504Y693668355D01*
X625349182Y693800467D01*
X625347657Y693912206D01*
X625345681Y694005775D01*
X625343006Y694083381D01*
X625339382Y694147226D01*
X625334561Y694199517D01*
X625328294Y694242456D01*
X625320332Y694278249D01*
X625310427Y694309100D01*
X625298331Y694337214D01*
X625283793Y694364795D01*
X625269111Y694389834D01*
X625231114Y694452933D01*
X626290997Y694452933D01*
X626593834Y694452933D01*
X626593801Y694459183D01*
X626592995Y694561256D01*
X626591970Y694650167D01*
X626590700Y694726859D01*
X626589160Y694792273D01*
X626587324Y694847351D01*
X626585167Y694893035D01*
X626582663Y694930266D01*
X626579787Y694959987D01*
X626576513Y694983138D01*
X626572815Y695000661D01*
X626568669Y695013499D01*
X626564047Y695022592D01*
X626558926Y695028882D01*
X626553278Y695033312D01*
X626547079Y695036822D01*
X626540304Y695040355D01*
X626534308Y695043924D01*
X626529075Y695046500D01*
X626520899Y695048828D01*
X626508686Y695050922D01*
X626491341Y695052793D01*
X626467769Y695054453D01*
X626436877Y695055916D01*
X626397568Y695057192D01*
X626348750Y695058296D01*
X626289327Y695059239D01*
X626218204Y695060033D01*
X626134288Y695060691D01*
X626036483Y695061225D01*
X625923694Y695061647D01*
X625794829Y695061971D01*
X625648791Y695062208D01*
X625484486Y695062370D01*
X625300820Y695062470D01*
X625096697Y695062520D01*
X624885553Y695062533D01*
X623265200Y695062533D01*
X623265200Y694965746D01*
G37*
X623265200Y694965746D02*
X623254335Y694851807D01*
X623222718Y694744184D01*
X623171815Y694645185D01*
X623103093Y694557116D01*
X623018019Y694482284D01*
X622921032Y694424416D01*
X622814764Y694384795D01*
X622707750Y694366227D01*
X622602100Y694367366D01*
X622499925Y694386870D01*
X622403334Y694423394D01*
X622314438Y694475595D01*
X622235346Y694542127D01*
X622168169Y694621648D01*
X622115017Y694712813D01*
X622077999Y694814277D01*
X622059227Y694924698D01*
X622057289Y694974594D01*
X622057289Y695062533D01*
X622005360Y695062533D01*
X621969053Y695059689D01*
X621942155Y695047889D01*
X621915049Y695024151D01*
X621876667Y694985769D01*
X621876667Y692794198D01*
X621876676Y692532061D01*
X621876708Y692291559D01*
X621876772Y692071752D01*
X621876876Y691871699D01*
X621877027Y691690456D01*
X621877234Y691527084D01*
X621877506Y691380640D01*
X621877850Y691250183D01*
X621878274Y691134771D01*
X621878787Y691033462D01*
X621879397Y690945316D01*
X621880112Y690869390D01*
X621880940Y690804743D01*
X621881889Y690750433D01*
X621882967Y690705520D01*
X621884183Y690669060D01*
X621885545Y690640113D01*
X621887061Y690617737D01*
X621888738Y690600991D01*
X621890586Y690588932D01*
X621892613Y690580620D01*
X621894825Y690575113D01*
X621895908Y690573263D01*
X621900071Y690566251D01*
X621903605Y690559804D01*
X621907435Y690553900D01*
X621912482Y690548514D01*
X621919671Y690543622D01*
X621929923Y690539202D01*
X621944164Y690535228D01*
X621963314Y690531679D01*
X621988299Y690528530D01*
X622020040Y690525758D01*
X622059462Y690523339D01*
X622107486Y690521249D01*
X622165037Y690519465D01*
X622233037Y690517963D01*
X622312410Y690516720D01*
X622404079Y690515711D01*
X622508966Y690514915D01*
X622627996Y690514306D01*
X622762090Y690513861D01*
X622912173Y690513557D01*
X623079167Y690513370D01*
X623263996Y690513276D01*
X623467583Y690513252D01*
X623690850Y690513275D01*
X623934722Y690513320D01*
X624200121Y690513363D01*
X624238504Y690513368D01*
X624505482Y690513411D01*
X624750802Y690513482D01*
X624975383Y690513587D01*
X625180145Y690513734D01*
X625366006Y690513931D01*
X625533888Y690514184D01*
X625684708Y690514500D01*
X625819387Y690514887D01*
X625938844Y690515353D01*
X626043999Y690515903D01*
X626135771Y690516547D01*
X626215079Y690517289D01*
X626282843Y690518139D01*
X626339982Y690519103D01*
X626387417Y690520189D01*
X626426066Y690521403D01*
X626456849Y690522753D01*
X626480685Y690524245D01*
X626498494Y690525889D01*
X626511195Y690527689D01*
X626519708Y690529655D01*
X626524066Y690531323D01*
X626532528Y690534894D01*
X626540297Y690537530D01*
X626547402Y690540166D01*
X626553873Y690543738D01*
X626559739Y690549179D01*
X626565029Y690557425D01*
X626569774Y690569410D01*
X626574002Y690586069D01*
X626577743Y690608337D01*
X626581027Y690637148D01*
X626583883Y690673437D01*
X626586340Y690718139D01*
X626588429Y690772189D01*
X626590178Y690836521D01*
X626591617Y690912070D01*
X626592776Y690999770D01*
X626593683Y691100557D01*
X626594369Y691215366D01*
X626594863Y691345130D01*
X626595195Y691490785D01*
X626595393Y691653265D01*
X626595487Y691833505D01*
X626595508Y692032440D01*
X626595485Y692251004D01*
X626595446Y692490132D01*
X626595422Y692750760D01*
X626595422Y692792911D01*
X626595436Y693055808D01*
X626595461Y693297068D01*
X626595471Y693517635D01*
X626595442Y693718448D01*
X626595348Y693900451D01*
X626595162Y694064584D01*
X626594859Y694211789D01*
X626594414Y694343008D01*
X626593834Y694452933D01*
X626290997Y694452933D01*
X626251207Y694395089D01*
X626240036Y694379321D01*
X626229966Y694365359D01*
X626220938Y694352016D01*
X626212897Y694338107D01*
X626205786Y694322444D01*
X626199547Y694303842D01*
X626194125Y694281114D01*
X626189462Y694253073D01*
X626185501Y694218533D01*
X626182185Y694176308D01*
X626179459Y694125211D01*
X626177264Y694064056D01*
X626175545Y693991656D01*
X626174244Y693906825D01*
X626173305Y693808378D01*
X626172670Y693695126D01*
X626172284Y693565884D01*
X626172088Y693419466D01*
X626172027Y693254684D01*
X626172043Y693070353D01*
X626172080Y692865287D01*
X626172089Y692742667D01*
X626172065Y692525718D01*
X626172031Y692330158D01*
X626172043Y692154801D01*
X626172158Y691998459D01*
X626172430Y691859943D01*
X626172918Y691738066D01*
X626173676Y691631640D01*
X626174762Y691539478D01*
X626176231Y691460391D01*
X626178140Y691393192D01*
X626180544Y691336693D01*
X626183501Y691289707D01*
X626187066Y691251045D01*
X626191295Y691219520D01*
X626196246Y691193945D01*
X626201973Y691173130D01*
X626208533Y691155889D01*
X626215983Y691141035D01*
X626224379Y691127378D01*
X626233776Y691113731D01*
X626244232Y691098907D01*
X626250323Y691090017D01*
X626289096Y691032400D01*
X625757532Y691032400D01*
X625634283Y691032435D01*
X625531787Y691032585D01*
X625448220Y691032922D01*
X625381756Y691033514D01*
X625330571Y691034433D01*
X625292841Y691035749D01*
X625266740Y691037531D01*
X625250444Y691039849D01*
X625242128Y691042774D01*
X625239968Y691046376D01*
X625242139Y691050725D01*
X625243335Y691052155D01*
X625268485Y691089227D01*
X625294383Y691142028D01*
X625317992Y691204030D01*
X625326261Y691230443D01*
X625330878Y691248384D01*
X625334779Y691269445D01*
X625338048Y691295711D01*
X625340766Y691329268D01*
X625343015Y691372201D01*
X625344877Y691426596D01*
X625346436Y691494538D01*
X625347772Y691578112D01*
X625348969Y691679405D01*
X625350108Y691800500D01*
X625350485Y691845200D01*
X625351502Y691970351D01*
X625352260Y692074718D01*
X625352703Y692160093D01*
X625352770Y692228267D01*
X625352405Y692281035D01*
X625351548Y692320186D01*
X625350141Y692347515D01*
X625348125Y692364814D01*
X625345443Y692373874D01*
X625342036Y692376488D01*
X625337844Y692374449D01*
X625333371Y692370133D01*
X625323016Y692357198D01*
X625300958Y692328124D01*
X625268757Y692285041D01*
X625227974Y692230082D01*
X625180170Y692165377D01*
X625126905Y692093058D01*
X625069740Y692015256D01*
X625010237Y691934102D01*
X624949955Y691851728D01*
X624890455Y691770264D01*
X624833298Y691691843D01*
X624780045Y691618596D01*
X624732257Y691552653D01*
X624691493Y691496146D01*
X624659316Y691451207D01*
X624637285Y691419966D01*
X624632717Y691413334D01*
X624609796Y691376431D01*
X624582988Y691328441D01*
X624557589Y691278903D01*
X624554368Y691272223D01*
X624532690Y691224028D01*
X624520104Y691186466D01*
X624514374Y691150640D01*
X624513256Y691108600D01*
X624513890Y691032400D01*
X623359451Y691032400D01*
X623450615Y691126131D01*
X623497412Y691176025D01*
X623547699Y691232505D01*
X623593744Y691286774D01*
X623614169Y691312127D01*
X623644607Y691351672D01*
X623684662Y691404884D01*
X623733161Y691470133D01*
X623788935Y691545789D01*
X623850811Y691630223D01*
X623917619Y691721806D01*
X623988187Y691818908D01*
X624061345Y691919899D01*
X624135921Y692023150D01*
X624210744Y692127032D01*
X624284643Y692229915D01*
X624356446Y692330169D01*
X624424984Y692426164D01*
X624489084Y692516273D01*
X624547575Y692598864D01*
X624599286Y692672308D01*
X624643047Y692734976D01*
X624677685Y692785239D01*
X624702030Y692821466D01*
X624714911Y692842029D01*
X624716669Y692846132D01*
X624708710Y692857458D01*
X624687915Y692884638D01*
X624655647Y692925971D01*
X624613270Y692979756D01*
X624562147Y693044294D01*
X624503641Y693117882D01*
X624439114Y693198822D01*
X624369931Y693285412D01*
X624297453Y693375952D01*
X624223046Y693468740D01*
X624163317Y693543098D01*
X623152311Y693543098D01*
X623146402Y693530141D01*
X623132072Y693507892D01*
X623131025Y693506409D01*
X623112238Y693476256D01*
X623092591Y693439425D01*
X623088692Y693431289D01*
X623085156Y693422860D01*
X623082030Y693412741D01*
X623079286Y693399540D01*
X623076892Y693381862D01*
X623074819Y693358316D01*
X623073035Y693327507D01*
X623071512Y693288043D01*
X623070219Y693238531D01*
X623069126Y693177577D01*
X623068203Y693103789D01*
X623067419Y693015772D01*
X623066745Y692912135D01*
X623066150Y692791484D01*
X623065605Y692652426D01*
X623065079Y692493568D01*
X623064545Y692314711D01*
X623064006Y692129593D01*
X623063572Y691965655D01*
X623063309Y691821497D01*
X623063284Y691695721D01*
X623063565Y691586929D01*
X623064219Y691493723D01*
X623065314Y691414703D01*
X623066918Y691348472D01*
X623069097Y691293630D01*
X623071919Y691248779D01*
X623075451Y691212522D01*
X623079761Y691183459D01*
X623084917Y691160191D01*
X623090985Y691141321D01*
X623098033Y691125449D01*
X623106129Y691111178D01*
X623115340Y691097109D01*
X623123840Y691084642D01*
X623140976Y691058348D01*
X623151122Y691040763D01*
X623152311Y691037543D01*
X623141404Y691036466D01*
X623110211Y691035465D01*
X623061023Y691034565D01*
X622996133Y691033790D01*
X622917830Y691033163D01*
X622828407Y691032709D01*
X622730156Y691032451D01*
X622661245Y691032400D01*
X622556252Y691032620D01*
X622459410Y691033252D01*
X622372907Y691034251D01*
X622298932Y691035573D01*
X622239674Y691037174D01*
X622197320Y691039009D01*
X622174060Y691041035D01*
X622170178Y691042307D01*
X622177876Y691057209D01*
X622185874Y691065240D01*
X622199046Y691082366D01*
X622216285Y691112617D01*
X622228207Y691137178D01*
X622254845Y691196089D01*
X622257920Y692372955D01*
X622260995Y693549822D01*
X622706653Y693549822D01*
X622804470Y693549658D01*
X622894864Y693549189D01*
X622975430Y693548453D01*
X623043762Y693547484D01*
X623097456Y693546320D01*
X623134105Y693544997D01*
X623151304Y693543551D01*
X623152311Y693543098D01*
X624163317Y693543098D01*
X624148070Y693562078D01*
X624073890Y693654263D01*
X624001869Y693743596D01*
X623933369Y693828376D01*
X623869755Y693906902D01*
X623812388Y693977474D01*
X623762633Y694038391D01*
X623721852Y694087953D01*
X623704688Y694108622D01*
X623618396Y694209284D01*
X623541797Y694292541D01*
X623472983Y694360362D01*
X623410048Y694414711D01*
X623400667Y694422078D01*
X623361156Y694452683D01*
X624492916Y694452933D01*
X624487627Y694404956D01*
X624490930Y694347612D01*
X624512461Y694279337D01*
X624552435Y694199588D01*
X624597743Y694127305D01*
X624613961Y694104660D01*
X624642014Y694067104D01*
X624680230Y694016779D01*
X624726937Y693955827D01*
X624780461Y693886389D01*
X624839131Y693810606D01*
X624901275Y693730620D01*
X624965221Y693648572D01*
X625029295Y693566604D01*
X625091827Y693486857D01*
X625151143Y693411473D01*
X625205571Y693342593D01*
X625253439Y693282358D01*
X625293075Y693232911D01*
X625322806Y693196392D01*
X625340961Y693174942D01*
X625344020Y693171644D01*
X625346879Y693179651D01*
X625349093Y693209945D01*
X625350657Y693262244D01*
X625351567Y693336269D01*
X625351820Y693431737D01*
X625351413Y693548366D01*
X625350504Y693668355D01*
X625349182Y693800467D01*
X625347657Y693912206D01*
X625345681Y694005775D01*
X625343006Y694083381D01*
X625339382Y694147226D01*
X625334561Y694199517D01*
X625328294Y694242456D01*
X625320332Y694278249D01*
X625310427Y694309100D01*
X625298331Y694337214D01*
X625283793Y694364795D01*
X625269111Y694389834D01*
X625231114Y694452933D01*
X626290997Y694452933D01*
X626593834Y694452933D01*
X626593801Y694459183D01*
X626592995Y694561256D01*
X626591970Y694650167D01*
X626590700Y694726859D01*
X626589160Y694792273D01*
X626587324Y694847351D01*
X626585167Y694893035D01*
X626582663Y694930266D01*
X626579787Y694959987D01*
X626576513Y694983138D01*
X626572815Y695000661D01*
X626568669Y695013499D01*
X626564047Y695022592D01*
X626558926Y695028882D01*
X626553278Y695033312D01*
X626547079Y695036822D01*
X626540304Y695040355D01*
X626534308Y695043924D01*
X626529075Y695046500D01*
X626520899Y695048828D01*
X626508686Y695050922D01*
X626491341Y695052793D01*
X626467769Y695054453D01*
X626436877Y695055916D01*
X626397568Y695057192D01*
X626348750Y695058296D01*
X626289327Y695059239D01*
X626218204Y695060033D01*
X626134288Y695060691D01*
X626036483Y695061225D01*
X625923694Y695061647D01*
X625794829Y695061971D01*
X625648791Y695062208D01*
X625484486Y695062370D01*
X625300820Y695062470D01*
X625096697Y695062520D01*
X624885553Y695062533D01*
X623265200Y695062533D01*
X623265200Y694965746D01*
D14*
X635646000Y686623252D02*
X635646000Y686100748D01*
X634226000Y686623252D02*
X634226000Y686100748D01*
X638989000Y686623252D02*
X638989000Y686100748D01*
X640409000Y686623252D02*
X640409000Y686100748D01*
X662380000Y686070252D02*
X662380000Y685547748D01*
X660960000Y686070252D02*
X660960000Y685547748D01*
D11*
X633643142Y686528666D02*
X633690761Y686576285D01*
X633738380Y686719142D01*
X633738380Y686814380D01*
X633690761Y686957238D01*
X633595523Y687052476D01*
X633500285Y687100095D01*
X633309809Y687147714D01*
X633166952Y687147714D01*
X632976476Y687100095D01*
X632881238Y687052476D01*
X632786000Y686957238D01*
X632738380Y686814380D01*
X632738380Y686719142D01*
X632786000Y686576285D01*
X632833619Y686528666D01*
X632833619Y686147714D02*
X632786000Y686100095D01*
X632738380Y686004857D01*
X632738380Y685766761D01*
X632786000Y685671523D01*
X632833619Y685623904D01*
X632928857Y685576285D01*
X633024095Y685576285D01*
X633166952Y685623904D01*
X633738380Y686195333D01*
X633738380Y685576285D01*
X638406142Y686528666D02*
X638453761Y686576285D01*
X638501380Y686719142D01*
X638501380Y686814380D01*
X638453761Y686957238D01*
X638358523Y687052476D01*
X638263285Y687100095D01*
X638072809Y687147714D01*
X637929952Y687147714D01*
X637739476Y687100095D01*
X637644238Y687052476D01*
X637549000Y686957238D01*
X637501380Y686814380D01*
X637501380Y686719142D01*
X637549000Y686576285D01*
X637596619Y686528666D01*
X637501380Y686195333D02*
X637501380Y685576285D01*
X637882333Y685909619D01*
X637882333Y685766761D01*
X637929952Y685671523D01*
X637977571Y685623904D01*
X638072809Y685576285D01*
X638310904Y685576285D01*
X638406142Y685623904D01*
X638453761Y685671523D01*
X638501380Y685766761D01*
X638501380Y686052476D01*
X638453761Y686147714D01*
X638406142Y686195333D01*
X660377142Y685975666D02*
X660424761Y686023285D01*
X660472380Y686166142D01*
X660472380Y686261380D01*
X660424761Y686404238D01*
X660329523Y686499476D01*
X660234285Y686547095D01*
X660043809Y686594714D01*
X659900952Y686594714D01*
X659710476Y686547095D01*
X659615238Y686499476D01*
X659520000Y686404238D01*
X659472380Y686261380D01*
X659472380Y686166142D01*
X659520000Y686023285D01*
X659567619Y685975666D01*
X659805714Y685118523D02*
X660472380Y685118523D01*
X659424761Y685356619D02*
X660139047Y685594714D01*
X660139047Y684975666D01*
M02*
